<svg xmlns="http://www.w3.org/2000/svg" viewBox="0 0 271.29 278.16"><title>hand</title><path d="M188.1 244.45c.53.93 1.33 1.1 2.22.3s1.93-2 2.9-3q2.95-2.92 6-5.77c-2.32 3.45-4.8 6.75-8.47 9a3 3 0 0 0 3.3-.9c2.16-2.24 4.52-4.3 6.33-6a25.83 25.83 0 0 1-6.5 7l.2.4c1-.38 2.05-.72 3.06-1.14 4.63-2 7.93-5.4 10.53-9.6q1.8-2.87 3.6-5.73a1.5 1.5 0 0 1 .77-.62c-3.73 7-7.35 14.16-15.27 17.7 3.9 2.82 5.4 7.08 7.3 11 2.05 4.27 3.77 8.7 5.77 13 .92 2 2.18 3.76 3.27 5.64.43.72.73 1.5-.12 2.1a1.2 1.2 0 0 1-2-.5c-.9-1.93-1.86-3.85-2.58-5.86-2.44-6.72-5.17-13.27-9.48-19.07-2-2.64-4.2-4.2-7.68-4.08a54.62 54.62 0 0 1-12.93-1.5 73.88 73.88 0 0 1-12.27-4.1c-3.94-1.55-7.9-3.07-11.8-4.7a122.2 122.2 0 0 1-12.53-6c-3.68-2.07-7.6-3.7-11.42-5.47-2.23-1-4.44-2.12-6.74-3-3.26-1.24-6.6-2.26-9.88-3.47s-6.72-2.57-10-4c-1.65-.7-3.15-1.74-4.83-2.3a6.64 6.64 0 0 0-3.14.07c-5.14.93-10.25 2-15.4 2.88-3.6.62-7.24 1.15-10.9 1.4a15.16 15.16 0 0 1-5.35-.78 5 5 0 0 1-3.16-3.8c-1.1-4.26-2-8.58-2.96-12.9a1.4 1.4 0 0 0-1.3-1.26c-4.67-1-9.2-2.32-12.75-5.84a8.57 8.57 0 0 0-2.42-1.5c-3.73-1.76-5.36-4.9-5.83-8.78a12.88 12.88 0 0 1 2-9.23 9.45 9.45 0 0 1 8-4.4c1.9 0 3.77.27 5.9.45a16.7 16.7 0 0 0-.77-3.24c-.2-.44-1.1-.67-1.72-.82a41.43 41.43 0 0 1-17.3-8.3q-3.52-2.9-7-5.85a9.08 9.08 0 0 1-3.2-6.9 31.1 31.1 0 0 1 1.85-13.06c1.1-2.72 2.77-5.13 5.83-5.8a11.5 11.5 0 0 1 5.17-.07 80.54 80.54 0 0 1 8 2.9l.74.27c-.26-1.36-.47-2.56-.76-3.73-.05-.2-.43-.4-.7-.46-4.23-1-8.53-1.66-12.67-2.92-5-1.52-9.52-3.9-11.25-9.44a10.27 10.27 0 0 1-.42-2.35A26.72 26.72 0 0 1 19 98.08c.8-2 2.45-3 4.2-4a14.24 14.24 0 0 1 9.07-1.35c-2.1-1-4.23-2-6.3-3-8.1-4.15-15.93-8.66-22.34-15.25C.86 71.63-.64 68.28.3 64.18a9.24 9.24 0 0 1 6-6.8c3.75-1.52 7.32-.63 10.8 1 3.92 1.83 7.85 3.6 11.78 5.4a7.3 7.3 0 0 0 .93.28c-.35-1.74-.7-3.36-1-5-1-4.56-1.9-9.12-2.9-13.67s-2.2-9.3-3.12-14c-.58-3-1.16-5.95-.3-9a9.26 9.26 0 0 1 5.4-6.1c2.78-1.28 5.8-1.67 8.77-2.17 1.77-.3 3.52-.68 5.28-1 3.8-.73 7.6-1.44 11.38-2.18 5.44-1.06 10.87-2.15 16.3-3.2 5.13-1 10.27-1.9 15.4-2.9 4.9-.92 9.77-1.9 14.66-2.84 3.52-.67 7-1.7 10.56-1.94 7.16-.5 11.4 1.62 14.7 7.9 2.27 4.37 3.38 9 4.52 13.74.85 3.5 1.26 7.1 1.88 10.66.4 2.32.84 4.63 1.24 6.95.12.68.15 1.36.25 2 .07.4.2.8.36 1.33a44.92 44.92 0 0 1 1.84-5.55c1.86-3.84 3.83-7.67 7.3-10.35a10.32 10.32 0 0 1 3.77-1.7c2.36-.6 4.24.65 5.34 3.14.84 1.9 1.83 3.7 2.58 5.62 1.17 3 2.2 6 3.3 9 1.24 3.42 2.32 7 5.2 9.47 1.24 1.1 2.54 2.08 3 3.8.1.4.5.7.78 1 1.33 1.62 2.67 3.23 4 4.85a2.85 2.85 0 0 1 .23.67c-.9-.1-1.67-.2-2.42-.26a1.58 1.58 0 0 0-.87.17 20.06 20.06 0 0 0-7.06 6.72 4.65 4.65 0 0 1-.68.73l-.4-.2a13 13 0 0 1 .66-1.67 20.35 20.35 0 0 1 6.47-7c.77-.52.53-1 .1-1.43-.6-.65-1.32-1.2-2-1.83a21.2 21.2 0 0 0-6.68 5.58 3.38 3.38 0 0 1-.9.55 3.54 3.54 0 0 1 .22-1 15.88 15.88 0 0 1 5.7-6.1c1-.6 1.13-1.32.45-2.16-1.06-1.33-2.2-2.6-3.25-3.9a5.74 5.74 0 0 1-1-1.57 2.62 2.62 0 0 0-2.52-2c-1.57-.18-2.1-1.8-2.56-3.15q-1.43-4-2.67-8c-.64-2.07-1.2-4.17-1.77-6.27-.06-.2 0-.47 0-.7-.1-.65.76-1.37-.18-1.93s-2.18-1.16-3.38-.58a12.44 12.44 0 0 0-2.86 1.82 25.15 25.15 0 0 0-2.35 2.78l1.22.88v.13l-1.3-.35c-5.7 6.35-7.2 20.1-3.2 29.62.9-.48 1.8-1 2.7-1.43s1.75-.86 2.63-1.28l.17.32-5.5 2.88a13.4 13.4 0 0 0 2.5 5.74c.5.65.88.63 1.46.18 1.74-1.35 3.5-2.7 5.3-4a14 14 0 0 1-6.2 5l4.5 5.37c.67-1.24 1.2-2.3 1.82-3.3a4.67 4.67 0 0 1 1.12-.87c0 .5.25 1.13 0 1.48a6.45 6.45 0 0 0-.67 5.94 47.2 47.2 0 0 0 2.25 5.73c2.42 4.53 5 9 7.56 13.44 1.4 2.44 3.68 3.73 6.23 4.66 1.63.6 2.15 1.68 1.15 3-1.28 1.73-.88 3.32-.28 5 .23.67.4 1.37.62 2.2a15.7 15.7 0 0 1 7.8-2.5l-8 3.1a27.26 27.26 0 0 1 .94 3.88 10 10 0 0 1-.37 3.12c-.85 3.64-1.88 7.25-2.58 10.92a14.28 14.28 0 0 0 .4 7.23 5 5 0 0 1 .07 1.3l-.43.17a5.54 5.54 0 0 1-.87-1.5c-.65-3.2-1.23-6.4-1.82-9.6a1.2 1.2 0 0 1 .18-.88l.7 2.66c1.07-2.32-.12-4.34-.56-6.46l-.34-.1c-.84 1.7-1.66 3.4-2.54 5.07-.16.3-.56.46-.85.7-.08-.36-.3-.75-.2-1a16.12 16.12 0 0 1 3.9-6.6c.73-.83 1.52-1.6 2.3-2.4 1.08-1.08 1.1-1.88.17-3-.67.18-1.3.28-1.9.5s-1 .53-.86 1.4a13.88 13.88 0 0 1 0 2.77h-.35V117c-2.22.72-1.3 2.52-1.7 4.14l-.28-2.1-.4-.12a7 7 0 0 0-.57 1.76 41.44 41.44 0 0 1-.3 4.8v-4.55l-.5-.06c-1 1.73.07 3.88-1 5.73v-4.3a8.92 8.92 0 0 1-1.1 1.4 5.44 5.44 0 0 1-1.27.57c0-.47-.13-1.07.1-1.4 1.17-1.64 2.44-3.2 3.68-4.8.73-.94 1.5-1.86 2.3-2.73-.22-.42-.8-.6-1.45 0-2 1.9-3.83 3.9-5.9 5.63a6.4 6.4 0 0 0-2.16 3.17 12.33 12.33 0 0 0-.26 2.28l.42.06 1.43-2.27c-.46 2.1-2 4-.85 6.48l1-1.5a18.9 18.9 0 0 0-.64 3 7.35 7.35 0 0 0 .58 2.9l1.64-3.7.2.08a23.3 23.3 0 0 1-1.2 4.14c-.7 1.44-.2 2.7 0 4l.34.1 1.16-2.93h.4c-1.23 3.54-1.67 7.08-.3 10.67l1.3-2.73c-.38 2.56-1.7 5-.63 7.73l2-5c-.46 3.78-2.6 7.3-.9 11.2l1.6-4.82c-.05 3.08-1.8 5.86-1 9a14.5 14.5 0 0 1 2.8-6.45c-.28 1-.57 1.95-.88 2.92-.45 1.44-.83 2.9-1.4 4.3a5.32 5.32 0 0 0 .17 3.7l2.1-6 .3.06c-.13.74-.2 1.5-.4 2.22-.53 1.87-1.2 3.7-1.63 5.6a13.37 13.37 0 0 0 0 2.93h.36l1.76-5.33.36.1c-.36 3.3-2.18 6.4-1.55 9.86l1.6-4.3.3.1c-.36 1.54-.83 3.08-1 4.65s-1.36 3-.32 4.62l1.7-4.63.33.1c-.38 1.44-.8 2.86-1.12 4.3s-.58 2.9-.87 4.37l.54.16 1.27-3.84h.27c-.2 1-.4 2.08-.6 3.13-.27 1.5-.58 3-.8 4.55a3.4 3.4 0 0 0 .33 1.23l.4.92a3.5 3.5 0 0 0 1-.65c.36-.46.56-1 .92-1.55l-.6 2.17c6.33.1 11.93 2.35 17.1 5.76.34.2.7.37 1 .55l-.44.55c-.88-.5-1.78-1-2.66-1.48a26.4 26.4 0 0 0-11.93-3.4c-1.43-.07-2.87 0-4.3-.08-.76 0-1.12.22-1.2.95-.62 5-3.95 7.38-8.42 8.48-4.3 1.06-8.6 2-12.95 2.8-5.28 1-10.57 2-15.87 2.92-3 .54-6 1-8.95 1.56-1.38.27-2.78.6-3.64 2a2 2 0 0 1-1.3.72l1.62-1.86c-2.16.36-4.36.37-6.47 1.8 2.6.93 4.9 1.77 7.2 2.54a3.54 3.54 0 0 0 1.32-.1c.06.2.07.57.2.6 2.1.74 4.23 1.47 6.38 2.1a1.53 1.53 0 0 0 1.22-.4c1-1 2-2.05 3-3.1l.32.3-3.15 3.62 1.8.62 3.87-4.4.3.22-3.45 4.54 2.34 1.23 2.73-3.2.3.2a15.53 15.53 0 0 1-1.78 2.53c-.8.77-.48 1.08.23 1.5a45.17 45.17 0 0 0 12 4.44c.12 0 .26 0 .35.06 1.73 1.1 2.67.14 3.58-1.25a17.35 17.35 0 0 1 1.93-2.12l.3.24-3.2 4a22 22 0 0 0 2.3.93 1.22 1.22 0 0 0 1-.34c.8-.75 1.5-1.57 2.26-2.36l.35.3-2.57 2.88c1.73.88 3.43 1.7 5.1 2.6 1 .55 2 1.26 3 1.8 3.9 2 7.86 4 11.78 6.05.7.36.93-.06 1.3-.42q2.84-2.78 5.7-5.56a8.53 8.53 0 0 1 .8-.6l.27.3-6.62 6.77a8.1 8.1 0 0 0 .9.43 11.47 11.47 0 0 1 2.5.8c2 1.25 3.22.08 4.5-1.13l5.65-5.35.28.24a44.76 44.76 0 0 1-3.3 3.83 52.93 52.93 0 0 1-4.3 3.32c1.25.24 2.33 1 3.63.42.63 1 3.15 1.54 4.06.67 2.4-2.27 4.7-4.62 7-7 1-1 1.93-2.2 3-3.38-.26 1.47-2.43 4.95-4 6.33-1.9 1.6-3.86 3.15-5.8 4.72 2.14.72 4.15-.37 6.22-.7l.1.4-2.5.88c2.43.7 4.75 1.2 5.87.17zM147.2 112.78v.76l1-.8c-.34 1.2-1.56 1.82-1.26 3.12l4.07-4.2c-1.13-1.08-1.4-1.07-2.5 0-.45.42-.95.77-1.43 1.16l1.74-2.52-3.34-2.22-.23.24 1.16 4.92zm7.32.87c-1-1.28-1.27-1.28-2.35-.06-.82.9-1.65 1.83-2.53 2.7-2.1 2.04-2.44 4-1.1 6.8l4.4-5.4-.23-.23-2.86 2.46a15.84 15.84 0 0 1 5.8-5.86v-.32zm-133.84 1.28a13.94 13.94 0 0 0 2.13 1.84 40.35 40.35 0 0 0 6.6 3.38c1.9.64 4 .56 6 .76a.7.7 0 0 0 .6-.3c.53-1.45 1-2.9 1.53-4.37l-.33-.2-3 3.46.16-.9a10.24 10.24 0 0 1-1.73 1.06c-.34.13-.82-.1-1.23-.15.08-.38 0-.9.27-1.13a16.76 16.76 0 0 1 1.82-1.33 15.17 15.17 0 0 0 5.58-6.8 12.6 12.6 0 0 0-.6-10.32c-3-5.86-11.12-7.87-16.2-3.28a5.66 5.66 0 0 0-2.1 3.9h3.4l.07.4a4.75 4.75 0 0 1-.86.33c-.75.14-1.52.17-2.24.38a1.23 1.23 0 0 0-.77.8c-.27 2.93-.5 5.88-.65 8.83a3.9 3.9 0 0 0 1.5 3.65zm-8.73-55.3c-.3-.3-.6-.78-.9-.8a8.86 8.86 0 0 0-6.83 2.25 7.42 7.42 0 0 0-1.74 9 25.85 25.85 0 0 0 6.12 6.67c.25.2 1 .1 1.35-.1 1-.56 1.93-1.24 2.9-1.87l.17.24-3.5 2.54c1.4 1 2.76 1.94 4.16 2.85a13.8 13.8 0 0 0 1.83.85 15.52 15.52 0 0 0 1.62 1.33c2.6 1.6 5.16 3.25 7.83 4.7 3.45 1.9 7 3.64 10.62 5.5a7.5 7.5 0 0 0 0-1.2c-.76-3.72-1.53-7.42-2.3-11.12-.68-3.28-1.25-6.58-2-9.82-.46-1.88-.16-4.24-2.73-5.1-1.47-.5-2.86-1.24-4.3-1.87.82 2 1.87 3.7 2 5.8a2.48 2.48 0 0 1-.6-.84c-.6-1.47-1.12-3-1.74-4.42a5.73 5.73 0 0 0-.93-1.17l-.33.25c.38.9.82 1.77 1.12 2.7s.46 1.86.75 3.06c-1-1.17-.7-3-2.5-3.17l-.1.76c-.64-.65-1.24-1.7-2.08-2a9.8 9.8 0 0 1-2.1-1.07c-.8-.46-1.63-.85-2.46-1.27l.1-.32 1.9.6a5.73 5.73 0 0 0-4.33-3.5c-.7-.15-.82.15-1 .6zm57 156.25c.87-.1 1.74-.2 2.6-.35 2.16-.37 4.3-.8 6.48-1.16 3.2-.55 6.37-1.06 9.55-1.62 3.65-.64 7.3-1.34 10.95-2 4.6-.8 9.2-1.55 13.78-2.36 3.5-.63 7-1.34 10.46-1.95 4.55-.8 9.12-1.53 13.67-2.3 4-.7 8-1.44 12-2.07a5.18 5.18 0 0 0 3.75-2.28 14.1 14.1 0 0 0 2.16-9.48c-.58-4.1-1.43-8.16-2.2-12.23-.63-3.38-1.34-6.73-2-10.1-.82-4.47-1.57-8.94-2.4-13.4-.6-3.42-1.3-6.82-1.9-10.23-.85-4.7-1.63-9.42-2.46-14.13-.6-3.4-1.28-6.8-1.88-10.23-.8-4.62-1.56-9.26-2.37-13.9-.63-3.52-1.33-7.04-1.94-10.58-.84-4.83-1.62-9.67-2.46-14.5-.6-3.5-1.27-7-1.87-10.48-.8-4.75-1.56-9.52-2.37-14.27-.62-3.65-1.33-7.3-1.95-10.95-.8-4.8-1.55-9.6-2.38-14.4-.6-3.5-1.32-7-1.93-10.46-.72-4.08-1.3-8.2-3-12-1.2-2.74-2.9-5.15-5.85-6.3-2.52-1-5.1-.6-7.67-.1-3.2.65-6.4 1.34-9.6 2-4.06.82-8.13 1.6-12.18 2.42-3 .6-6 1.3-9 1.92-4 .82-8 1.58-11.94 2.4-3 .6-5.9 1.3-8.87 1.9q-7.8 1.6-15.58 3.16c-2.2.44-4.4.74-6.56 1.26a29.2 29.2 0 0 0-5.55 1.73c-2.85 1.33-3.83 4-4.08 6.94-.32 4 .6 7.76 1.47 11.58s1.7 7.45 2.48 11.18c.85 4.05 1.6 8.12 2.44 12.18.6 2.93 1.27 5.84 1.88 8.76.85 4.1 1.66 8.2 2.5 12.3.62 3.07 1.17 6.17 1.93 9.22.53 2.13.68 4.42 2.1 6.28a13.34 13.34 0 0 1 2.2 12.74 2.82 2.82 0 0 0 0 1.3c.25 1.26.57 2.5.8 3.75.7 3.47 1.33 7 2 10.42.58 2.76 1.37 5.23 4.12 6.9a11.7 11.7 0 0 1 5.68 9.8 17.2 17.2 0 0 1-2.82 10.18 4.36 4.36 0 0 0-.34 3.43c.4 2 .84 4.05 1.28 6.07.64 2.92 1.26 5.84 2 8.74a1.85 1.85 0 0 0 .86 1.16 9.63 9.63 0 0 1 6.14 8.7c.26 3.12-1.16 5.6-2.6 8.14a2.4 2.4 0 0 0-.26 1.52c.56 2.8 1.18 5.6 1.8 8.4.94 4.28 1.9 8.55 2.83 12.83a5.72 5.72 0 0 0 6.08 4.47zm-24.38-53.72l.5-5.1c-6.5.45-10.6-3.7-15.1-7.05a3 3 0 0 1 1.6.53 30.92 30.92 0 0 0 8.18 4.23 8.5 8.5 0 0 0 9.93-3.34 12.93 12.93 0 0 0-2.44-18 35 35 0 0 0-9.1-4.75 13.2 13.2 0 0 0-6.63-1.15c-3.24.45-5.7 1.8-6.83 5.2a29.13 29.13 0 0 0-.87 12.67 9.43 9.43 0 0 0 3.6 6.6c1.3 1 2.48 2.22 3.85 3.14 2.8 1.88 5.7 3.63 8.63 5.48l.9-1.77c0 .38-.17.74-.1 1.05a1.62 1.62 0 0 0 .6 1.05c.96.42 2 .74 3.22 1.2zm93.5-93.7l-.22.1c0 .43 0 .86.1 1.28.47 2.55 1 5.1 1.43 7.63.86 4.78 1.68 9.57 2.57 14.35.8 4.26 1.62 8.5 2.46 12.76a1.17 1.17 0 0 0 .54.7c3.57 1.87 7.08 3.85 11 4.9 1.9.52 2.58.43 3.85-1.06 2-2.37 1.86-4.9-.4-7.08a10.24 10.24 0 0 1-1.33-1.52c-2.65-3.85-5.36-7.66-7.87-11.6-2.3-3.63-4.47-7.37-5.33-11.7a4.4 4.4 0 0 0-1-1.87c-1.4-1.6-2.9-3.12-4.3-4.72a21.45 21.45 0 0 1-1.57-2.18zm-84.8 128.37l.86-3.9.4.08-.8 4 3.66.94-1.5-6.44c-4.07.9-11.74-1.06-12.45-3.32.73.36 1.3.66 1.9.93 2.4 1.13 4.93.7 7.43.6.32 0 .7-.44.9-.77.58-1 1.07-2 1.6-3l.27.1-1.3 3.3c4-3.38 6.4-9.5 2.83-13.84a25.68 25.68 0 0 1 .55 3.43 23.35 23.35 0 0 1-.35 3.35h-.35a32.28 32.28 0 0 0 0-4.18c-.24-1.8-.34-3.64-2.25-4.78-3.26-1.94-6.63-2.9-10.38-1.87-2.47.68-4.68 1.8-5.43 4.48a39.9 39.9 0 0 0-1.4 7 6.47 6.47 0 0 0 2.34 5.52c3.88 3.48 8 6.8 13.44 8.37zm-5.32-39h.32a41.7 41.7 0 0 1-.58 4.22c-.35 1.47-.1 1.85 1.5 1.73a12.54 12.54 0 0 0-.74-8.14c-.83.37-1.67.7-2.47 1.12-.27.14-.62.48-.63.74-.06 1.62 0 3.24 0 5l1.65.7zm107.1-116.1c.08-.36.26-.7.17-.93-1.1-2.9-2.2-5.82-3.34-8.72-.24-.63-.55-1.23-.83-1.85l-.36.12c.28 1 .53 2.05.84 3.06 1.2 3.87 2.4 7.74 3.63 11.6.3.9 1.06 1.37 2.42 1.4-1.38-1.54-1-3.74-2.52-4.66zM39.77 120.4h-.2a11.43 11.43 0 0 1 .55-2.58c.72-1.55.27-2.9-.4-4.62a15.28 15.28 0 0 0-1.22 2.06c-.58 1.47-1 3-1.57 4.47a9.28 9.28 0 0 1-.74 1.32c1.13.24 1.28.1 1.54-.84.48-1.73 1-3.45 1.53-5.18l.45.12-1.76 6.27 3.7.8-.7-4.28h-.23zm119.07-8.05l-.25-.48.86 2.2h.3l.5-3 .2-.06.58 2.55.33-.12-.18-3.72zm-12.58 19.8c0 2.2.53 2.94 2.62 3.53-.1-2.8-.42-3.25-2.62-3.52zm4.5 15.27c0-2.53 0-2.64-2.4-3.54-.03 2.5.48 3 2.4 3.54zm-3.48-29.8l5.16-5.34c-1.42-.27-5.13 3.6-5.12 5.33zm-18.2-90.26c-.16-2.1-.72-2.73-2.65-3 .03 2.06.4 2.5 2.64 3zm32.5 98.27h.4v-4.7c-2.07 1.45-1.62 1.42-.38 4.7zm-32.2-95.24c0-2.25-.05-2.35-2.3-3-.16 1.84.13 2.23 2.32 3zM16.7 60.6c1.12 2.2 2 3.07 3.38 3.3-.53-2.1-1.3-2.88-3.38-3.3zm130.3 63.7c-.07-1.7-.78-2.44-2.6-2.77-.13 1.55.22 1.9 2.6 2.78zm5.64 43.38a2.14 2.14 0 0 0 1.9 2.93c.08-1.42-.25-2.6-1.9-2.92zm-3.55-20.32c-.28 1.78.43 2.58 2.33 2.74.2-1.7-1.26-2.02-2.33-2.74zm-2.16-12c-.13 1.77.22 2.2 2.4 3 .47-2.02-1.28-2.17-2.4-3.04zM126.08 21.44c-.43 1.7.42 2.35 2.3 2.6.1-1.57-1.14-1.96-2.3-2.6zm18.7 102.64c.15 1.78 1 2.53 2.6 2.62.14-1.84-1.34-2.04-2.6-2.62zm-13.75-83c.18-1.9 0-2.15-1.82-2.7-.14 2 .02 2.22 1.82 2.7zm-3.25-10.4c-.07 2 .15 2.25 2 2.4 0-1.56-.47-2.13-2-2.4zm23.1 128.1c0 1.6.52 2.15 2.26 2.7-.1-1.7-.36-2.05-2.26-2.7zm-5.1-29.76c-.12 1.92.37 2.44 2.08 2.42.45-1.7-1.08-1.73-2.08-2.42zm-11.1-60.37c.26 1.27.06 2.62 1.72 2.9.1-2.16-.06-2.47-1.72-2.9zM20.1 62.15c.85 1.16.85 2.74 2.44 3.17a2.86 2.86 0 0 0-2.44-3.17zm125.58 55.6c0-1.3-1-2.27-2.6-2.76-.1 1.8 1.52 1.9 2.6 2.75zm9.3 55.84c0-1.6-.4-2.1-2-2.6-.02 1.7.24 2.08 2 2.58zM127.7 21.45c-.1-1.8-.6-2.3-2-2.16-.15 1.34.1 1.65 2 2.16zm22.9 134.7c-.4 1.3.33 1.72 2.13 2.6 0-1.38 0-1.38-2.13-2.6zm-13.75-76.64c-.23 1.43.1 1.9 1.63 2.45.1-1.6-.2-2.02-1.63-2.44zm-6.67-43.77c0-1.76-.28-2.08-2-2.23 0 1.3.17 1.5 2 2.24zm5.4 36.15c-.48 1.2-.08 1.94 1.48 2.58a2.08 2.08 0 0 0-1.5-2.57zm18.36 104.26a2.08 2.08 0 0 0 1.54 2.4c.3-1.6-.05-2.13-1.54-2.4zm-.25-10.62c0-1.35-.63-2-2-2.2-.08 1.36.84 1.8 2 2.2zm-24-124.06c.18 1.8.42 2.08 1.78 2.2.1-1.25-.34-2.06-1.78-2.2zm18 87.46c-.12-1.5-1.34-1.63-2.57-2.16.32 1.64 1.6 1.73 2.6 2.16zm-5.07-16.43c.17 1.56 1.35 1.9 2.32 2.65.13-1.3-.43-1.9-2.3-2.64zm2 .48c-.08-1.85-1.5-2.2-2.4-3.3-.2 2.04 1.44 2.2 2.4 3.3zm-12.74-59.85c.2 1.22 0 2.42 1.6 2.77-.28-1.08-.02-2.3-1.6-2.77zm20.36 103.24c.12-1.92-1.36-1.73-2.13-2.62-.2 1.8 1.2 1.76 2.12 2.62zm3.53 24.8c.33-1.18 0-2-1.28-2.25-.2 1.6.04 2 1.3 2.25zM138.9 84.75c.06-1.42-.36-1.93-1.77-2.14a2.1 2.1 0 0 0 1.78 2.15zm-8.3-46.67c.18-1.75-1.18-1.65-2-2.3-.16 1.6.9 1.84 2 2.3zm19.23 113.76c-.08 1.23.65 1.9 2.12 2.05.08-1.5-1.3-1.38-2.12-2.08zm-2.17-11.93c.07 1.46 1.32 1.55 2.4 2.12-.06-1.7-1.54-1.57-2.4-2.13zm-4-22.46c.1 1.45 1.5 1.54 2.34 2.2 0-1.56-1.44-1.56-2.33-2.22zm-3.3-17.62a2.08 2.08 0 0 0 1.72 2.37c.05-1.4-.14-1.65-1.72-2.4zm-6.5-40.8c.06-1.72-.23-2.2-1.47-2.4.37.9-.02 2.1 1.48 2.38zm7.2 37.75a2.15 2.15 0 0 0-1.7-2.47c-.16 1.27.4 1.96 1.72 2.45zm7 45c-.14 1.1.86 1.9 2.35 1.9-.25-1.33-1.53-1.28-2.34-1.9zm7.08 42.66c.43 1.06 0 2.25 1.47 2.74-.1-1.1.32-2.27-1.47-2.73zM130.67 46.28c-.27 1.2.1 1.88 1.33 2 .34-1.2-.02-1.84-1.33-2zm-5.7-32.44c.2.92 0 2 1.32 2.55.04-1.22-.06-2.18-1.34-2.57zm10.36 54.4l.35-.25c0-1.44-.34-1.9-1.83-1.77zm4.1 19.54c0-1.33-.26-2.2-1.5-2.34-.5 1.35.58 1.64 1.5 2.33zm.76 4.32l.3-.3-1.62-1.8c-.25 1.37 0 1.7 1.3 2.08zm-.16 4.88c-.1 1.5.18 1.9 1.37 2.07.37-1.2-.52-1.52-1.37-2.07zm14.6 85.1l1.37 2.33c.36-1.83.15-2.23-1.35-2.32zm1.74 8l.5-.16a15.83 15.83 0 0 0-.16-1.76c0-.18-.35-.3-.54-.47-.12.16-.37.36-.34.5.14.7.36 1.32.55 1.95zm-9.1-51.95c.34 1.15 1.4 1.37 2.43 2-.27-1.46-1.62-1.36-2.4-1.93zm6.77 29.48c.1-1.6-1-1.6-1.87-2.1-.14 1.58 1.14 1.4 1.88 2.18zM125.6 18.4l1.34.32.27-.3-1.28-1.6-.3.23zm28.37 155.4c-.57 1.6.36 1.7 1.16 1.94l.34-.32zm-12.2-66.15c.12 1.5 1.48 1.5 2 2.27.18-1.44-1-1.63-2-2.27zm-10-61.82l.3-.33-1.53-1.36-.34.37c-.05 1.04.7 1.23 1.57 1.33zm30.64 76.1l.37.07.7-2.78c-1.42.7-1.28 1.68-1.1 2.7zm-36.7-109l-1.45-2.24-.28.18c.25.84.2 1.93 1.7 2zm10.68 64.15c-.14 1.2.36 1.72 1.4 1.87.35-1.2-.54-1.42-1.4-1.87zm13.25 73l-.3.36a2.9 2.9 0 0 0 2.13 1.34l.24-.35zm-14-74.82l1.7 1.52c.13-1.32-.23-1.7-1.66-1.48zm3.9 14.62l.55-.5-1.6-1.65-.48.43zm-7.22-39.4c.17-1.17.06-1.33-1.14-1.68-.14 1.18 0 1.37 1.15 1.68zm11.76 68.8c-.08 1 .67 1.62 2.2 1.65zm-1.1-13.1c0-1.58-.9-1.76-1.68-2.05l-.3.33zm-8.77-44.8l.35-.27-1.2-1.67c-.5 1.36.1 1.7.84 1.95zM239.84 169.77l1.45 9.4c1.64-2.15 2.33-3.9 1.3-6.52-1.15-2.95-1.84-6.08-2.8-9.1-1.05-3.3-2-6.63-3.38-9.78-.93-2.15-2.52-4-3.75-6-2.6-4.25-5.2-8.5-7.68-12.82-3.37-5.88-6.63-11.8-9.85-17.76-1.6-3-2.94-6.06-4.58-9-1.54-2.78-3.5-5.32-5-8.13-3.1-5.92-8.6-9.38-13.4-13.58a149.73 149.73 0 0 1-14-13.33c-1.45-1.66-3.05-3.2-4.5-4.88a8.08 8.08 0 0 1-.93-2.08l.43-.22a26.87 26.87 0 0 0 2.37 2.9c4.18 3.88 8.35 7.8 12.67 11.54 4.82 4.17 9.84 8.1 14.64 12.27a35.8 35.8 0 0 1 5 5.56 24 24 0 0 1 2.06 4.22c.8 1.67 1.56 3.36 2.4 5 2.27 4.45 4.48 8.93 6.9 13.3 2.65 4.8 5.46 9.53 8.3 14.23 3.27 5.42 6.82 10.67 9.9 16.2a31.8 31.8 0 0 1 2.62 8 62.3 62.3 0 0 0 6.68 17.6c2.2 3.7 4.13 7.58 6.22 11.36 2.5 4.5 5.1 8.93 7.53 13.46 2 3.66 3.7 7.42 5.52 11.14 1.1 2.25 2.2 4.5 3.24 6.77.7 1.55 1.25 3.17 1.9 4.74.3.7.3 1.27-.44 1.57a1.25 1.25 0 0 1-1.74-.8c-.75-1.8-1.42-3.62-2.18-5.4-1.77-4.16-3.5-8.34-5.4-12.44s-4-8.4-6.17-12.53c-1.18-2.27-2.6-4.43-3.92-6.7-1.32 2.24-2.47 4.33-3.76 6.34-2 3.13-5 5.16-8.1 7.1-3.25 2-6.48 4.08-9.72 6.13-.24.15-.5.28-.76.42l-.2-.3c1.54-1.1 3-2.25 4.6-3.34 3.07-2.16 6.32-4.1 9.17-6.5 3.24-2.74 5.5-6.38 7.54-10.1a1.93 1.93 0 0 0-.16-1.6c-1.83-3-3.73-6-5.63-9-.78 1.22-1.6 2.5-2.4 3.76a18.43 18.43 0 0 1-6 5.63c-.26.14-.66 0-1 .05a2.93 2.93 0 0 1 .43-.95c1.66-1.58 3.4-3.07 5-4.72a2.63 2.63 0 0 0 .36-1.94c-.44-3-1-6-1.5-9.05zM205.6 209.08c.3.25.48.33.5.44 1.27 4.92 1.24 9.6-1.72 14.1a79.12 79.12 0 0 1-11.1 14.12 47.32 47.32 0 0 1-4 3.3c-.24.18-.73.05-1.1.07.13-.34.16-.82.4-1a88.7 88.7 0 0 0 12.2-12.96 56.1 56.1 0 0 0 4.53-7.1c1.63-3 1.1-6.1.38-9.2a6.2 6.2 0 0 1-.17-.83 6.84 6.84 0 0 1 .1-.92zM193.28 195.37c1.3.8 2.6 1.66 3.94 2.38a20 20 0 0 0 8.26 2.1c4.78.32 9.54.08 13.9-2.1a48 48 0 0 0 5.67-3.85c.55-.4 1-.9 1.6-1.25.27-.17.7-.08 1.06-.1-.07.38 0 .93-.26 1.14-1 .84-2.06 1.6-3.1 2.36a20.35 20.35 0 0 1-8 3.7 44.5 44.5 0 0 1-9 .75 20.8 20.8 0 0 1-9.63-2c-1.57-.84-3.1-1.8-4.64-2.7zM176.77 168.5c-5.54-4.93-8.76-11.25-10.84-18.22l.35-.18a102.15 102.15 0 0 0 4.34 9.66 104.8 104.8 0 0 0 6.15 8.74zM235.92 157.96l-11.1 7.54-.26-.4a56.25 56.25 0 0 1 11-7.74zM174.27 242.37c2.28-2.17 4.54-4.35 6.83-6.5.83-.76 1.73-1.46 2.74-2.3 0 .33.1.5 0 .6a29.9 29.9 0 0 1-9.4 8.23c-.05 0-.15 0-.23 0zM227 142.9a23 23 0 0 1-9.74 6.62l9.53-6.83zM225.5 269.86c-1.26 2.2-7.37 6.14-9.76 6.34zM215.95 267.66l7.53-8.22c-1.06 3.88-4.1 6.17-7.53 8.22zM213.45 264.37l7-8.67c-1.68 3.38-3.44 6.54-7 8.67zM232.1 150a35.87 35.87 0 0 1-8.83 6.67l-.2-.26 8.76-6.74zM225.9 160.08l7.48-6.52.4.47-7.4 6.55zM217.83 251.03c-.73 3.6-3 5.9-5.7 7.86zM168.94 94.56a9.5 9.5 0 0 1-9.64 1c1.58 0 3.18.12 4.75 0s3.08-.63 4.9-1zM223.77 140.35a35.18 35.18 0 0 1-8.15 5.9l-.24-.32 8.16-5.9zM225.57 265.56c-.25 1.73-4.95 5.47-7.43 5.93zM252.83 204.3l.73-10.47h.62l-.77 10.48zM221.82 136.08a31.58 31.58 0 0 1-8.3 5.66l-.18-.26 8.24-5.7zM231.57 212.18c1.7-2.66 4-4.63 7.14-5zM242.88 185l1.65 9.43c-1.07-1.27-2.17-7.74-1.65-9.42zM235.15 177.25l-.75 8.34h-.54l.6-8.36zM167.6 90.22c-2.25 2.43-7 3.37-8.64 1.87a15.75 15.75 0 0 0 8.65-1.88zM181.88 186.52l-5.32 7-.3-.22a29.46 29.46 0 0 1 5.26-7zM194.86 103.8l8.28-3 .2.5-8.28 3.1zM215.4 127.7c-2.22 3-4.95 5.17-7 5.75zM229.55 170.82l6.94-5.7.34.42-6.9 5.76zM215.1 247.45c.07 2-2.38 6-4.53 7.17zM211.28 138.27l7.13-5.7c-1.3 2.34-5.02 5.3-7.12 5.7zM237.48 180.78v-8.6c.82 2.66.26 5.65.44 8.6zM231.48 172.7l6.63-5.15.2.25a16.8 16.8 0 0 1-6.82 4.9zM174.26 233.5a18 18 0 0 1-6 6l-.23-.24zM163.64 87.6a6.5 6.5 0 0 1-8.2.44 11.55 11.55 0 0 0 8.2-.44zM229.28 147.3l-6.88 5.26c.72-1.48 4.9-4.84 6.88-5.27zM148.77 65a16.44 16.44 0 0 1-6.1 6.08zM225.02 187.23a17.25 17.25 0 0 1-2.7 7.6l-.33-.14zM233.3 213.95a11.78 11.78 0 0 1 6.74-4.83zM251.7 201.84a21.7 21.7 0 0 1-.3-8.78h.3zM152.92 84.7l8.1-1.76.1.47-8.06 1.8zM188.13 244.47l5.6-5.2.36.4c-1.74 1.58-3.46 3.18-5.2 4.74-.16.15-.52 0-.8 0zM235.26 164.25l-6.44 4.15-.3-.48 6.4-4.13zM234.77 161.35l-6 4.6-.3-.4 6-4.64zM208.35 251.47l4.88-6.15.34.27-4.8 6.25zM165.08 122.63l6.67-4.26.27.42-6.68 4.28zM184.63 190.53l-5.67 5a16.6 16.6 0 0 1 5.47-5.24zM212.85 124.66l-5.58 3.7-.28-.42 5.5-3.8zM157.77 227.66a9.9 9.9 0 0 1-5 4.8zM231.67 180.97l-1.24 6.7-.5-.1 1.25-6.7zM158.14 235.77l5.5-5.06a12.32 12.32 0 0 1-5.5 5.07zM161.5 236.37l5-4.72.3.33-4.93 4.82zM255.52 197.7v7.85h-.3v-7.87zM182.14 80.08l-5.82 3-.23-.44 5.78-3.05zM199.3 108.9c2.3.56 4.3-.27 6.32-1.5-.47 1.68-3.97 2.5-6.33 1.5zM165.9 114.3a7.84 7.84 0 0 1 6.08-2.5zM160.14 63.96l4.8-4.24.33.4-4.83 4.2zM238.25 198.56l-1.22-6.2.48-.1 1.22 6.2zM228.77 183.78l-1.2 6.08-.5-.1 1.22-6.04zM240.15 189.08l1.47 6.53-.48.12-1.37-6.5zM166.77 117.8a9 9 0 0 1 6.3-2.36zM257.95 209.5c-.67-1-1.08-4.55-.66-6.94.13 1.14.3 2.27.4 3.4s.17 2.37.25 3.55zM248.34 222.08l-4.74 3.37c.24-1.47 2.68-3.3 4.74-3.37zM203.33 121.17l4.62-4.1.3.35-4.6 4.15zM188.04 194.66L184.3 199l-.25-.24c1.18-1.57 2.15-3.35 4-4.1zM145.12 61c-1.28 1.67-2.52 3.4-4.94 4zM172.77 65.38c-1.57.57-2-.6-2.7-1.3l1.17-.9zM244.77 184.6l1.5 6.35-.42.1-1.5-6.3zM211.3 120.08l-4.95 4-.3-.35 4.96-4zM233.66 201.54l-.35-6.06h.4l.4 6zM155.9 232.86l4.6-4.14.28.3-4.6 4.2zM134.6 219.08l-3.9 4.34-.34-.3 3.9-4.37zM187.48 191.17l-4.26 3.72-.3-.36 4.25-3.7zM209.25 242.96a6.73 6.73 0 0 1-3.3 4.6zM201.2 97.98l-4.76 3-.22-.35 4.75-3zM248.57 230.53l3.43-2.77.33.4-3.4 2.77zM241.3 211.9l-4 2.23a4.3 4.3 0 0 1 4-2.22zM245.77 218.74l-3.7 2a3.8 3.8 0 0 1 3.7-2zM185.56 89.55l4.26-1.9.14.3-4.22 2zM243.7 215.08l-3.46 2a3.65 3.65 0 0 1 3.45-2zM165.63 70.26l3.6-2.5.25.34-3.55 2.5zM250.57 224.47l-3.46 2.55c.25-1.1 1.84-2.35 3.47-2.55zM214.67 193.15l-2.6 3.93-.34-.22 2.6-3.94zM110.6 215.87c0-.22-.1-.52 0-.64.8-1 1.67-1.9 2.52-2.83l.33.3-2.9 3.15zM165.1 68.57l3.48-2.23.2.32-3.37 2.32zM139.37 221.72l-2.36 3.46-.35-.24 2.36-3.45zM131.14 218.35l-3.37 3.3-.4-.37 3.46-3.23zM158.77 191.3l1.28-4.25.54.2-1.85 4zM157.3 81.2h-4.6v-.3h4.7zM114.77 216.26l2.73-3 .25.22-2.62 3.1zM165.25 107.73l4.1-1.56.15.4-4.12 1.5zM197.64 97.3l-3.37 1.9-.17-.28 3.33-2zM140.77 56.28l-3.73 1.45-.1-.28 3.7-1.58zM225.95 205.34l-.37-3.56h.3l.5 3.55zM259.43 207.8l.85 3.86-.36.07-.75-3.9zM206.3 195.5l2.26-2.36.25.24-2.23 2.42zM261.2 212.5l.77 3.28-.26.07-.93-3.24zM140.77 166.4c.14 2.37-.45 3-2.86 3.3-1.6.22-3.2.65-4.8 1l-10.5 2.2-17.55 3.6c-5.15 1.07-10.28 2.18-15.43 3.2q-7.38 1.5-14.78 2.85c-2 .37-4.1.6-6.16.8a2.58 2.58 0 0 1-2.8-2.13c-1.07-4.32-2.16-8.64-3.13-13-1.16-5.16-2.23-10.35-3.3-15.53-1-4.8-1.92-9.6-2.86-14.4-.9-4.5-1.72-9-2.6-13.5-1-5.3-2.15-10.62-3.18-15.93-.63-3.28-1.13-6.58-1.77-9.86-.8-4.13-1.74-8.24-2.55-12.38-.9-4.6-1.7-9.24-2.6-13.86-1-5.36-2.12-10.7-3.17-16.05-.58-2.92-1.13-5.85-1.7-8.78-.53-2.75 0-4.64 1.9-5.5a24.33 24.33 0 0 1 4.84-1.56c3.5-.77 7-1.4 10.55-2.07 3.3-.63 6.58-1.18 9.87-1.82 5.54-1.08 11.08-2.23 16.63-3.3S94 31.47 99.6 30.45c3.6-.66 7.23-1.23 10.86-1.74 3.07-.44 5.3.66 6.5 3.46a24 24 0 0 1 1 5q1.43 7.87 2.86 15.75 1.47 8.05 2.95 16.15c1 5.45 1.94 10.9 2.92 16.35 1 5.8 2.12 11.6 3.16 17.4 1 5.42 1.92 10.83 2.88 16.24s1.95 11 2.9 16.48c.87 5 1.7 10.06 2.55 15.1.8 4.74 1.66 9.5 2.48 14.24a14.1 14.1 0 0 1 .1 1.5zm-2.17-.73h.06c-.08-.8-.13-1.6-.25-2.38q-.58-3.8-1.2-7.57c-.8-4.8-1.58-9.6-2.4-14.38-.6-3.46-1.3-6.9-1.92-10.35-.83-4.67-1.6-9.34-2.45-14-.6-3.37-1.28-6.73-1.88-10.1-.82-4.64-1.6-9.28-2.42-13.9-.6-3.46-1.3-6.9-1.9-10.36-.82-4.6-1.58-9.2-2.4-13.78-.6-3.5-1.3-7-1.92-10.46-.8-4.63-1.58-9.27-2.38-13.9-.66-3.8-1.3-7.62-2-11.42a3.1 3.1 0 0 0-1-1.66c-1.64-1.37-3.64-1.32-5.6-1-3.45.58-6.9 1.25-10.32 1.92-3.13.62-6.24 1.32-9.36 1.94-4.18.83-8.37 1.6-12.54 2.44-3 .6-5.92 1.27-8.9 1.87-5 1-10.06 2-15.1 3-3.15.65-6.3 1.4-9.43 2.1-2 .48-3.06 1.67-2.82 3.47.32 2.4.7 4.8 1.17 7.2.56 2.84 1.27 5.66 1.86 8.5.8 3.83 1.53 7.66 2.33 11.48.65 3 1.38 6.06 2 9.1 1.12 5.38 2.16 10.77 3.26 16.16.57 2.8 1.22 5.6 1.8 8.4.84 4.1 1.62 8.2 2.46 12.3.6 2.93 1.26 5.84 1.85 8.76.87 4.25 1.68 8.52 2.55 12.77.57 2.8 1.2 5.6 1.78 8.42.84 4.13 1.65 8.28 2.48 12.4.63 3.17 1.23 6.34 1.93 9.5.62 2.75 1.37 5.47 2 8.22.23.94.8 1.05 1.6.9 4.34-.8 8.7-1.6 13-2.43 3.17-.6 6.32-1.32 9.5-1.94 4.13-.8 8.3-1.54 12.43-2.35 3.17-.62 6.32-1.33 9.48-1.95 4.1-.8 8.23-1.53 12.34-2.3 3.72-.7 7.43-1.45 11.15-2.13.8-.15 1.22-.5 1.2-1.34-.05-.37-.04-.75-.04-1.17zM120.72 192.96a4.33 4.33 0 0 1-3.42 4.74c-3.55 1-7.17 1.8-10.8 2.5a26.2 26.2 0 0 1-5.8.37 3.3 3.3 0 0 1-2.26-1.25 12.34 12.34 0 0 1-2.1-7.58c.08-2.25 1.2-3.45 3.4-4 3.75-.94 7.47-2 11.24-2.73a19.64 19.64 0 0 1 5.7-.12c1.74.18 2.53 1.74 3 3.2a42.72 42.72 0 0 1 1.04 4.88zm-7-6c-1 .2-2.9.5-4.75.93-2.75.6-5.5 1.23-8.22 2-2.12.57-2.9 1.5-2.6 3.7.14 1.2.58 2.4.74 3.6a2.77 2.77 0 0 0 3.07 2.48 27.4 27.4 0 0 0 3.06-.44c3.67-.7 7.35-1.33 11-2.18a3.77 3.77 0 0 0 3-4.77c-.13-.6-.15-1.2-.25-1.8-.46-2.67-1.5-3.55-5.08-3.55zM78.77 23.52a3.2 3.2 0 0 1-3.3 3.06 3.1 3.1 0 1 1-.1-6.2 3.36 3.36 0 0 1 3.4 3.14zM146.12 159.46c.77 6.63 2.7 13.08 2.82 19.8l-.43.06-3-19.75zM62.36 192.5l3.17 13.68c-1.53-1.2-4.16-11.75-3.17-13.7zM120.28 14.52c-.23-.22-.55-.4-.67-.67-.67-1.47-1.23-3-2-4.44a6.3 6.3 0 0 0-3.92-3.54 11.25 11.25 0 0 1-1.16-.47 4.26 4.26 0 0 1 3.8 1.2c1.76 1.56 2.6 3.66 3.44 5.75.27.65.47 1.32.7 2zM147.1 199.4a17.75 17.75 0 0 0 2.14-3.23 21.8 21.8 0 0 0 .8-4.14c1.57 1.46-.4 6.55-2.93 7.37zM33.64 20.47c-4.63.8-5.1 4.45-5.5 8.45-.7-1.56.08-5 1.25-6.6a4.58 4.58 0 0 1 4.24-1.85zM71.22 210.4c-1.72.57-3.9-.67-3.82-1.9zM29.64 43.9l-1-5.2.56-.12 1 5.2zM122.38 23.17l1 5.3c-.45-.12-1.37-3.85-1-5.3zM149.84 189.08l-.56-4.43.47-.06.5 4.42zM28.12 35.08l-.54-3 .48-.1.53 3.08zM32.66 146.36l4.8 2.9.42-.26c-.17-.72-.33-1.44-.52-2.16-1.1-4.23 0-8.08 3.9-10.23.45-.24 1.14-.83 1.45 0 .12.32-.4 1.1-.8 1.32a6.2 6.2 0 0 0-3.42 5.12c-.1 1.38.12 2.8.1 4.18a20.86 20.86 0 0 1-.27 2.4 10.78 10.78 0 0 1-2.38-.65c-1.23-.66-2.36-1.5-3.53-2.3zM31.36 145.4c-1.18-5-.14-9.5 2.65-9.48a22.84 22.84 0 0 0-2.1 4.52 22.64 22.64 0 0 0-.07 5zM48.77 150.24l-3.6-6.85a12.45 12.45 0 0 1 3.6 6.84zM42.03 135.8l-6-1.4c1.42-.62 4.84.2 6 1.4zM44.4 145.95l2.2 5.34-.44.17-2.2-5.4zM50.2 146l-3.32-5a8 8 0 0 1 3.3 5zM48.13 138.08a6 6 0 0 1 3.2 4.44zM30.95 74.5c.25 5.38-.94 9-4.26 10.34a38.64 38.64 0 0 0 2.7-4.74 43.68 43.68 0 0 0 1.55-5.6zM27.25 68.96l-.4-3.44c1.3 1.1.53 3.67 2.88 4.17l-.13.27-1.18-.13v2.12zM11.92 59.62c.16 0 .34-.08.46 0 1.27.64 3.55 4.3 3.67 6-1-1.55-1.87-2.94-2.78-4.3-.4-.6-.9-1.15-1.35-1.72zM15.5 81.25c1.3-.85 2.62-1.7 3.92-2.55a8.42 8.42 0 0 1 .93-.64c-1.25 1.62-2.5 3.26-4.86 3.2zM30.24 85.52l2-4.9c-.15 1.96-.47 3.58-2 4.9zM19.77 82.35l3.3-2.15.2.3-3.22 2.2zM20.66 114.93c.28-1 1-.64 1.64-.54l3.3.52c-.36-1-.6-1.63-.8-2.26-1-3.5.2-6.48 2.22-9.24.52-.7 1.3-1.34 0-2-.1-.05 0-.43 0-.66 1.86.36 2.32 1.06 1.4 2.5a14 14 0 0 0-1.83 9.3c0 .33 0 .65 0 1 0 1.7-.92 2.45-2.6 2.1-1.14-.23-2.27-.44-3.4-.67zM36.3 101.87c3 2.17 2.15 8.75-1.47 11.6 1.6-3.7 3.5-7.4 1.47-11.6zM34.4 106.45c.08 2.32.05 4.3-1.4 5.88zM27.2 96.4l-2.53 1.63-.18-.28 2.5-1.68zM42.5 182.43l2.4 2.06.4-.22c0-.44 0-.88 0-1.3a10.46 10.46 0 0 1 2.3-7.77c.24-.3.8-.34 1.2-.5-.06.4 0 .92-.22 1.22a12.18 12.18 0 0 0-2 6.84c0 .8.22 2.05-.9 2.16a4.3 4.3 0 0 1-2.4-1c-.43-.3-.64-.93-1-1.42zM53.27 173.44l.4 4.9h-.34l-.53-4.93zM55.42 174.72l.7 4.27-.35.08-.83-4.25zM50.25 173.22v4.57h-.22v-4.58zM52.07 177.27v-4.2l.4 4.18zM154.5 113.65l-5.73 5.1a10.8 10.8 0 0 1 4.54-4.9 4.2 4.2 0 0 1 1.2-.2zM103.54 74.4l-2 2.2a10.77 10.77 0 0 0 1.4.46 2.14 2.14 0 0 1 2 2.2c.08.62.18 1.25.3 2l-2.28.5c.32.54.5 1.13.87 1.4a10.77 10.77 0 0 1 4.6 5.26c.44 1.2 1.07 2.3 1.48 3.5s.67 2.46 1 3.76c2.5 0 4.5 1.36 6.52 2.57a2.4 2.4 0 0 1 .6 3.2 12 12 0 0 1-3.28 3 24.3 24.3 0 0 1-12.18 3 4.82 4.82 0 0 0-3 .93c-.16.1-.42.22-.46.37-.4 1.85-2.23 2.1-3.45 3a1.6 1.6 0 0 1-1.13.06c-2-.4-3.92-.9-5.9-1.27a2.42 2.42 0 0 0-1.72.32c-1.3 1-2.8.9-4.27.95-.68 0-1.4.08-1.48 1a.38.38 0 0 1-.2.28c-1.57.38-3.16 1.1-4.72 1a51.5 51.5 0 0 1-8.12-1.2c-2.2-.47-4.36-1.24-6.82-2 .2-.8.37-1.62.66-2.4a6.22 6.22 0 0 1 1-2 2.73 2.73 0 0 1 1.6-.78c.7-.1 1.12-.2 1.33-1 .14-.55.8-.94 1.1-1.48a8.5 8.5 0 0 0 .54-1.67 2.48 2.48 0 0 1 2.52-2.1c.77 0 1-.45 1.23-1.16 1.2-4.15 3.43-7.3 7.9-8.5 3.74-1 7.43-2.18 11.12-3.33a1.24 1.24 0 0 0 .64-.9 5.74 5.74 0 0 0-.16-1.53c-.32-2-.62-2.33-2.65-2.53a.86.86 0 0 0-.65.16c-1.53 1.76-3.7 1.63-5.72 2-.38.07-.9.26-1 .55-.48 1-.82.67-1.17 0-.7.28-1.35.55-2 .78-.06 0-.22-.22-.33-.35v-.06l2.3-1.7c.87-.86 1.7-1.78 2.63-2.55A3.92 3.92 0 0 1 85 79.04l-1 2.06c1.9.4 2.24.2 2.83-1.54.94-2.8 1.32-3.17 4.23-4.16.08 0 .16 0 .23-.05l3.15-1.47-1.77-.68a3 3 0 0 1 1.84.5 3.4 3.4 0 0 0 2.66.82 7.93 7.93 0 0 1 2.94.2c1 .32 1.36-.08 1.44-.9a12.65 12.65 0 0 0-.12-2.07h.33v3.33zm-2.7 10.5l-.85-1-.66 1.42c-2.54 0-3.6.38-4 1.92a9.16 9.16 0 0 1 1.75-.46 3.5 3.5 0 0 1 1.2.38c-.37.2-.93.3-1 .6-.5 1.18-.8 2.44-1.25 3.63a1 1 0 0 0 .45 1.37l-1.1-.2.67-3.12h-.18l1.32-2.2c-2.83.27-3.67 1.18-4.4 4.62-.05.28.23.64.35.94-1.4.16-1.52.35-1.7 2.95 1.2-.23 2.46.12 3.35-.82.8.85 1.84.56 2.7.6.8-1.44.54-2.36-1-2.74 0 0 0-.07-.07-.1l1.73.23c0-.9 1.52-2-.35-2.88 1.4.34 1.84-.1 1.9-1.74 1-.15 1-.74.68-1.5l.84.16a2.9 2.9 0 0 0 0-.77c-.1-.47-.28-.9-.43-1.36l1.07 1.87.43-.08-.4-3c-1.13-.03-1.3.46-1.07 1.28zm-26 18.92h-2.65a8.25 8.25 0 0 0 1.25.57c1.4.3 2.8.53 4.2.9 1 .28 1.78.45 2.1-.9a9 9 0 0 1-1.25 0c-1.24-.18-2.47-.4-3.7-.58h4.85v-.52zm33.34-13.15l-1.12.62c.43 1.34.86 2.74 1.34 4.1.1.27.42.44.65.66l.26-.25a12.68 12.68 0 0 0-.35-1.85 2 2 0 0 1 0-2.1c.18-.27-.34-1-.54-1.52l-.54-1.07c.06-.2.23-.5.15-.63-.73-1.14-1.52-2.26-2.3-3.38l-.52.2.4 2.46c-.28.13-.74.2-.78.37-.14.56 1.47 1.7 2 1.46.08 0 .06-.27.08-.42l1-.07-1.74 1.1c.26.73.26.73 1 .54.34-.1.7-.15 1.03-.2zm-25.8 12.5l-.57-2.58-.3-.07-1.56 3.6c1.82-.06 2.43.85 2.2 2.58a1.45 1.45 0 0 0 .57-1c-.05-.85-.23-1.7-.35-2.57l1.06 2.5h.16q0-1.68 0-3.36l.6 2.56.72-3.24-1.58-.1c.95 0 2.1-.67 2.6.78-.17.08-.47.14-.48.24-.26 1.88-.63 3.77.13 5.68 1.37-1.84 1.5-2.5.9-4.84.72.73 1.05 2.16 2.58 1.46-.86 1-.3 2 .4 2.87l-.45-2.8c.7.3 1-.07 1-.68.27-1.9.57-3.78.8-5.67a31 31 0 0 1 .26-3.16 18.34 18.34 0 0 1 1.17-3c.76-1.77.9-3.82 2.5-5.18.12-.1 0-.44.07-.9-1.15.2-2.22.32-3.24.6-3.3.93-6.57 2-9.88 2.87s-6.33 1.75-8.2 4.9a10.55 10.55 0 0 0-1.88 4.48 20.82 20.82 0 0 0 2.8.36c2.1 0 4.23-.1 6.34-.26.9-.07 1.2.23 1.4 1a8.4 8.4 0 0 0 1 1.76c-1.06-.22-.6.65-.74 1.1zm-3.4 3c-1.43-.4-3-.28-4.23-1.32-.1-.1-.37-.2-.42-.14-.75.77-1.25-.1-1.85-.24-.45-.1-.9-.18-1.36-.26.4-.4.83-1.17 1.2-1.14 1.25.1 2.46.53 3.77 0 .3-.13.9.32 1.25-.3.05-.1.48-.1.64 0a1.58 1.58 0 0 0 2.1-.5 8 8 0 0 0 1-2.1l-3.28.16v-.1l3.4-.47c-3.65-.06-7.3 0-10.92.28-1.92.14-2.27.72-2.33 2.7h3.37v.35l-2.52.26v.2h2.08v.25l-1.32.35 1.1.2-2.3.14.2-.6c-.37 0-.9-.24-1.1-.07a11 11 0 0 0-1.28 1.62l.27.4c.74 0 1.47.07 2.2.14 2 .2 4 .4 6 .62l4.45.5c-.1.25-.37.57-.3.73.44.93 1 1.82 1.45 2.72h.32l1.22-4.93-.36-.3-1.22.42zm16.15-2.7a4.56 4.56 0 0 1-1.24.45c-1.18.06-2.36 0-3.65 0 .1 1 .26 1.87.28 2.74s.46 1.1 1.16 1.24a6.68 6.68 0 0 0 5.38-1.3.8.8 0 0 0 .32-.57c0-1-.1-2-.17-3l-2.15.47c2.2-1.1 2.23-1.15 1.93-4l-5 .26a12.1 12.1 0 0 1 3.34-.6c1.85-.07 2-.23 2.2-2.12 0-.27 0-.54 0-.94a12.73 12.73 0 0 0-5.62 0 .7.7 0 0 0-.42.5c-.32 2-.64 4.08-.9 6.14-.1.75.27 1.1 1.05 1 1.12-.15 2.3-.22 3.47-.3zm20.4-.6c1.5-.2 1.93-1.47 2.86-2.74l-.77.32c0-.2.1-.42 0-.6-.2-.46-.44-.9-.67-1.35l-.3.15.35.85a4.65 4.65 0 0 1-.9-.62c-.45-.57-.74-1.47-1.3-1.72a11.62 11.62 0 0 0-8-.5 9.16 9.16 0 0 1-1.45.45c-.83.1-1.67 0-2.5.12s-1.46.38-2.2.5a3.63 3.63 0 0 0-3.4 3.93 4.5 4.5 0 0 0 .47 1.32c-.2 1.24 0 1.92 1 1.65a1.67 1.67 0 0 1 2 .73c-.4 0-.8-.06-1.18-.06s-.86.04-1.3.07v.16l.53.18-.3.85a6.73 6.73 0 0 0 1.32.33c4.88.1 9.7-.26 14.18-2.52a7.67 7.67 0 0 0 1.55-1.5zM96.88 76.7a1.86 1.86 0 0 0-2.17-1.82A6.74 6.74 0 0 0 91.5 76c-.8.58-1.73 1.47-1.26 2.84A8.4 8.4 0 0 1 90 77.5a.92.92 0 0 0-.43-.6c-.6-.22-1.76.7-1.7 1.35s.23 1.1.25 1.66a1.58 1.58 0 0 0 1.54 1.65c.42.06.84.1 1.25.13l.76 4.62a2.2 2.2 0 0 0 .44-.06c1.7-.67 3.48-.88 5.14-2 1.5-1 3.62-1 5.54-1.4v-1.63l1.5-.35c.13-2.66.13-2.66-1.2-2.56l-.42-.92c-1.12 1.2.3 2 .2 2.78l.9-.52c-.72 1.43-2.8 1.77-4.53.9h2.4a22.4 22.4 0 0 0 0-3c-.24-1.4-4-2.06-4.76-.84zm-19.32 30.46a11.66 11.66 0 0 1-2.6-.15c-3.33-1.05-6.78-.55-10.17-.82-.3 0-.73.3-1 .6s-.2.65-.34 1a6.27 6.27 0 0 0-.85 1.88 1.78 1.78 0 0 0 .86 1.44c1.3.44 2.73.5 4 1 .86.3 1.4.3 1.75-.32a9.18 9.18 0 0 0 2 1c1.76.37 3.54.6 5.16.86zm20.43-.63c-2.3 1.53-4.46 2.24-7 1.48a7.36 7.36 0 0 0 .14 1.72c.14.4.46 1 .82 1.06a26.35 26.35 0 0 0 3.12.55l-.2-1.2c.7.77 1.27 1.17 1.72 0a.88.88 0 0 1 .3-.33c.45-.32 1.17-.55 1.3-1a6.9 6.9 0 0 0-.2-2.28zm4.3-17.6l.73-1.06a4.67 4.67 0 0 0-.93-.3c-.83-.1-2 .82-1.75 1.38.58 1.1-.07 1.57-.88 2.2l1.36 1.62-.63.34.06.22h2.47c.53-.65 1.07-1 1.2-1.54a4 4 0 0 0 0-2.14c-.1-.32-.9-.4-1.37-.6zm-25.4 24.5l.4.3c.94-.3 1.88-.57 2.78-.93a.87.87 0 0 0 .38-.76c-.68-1.44-1.43-2.85-2.16-4.27h-.35zm28-26.57c.24-2.57-.23-3.2-2.72-3.3l.77 3.07zm-18.1 21.1c-1.38.53-2.26 2.44-1.57 3.2 2.37-1.08 2.12-1.08 1.57-3.2zm-4.28.2l-.37-.06-.82 3.2c2.56-.33 2.56-.33 1.45-2.53-.12-.2-.2-.4-.27-.62zm23.77-12.44c-1.7-1.54-3.25-.26-5-.1 1.72 1.12 3.28.02 4.98.1zm-22.85 12.26l-.07.4c.46 0 1 .25 1.35 0 .5-.3.2-2.14-.47-2.8-.12.8-1.83 1.24-.13 2.26zm21.42-13.9l2.45.47.08-.38c-.6-.74-1.6-.35-2.54-.1zM123.97 140.27l-2.7 5.9c1.88-.34 3.67-.62 5.43-1 .34-.08.6-.66.84-1.05.82-1.45 1.6-2.93 2.4-4.38a9.88 9.88 0 0 1 .83-1.08l.3.2-2.18 4.06a6.1 6.1 0 0 1-.42.72c-.66.9-1 1.76.14 2.58a1.08 1.08 0 0 1 .28.65c.53 2.78 1.1 5.57 1.56 8.36a2 2 0 0 1-1.8 2.5q-3.34.67-6.7 1.27c-.8.14-1.37.34-1.64 1.26a17.9 17.9 0 0 1-1.23 2.64l-.37-.13 1.22-3.35-6.9 1.3-38 7.26a2.1 2.1 0 0 1-2.8-1.83q-.84-4-1.55-8c-.26-1.44.4-2.33 1.94-2.62l28.7-5.5c6-1.14 12.1-2.3 18.13-3.42a2.3 2.3 0 0 0 1.8-1.5l2.32-5zm4.88 15.4c-.52-2.76-1-5.2-1.42-7.63-.17-1.06-.6-1.22-1.6-1-11.13 2.16-22.27 4.26-33.4 6.37-6.3 1.2-12.62 2.43-18.94 3.6-1 .2-1.3.53-1 1.6.5 2.16.9 4.37 1.24 6.57.16 1.1.57 1.22 1.6 1Q97 162 118.73 157.9c3-.58 6-1.15 9.04-1.75a4.88 4.88 0 0 0 1.07-.5zM114.9 125.02c-.28-.33-.75-.62-.82-1q-1-5.1-1.76-10.26c0-.25.46-.6.7-.9.28.27.76.5.82.8q.77 3.8 1.4 7.64c.32 1.88.28 1.88 2.13 1.6.75-.1 1.5-.22 2.25-.3 1-.1 1.33-.63 1.14-1.62-.46-2.42-.9-4.85-1.28-7.3-.1-.7-.68-1.77.47-2s1 1 1.2 1.7c.48 2.38.88 4.78 1.32 7.17.13.7.17 1.46 1.23 1.4.2 0 .58.34.65.6a9.26 9.26 0 0 1 .44 2.33c0 .35-.47.7-.72 1.06-.23-.28-.48-.55-.7-.85a1 1 0 0 1-.1-.47c-.07-.86-.4-1.14-1.34-.93-2 .44-4 .73-6 1.07a5.1 5.1 0 0 1-.84 0zM97.77 127.45c-.16.16-.5.7-.68.64-.4-.12-.96-.47-1-.8-.55-2.58-1-5.17-1.46-7.75-.3-1.67-.3-1.7-1.94-1.48-.94.12-1.87.32-2.8.5-.63.14-.8.47-.66 1.14.5 2.75 1 5.5 1.4 8.24a1.7 1.7 0 0 1-.25 1.2c-.5.58-1.23.14-1.42-.88-.37-1.92-.68-3.84-1-5.76-.2-1.2-.33-2.45-.65-3.64-.24-.9.1-1.37.85-1.52q3.4-.66 6.83-1.14c.25 0 .75.45.82.76.53 2.53 1 5.08 1.45 7.63.14.85.3 1.7.5 2.85zM73.23 131.4c.53-3.76 1-7.2 1.55-10.6a2 2 0 0 1 1.2-1.26 1.52 1.52 0 0 1 1.88.9c1.3 2.45 2.6 4.9 3.9 7.36a11.38 11.38 0 0 1 .9 1.8c.1.32-.12.76-.2 1.14-.4-.12-1-.12-1.2-.4a12.38 12.38 0 0 1-1-1.62c-.23-.34-.6-.9-.85-.88a30.3 30.3 0 0 0-3.83.62c-.2 0-.34.5-.4.78a15.73 15.73 0 0 1-.32 2c-.13.4-.6.66-.9 1zm5.75-5.15l-2.6-5.1-.24.05-.6 5.68zM104 121.33c.7 3.16 3 4.3 5.86 3.1.4-.18 1 0 1.45.04-.3.43-.5 1.1-.9 1.26-2.78 1.05-5.57 1.12-7.18-1.42a8.1 8.1 0 0 1-1-7.4c.82-2.2 4.26-3.75 6.5-3 .35.12.56.63.82 1-.36.14-.74.44-1.08.4-3.43-.33-5.15 1.35-4.68 4.75a23.3 23.3 0 0 1 2.78-.46 4.78 4.78 0 0 1 1.52.43 5.3 5.3 0 0 1-1.34.87 24.22 24.22 0 0 1-2.73.43zM66.5 133.6c-.95 0-1.18-.6-1.3-1.3-.57-3.13-1.13-6.27-1.62-9.4a1.36 1.36 0 0 1 .6-1.16c.68-.27.95.27 1.06.9.5 2.7 1 5.4 1.48 8.1.17 1 .64 1.24 1.56 1a14.7 14.7 0 0 1 2.47-.4c.34 0 .7.27 1 .43-.25.33-.45.9-.76 1-1.45.3-3 .57-4.5.84zM79.77 69.08c1 .13 2 .33 3 .38s1.84-.08 3-.13a63.56 63.56 0 0 0-6.14 1.75c-1.93.75-3.7 1.86-5.74 2.9l4.4.26c-.8 1.35-2.34 1.26-3.6 1.72l1.06-.8-1.32-.12.45-.42c-.43-.42-1.86.4-2.07 1.12-.62-.5-.62-.5 1.34-2.8l-1.4-1.35 6-2 2.55.18v-.22l-1.6-.45zm-3.42 2.8l.18.43 2.84-1.57-.2-.37zM103.5 74.43c0-4.13-1.7-6.74-5.2-7.54a16.05 16.05 0 0 0-5-.32c-2.84.26-5.66.83-8.5 1.23a16.36 16.36 0 0 1-2.25 0h-2.37l1.4-.5-.8-2.66.26-.24c1.24 1.32 2.78 1.25 4.35 1.13a5.2 5.2 0 0 1 1.23.2l-4.4.23c1 1 2.54 1 4.78.25l-.4-.52 1.55 1.08c2.13-.24 4.38-.6 6.63-.7a15.1 15.1 0 0 1 4.24.53c3.22.8 4.75 4.13 4.85 6.8.04.33-.24.68-.38 1.03zm-16.13-7.35l-.06-.4-2.67.5.08.38zM71.1 83.76v1.37l3.65-1.4-1.56.9.12.28 3.52-1.58-.07-.24h-.67l4.4-3.26-1 3.26-2.08.93.22-.52c-1.56.6-3.23 1.36-5 1.93-1.32.44-1.84 1.56-2.58 2.52a3.3 3.3 0 0 1-1 .9 8.1 8.1 0 0 1 1.56-4.78zM71.1 83.76l-.44.23-2.45 1.9-2.1 1.54a4.27 4.27 0 0 1-3.88.83c2.32-.7 3.1-2.73 4.53-4.12l-.1 1.3c2.82-.9 4.75-3.58 7.9-3.35zM68.2 85.9c.2.22.6.43.6.64a3.26 3.26 0 0 1-2.47 3.15c-1 .32-1.9.8-2.8 1.18a4.66 4.66 0 0 1 2.53-3c.9-.48 2-.8 2.2-2zM119.77 130.82a2 2 0 0 1 .3.55c.1.4.3.92.14 1.2a1.55 1.55 0 0 1-1.14.6 1.26 1.26 0 0 1-.93-.7 4.35 4.35 0 0 1-.4-2.04 1.66 1.66 0 0 1 1.12-1c.74-.2 1.07.35.92 1.4zm-.56 2.34c.3-.52.6-.82.55-1a3 3 0 0 0-.66-.82c-.2.2-.53.45-.5.64s.3.62.63 1.18zM83.84 136.93c.18.32.37.63.53.95.32.65.3 1.22-.44 1.6s-1.3.25-1.57-.5a5.6 5.6 0 0 1-.37-2.3c0-.35.73-.8 1.2-.9.3-.04.68.5 1 .77zm-.67.48c-.23.53-.48.82-.4 1a3.3 3.3 0 0 0 .63.83c.2-.24.57-.5.55-.7s-.38-.6-.78-1.13zM98.77 118.73l.44-1.72-.23.18a8.1 8.1 0 0 1-1-1.42c-.07-.15.35-.68.64-.8a1.16 1.16 0 0 1 1 .16c.96.9.64 2.72-.83 3.6zM76.03 138.47a8.4 8.4 0 0 0-.2 1.12 10.76 10.76 0 0 0 .1 1.22h-.38l-.42-2.46a24.14 24.14 0 0 1 2.63-.6 1.1 1.1 0 0 1 .9.54 10.94 10.94 0 0 1 .4 2l-.34.08c-.14-.52-.24-1.05-.42-1.56-.08-.22-.32-.4-.5-.58-.15.23-.44.45-.45.7a5.5 5.5 0 0 1-.15 1.7l-.7-2.18zM111.4 131.94a23.32 23.32 0 0 1-.07 3.37c0 .23-1 .3-1.6.18l1.55-.65-.13-.28c-1.42.2-1.83 0-1.95-1.1s.2-1.37 2.2-1.5zm-2 1.23l.93 1.06c.22-.27.66-.6.6-.8-.08-.36-.46-.66-.72-1zM80.77 137.92h-1.35l-.06-.27c.44-.1.95-.4 1.3-.27s.6.64.78 1a10.23 10.23 0 0 1 .44 1.44c-.77-.3-1.73 1.1-2.24-.3-.16-.28.62-.94 1.13-1.6zM69.35 139.53a25.76 25.76 0 0 1-.3 3.4c0 .2-1 .23-1.5.1l1.5-.67-.14-.3c-1.44.17-1.8-.05-1.88-1.16s.12-1.3 2.33-1.37zm-2.16 1.2l1 1.1c.22-.28.65-.6.62-.82-.06-.37-.42-.7-.66-1.07zM88.7 136.47l-1.1-.08-.1-.18c.38-.1.78-.35 1.12-.3a1.32 1.32 0 0 1 .78.73 11.9 11.9 0 0 1 .5 1.76c-.72-.3-1.62 1-2.17-.18-.15-.34.57-1.07.98-1.75zM113.15 134.3l-.15 1h-.3l-.7-3.72a6.2 6.2 0 0 1 2.22.28c.32.18.42 1.1.3 1.62s-.73.63-1.13.93zm1.2-1.26l-1-1.2c-.2.25-.58.55-.54.75a5.17 5.17 0 0 0 .66 1.25zM106.77 133.26h-1.27l-.06-.28a2.8 2.8 0 0 1 1.1-.23 1.32 1.32 0 0 1 .76.73 12.86 12.86 0 0 1 .48 1.8c-.76-.43-1.78 1.07-2.24-.38-.08-.35.74-.98 1.23-1.64zM123.2 132.5c-.83-.23-1.77 1-2.23-.3-.13-.34.6-1 1-1.68l-1.1-.1c.58-.62 1.3-.74 1.6-.12a14.42 14.42 0 0 1 .72 2.2zM85.05 135.48l.53 2.07.85-1.12.6 2.58-1.3-1.16v1.24l-.4.06-.67-3.6zM70.4 80.92l-3.15 2.57h-.57c.58-1.12 1.13-2.2 1.73-3.26.15-.24.45-.38.68-.57l-.95 1.8 1.94-.86zM97.28 134.48l1.08 2.77a9.4 9.4 0 0 1-1.6 0c-.4-.07-.92-.26-1-.54a8.8 8.8 0 0 1-.38-1.9l.36-.08a7.8 7.8 0 0 0 .35 1.4c.12.28.45.47.7.7a3.3 3.3 0 0 0 .42-1 6 6 0 0 0-.16-1.32zM69.36 140.26c.8-.6 1.24-1.18 1.74-1.22 1-.08 1.17.72 1.22 1.54s-.56 1.34-1.23 1.2-.96-.8-1.74-1.52zm.75-.07l1 1.17c.24-.25.7-.56.66-.75a4.36 4.36 0 0 0-.7-1.2zM104.56 132.95l.43 2.72-.3.08-.44-.94c-1-.16-1.15.44-.84 1.38l-.53-.1-.47-2.68 1.3 1zM100.45 133.83l.53 2.64c-.78 0-1.7.26-2-.06-.44-.48-.45-1.37-.64-2.1l.4-.1a11.37 11.37 0 0 0 .38 1.42 2.62 2.62 0 0 0 .55.65c.18-.27.5-.52.52-.8a8.75 8.75 0 0 0-.13-1.6zM117.98 132.43c-.73.58-1.1 1.14-1.58 1.22-1 .18-1.28-.62-1.34-1.4s.45-1.44 1.18-1.3c.53.13.96.8 1.74 1.48zm-.7 0l-1.12-1.08c-.2.3-.64.65-.57.87a3.93 3.93 0 0 0 .8 1.12zM91.77 138l-.47-2.4c2.2-.56 2.4-.4 2.23 2.14a7.23 7.23 0 0 0-.35-1.16 6.73 6.73 0 0 0-.68-1 5.33 5.33 0 0 0-.48 1.16 4.58 4.58 0 0 0 .1 1.18zM124.95 130.72l.88 1.06-.14.2-1-.63-.66.8-.45-2.43.86.6.6-.9.24.07zM74.22 138.36c-.37.67-.9 1.22-.86 1.7s.8.7 1.44 1.22c-.6-.1-1.4 0-1.6-.35a2.5 2.5 0 0 1-.26-1.85c.1-.33.83-.5 1.28-.72zM77.24 84.74v.06c-.8.33-1.56.72-2.37 1a1.87 1.87 0 0 1-1.38-.22l2.86-1.06zM78.77 68.15l1 .95-1.56-.3-.04.2.65.6c-.7.12-1.38.22-1.4-1zM94.56 134.9l.47 2.5-.42.1-.54-2.5zM70.4 80.92l-.33-.3c.93-.3 1.85-.65 2.8-.9s2.17-.47 3.3-.7a5.13 5.13 0 0 1-3.2 1.4 17.08 17.08 0 0 0-2.57.5zM104.22 101.48c.53-.23 1.3-.87 2-.78a8.32 8.32 0 0 1 2.46 1zM111.77 102.95l-.43-.6 2.5-1 .08.14zM112.04 152.73l4.37-1a1.63 1.63 0 0 1 2.18 1.3 10.4 10.4 0 0 1 .32 1.88 2.58 2.58 0 0 1-.34.94 3.36 3.36 0 0 1-.63-.83c-.17-.47-.1-1.05-.33-1.5s-.6-.6-.9-.88c-.23.4-.62.8-.64 1.2a13.05 13.05 0 0 0 .3 1.9c0 .2-.17.43-.27.65-.24-.15-.6-.26-.67-.46-.2-.63-.23-1.34-.48-2-.13-.32-.56-.53-.85-.8-.24.36-.67.7-.68 1.08a16.63 16.63 0 0 0 .3 1.88c0 .28-.2.58-.33.86-.2-.2-.54-.35-.6-.57-.3-1.2-.5-2.4-.76-3.62zM91.04 159.27c.35-.78.6-1.42.92-2a4.4 4.4 0 0 1 .74-.8 3.28 3.28 0 0 1 .58.87 24.16 24.16 0 0 1 .55 2.7c0 .24-.16.52-.25.78-.24-.18-.6-.3-.7-.54a9.72 9.72 0 0 1-.4-1.58c-.44.62-.74 1.48-1.2 1.57s-1.1-.52-1.82-.9a11.64 11.64 0 0 1 .3 1.64c0 .24-.27.48-.4.72-.2-.17-.5-.3-.54-.5-.26-1.08-.48-2.17-.67-3.27 0-.2.08-.57.2-.6a.9.9 0 0 1 .75.1c.67.54 1.2 1.13 1.94 1.82zM80.08 159.9c1.26.83 1.55 2 .77 2.93s-3 1.23-3.72.48c-.16-.15-.15-.48-.2-.72a4.88 4.88 0 0 1 .74-.07 5.86 5.86 0 0 0 1.8.1 1.35 1.35 0 0 0 .7-1.14c-.07-.33-.7-.6-1.1-.8a4.23 4.23 0 0 0-1-.24 4.45 4.45 0 0 0 .78-.67c.23-.3.57-.77.48-1a1.14 1.14 0 0 0-1-.5c-.46.1-.83.52-1.27.76a3.24 3.24 0 0 1-.72.22c0-.28-.1-.6 0-.83a2.62 2.62 0 0 1 3.16-.94c.9.36 1.07 1.03.58 2.45zM101.63 159.15c-.27-1.33-.53-2.6-.78-3.86 0-.1 0-.23 0-.24a14.64 14.64 0 0 1 2.8-.8c.33 0 .8.67 1.08 1.1s.14.82.33 1.15a1.3 1.3 0 0 1-.8 2.13c-.8.22-1.62.33-2.63.52zm2.75-1.58l-.07-.62a11.62 11.62 0 0 0-1.75.16c-.12 0-.14.56-.25 1.08zm-2.07-1.12l1.56-.94c-.28-.12-.6-.38-.85-.34-.47.1-1.37 0-.7 1.3zM87.33 162c-.8.2-1.37.35-1.92.52a2.12 2.12 0 0 1-2.85-1.4 2.26 2.26 0 0 1 1.36-2.9 2.28 2.28 0 0 1 3 1.54c.24.77.32 1.58.43 2.24zm-.78-1.56c-.8-.66-1.27-1.33-1.82-1.42-.8-.13-1.33.54-1.3 1.35s.5 1.46 1.34 1.33c.52-.08 1-.62 1.78-1.26zM99.77 157.84a2.15 2.15 0 0 1-2.37 2.25 2.28 2.28 0 0 1-2.24-2.34 2.2 2.2 0 0 1 2.37-2.28 2.12 2.12 0 0 1 2.24 2.36zm-.4 0c-.86-.7-1.32-1.36-1.87-1.45-.8-.14-1.32.5-1.3 1.34s.46 1.5 1.27 1.4c.5-.06 1-.7 1.85-1.32zM111 157.27c-.64.17-1.1.24-1.53.4-1.66.64-2.74.08-3.1-1.63a8.45 8.45 0 0 1-.25-1.53c0-.27.23-.56.35-.85.2.25.5.46.6.74.2.5.2 1.1.36 1.63.2.7.62 1.15 1.4.93a1.07 1.07 0 0 0 .8-1.48 9.28 9.28 0 0 1-.33-1.64c0-.24.2-.5.33-.75.22.16.58.3.63.5.27 1.2.5 2.4.74 3.67zM124.67 154.6l-1.9.6a2 2 0 0 1-2.62-1.37 11.4 11.4 0 0 1-.38-2.1c0-.23.27-.5.4-.72.2.2.48.34.54.56.18.57.24 1.17.38 1.75s.54 1.2 1.34 1a1.07 1.07 0 0 0 .86-1.52 8.45 8.45 0 0 1-.32-1.64c0-.23.23-.48.36-.72.2.18.55.33.6.55.3 1.22.5 2.42.75 3.62z"/></svg>