<svg xmlns="http://www.w3.org/2000/svg" viewBox="0 0 989.46 1043.79"><defs><style>.a{fill:#221e1f;}</style></defs><title>scooter</title><path d="M12.1 1a1.85 1.85 0 0 1 0 .38c-.15.47-.32.93-.48 1.4C8.42-.36 7.42 6.6 5.17 4.4c-1.64-1.6-4.6 1-5.12-2.2.15-1.16-.3-2.53 2-2.15C5.3.63 8.72.72 12.1 1zM214.15 627.85c-5.74-7.65-13.64-11.88-21.45-15.57-4.94-2.34-11.25-1.5-17-1.14a209.1 209.1 0 0 1-43.15-2c-10.64-1.5-21.36-1.24-32-2.1-2.7-.2-4.18-.3-2.26-3.24.76-1.17-.18-1.55-.8-2.05a15.93 15.93 0 0 0-3-2.16c-3.8-1.77-4.56-4.56-5.43-8.72-2.47-11.9-.48-23.5.62-35.13 2.7-28.72 5.7-57.42 7.94-86.18 1.2-15.37 1.64-30.8 2.45-46.2a29.9 29.9 0 0 1 .48-3.65c.4-2.3 0-3.56-2.56-2a2.6 2.6 0 0 1 1-2.85 9 9 0 0 0 2.6-6.37c.7-9.8 1.93-19.6 2.1-29.4.14-9 1.43-17.9 1.04-26.88-.23-5.24 2.68-8.63 7.68-9.62 11.77-2.32 23.6-1 35.33-.2 20.24 1.4 40.43 3 60.76 3.12 13.66.06 27.33 1 41 1.1 25.14.15 50.18 2.3 75.24 4 10.16.7 20.27 2.07 30.4 3.08 3.2.32 6.17 1.8 9.54 1.32 1.75-.24 3.9 3.9 3.42 6.26a39.56 39.56 0 0 0-.35 12.26c3.8-4.87 7.1-9.13 10.43-13.37 13.42-17.08 27-34.06 41.06-50.6a3.87 3.87 0 0 1 2.42-1.64c5.6-.52 7.66-5.47 11.05-8.74 1-1 .85-1.76.1-2.9-4.57-6.96-9.33-13.8-12.8-21.4-.1-.23-.2-.53-.37-.64-7.23-4.54-7-13.63-12-19.62-1.9-2.28-3.1-4.67-6.53-5.3-4.4-.8-8.4-9.14-7-13.34a248 248 0 0 1 12.6-29.66c2.8-5.65 7.7-9.68 11.73-14.37 6.55-7.64 13.3-15.26 23.34-18.44a107.3 107.3 0 0 1 26.26-5.2c12.2-.7 24.44-1.12 36.4 1.77 13.47 3.25 26 8.5 35 19.7a21.8 21.8 0 0 0 6.56 5.7c8.17 4.65 13.37 11.93 15.5 21.4a20.3 20.3 0 0 1 .73 7.34c-.1.83-.73 1.94 1.36 2.14s2.5 2.82 3 4.62a47.77 47.77 0 0 1 1.5 7.6c.7 5.6 3.4 10.78 3 16.6-.25 4.07-3.84 7.93-7.83 7.5-3.43-.36-6.78-.68-10-2.56-3.76-2.2-5.56-.9-5.9 3.34-.95 12-1.44 24.07-5.2 35.7-1.45 4.45-4.34 8.32-4.74 13.15-.1 1.37-1.7 1.76-2.9 2-3 .65-6.08 1.27-9.15 1.68-1.9.27-3.1 1.17-3.24 3-.52 6.72-5.4 8.37-10.76 9.1-4.16.6-8.15 2.23-12.5 1.7-1.73-.2-2.92.7-1.52 2.8a46.26 46.26 0 0 1 6.94 17.84c.57 3.17 2.9 6.22 4.5 9.3 6.16 11.78 7.35 24.35 6.43 37.33-.4 5.46-.5 11-1.52 16.34-1.3 6.95 2.9 12.23 5.77 17.6A239.3 239.3 0 0 1 532 457.84c1.2 3.13 3 3.53 5.66 2.87 6.37-1.58 12.8-1.33 19.2-.53 1.82.23 4.28 1.3 4.67 3.18 1 5.06 4.32 5.5 8.64 5.74 7.3.4 14.38 0 21.22-2.8 4-1.64 8.04-3.3 12.1-4.87a32.83 32.83 0 0 1 17.14-1.9 25.84 25.84 0 0 0 5.94.35c1.7-.14 2.57-.9 1.6-3-3.14-6.87-6.65-13.55-11.72-19.13q-4.7-5.18-9.33-10.45a134.1 134.1 0 0 1-14.47-19.86c-1.5-2.53-3.32-3.42-6.18-2.44a20.42 20.42 0 0 1-5.1.93c-2.18.16-4.53-.66-4.5 3.15 0 1.9-2 .9-2.88.28-2.62-1.76-4.38-4.32-6.16-6.9-4.12-6-5.17-12.93-6.87-19.78-1.95-7.85-.68-14.8 3.2-21.68 4.74-8.44 16.3-13.7 25.76-11.4 9.13 2.22 13.44 7.75 14.17 17.16.5 6.6-.6 13-1.28 19.5-.35 3.37.46 5.84 2.28 8.88 4.36 7.28 10.2 13.36 15.12 20.16 3.4 4.7 7.7 8.9 11.2 13.67 5.56 7.6 12.3 14.3 16.42 22.94a8.9 8.9 0 0 1 1.17 5.35c-.35 2.34.73 3.08 3 3a213.25 213.25 0 0 1 23.88.75 12.88 12.88 0 0 1 11.84 11.88c.13 1.73-.65 4.5 1.94 4.44 1.72 0 1.2-2.77 1.08-4.17-.6-7.37 1-14.63 1-22 0-6.26-.78-12.3-5.16-17.3-1.64-1.88-2.86-2.68-4.52 0a43.6 43.6 0 0 1-4.17 5.2 4 4 0 0 1-4.8 1c-6.5-2.76-11.13-7.08-12.66-14.4-1.73-8.34.5-16 3-23.75 1.58-4.84 3-9.73 4.86-14.5 3.6-9.42 10.65-9.62 17.94-4 2.7 2.12 3.6 5.77 3.47 8.67-.3 6.4 1.92 12.86-.32 19.18-.57 1.63.62 2.1 1.46 3a123.35 123.35 0 0 1 15.7 20.06c1.83 3 2.1 6.38 2 9.74-.23 9.92-.5 19.83-1 29.74-.1 2.43.08 4.18 2.8 4.66 2.4.42 3.54 2.43 4.57 4.13a152 152 0 0 0 11.2 16.65c3.6 4.48 5.46 10.1 6.65 15.65.74 3.47-1.4 7-2.65 10.32-.47 1.24-1.1 2.52.54 3.1a12.86 12.86 0 0 1 6.3 5.52c3.4 5.23 9 5.7 14.15 7 9.2 2.34 18.64 5.17 25.1 12 4.46 4.67 9 4.7 14.13 5.36 7 .94 14.12 1.5 21 3.4 1.16.32 3.37-.52 3.38 1.3 0 2.08.7 4.55-1.4 6.28-1.72 1.43-3.4 2.9-5.08 4.4-1.9 1.66-2.37 3.06-.72 5.66 5.55 8.74 8.9 18.5 11.5 28.46a19.33 19.33 0 0 0 2.56 5.7 12.2 12.2 0 0 1 1.08 12.34 6.16 6.16 0 0 0 .13 5.4c7 14.4 12.37 29.48 18.6 44.2a206.75 206.75 0 0 1 10.87 32c2.2 9.05 4 18.2 2.13 27.6-.32 1.63 0 2.57 1.68 3.14 13.18 4.62 24.77 12.3 36.73 19.24 4.4 2.55 8.64 5.3 13.1 7.75 4.27 2.35 7.7 6.17 11.76 9a339 339 0 0 1 27.9 21.63c7.08 6.06 14 12.33 19 20.26 2.58 4.1 4.24 8.85 5.92 13.44.87 2.38-1.4 3.5-3.16 4.32-2.7 1.27-5.56 2.18-8.26 3.45-1.3.62-2.92 1.67-.87 3.3 7.06 5.6 10.84 13.74 16.17 20.68 7.88 10.25 10.85 22.37 13.7 34.67 2 8.64 1.3 17.08.8 25.73-.93 16.33-7.12 31-13.28 45.7a36.15 36.15 0 0 1-4.36 6.94c-5.46 7.54-10.48 15.48-16.63 22.42-10.07 11.35-22.43 19.8-36.4 26-6.66 3-13.74 4.26-20.6 6.44-9.34 3-18.24 7.2-27.84 9.46-4.66 1.1-9.36 1-14 1.17-13.56.48-26.92-1-39.47-6.42a122.77 122.77 0 0 1-38.13-25.62c-10.3-10.3-18.7-22.06-26.4-34.44a129.43 129.43 0 0 1-15-33.5 65.07 65.07 0 0 1-1.3-7.73c-.1-.7.25-1.65-.55-2-1-.46-1.56.46-2.1 1.13a76.5 76.5 0 0 1-10.7 11.34 64.84 64.84 0 0 1-13.28 8.15 9.68 9.68 0 0 1-6.55 1c-3.5-.87-6.83-.13-10.27.47-12.32 2.12-24.74 2-37.17 1.22-22.85-1.44-45.7-3-68.63-2.22-16.4.54-33 .32-49.1 3.17-20.64 3.64-41.44 5.55-62.2 7.24-14.15 1.14-27.83-2.7-35.74-16.62-2.13-3.75-4.68-4.28-8.6-3.38-19.74 4.5-39.4 9.55-59.34 12.93-15.54 2.63-31.16 5.2-46.9 6.5-4 .32-7.8 1.55-11.84 1.4-2-.08-2.74 2-3.74 3.3-5.4 7.16-10.28 14.65-15 22.27-8.4 13.54-19.8 24.34-32.6 33.64-7 5.1-14.27 10.08-22.88 12.26-12.64 3.2-25.08 7.23-38.05 9.08-10.2 1.45-20.38.95-30.52-.18-23.35-2.6-43.58-12.77-62.65-25.94-11.3-7.75-19.6-18.2-28.37-28.32-12.86-15-18.57-32.9-22.06-51.73-2.33-12.53-2.9-25.16-.45-37.78a47.4 47.4 0 0 1 5.34-15.48c4-6.77 5.92-14.46 9.63-21.38 2-3.64 4.5-6.87 6.46-10.46.5-.9 1.94-1.68 1.14-2.88-.68-1-2.1-.6-3.16-.6-5.7 0-11.4.26-17.1-.82-9.25-1.77-18.57-3.27-27.83-5-4.3-.82-6.68-4.64-5.93-9.7.7-4.7 1.3-9.27 4.66-13.36 5.05-6.15 7.5-14 11.64-20.78 8.86-14.52 17.8-29 26.13-43.82 7-12.45 15.1-24.24 21.3-37.13 2-4.1 5.8-6.72 8.28-10.36 3.4-5 6.34-10.35 9.6-15.47 5.1-8 12-14.6 17.54-22.2 5.8-7.95 13-14.3 20.5-20.5 3.33-2.75 4.94-6.23 6.12-10.16 1.85-6.18 6.25-9.8 12.1-12.15 7.6-3.06 15.27-5.68 23.48-6.6 4.22-.47 10.5 1.85 12.66 5.46 1.55 2.6 3.3 4.1 6.6 3.28 1.88-.47 4-.23 5.93-.37a27.7 27.7 0 0 0 2.88-.55zm277.9-362.4c.46-1.4 1.26-1.6 2.57-1s1.14-.5 1.2-1.2c0-.42-.1-1.38-.62-.8-1.16 1.25-3 .35-4 1.6-1.3 1.63.8.75 1 1.3-.7 1.37-2.13 2.28-2.36 4a3.1 3.1 0 0 0 .6 2.72 1 1 0 0 0 1.33.2 2.33 2.33 0 0 0 1.1-2.54c-.25-1.46-.54-2.9-.8-4.3zM132.73 594.6c-3.76-2.75-8.08-1.77-12.24-1.77-.7 0-1.64-.1-1.8.88s.74 1.28 1.37 1.56a7.57 7.57 0 0 1 3.64 3.6c1.1 2.13 2.82 2.62 5.07 2.9 9.4 1.17 18.83.3 28.23 1.08s18.83 1 28.25 1.43c2.3.1 4.8.74 7.1-1.13-4.68-1.85-6.38-7.64-12.3-7.28-4.53.28-9.1-1.87-14.1-.95l7.4 6.66c-3.14.15-3.84.1-4.48-.73-5-6.38-11.86-8.1-19.57-7.72-2.42.13-2.48 1.3-1.3 2.88s2.55 3.06 4.1 4.9c-3.4-.85-3.32-.93-5.22-3-4.12-4.52-10.93-7.78-14.26-3.2zm524.12-116.37l.1.1c-1.36-1.57-4.15-1.6-4.25-4.73-5.86 7.2-12.64 12.85-17.44 20.88 11.16-.54 21.67-.42 32.1-1.94 4.8-.7 9.65-.82 14.47-1.24 1.57-.14 4.18-.28 3.65-2-.8-2.7-.5-5.7-1.94-8.14-.8-1.37-1.45-2.14-.43-3.88 1.34-2.27-.54-7.2-3-7.44-4.07-.4-7.63-4.24-12.23-1.67-1.2.68-3.36.44-3.2 2.24s1.2 4.53 3.24 4.5c4.84-.08 5.3 4.12 7.4 6.65 1 1.22-.16 2.2-1.24 3s-1.75.4-2.18-.76c-.68-1.8-1.74-1.37-2.88-.5a5.75 5.75 0 0 0-2.65 4.84c-1.6-.6-2.83-1.4-4.12-1.48-4.2-.26-3.14-2.5-2.32-5.07.47-1.45 2.8-2.73 1.4-4.18-1.27-1.3-2.83 1.08-4.46.8zM247.4 659.33c-6.12-4.78-8.35-12.12-12-18.5-1-1.73-.56-4.8-1.87-5.73-1.57-1.13-4.3-.65-6.53-.86l-2.6-.23a75.63 75.63 0 0 0-21.93.94c-1.05.2-3.23.5-1.5 2 3.57 3 6.23 6.76 9.6 9.8 5.72 5.14 10 11.64 16.2 16.34a10 10 0 0 1 2.88 3.86c1.15 2.5 2.9 2.4 4.28.52 1.12-1.5 1.87-2 3.87-1.57 2.73.56 3.15-2.33 4.56-3.87 1.1-1.2 4.6 1.08 5.1-2.5l.7.86c1.17 1.4 2.5 2.65 4.4 1.32s.32-2.83-.33-4.15c-3-6.18-5.84-12.55-11.82-16.65-.63-.44-.62-2-1.78-1.43s-.73 1.74-.37 2.63c.46 1.15 1.15 2.2 1.67 3.32 2.18 4.74 5.95 8.7 7.5 13.88zm110.46 257.7l.1.1c-2-2.5-6.6-1.9-8.2 1-1.75 3.2-2.6 6.74-4.55 10-4 6.8-7.35 14.06-11.46 20.87-1.16 1.92-.57 2.6 1.4 2.34 2.44-.3 4.84-1 7.3-1.26 22.54-2.44 44.47-8 66.55-12.88 9.27-2.05 18.34-5.24 28-5.66 1.57-.07 2.16-.62 1.14-2.37a47 47 0 0 1-2.8-4.5c-3-6.93-8.36-12.33-12.12-18.8a93.1 93.1 0 0 0-12.95-17.94c-2.5-2.6-3.34-5.77-8.94-5.74-7.14 0-14.48-.9-21.8-1.1-15.64-.4-31.13-2.83-46.7-4.2a6.08 6.08 0 0 0-3.28.24c-2.33 1.32-4.78 1.17-7.26 1.16-6.73 0-13.44-.1-20.16-.08-4.64 0-9.28.18-14.25.28a8.75 8.75 0 0 0 3.1 2.83c14.38 10.17 29.13 19.87 42.1 31.9 4.14 3.85 4.36 3.85 9 .48a13.36 13.36 0 0 1 2.48-1.65c2.33-1 1.68-1.75.1-2.95-8-6-15.88-12.2-24.26-17.76-5-3.3-9.87-6.13-15.77-6.58-2.6-.2-2.18-1.63-2.07-3 .18-2.33 1.78-1 2.74-.83 5.84 1.23 11.58 2.94 17.5 3.78 24.9 3.52 49.5 8.35 73.4 16.28 9.1 3 17.53 9 16.37 21.27-.4 4.2.16 7.53 5.3 8 .37 0 .7.6 1.17 1-1.33 1.24-2.7.72-4 .62-4.33-.34-8.83-1.1-12.7 1.44-6.53 4.3-13.2 7.18-21.3 5.35-3-.7-9.36-4.64-8.86-7.33.74-4-2.4-3.43-3.9-4.83-1.8-1.67-2.77-1-3.64.87-2.4 5.05-4.85 10.07-7.22 15.13-.78 1.67-1.6 3.17-4.1 3.64a33.73 33.73 0 0 1 1.15-3.5c2.7-5.87 5.08-11.93 8.3-17.5 1.92-3.3.5-4.78-1.63-6.45a18.27 18.27 0 0 0-3.3-1.68zm120.7-608.52c.57 2.68 1.26 5.32 3.27 7.32.64.63 1.64 1.66 2.26.06.76-2-3.33-7.1-5.66-7.26.8-2-.34-3.76-.73-5.6-.2-1-.86-2 .27-2.6 1.46-.77 1.6.8 2 1.55 2.24 5 5.12 9.58 7.1 14.67a8.38 8.38 0 0 0 6.08 5.54c3.52.74 7.1 1.2 10.64 1.78 4.7.77 7.9-2.52 11.53-4.47 2.6-1.4.54-4.18 1.27-6.18.53-1.45.36-2.25-1.35-2.6-3.36-.66-5.06-3.33-6.74-6s-3.06-5.77-5.22-8.06a59.4 59.4 0 0 1-9.1-13c-1.45-2.74-2-6.4-5.3-7.66a3.17 3.17 0 0 1-2.4-3.18c-.08-.9.1-2.27-1.36-2.22-1.14 0-1.52 1.1-1.78 2.12-.16.65.27 1.52-1.06 2.06.3-2.8-.5-4.6-3.68-4.4-.52 0-1.07-1.3-1.7-1.9-6.08-5.58-11.26-12.15-19.24-15.57-6.6-2.82-13.1-6.1-19.9-8.3-7-2.26-14.32-4.23-21.9-2.7-2.1.44-4.9.7-5.12 3.3s-2.1 6.56 3 7.33c1 .15.85 1.38 1.23 2.14 2.83 5.74 4.27 12.06 8.4 17.3 3.7 4.7 8 8.76 11.7 13.44 2 2.62 5.17 4.5 5.82 8 .36 2 1.42 2.53 3.12 3a49.35 49.35 0 0 1 17.67 9.83c3.63 3.1 7.8 5.58 11.73 8.37a2.53 2.53 0 0 0 2.44.52 1 1 0 0 0 .5-1.57c-2.15-2.56.43-4.67.1-7.9 1.05 1.5 1.57 2.2 2.1 2.86zm344.26 562.66c-4.5-.28-7.5 3-11 4.86-6.8 3.57-13.65 7-20.65 10.22-1.68.76-3.77-.6-4.45.3-2.1 2.8-5.1 3.8-8 5.12-1.17.52-2.2 1-2.1 2.66.34 5.6 0 11.3 1 16.75 4.32 23 16.3 41.43 34.7 55.77 5.4 4.22 10.45 9 17.4 10.87a45.8 45.8 0 0 1 5.1 2.2 11.44 11.44 0 0 0 5.8 1.23c7.7-1 15.4-2.28 23.13-3.08 14.47-1.5 27.1-6.24 35.18-19.22 12-19.3 17.7-40 12.87-62.75-2.23-10.5-7-20-12.67-29.1-2-3.23-4.75-6-6.5-9.28-2.5-4.7-4.23-10-11.34-8.7-1.3.24-2.72-.3-4.2-.5 8.8-3.78 18.08-3.96 27.1-5.45 16.54-2.73 32-8.8 47.35-15.15a9 9 0 0 1 5-1c1.3.22 2.57.1 3.34-1.1.92-1.43-.1-2.6-.85-3.7a138.05 138.05 0 0 0-18.22-21.07c-13.36-13-29.2-22.64-44.64-32.7-14.1-9.2-28.83-17.56-45.25-22.27-2-.58-2.83-.43-3.62 1.55-1.56 3.93-3.45 7.72-5.1 11.6-.62 1.5-1.48 2.75-3.13 2.77-2.46 0-3.36 1.58-4.26 3.48-5.52 11.7-13 22.3-18.72 33.9-2.9 5.82-7.24 10.7-10.4 16.34a257.1 257.1 0 0 1-18.48 28.26 49.05 49.05 0 0 0-5.85 10.73 13.13 13.13 0 0 1 9.5-2.55 164.33 164.33 0 0 0 27.94-.28q24-1.84 48-3.54c.95-.07 2.48-1.75 2.9.63.35 2.14-1.17 2.42-2.75 2.55-3.85.33-7.7.67-11.54.94-2.36.16-3.17 1.18-2.1 3.4 3.1 6.4 6.17 12.84 9.3 19.24 3.32 6.8 6.7 13.57 10.06 20.35 3.9 7.9 5.9 16.8 12.48 23.28a1.76 1.76 0 0 1 .17 2.42c-2.73 3.8-5.06 8-10.32 9-7.5 1.47-14.93 3.06-21.78-2.1-1.5-1.13-2.88-1.22-3 2.15-4.34-8-6.75-15.7-9.55-23.2-3.28-8.78-8-16.78-12.3-25-.8-1.5-3.3-.8-3-2 1-4.53-1.46-4.8-5.23-4.05 1-2 2.73-3 2.62-4.9 2.4-1 5.18-1.22 8.1-3.62-4.1-.05-6.52.9-8.1 3.76zm-112.33-14.2c1 .25 1.18 1.16 1.5 2 3.86 9.4 7.76 18.8 11.5 28.27.52 1.3.68 2.2 2.4 2 5.82-.77 7.4-6.07 10.55-9.66 1.62-1.84.36-2.6-1.37-3.06a6.82 6.82 0 0 1 .45-1.36c8.62-14.94 17.1-30 25.93-44.77 8.14-13.64 16.63-27.08 25-40.56 5.4-8.63 10.73-17.3 16.77-25.52 3.78-5.16 7.36-10.54 9.24-16.83 1.25-4.18.05-11.6-2.7-12.6-1.77-.62-1.64-1.36-1.46-2.65.78-5.65-1.45-10.8-2.7-16.12-.23-1-.47-2.64-1.8-2.4s-1.3 1.9-1.37 3.1c-.2 4.23-.3 8.47-.58 12.68-.2 2.73-.57 5.45-1 8.15a67 67 0 0 1-1.53 8.08c-.7 2.46-.4 5.26-2.62 7.78a258.87 258.87 0 0 0 3.78-36.43c.06-1.57-.6-3.27.47-4.74 2.4-3.27 1-6.22-.66-9.2a33.84 33.84 0 0 1-2.6-5.34c-.58-1.7-1.08-4-2.88-3.82-2.2.27-1.07 2.84-1.45 4.4 0 .13-.3.2-.57.34a23.14 23.14 0 0 1-.35-5.6c.7-6-1.7-11.17-4.32-16.28-.42-.8-1.1-1.88-2.33-1.27-2.6 1.3-2.6-.53-2.25-2 .94-4-1-6.95-3-10-.35-.52-.62-1.18-1.35-1s-.8.9-.9 1.5c-.33 2.07-.6 4.16-.9 6.25a17.6 17.6 0 0 1-.6-7.38c.84-5.33-1.6-9.36-4.63-13.27-.45-.6-.82-1.37-1.7-1.16s-.75.97-.75 1.73c0 2.1 0 4.23-.12 6.34-.18 2.9-.48 5.8-.73 8.7a45.2 45.2 0 0 1-1-9.66c0-2.48-.44-5.5.77-7.3 1.68-2.5.74-4-.34-5.9-3.78-6.54-8.25-12.68-11.66-19.46-.5-1-1.2-2.53-2.75-2s-1.1 2.08-1.17 3.27c-.12 2.15-.15 4.3-.2 6.47l-1.14-.1c-.1-3.42-.22-6.83-.22-10.25a11 11 0 0 0-2-7c-2.1-2.76-4.23-5.53-6.3-8.32-1.4-1.9-2.32-1.44-3.06.52-.87 2.3-.4 4.7-.56 7-.75 12.44-2.57 24.73-4.3 37.06-2.38 17.1-5.32 34.13-7.7 51.23-1.48 10.7-3.76 21.25-5 32-.76 6.56-1.18 13.2-3.36 19.55.8-2.1.26-4.3.57-6.44 1.47-10.2 2.72-20.43 4.16-30.64 2.1-14.78 4.12-29.57 6.44-44.32 2.67-16.94 5.4-33.85 7.1-50.93.6-6.22-1-12.75 2.18-18.7.14-.26-.3-.9-.57-1.3-.7-1-6.7-2.27-7.22-1.33-1.4 2.56-4.84 3.7-4.6 7.48.2 3.2-.45 6.44-.7 9.66a250.42 250.42 0 0 1-6.25 41.33c1.32-11.46 3.15-22.86 4.14-34.36.68-7.9.6-15.87 2.3-23.7.25-1.12.8-2.82-.92-3.64-4.44-2.1-8.6-4.78-14-3.85-3.9.66-7.93.5-11.9.66-9 .38-8.78.4-9.72 9.47-1.43 13.75-2.07 27.62-6.06 41a2.8 2.8 0 0 0 .2 2.4c4.74 9.26 9.6 18.47 13.92 27.92 2 4.4 5.9 7.73 6.63 12.78 1.88 13.2-1.52 25.84-4.3 38.5-.72 3.26-.68 6.8-2.1 9.77-2.8 5.94-2.3 12.43-3.74 18.57-.17.73.27 1.13.65 1.62 5.1 6.62 7.62 14.6 11.52 21.85.27.5 1 .95.15 1.5a1.18 1.18 0 0 1-1.68-.1 21.83 21.83 0 0 1-3.38-4.46c-2.5-4.63-3.86-9.9-7.48-14-3.23 4.33-3.5 6-.7 10.06 8.2 11.8 14.86 24.45 21.1 37.34 1.33 2.77 2.44 5.66 3.9 9.07-2.9-1.4-3.86-3.5-4.84-5.48-5.72-11.44-11.84-22.65-19.3-33.06-1.1-1.53-1.18-4.6-3.26-4.43-2.53.2-1.36 3.3-2.1 5a34.5 34.5 0 0 0-1.18 3.52c-.56 1.75-.53 3.93.6 4.94 4.13 3.73 5.57 9 8.2 13.57a156.74 156.74 0 0 1 8.84 17.55c4.47 10.64 8.5 21.48 12.7 32.24.82 2.1 2.7 3.85 2.4 7-2.76-3.6-4-7.36-5.55-11-6.35-15.25-12.62-30.52-20.73-45-1.95-3.46-4-6.88-5.88-10.37-1-1.86-1.95-1.58-2.87-.08-5.07 8.27-7.7 17.4-9.55 26.83a1.8 1.8 0 0 0 .4 1.3c3.55 4.15 4.27 4.3 8.77 2.1.1-.04.36.25.72.5-.26.5-.5 1.04-.8 1.55-1.66 2.9-2.56 5.62-.35 8.93 2.1 3.15 3.5 6.77 5.08 10.25 4.7 10.4 9.35 20.8 13 31.64.45 1.35 2.4 3.48.74 4.17s-2-2.1-2.5-3.45c-5.23-13.57-10.83-27-17.34-40-.63-1.27-.8-3.9-3.46-2.86-3 1.16-4.7 4.05-3.5 6.27 5.15 9.53 8.4 19.78 11.27 30.13 1.85 6.7 4.95 11.2 12.63 11.77 6.06.45 11.77 2.72 17.2 5.53a2.2 2.2 0 0 0 2.6-.1c-1.86-4.38-4-8.72-5.57-13.25-1.66-4.75-3.6-9.44-4.3-14.5zm-493.45 40.48l.1.13c-3.87-3.92-8.1-6.76-14.07-5.43a99.13 99.13 0 0 1-9.94 1.56c-19.16 2.27-38.44 3-57.7 4-3 .16-3.76 1.44-4.2 4a54.43 54.43 0 0 0 .06 17.08c1.1 7.63 3 15.22 7.82 21.42 4.45 5.7 9.8 10.66 14.16 16.53 4.17 5.62 9.15 10.7 15.65 13.88l-.1-.12a12.16 12.16 0 0 0 4.45 3.26c12.13 5.54 24.57 5.58 37.15 2 3.65-1 7.9-1.53 10.26-4.8a25.1 25.1 0 0 1 5.1-5.22c1.7-1.32 3.4-2.68 6-4.76-10.62.2-20.15 1.82-29.8-.1a.93.93 0 0 1 .88-.7c10-.8 20-1.68 30.08-2.32a11 11 0 0 0 7.1-2.8 2.85 2.85 0 0 0 1.1-3c-.4-1.27-1.6-.86-2.53-1-9.65-1.86-19.63-1.7-29.12-4.46-5.14-1.5-10.85-1.55-15.12-5.63-1.1-1-1.94-2-.7-3 1.74-1.33 1.47-2.9 1.48-4.65 0-4.36 2.1-8.2 3.22-12.65-7.56-1.43-15.1.1-22.8.95.47-2 1.8-2.3 3.16-2.6 7.32-1.67 14.77-1.7 22.23-1.84 3.47-.06 3.64 1.63 2.37 3.84-2.67 4.63-2.9 10.06-5 14.72-1.78 4 .78 4 2.67 4.46 5.55 1.4 11.18 2.5 16.8 3.64 1.37.28 2.83.67 4.16.12-1.62-6.1-1-12-.73-17.94.18-4.33 1.24-8.1 5.66-10.07.74-.33 1.37-1.42 2.22-.72s.14 1.68-.34 2.34c-2.08 2.9-3.75 5.78-3.87 9.63-.17 5.56.74 11.07.3 16.65-.1 1.48 2.92 1 4.52 1.16 1.27.16 1.8-.52 1.44-1.85-1.47-5.48-.06-10.73 1.17-16 1.1-4.7 3.8-8.38 7-11.82.38-.4 1.28-1.08 1.48-.34.87 3.12 1.66.76 2.56.1 6.86-5.15 14.93-5.52 23-5.44 1.14 0 4.08-.16 3.76 1.94-.3 1.94-2.4 2.57-4.44 1.26-.34-.2-1 0-1.45.06-6.8 1-12.8 4.46-19.28 6.45a2.73 2.73 0 0 0-1.65 1.92c-.9 2.58-2.12 5.1-2.53 7.76-.88 5.76-1.15 11.7 4.06 15.75a43.75 43.75 0 0 0 22.3 9.3c8.94.93 12.55-1.93 15.72-10.18.57-1.47.68-3.26 2.16-4.24 2.25-1.48 2.47-3.54 2-5.9a7 7 0 0 1-.1-2.24c.18-1.54 0-3.6 2.32-3.5 2.1.08 2.5 1.75 2.43 3.5-.07 1.63-.2 3.24-.3 4.85-.55 11.93-11.06 23.36-25.18 22.26-5.7-.43-10.37-3.26-15.57-4.8-2.72-.82-6.37-4.9-7 2 0 .3-.52.52-.72.83-3.22 5-8.8 6.67-13.4 9.74-.7.46-2.1.38-1.68 1.85.6 2.13-.72 3.4-2 4.72-4.28 4.33-9.65 6.28-15.42 7.78-17.15 4.48-33.44 2.54-47.48-8.28a129.56 129.56 0 0 1-24.53-25c-4.35-5.82-8.8-11.75-9.77-19.38-.5-3.94-1.44-7.82-1.9-11.77a54.22 54.22 0 0 1 2.6-24.86c.9-2.53.28-3.06-1.58-3.7-3.76-1.28-7.76-2.1-11.27-3.85-7-3.5-14.55-5.66-21.18-9.84-2-1.24-3.42-.45-4.18 1.44s.17 2.9 2 3.67c7 3 13.87 6 20.77 9.17 2.55 1.16 5 2.56 7.48 3.85-2.6.72-4.68-.3-6.64-1.17q-10.2-4.6-20.73-8.36c-4-1.43-4.9-1-5.5 3.4a106.5 106.5 0 0 0-1.24 16c0 1.35.2 2.73-1.23 4-.4-1.5-1.07-2.8-1-4.07.33-6.42-.2-12.93 1.7-19.23.32-1.06.94-2.32-.5-3.36-3.26-2.33-5.7-1.77-7.27 1.94-.63 1.48-1 3.05-1.55 4.6-4.14 12.6-3.78 25.46-2.28 38.4.1.8 1 2-.63 2.38-5.6-12.88-3.55-39.65 4.06-54 4.67-8.8 8.93-17.87 17-24.25.7-.55 1.37-1.3.56-2.2a1.74 1.74 0 0 0-2.32-.55 13.8 13.8 0 0 0-4.66 3.62 156.66 156.66 0 0 0-15.87 25.3c-5.18 10.04-8.9 20.62-9.53 31.8a108.58 108.58 0 0 0 4.15 36.45c4.28 14.87 9.47 29.14 20.32 41 9.74 10.66 19.83 20.74 31.94 28.7a150.9 150.9 0 0 0 25.85 14c1.88.77 3.6 1.47 3-2l3.54 2c-.23.83-1.6.1-1.57 1.22 16 .9 29.12 8.7 69.63-5.53-12.54 6.65-25.8 10.47-40.52 9.4.7 1.57 1.4 1.45 1.94 1.4 7.94-.44 15.93-.05 23.8-1.33 9.74-1.58 19-4.86 28.2-8.24 19-7 34.07-19.24 46.84-34.47 8.1-9.7 12.62-21.63 18.5-32.7a7.12 7.12 0 0 0 .62-3.24c0-6.8 3.68-12.06 7.2-17.9-1.57 0-3.55-.05-3.13-2.32s2.35-1.28 3.7-1.4c5.46-.54 10.92-1 16.36-1.56 1.6-.17 3.3-.4 4.2-2 1.2-2.1 3-3.57 4.72-5.18 3.94-3.66 3.86-3.7-.23-6.95-9.64-7.6-19.16-15.34-29.15-22.5-6.73-4.82-14.4-8.3-20.34-14.27-1.57-1.6-5.24-1-7 .55 14.47 9.38 27.35 20.9 41.65 31.24-2.15.57-3.2-.44-4.34-1.14-14.6-9-27.13-20.84-41.83-29.68-2.06-1.24-3.74-2.1-6.14-.76 4.83 4.75 10.86 7.56 16 11.85-1.62.9-2.34 0-3.18-.42-6.44-3.47-12.15-8.14-18.74-11.4-2.5-1.24-4.82-1.06-7.84-.1l13.55 9.38c-3.5.36-6-1.42-8.56-3-3.35-2.1-6.63-4.36-9.93-6.56a2.7 2.7 0 0 0-3.73.34c-1 1.38 1.06 1.56 1.74 2.27a15.5 15.5 0 0 0 2.42 1.7l10 7.08a3.4 3.4 0 0 1-3 .24 50.62 50.62 0 0 1-15-9.53c-2.34-2.27-4.3-1.52-6.5-1.92l.1.13c.4-.63.8-1.42 1.6-1.42 4.88 0 9.1-5.43 14.46-1.8a2.1 2.1 0 0 0 1.8 0c3.38-1.88 6.78-2.34 10.36-.65.4.2 1 0 1.48 0 3.73-.07 7.45-.15 11.18-.2q23.67-.32 47.34-.65a3.35 3.35 0 0 0 3-1.12c-1.63-.5-3-1-4.47-1.37-18.6-4.22-37.3-6.87-56.5-6.93-24.6-.08-48.8 2.65-73 6.8-4.1.7-7.33 3.3-11.47 3.58-6.94.48-13.85 1.35-20.8 1.87-4.3.32-8.62.3-12.94.42l-.1-1.35 31.92-4.18.14-1.2c-4.75-2.17-9-6.76-14.17-6.25-4.3.43-9.4 1.36-13.74 4.77a11.3 11.3 0 0 0 7.17.67c3.15-.7 6.33-1.3 9.5-1.87 1.23-.22 2.24.1 2.5 1.56.14.86-.13 1.67-1 1.57-4.4-.48-8.1 2.56-12.64 2.05-8-.9-14.7 4.22-16.73 12 7.22-.56 14.4-1 21.56-1.7 10.13-1 20.24-2.3 30.36-3.34 2.32-.24 4.64-.07 6.93-.83 2.94-1 4.3 1.6 6.06 3.16 3.85 3.4 8.9 4.88 12.75 8.5 2.46 2.32 5.67 4.52 9.33 5 1.06.15 2.22-.55 2.62 1 .2.83.5 1.78-.25 2.46-.95.88-2.12.62-3.17.23-2.34-.8-4.63-1.75-6.93-2.66zm32.74-544.9a7 7 0 0 0-5.62-2.45c-15 .57-30 0-45-.1-12-.1-24.1.5-36.15-.1-2.23-.1-4.73.24-5.62 3.13 1.55.77 3 .3 4.5.3 5.87 0 11.57-1.94 17.56-1.16 4.66.6 9.45-.2 14.16.45 1.34.18 2.9 0 2.72 2.12a28.9 28.9 0 0 0-3.32-.3c-7.56.12-15.25-1.55-22.6 1.6l.1.08c-.24-.28-.5-.8-.73-.8-6.52.52-13.3-1.62-18.88 4.55-13 14.38-26.54 28.26-39.8 42.4-1.3 1.37-3 2.56-3.2 4.74q-.7 8.14-1.46 16.26c-.07.74-.32 1.54.43 2 .9.6 1.6 0 2.33-.5 3.08-2.12 5.8-4.65 8.65-7.06 2.35-2 4.48-4.46 8.18-4.58a190.1 190.1 0 0 1-16.18 13.6 9.14 9.14 0 0 0-3.9 7.26c-.14 6.63.5 13.28-.8 21 9.24-8.06 16.8-16.6 26.25-22.84-7.5 7.8-15.16 15.4-22.9 22.9a7.83 7.83 0 0 0-2.55 5.2c-.55 5.76-1.26 11.52-2 17.27-.08.66-.3 1.3.34 1.65.83.45 1.36-.2 1.9-.75 5.4-5.45 10.78-10.9 16.2-16.33 1.06-1 2-2.36 4.36-2.8-.75.93-1 1.3-1.33 1.65-6.02 6.52-12.07 13.12-18.3 19.52a12.3 12.3 0 0 0-3.68 8.3c-.2 5.82.17 11.66-.65 17.46-.1.65-.12 1.6.64 2s1.33-.4 1.9-.82a15.9 15.9 0 0 0 1.68-1.44 383.4 383.4 0 0 1 31.5-27.46c.94-.75 1.85-1.87 4.13-1.93-12.53 11.4-24.74 22-36.45 33.1a14 14 0 0 0-4.76 10c-.83 13.13-2.13 26.23-3.46 39.33-.88 8.76-1.75 17.54-1.83 26.38 0 2.54.9 3.12 3.28 3.16 11.32.2 22.64.75 34 .9 10.1.1 20.12.8 30.17 1.6 8.58.7 17.12 2.4 25.8.3 6.76-1.64 13.56.2 20.33.66a5.92 5.92 0 0 1 4.6 2.17c1.07 1.43 2.53 1.28 4.05 1.24 6.05-.14 11.84-.85 18.13 1.05 7.7 2.32 16.2 2.1 24.38 2.7 11.87.87 23.87.7 35.6 2.45 11.44 1.72 23 1.82 34.42 3.68a135.13 135.13 0 0 0 14.5 1.23c2.9.17 5-.63 4.78-4.4a51.64 51.64 0 0 1 .7-8.9c.18-1.6 1.46-3.52-1.72-3.5-.72 0-.83-1-.33-1.46 4.42-3.86 2.83-9.2 3.23-13.9.66-7.77 0-15.68 1-23.4 1.8-14.63 3.4-29.26 4.42-44 1.14-16.6 3.07-33.14 3.3-49.8 0-2.93-.24-5.86.34-8.85 1.48-7.66 1.18-15.5 1.78-23.23.48-6.33-.78-12.67.17-19 .45-3-.53-6.2 0-8.86 1.12-6 1-10.12-2.55-14.73a2.28 2.28 0 0 1-.25-2.14c1.67-5.62.52-11.36.82-17 .13-2.38-.7-3.17-3.18-3.32-13.28-.8-26.6-1.07-39.87-1.68-8.56-.4-17.06-1.86-25.62-2.37-14.3-.83-28.52-1.68-42.67-3.42zm222.1 148.53c-2.48-3.1-2.43-6.63-2-10.14.23-2.2-1.4-3.3-2.24-4.87-.32-.6-1.07-.42-1.65 0-1.3 1-.9 2.25-.6 3.63-2-1.86-.34-5.5-3.27-6.66-1.24 1 .53 2.28-.56 3.15-.93.14-1-.5-1.3-1.07-1.26-2.62-1.16-5.55-2-8.26-.4-1.35-.73-3.4-2.6-3-1.63.33-1.7 2.2-1.6 3.77.12 2.68.1 2.68-1 4.7-.68-7.25 1.17-15.28-5.84-21-1.1 3 .5 5.56-.7 8.88-3.18-6.1-3.14-12.3-5.47-19 3.68 3.53 3.53 1.6 3.63-.92s-.83-4.64-1.2-6.95a87.5 87.5 0 0 0-4.7-18.5c-.94.36-1 .83-.96 1.34.88 6.64 1.47 13.34 3.3 19.84.27.92 1.5 2.3 0 2.82-1.22.42-1.9-1.27-2.1-2.2-.66-3.37-1.64-6.67-2.04-10.13-.9-7.58 1.07-15.56-3-22.7-.1-.18.15-.52.08-.74-2-6.43-1.4-13-1.27-19.58.26-12.22 1.53-24.28 5.7-35.9.53-1.42 1.14-2.78 2.83-2s1.73 2.18.73 3.75c-4 6.25-5.37 13.67-5.8 20.56-.43 7.22-1.06 14.75.77 22.16s2.42 14.86 4.46 22.17c2.12 7.6 3.55 15.38 5.56 23 1.44 5.5 2.5 11.33 5.2 16.2 3.86 7 10.2 12.23 15.53 18.14 1.68 1.88 3.8 3.4 5.5 5.37 3.57 4.22 7 8.64 11.3 12.15 3.2 2.6 6.72 5 8.7 8.5 4.23 7.52 11 11.7 18.6 14.25 14.5 4.86 29.8 6.63 44.36 11.3 8.2 2.6 16.74 3.72 24.94 6.36 8.4 2.7 17.22 3.76 26.05 4.26 2.53.13 4-.4 4.56-3.45 1-5.4 1.73-10.83 4.55-15.87 3.12-5.57 5.3-11.66 7.84-17.55.77-1.82.75-3.06-1.4-4.58-3.92-2.77-8.23-3.92-12.72-4.8-9.2-1.84-18.36-4-27.54-5.93-16.15-3.4-31.92-8.48-48.2-11.43a5.82 5.82 0 0 0-5.64 1.5c-2.4 2.16-5.08 4-7.63 6-.5.4-1 .87-1.6.32a1.27 1.27 0 0 1-.05-1.7 9.76 9.76 0 0 1 2.62-2.6c3.12-2.44 6.48-4.6 9-7.75.63-.8 1.33-1.1.82-2.43-2.4-6.33-4.66-12.7-6.9-19.1-2.12-6-5.72-11.3-8.08-17.12a114.35 114.35 0 0 0-8.92-17c-1.93-3.13-4.84-6.26-1.17-10.1 4.67-4.9 3.88-10.8 3.27-16.83-1-9.86-4.46-19.1-6.66-28.65a39.53 39.53 0 0 0-5.9-12.3c-4.62-7.12-12.3-9.8-20.25-11.13-4.12-.7-7.2-2-9.18-5.9-3.34-6.55-8.37-11.74-13.9-16.47-1.32-1.12-2.3-2.64-4.1-3.14-4.92-1.36-9.76-3.24-14.76-4-4.04-.57-7.88-.58-11.6 3.44-8.55 9.18-15.93 19.3-24.6 28.4-12.3 12.8-21.45 28.2-31.53 42.8-.35.5-1 1-.2 1.52a1.54 1.54 0 0 0 2.05-.15c.77-1 1.3-2.1 2.06-3.06 1.9-2.47 3.93-4.82 6.8-6.24.94-.46 1.95-.82 2.8-.06s0 1.64-.37 2.36a10.9 10.9 0 0 1-1.74 2.82c-3 3.42-5.9 7-9.32 10.06s-4 7-4 11.13c0 .65-.07 1.28.68 1.56a1.17 1.17 0 0 0 1.6-.55c1.33-3.56 4.34-5.84 6.57-8.7 3.22-4.18 6.74-8 11.73-10.1-3 3.8-7.46 6.3-9.32 11a7.44 7.44 0 0 0 3.47-2.78c.6-.87 1.7-1.5 2.54-.8s.13 2.07-.47 2.63c-4.54 4.28-7.7 9.86-12.3 13.9a12.44 12.44 0 0 0-4.57 10.34c0 .92-.78 2.18.4 2.7s2.06-.73 2.65-1.57a161 161 0 0 1 13-15.76 24.12 24.12 0 0 1 10.66-7.23c-2.74 2.53-5.78 4.65-8.07 7.6-.5.65-1.72 1.17-1 2.1 1.74 2.43-.07 3.73-1.5 5-2.4 2.07-4.17 4.6-6.22 6.94-3 3.4-4 8.2-7.18 11.18s-3.57 6.2-3.65 9.9c0 .8-.74 1.87.36 2.33s1.7-.76 2.3-1.47c3.4-4.07 6.72-8.24 10.2-12.26 1.57-1.82 3.27-3.7 6.74-4.15-1.86 2-4.85 3.54-4.05 4.5 2.24 2.7-.52 2.6-1.4 3.38a16.7 16.7 0 0 0-2.84 2.93c-2.8 4-5.5 8-8.43 11.8-2 2.62-5 4.3-3.9 8.24.38 1.25-1.1 3.08.48 3.68s2.1-1.34 3-2.32a66.34 66.34 0 0 1 5-5 6.38 6.38 0 0 1 5.15-1.87 32.4 32.4 0 0 0-8 7.82c-1.64 2.16-2.35 5.06-4.6 6.7-1.58 1.15-1.7 2.6-1.84 4.2-.07 1-.18 2.2.8 2.7 1.2.63 1.7-.57 2.3-1.3a38.74 38.74 0 0 1 3.15-3.7c2.63-2.46 4.86-5.66 9.6-5.77-1.92 2-4 2.94-5.48 4.58-3.68 3.95-5.67 9.33-10.53 12.28-.9.54-.83 1.8-.76 2.78a16.67 16.67 0 0 1-.06 5.56 1.56 1.56 0 0 0 1 2.1c.92.23 1.23-.63 1.66-1.2 2.2-3 4.28-6.1 6.65-9a12.8 12.8 0 0 1 8-5 49.9 49.9 0 0 0-12.5 15.46c-.58 1.1-1.23 2.12-2.87 1.82-1.25-.22-2.1.4-2.22 1.84-.23 3-.58 5.94-.84 8.9-.05.6-.15 1.32.55 1.65.87.42 1.4-.2 1.86-.8 1.85-2.34 3.67-4.7 5.5-7.06 1.55-2 3.53-3.18 7.12-3.84-3.8 3.16-6.58 5.7-8.36 9.25a19.23 19.23 0 0 1-5 6.88 7.28 7.28 0 0 0-2.74 6.25 61.27 61.27 0 0 1-1.5 14.55c-1.37 6-.86 6.83 5.07 8.48.35.1.72.2 1.06.32 19 7.25 38.75 12.37 58 19 10.2 3.52 20.8 5.76 30.72 10.07.87.38 2.44.35 2.13 1.55-.35 1.36-1.93.78-2.86.5-2.73-.8-5.42-1.93-8.13-2.6-14.12-3.45-27.68-8.73-41.6-12.83s-27.9-8.07-41.3-13.73c-1.67-.7-3.47-1.06-3.75 1.22-.5 4.26-1.85 8.44-1.53 12.84 1.75.2 3.1-.7 4.86-.43 6.66 1 12.8 3.78 19.2 5.54 16.4 4.5 32.15 11 48.6 15.4 10.27 2.75 20.28 6.56 30.3 10.24 5.55 2 11.26 3.93 16.5 7.4-8.35 6.88-17.65 11.4-26.73 16.33a3.26 3.26 0 0 1 1.2-2c5.65-4.72 12.3-8 18.34-12.08.8-.57 1.93-.86 2-2 .1-1.45-1.3-1.24-2.13-1.62-3.94-1.82-8.38-2.2-12.3-3.8-4.28-1.73-8.73-2.8-13-4.3a5.1 5.1 0 0 0-4.9 1.1c-10.53 8-22.3 14-34.06 19.94-1.54.8-3.07 2.1-6 1.55 13.48-7.74 26.5-14.84 38.68-24.06-.87-.4-1.27-.64-1.7-.8-7-2.35-14.44-3.93-21-7.24-7.34-3.7-12.56-.55-17.74 3.4-10 7.65-20.4 14.68-30.9 21.6-3.72 2.47-7.48 4.9-11.12 7.48a3 3 0 0 0-1.45 3.56c.55 1.63 2 1.2 3.16 1.3 4.7.42 9.4.9 14.08 1.66 14.32 2.32 28.78 3.56 43.06 6.06 2.8.5 3.66 1.34 3.35 4.3a4.77 4.77 0 0 1-2.85 3.93c-5.28 3-10.65 5.9-16 8.8-.93.5-1.87 1.33-3.1.7.74-1.6 2.2-2.33 3.54-3.17 4.63-2.9 9.3-5.74 14-8.63.74-.47 2.36-1.1 1-2.05-1.65-1.17-3.32-3.28-5.93-1.56-6.8 4.48-14.64 6.8-21.7 10.74a15 15 0 0 1-6.46 2.2c7.5-5.64 15.9-9.64 24.08-14.5-4.34.4-8.4-2-12.92.15-8.1 3.83-15.67 8.6-23.5 12.93a1 1 0 0 0-.38 1.38c7.16 2.1 14.37 4.33 21.64 6.3 14.24 3.9 28.5 7.83 41.93 14 7.37 3.4 14.9 6.7 21.4 11.72a6.1 6.1 0 0 0 7 .52c6-3 12-6.06 18-9.05 1-.5 2.4-2 3.25-.7 1 1.5-.73 2.37-1.93 2.96q-8.2 4-16.43 8c-.9.42-2.2.74-1.93 1.9s1.43 1.55 2.66 1.6a6.48 6.48 0 0 0 3.43-1.2c7.18-3.93 14.4-7.8 21.6-11.7 1-.53 2.35-1.23 3-.04s-.78 1.83-1.74 2.32c-6.52 3.34-13.08 6.6-19.54 10.05-1.1.58-3.47.84-2.94 2.22s2.54 2.57 4.5 2.62a7.7 7.7 0 0 0 3.92-1.1c7.2-3.94 14.36-7.9 21.58-11.8 1.18-.65 2.53-2.74 3.7-1.2 1.45 1.88-1.15 2.53-2.16 3.57a9.78 9.78 0 0 1-1.93 1.1c-5.74 3.56-11.92 6.22-17.9 9.28-1.3.67-2.78 1.1-3.43 2.7 1.9 1.52 3.7 1.44 5.83.3 8.53-4.6 17.17-9 26-13 1.27-.58 3.14-1.46 3-2.5-.5-4.68 3.33-6.82 5.44-9.82 8.78-12.76 15.78-26.46 22.38-40.35 3.5-7.4 4.75-15.75 9.57-22.58 1.14-1.63-.43-2-1.3-2.35-3.55-1.46-7.1-2.9-10.74-4.12-10.84-3.63-21.64-7.36-32.23-11.67-4.9-2-5.9-4.56-5-9.75 1.43-8.8 3.25-17.56 1.13-26.6-1.32-5.62-1.06-11.18 4.83-14.73-4.73-2.86-7.7-7.06-11.4-10.5-.65-.6-1.1-1.36-2.14-1.05s-1.14 1.14-1.3 2c-3.65 19.3-7.62 38.57-5.87 58.45.63 7.23 2.65 14.1 4.48 21 .22.85.46 2.14 2 1.2 2.83-1.73 3.6-1.15 4.7 1.9 1.8 4.86 3.16 9.88 5.5 14.54 1 2.07 1.75 4.33 2.6 6.5.28.68.8 1.53-.05 2s-1.58-.18-2.07-1c-1-1.7-2.37-3.26-3.07-5.07-1.67-4.28-4.17-8.2-5.23-12.75-.2-.82-.6-2.24-1.9-1.86s-.56 1.47-.48 2.44c.28 3.66 2 6.94 3.3 10.13 1.23 2.93 1.94 6.57 4.9 8.5 1.23.8 1.95 1.46 1.68 2.88a1.5 1.5 0 0 1-1.6 1.26c-1.48.07-2-.8-2.73-2-3.63-6.16-5.68-12.93-7.94-19.63a128.52 128.52 0 0 1-5.64-59.48c1.5-10.74 4.14-21.37 2.2-32.33-.17-.96-.33-2 .74-2.7 2.57-1.64-.53-2.42-.64-3.68a1.62 1.62 0 0 0-2.33-1.2c-1.45.62-1.15 1.9-1.06 3.2a89.83 89.83 0 0 1-.38 16.43 5 5 0 0 1-.6-2.13c-.36-5.7-.67-11.42-1-17.13-.2-2.87-.63-5.68-2.94-7.74a2.1 2.1 0 0 0-2-.72c-1 .3-.73 1.13-.7 1.87.06 2.34.12 4.66.23 6.97zm42.62 219.77c-2.2.27-3-1.24-3.8-2.32-1.62-2.33-3-4.85-4.4-7.33-5.94-10.48-12.16-20.64-25-23.8-.5-.1-.9-.25-1.06-.84-.72-2.9-3.3-2.8-5.46-3.35-.66-.16-1.87.34-1.9-.54-.08-3-2.72-2.43-4.25-3.3-.88-.52-1.8-.94-2.66-1.48-4.7-2.9-9-7-15.83-6.2 1.45-1.16 1.8-2.1.2-3-6.66-3.58-13.16-7.5-20-10.8-12.36-6-25.6-9.7-38.7-13.47-16.55-4.76-32.84-10.44-50.07-12.82-12.3-1.7-24.4-4.64-36.83-5.62-16.63-1.32-33.27-2.26-50-1.28-1.53.1-3.53.1-3.88 1.52s1.47 2.32 2.76 3c5.12 2.8 9.64 6.48 14.23 10a6.48 6.48 0 0 0 5.18 1.1c6.54-.75 12.76-3.1 19.4-3.46 3.44-.2 5 1.28 6.46 3.8.3.54.85 1 .12 1.55a1.3 1.3 0 0 1-1.72.12 5.78 5.78 0 0 0-4-1.7c-6.3 0-12.22 1.74-18 3.94-2.38.9-4.46 2.38-6.7-.9-.77-1.12-3-2.28-4.53-3.4-8.16-6.07-17.17-11-25.16-17.2-8.54-6.66-18-11.9-26.68-18.26-1.1-.8-2.5-1.9-1.9-3.13s2.46-.9 3.8-.8c.56 0 1 .72 1.62.83 4.22.84 8.45 1.57 13.47 0-2.18-1-3.6-1.72-5.1-2.2-2.23-.7-4.6-2.52-6.4 1-.58 1.16-1.28 0-1.82-.72a13.25 13.25 0 0 0-9.33-5.6c-3.06-.34-6.2.05-9.3-.16a78.42 78.42 0 0 0-10.72.33c2.28 4.26 8.4 4.8 8.8 10.35 0 .4 1.2.73 1.88 1.05a15.3 15.3 0 0 1 3 1.44c10.7 8.6 23.56 14 33.9 23.18 6.57 5.85 15.07 9.26 21 16a3.27 3.27 0 0 0 1.3.65 4.18 4.18 0 0 1 2.8 3.3c1.45 5.08 5.66 6.6 10.4 4.3.77-.4 1.8-1.44 2.57-.3s-.16 2-1 2.8c-3.23 2.83-6.63 5.45-10.12 8 8.94-3.3 18.65-5 24.92-13.12a1.2 1.2 0 0 1 1.64-.38c.75.42.78 1.17.88 1.92.17 1.24-1.73 1.44-1.37 2.76 6-.1 11.9-1.24 15.27-5.38.7-.84 1.43-1.46 2.54-1 1.3.52.5 1.43.28 2.2-.43 1.44.62 1.4 1.47 1.38 4.8-.14 10 1.84 13.83-3a1.57 1.57 0 0 1 2-.5c1 .5 1.06 1.17.55 2.12-.74 1.42.52 1.6 1.26 1.44 3.3-.76 6.9 2.2 10-.75a1.6 1.6 0 0 1 1.34.12c1 3.44 3.92 2.06 6 2.3 10.77 1.25 21.14 4.2 31.62 6.8 3.07.75 5.6 3 8.57 3.17 10.43.64 20.08 4.25 29.78 7.53 12.28 4.14 23.58 10.64 35.48 15.74a289 289 0 0 1 26.56 12.86c12.84 7.14 26 13.64 38.32 21.8 4.44 2.95 4.58 4.92.26 8.28-7.5 5.84-16.32 9.62-23.88 15.17-10.3 7.56-21.65 13.14-32.62 19.42-19.3 11-39.15 20.9-60.15 28.45a348 348 0 0 1-48.8 13.6c-2.64.55-5.4.9-7.74 2.16 4.5 3.4 8.86 6.48 13 9.85 12.36 10 25.1 19.57 35.33 32 6 7.26 12.32 14.25 17.94 21.8 2.13 2.85 4.3 5.36 9.4 6.5-5.28 1.1-4 2.78-2.28 4.9 2.2 2.8 4.85 5.17 6.88 8.18 7.27 10.76 14.68 21.43 21.36 32.58 3.43 5.74 7.16 11.3 9.95 17.38 2.46 5.4 7.35 6.94 12.5 8.06a2.75 2.75 0 0 0 2.88-1.2c5.7-7 12.82-12.44 20.1-17.65.7-.5 1.62-1.4 2.3-.75.86.8.6 2.13-.05 3.1a4.88 4.88 0 0 1-1.68 1.44c-6.1 3.43-11.46 7.9-16.87 12.3-1 .77-2.35 1.36-2.5 2.93 3.83.68 4.92.5 6-.77a91.78 91.78 0 0 1 24.53-19.54c.92-.5 1.72-.74 2.3.08s-.34 1.43-.86 1.82c-2.87 2.16-5.78 4.3-8.74 6.33-5.37 3.7-10.9 7.2-15.83 11.86 3.9 1.4 13.7-1 16.17-3.82 6.44-7.36 14.12-13.26 22.05-18.88 1-.7 1.94-1.38 2.8 0 .76 1.18-.18 1.94-1 2.4-2.84 1.56-4.94 4.08-7.76 5.76a55 55 0 0 0-14.1 12c4.38-.54 8.92.07 12.68-2.88s7.33-6 11.1-8.83c4.15-3.15 8.44-6.13 12.68-9.18 1-.74 2.2-1.66 3.32-.5 1.4 1.44-.32 2.2-1.1 2.94a34.6 34.6 0 0 1-5.7 4.2c-6.14 3.9-12.2 8-18.28 11.94a135.13 135.13 0 0 0 18.23-1c1-.1 1.36-.93 1.9-1.63 5.85-7.44 13.4-12.9 21.14-18.16.65-.43 1.26-1.5 2.2-.4.73.85.3 1.53-.33 2.27a27 27 0 0 1-5.2 4.23c-5.43 4-11.3 7.43-16.34 13.22 11.36-.56 22-1.08 32.55-1.62a1.48 1.48 0 0 0 1.46-.95c2.46-6.33 8.66-8.76 13.38-12.74.45-.38 1.28-1.58 2.06-.15.52 1 1.3 1.9-.13 2.8a57.45 57.45 0 0 0-5.57 3.73c-2.66 2.16-6.36 3.17-8.17 7 4.47 0 8.45.26 12.4 0 16.2-.9 32.32.23 48.46.87 13 .52 25.87 3 38.84 4.12a83.13 83.13 0 0 0 40.73-6.68c5.3-2.26 10.18-5.3 13.2-10.58-6.92 3.75-13.36 8.33-21 10.58 4.2-3.28 8.7-6.05 13-9.06 7.87-5.45 15.5-11.2 20.25-19.85.34-.6.64-1.08 1.32-1a1.76 1.76 0 0 1 1.6 1.33c.27.73-.63 1.78.57 2.23 9.92-13.9 21-26.86 29.8-41.43-.83-1.1-1.88.84-2.7-.35 3.33-2.5 7.2-4.5 8.5-9.13l-4.4 2c.47-2.57 2.38-3.86 4.1-4.66 5.14-2.4 7.7-6.83 10.1-11.5a38.2 38.2 0 0 1 2.47-4.16q14.23-20.7 27.1-42.3c7.14-11.9 13.76-24.13 20.72-36.16 1.85-3.2 3.75-6.6 8.17-6.82 1.3-.07 1.55-1.2 1.84-2.06 2-6.14 6.56-11.53 5.54-18.6a2.62 2.62 0 0 1 .52-1.7c4.37-6.04 3.62-12.92 2.93-19.65-.74-7.2-3.68-13.87-6.12-20.58-4.5-12.34-10-24.33-14.23-36.74-6.17-17.88-15.4-34.3-23.53-51.23a283.4 283.4 0 0 0-16-29c-5.97-9.6-12.64-18.6-22.25-25.1-6.88-4.67-14.83-6.52-22.63-8.18-2.15-.46-4.5-.88-6.8-1.3-5.24-1-13.3 7.08-13.55 12.46s1.56 10.3 3.3 15.3c2.78 7.92 5.2 16 12 21.6a20.45 20.45 0 0 1 3.52 3.8c6.55 9.1 14.13 17.42 19.75 27.22 6 10.5 12.57 20.68 18.8 31.07 3.47 5.82 7.1 11.6 10 17.7 5.7 11.82 10.92 23.82 16.25 35.82a23.05 23.05 0 0 1 2.17 8.17 36.55 36.55 0 0 0 3.8 13.8c3.26 6.83 4 13.3.7 20.12-1.26 2.55-2.82 5-4.17 7.46-5.4 10-10.4 20.3-16.2 30.08-8.22 13.78-15.63 28-23.62 41.9-9.67 16.84-19.2 33.73-31 49.24-3.66 4.83-7.74 8.92-13.6 11.18-6.6 2.54-13.5 3.52-20.37 4a237.57 237.57 0 0 1-44.34-.78c-14.47-1.64-29-2.85-43.4-5-11-1.65-21.9-4.53-32.87-6.78-6.82-1.4-13.77-2.26-20.48-4-11.17-2.94-22.8-4-33.53-8.65a2.43 2.43 0 0 0-.73-.16c-11-1-21.52-4.63-32.1-7.27-16.68-4.15-33.53-7.88-50-13.16-19.9-6.4-39-14.68-58.65-21.76-6.26-2.25-12.5-4.62-18.9-6.47-3-.86-8.55.62-8.36-5.6 0-.65-1-.57-1.57-.7a18.26 18.26 0 0 1-2.85-.74c-.9-.36-2.1-.83-1.6-2.1s1.7-.7 2.6-.4c3.24 1.1 6.17 2.83 9.55 3.87 12.45 3.84 24.76 8.2 36.8 13.2 5.44 2.27 10.77 4.8 16.5 6.28 1.52.4 3.64.3 2.78-1-1.17-1.83-5.32-4.1-5.86-3.62-3.35 3-2.6.18-2.76-1.56-.1-1-.8-1.4-1.47-2-4.5-3.9-7.9-8.83-11.76-13.33-1.63-1.92-1.4-3.82 1-4.2 4.56-.7 8.3-3.2 12.47-4.76 6.58-2.46 13.38-4.62 19.53-7.93 13.2-7.12 26.9-13.43 39-22.4 2.9-2.15 7.3-3.66 8.4-6.5 1.4-3.53 3.3-2.7 5.53-2.88.73-.06 1.5-.5 2 .3s-.16 1.43-.75 1.83c-1.66 1.14-1.54 2.64-1.1 4.3.75 2.76 1.1 5.68 2.22 8.27 2 4.53 2.1 9.63 4.82 13.93 2 3.18 3 1.9 4.17-.48 1.8-3.82 3.43-7.75 5.5-11.44 4-7.25 4.1-14.67 1.92-22.47-.8-2.88-2.12-6.56 3.12-7.2.83-.1 1.55-1.15 2.32-1.76 4.5-3.54 6.75-8.84 10.34-13.08.94-1.1 1.73-2.7 3.4-2.62 2 .08.54 2.44 1.9 3.28a4.43 4.43 0 0 0 1.1-.85c5.1-7.6 12.26-13 20-17.43 4-2.28 5.14-5.27 5.6-9.47a17 17 0 0 0-7.9 4.4c-5.54 5.12-11.83 9.42-16.68 15.33a2.9 2.9 0 0 1-4.1.4c-1-.8-.22-1.66.42-2.16 8.5-6.66 16.1-14.57 26-19.34 2.54-1.23 3.84-2.78 4.22-5.54a44.24 44.24 0 0 1 2.3-10.16c.7-1.86 2.22-4.7.74-5.8-1.7-1.3-3.6 1.24-5.28 2.4-4.92 3.44-9.72 7-15.6 8.84 6-5.52 12.8-10 19.57-14.5 1.6-1.05 4.12-1.75 3.14-3.6s-3.33-.26-5 .47c-.34.16-.64.4-1 .56-4.33 2.17-8.6 4.52-13 6.42-2.27 1-4.53 2.36-7.27 2 4.85-3 9.9-5.66 14.77-8.6 4.56-2.76 8.93-5.83 13.34-8.84 1-.7 2-1.65 1.5-3.1s-1.87-.74-2.9-.7a15 15 0 0 0-7.5 1.83c-8.36 4.93-16.5 10.2-25.28 14.38-1.25.6-2.1 2.13-4.48 1.6 8.83-7.05 18.68-11.47 27.55-17.64-6.34-.12-12.68 0-19-.93a13.82 13.82 0 0 0-9.87 2.42 149.07 149.07 0 0 1-27.66 14.65c-1 .4-2.5.67-2.67 2.56 4.06-.33 6 2.4 7.45 5.47 4.2 8.8 10.8 16.26 14.1 25.97zm-354.6-9a2.6 2.6 0 0 1 .23-.78c4-4.94 10.16-6.4 15.46-9.24 1.8-1 3.27-1.4 2.8-4.25-.53-3.1.24-6.4.86-9.6a81.35 81.35 0 0 1 7.28-20.53c3-6 6.12-7.83 12.63-6.2 7 1.75 13.72 4.16 19.65 8.45a5.34 5.34 0 0 0 6.6 0c1.38-1 1.7-2 .38-3.35-7.77-7.66-15.25-15.66-23.43-22.85-4-3.5-8.8-6-15-5.52-8 .65-15.65 2.72-23.28 4.92-3.27.94-7.7.1-8.5 5.18 0 .25-.6.42-.9.64-10.18 7.45-17 18-24.95 27.47-5.38 6.46-9.58 13.9-14.5 20.77-12.36 17.25-24.58 34.53-35 53.12-7.32 13.05-15.53 25.66-22.33 39s-14.6 25.87-22.12 38.7c-3.13 5.33-3.4 5.3 2.57 6.77 7.83 1.9 15.43 2.7 22.9-2.14 4.55-2.95 9.5-5.4 14.1-8.32 18.15-11.5 36.26-23.15 55.86-32 17.07-7.73 34.83-13.8 53.37-17.05a288.85 288.85 0 0 1 57.43-4.7 224 224 0 0 1 49 7c4.4 1.1 7.6 4.32 11.72 5.45 9.58 2.6 18.1 6.7 23 15.75 4.08 7.44 9.14 8.48 17.57 6.78 34-6.86 66.36-18.1 96.85-34.58 14.3-7.73 28.74-15.23 42.44-24.05 8.87-5.7 17.9-11.16 26.87-16.67 2.48-1.52 2.5-2.4-.1-4-9.76-6.14-19.68-12-29.95-17.25-13.6-6.95-27.15-14-41.12-20.2-11.68-5.17-23-11.14-35.43-14.58q-11.85-3.28-23.77-6.34c-12.75-3.28-25.33-7.3-38.53-8.7-3.9-.43-7.6-.87-11 1.75a1.88 1.88 0 0 1-2.6-.07c-.06-1.35 1.85-1.4 1.57-3.16-11.5 0-23-.77-34.46 1.8a159.6 159.6 0 0 0-17.87 4.7c-7.47 2.6-15 5.2-22.4 8-11.13 4.16-22.15 8.53-32.73 14.15-10.27 5.46-21.62 8.9-31.9 14.34-4.32 2.28-8.24 4.7-13.12 5.86-4 .94-7.64 3.44-11.42 5.3-1.5.6-3.02 1.3-4.72.22zm457.63-59.88a42 42 0 0 1-3.64 5.26c-2.3 3.15-5.57 5.13-8.32 7.7-7.77 7.3-12.63 16.44-16.1 26.4-5.1 14.62-9.93 29.33-15.48 43.76-8.28 21.5-17.95 42.47-23.28 65.06-3.15 13.3-11.2 24.2-19.92 34.48-1.82 2.15-2.22 2.88.8 4.24 8.9 4 18.23 7 27 11.4a6.55 6.55 0 0 0 5.4.67c5.26-1.95 10.85-2.46 16.38-3.07 8.36-.92 15.7-4.26 22.56-8.93.6-.4 1.47-1.24.7-1.73-1.8-1.12-1.6-3.3-3-4.6-6.28-5.88-9.14-13.83-12.6-21.36a13.43 13.43 0 0 1 0-10.82c5.55-13.33 14.07-25 20.8-37.72 6.36-11.95 14.4-22.9 21.12-34.6 13.14-23 28-44.95 40-68.58 4.22-8.34 11.2-15.55 11.38-25.73.07-3.9 2.73-8.53-3.36-10.46-.3-.1-.44-1.1-.4-1.67a4.46 4.46 0 0 0-1.08-3c-2.9-4-5.5-8.28-8.53-12.2-2.1-2.68-4.32-6.24-7.63-6.7-8-1.1-15.66-4-24-3.1-3.64.37-7.35.73-11.05.88-6.23.26-12.43-.1-18.63-.15-10.5-.1-21.13 1.2-31.32-2.67-1.1-.4-3.14-.08-3 .53 1 3.34-1.83 5.55-2 8.6a35.4 35.4 0 0 1-4.2 14.92c-2.93 5.32-5.88 10.64-9.14 15.76-6.17 9.74-12.17 19.66-21.1 27.28-1.56 1.32-3.07 2.7-5.27 4.64 8.8 0 16.62.88 24.6.63a269.52 269.52 0 0 0 40.7-4.14 30.26 30.26 0 0 0 13.4-6.06c2.3-1.83 4.3-4.22 8.22-4.94zm311.57 228.48c.1-.22.15-.52.32-.66 9.2-7.6 18.74-14.74 28.5-21.6.86-.6 2.53-.8 2.08-2.62-1-4.25-4.3-5.55-7.9-2.9-9.25 6.8-19.45 12-29.16 18-5 3.1-5.08 3-2.5 8.14 2.52 5 3.8 10.43 5.64 15.66 2.86 8.1 6.83 15.8 7.85 24.6.7 5.88.23 11.7-.22 17.44-.43 5.57-2.3 11.2-4.43 16.43-1.4 3.47-1.36 8.5-6.7 9.42-.65.1-.78 1.08-.27 1.56 2 1.92.4 3.43-.55 4.9-2.6 4.08-6.5 6.86-10.47 9.35-9.26 5.78-19.63 8.75-30.17 11.2-6.6 1.55-13.2 3-20 1.42-16-3.72-31.9-7.28-45.78-16.93a106.83 106.83 0 0 1-33.78-38.4 74.35 74.35 0 0 1-8.38-38.13c.08-2.43-.42-3.45-2.87-1.88-1.5 1-3.22 1-5.7 1 14.75-12.44 32-20.26 45.46-33.33a126.55 126.55 0 0 0-14.63 5.86c-9 4.4-18.25 8.42-27.43 12.52-3.9 1.74-7.65 3.56-10.17 7.66-4.3 7-9.47 13.38-14 20.2-1.15 1.76-3.42 2.95-3.15 5.64 1.86 18.77 8.75 35.93 17.32 52.4a101.17 101.17 0 0 0 34.9 38.5c8 5.25 16.33 10 25.3 13.3 17.62 6.5 36 6.6 54.5 5.62 13.12-.7 25.48-4.57 37.42-9.53 8.33-3.46 16-8.3 21.85-15.66 5.08-6.38 10.42-12.67 16.78-17.8 8.35-6.76 14.67-15.2 20.12-24.14 5.3-8.7 8.4-18.47 10.07-28.65 2.2-13.32 3-26.54-1.17-39.66-3.1-9.76-6.8-19.18-13.37-27.23-1.5-1.85-3-3.56-5.52-1.76-5.77 4.1-11.5 8.27-17.27 12.37-3.97 2.86-7.72 6.05-12.5 7.74zm-870-41.6c4.84.4 8.54.76 12.24 1 15.64 1.2 31.28 2.47 46.93 3.5 5.7.36 11.36 1.28 17.1.9 1.8-.12 2.76-.34 3.36-2.45a18.24 18.24 0 0 1 6.65-9.6c5.36-4.1 10.68-8.28 15.17-13.36 3.48-3.93 7.18-7.57 11.8-10.1 3-1.6 5.7-3.13 9.6-3.04 2.62.06 5.65-1.68 8.82-1.37 21.2 2.08 42.18 5.26 62.8 10.74 14 3.73 28.08 7.34 41.38 13.37a154.43 154.43 0 0 1 48.1 33.77c3.4 3.52 2.82 7.15-1.42 9.7-1 .64-2.62.7-3.14 2.37 21 1.56 41.74 3.14 62.7 2.53-1.84-2-3.25-4-4.76-6A77.63 77.63 0 0 0 385 859.1c-9.37-7.93-18.8-15.78-27.34-24.65a60.67 60.67 0 0 0-4.8-4.63c-6.8-5.68-13.87-11.1-19.26-18.28-.85-1.13-2-2.24-3.3-2.3-2.5-.08-3.25-1.85-4.4-3.45a99.24 99.24 0 0 0-12.18-13.6c-2.38-2.27-5.66-1.77-8.05-3.44a55.28 55.28 0 0 0-15.74-7.4c-15.2-4.56-30.84-6.47-46.72-6.93-19.56-.57-38.85 1.27-58.12 4.53-15.38 2.6-29.92 8-44.5 13a117.73 117.73 0 0 0-32.3 17c-3.08 2.32-7.14 3.3-10.5 5.34-8.47 5.12-17 10.2-25.08 15.87-4.1 2.85-8.84 4.57-13.6 8.62zm457.1-627.1c.24-.26.4-.57.56-.58a9.32 9.32 0 0 1 1.8.07c4 .55 4.7-.2 3.8-4a11.52 11.52 0 0 0-1.6-4.52c-1.12-1.52-.3-2.58 1.22-3.13a14.1 14.1 0 0 1 5.43-1 48 48 0 0 0 7.44-.36c1.43-.15 2.34-.88 1.15-2.53-2.32-3.22-4.67-6.32-8.1-8.53a84 84 0 0 0-39.2-12.93c-3.2-.26-6.48.08-9.68-.23a63 63 0 0 0-34.7 6.16c-15.08 7.37-25.67 19-33.33 33.37-3 5.66-6 11.38-8.77 17.2a22 22 0 0 0-2.3 6.27c-.4 2.7 1.3 4.47 2.92 6.1s3-.28 4.2-1a26.7 26.7 0 0 1 17.53-3.53 75 75 0 0 1 21.66 6.33c9 4.17 18.8 7.14 25.53 15.27 1.56 1.9 3.78 3.22 5.52 5s3.44 1.87 5 .5c3.35-3 8.14-3.62 11.1-7.12 1.16-1.36 2.6.36 4-.38.55-.28.3 1.72.28 2.6q-.16 5.57-.67 11.13c-.2 2.37.65 3.24 3 3.56 3 .4 6.27 0 9.24 1.43-.58 1.13-1.27.93-1.85.93-3.6 0-7.2-.15-10.8-.08-1.34 0-3.08.2-1.88 2.4 2.3 4.2 4.38 8.57 7.55 12.26 2.1 2.43 4.8 4.58 6.1 7.4 2.26 5 4.93 8.52 10.88 9.22 5.5.65 13.85.15 15.83-8 1.37-5.65 3.2-11.2 4.28-16.9 1.84-9.73 3.6-19.5.06-29.3-.5-1.35-.83-2.4-2.3-2.28s-1.96 1.33-2 2.7c0 1.8-.1 3.6-.13 5.4-1.67-2.5-.64-5.26-1.4-7.83-.4-1.26-.88-2.46-2-2.2-3 .7-4.22-1.3-5.6-3.08-1-1.3-1.52-2.7-3.66-1.1-1.44 1.1-1.42-1.38-1.27-1.5 3.1-2.62.43-4.86-.64-6.88-2-3.8-3.4-8-6.25-11.3-5.24-6.1-12.68-4.2-19.33-5-1.35-.18-2.5.88-2.73 2.54-.15 1 0 2.26-.87 3.17-1.2-1.86 1.5-5.27-1.52-5.55-4.07-.37-3.6 3.73-4.2 6.8-1.13-1.67-.45-3-.33-4.28a1.78 1.78 0 0 0-.8-1.94c-.78-.4-1.44.14-2 .6a5.1 5.1 0 0 0-1.72 4c-.1 1.62-.27 3.23-.4 4.84l-.9-.12c0-1.47.08-2.94-.08-4.4s1.93-3.83-.7-4.26c-2.26-.36-2.7 2.08-2.9 4s-.44 4.18-.65 6.26c-.1.9 0 1.9-1.3 2.68.34-5.4-.54-10.48 1.64-15.35-4.8.92-5.47 1.6-5.86 5.92-.4 4.52.4 9.12-1 14.22a13.47 13.47 0 0 1-.94-2.54c-.63-5.5.27-11.07-.7-16.58-.2-1 .9-1.38 1.63-1.8 2.3-1.28 5.16-1.18 7.36-2.3 7.34-3.7 15.53-4.27 23.2-6.76a9.16 9.16 0 0 1 6.18-.4c-5.36 5.35-12.93 4.6-19.32 7.7a6.06 6.06 0 0 0 4.23.88c4.7-1.08 9.4-.65 14.08-.15 6.36.68 11.68 3.2 14.26 9.56a98.85 98.85 0 0 0 7.26 13.43 13.1 13.1 0 0 0 7 6.12c8.8 3.17 18.17 3.94 27 6.7 1.92.6 3.6 1 5-.9.28-.4.65-.82 1.22-.5s.7.87.5 1.57c-.17.53-1.33.94-.38 1.74 1.9-1.7 3.25-8 2.12-9.8a1.73 1.73 0 0 0-1.16-.78c-.8 0-1 .66-.87 1.3.2 1.14.43 2.22-1.4 2.6a53.65 53.65 0 0 0-2.8-17.27c-3.1-8.85-6.64-17.47-12.33-25.12-3-4.1-6.48-6.36-11.63-5.57a21.42 21.42 0 0 1-7 .26c-3.16-.52-4 .9-2.5 3.84a21.22 21.22 0 0 1 2.2 8.53c.13 2.7-2.4 6.22-3.44 5.7-2.22-1.13-5.26-1.3-7-3.55.75-1.2 1.7-.6 2.48-.74 1.2-.22 3.37.8 3.25-1.2-.1-1.56-2.17-1.33-3.47-.9-2.57.8-4.5-.4-6.36-2.2zm181.26 493.13c.67-4.6.7-9.34-.93-13.57a139.38 139.38 0 0 0-8.3-18.27c-2-3.66-4-7.4-5.88-11.14-.4-.78.47-2.26-.95-2.45-1.14-.15-1.5 1.1-2 2-6.24 10.3-12.35 20.67-18.8 30.83-3.04 4.8-6.42 9.4-9.04 14.48-4.33 8.37-8.62 16.76-13 25.1-.38.73-.5 2-1.48 2-2.7.1-3.3 2.25-4.4 4-7.9 13-15.1 26.52-23.62 39.2-3.3 4.94-6.5 10.14-8.45 15.68a24.24 24.24 0 0 1-5.3 9c-2 2.1-2 3.52-.58 5.32 1.84 2.32 2.76 5.18 4.8 7.42 3.6 3.93 6.93 8.1 10.28 12.24 1.84 2.27 3.75 4.2 6.8 4.87 2.4.52 3.56 2.63 4.26 4.8a48.63 48.63 0 0 1 1.65 6.88c.33 2 1.07 3.66 2.77 4.6 5.2 2.86 10.1 6.28 16.3 7a63 63 0 0 1 11.93 2.8c1.88.6 2.35-.38 2.74-1.46 1.5-4.2 2.8-8.46 4.26-12.67 2.65-7.72 3.5-16 6.85-23.47 4.9-11 7.9-22.5 10.8-34.06 1.33-5.37 4.55-9.86 5.9-15.1 5.62-21.83 10.43-43.75 13.38-66.05zM340.62 866.44a2.43 2.43 0 0 0-.8-1.65c-2.28-2.3-4.35-4.8-6.8-6.87a177.85 177.85 0 0 0-47.75-29.1c-14.67-5.93-30-9.34-45.25-13.14-16.52-4.14-33.54-6.1-50.53-7.7-3.08-.28-6.45-1.27-9.35.68-5.33 3.58-11.17 6.4-15.87 11-5.85 5.67-12.35 10.7-17.2 17.34-1.54 2.1-2.78 4.32-4.93 6-1.52 1.2-2 2.86 0 4.63 3.2 2.83 6.94 4.7 10.58 6.8 8.4 4.83 17.84 7.55 26 12.86a10.76 10.76 0 0 0 9.17 1.62c14.34-3.85 29.18-4.48 43.82-6.48a60.28 60.28 0 0 1 9.6-1c11.33.25 22.64-.27 33.96.14 17 .6 33.6 3.85 50 8.22 4.75 1.27 8.95 2.8 13.3-.6.84-.7 1.87-1.1 2.04-2.76zm165.7-319.34a26.92 26.92 0 0 1-.07 4c-.4 2.9.5 4.37 3.64 4.63 4.17.34 8.33 1 12.1 3.07 4.62 2.56 10 1.84 14.84 3.2 8.35 2.3 16.66 4.73 25 7.07a35.38 35.38 0 0 0 7.23 1.73c16.3 1 32.34 3.87 48.48 6.08 7.06 1 13.88 2.76 18.4 9.1a3.94 3.94 0 0 0 2.26 1.2c3.77.83 7.54 1.63 11.34 2.23 1.67.27 2.8-.5 1.8-2.4-3.37-6.28-4.63-13.32-7.26-19.87-3.5-8.7-7.54-17.18-9.75-26.36-.73-3-5.94-4.6-7.26-1.94-1.92 3.86-5.2 6.08-7.9 9a6.26 6.26 0 0 1-4 2.38 44.8 44.8 0 0 1-10.8.22c-15.64-2-31.38-3.34-46.78-7.06-9.3-2.24-18.45-4.68-27.25-8.6a82.73 82.73 0 0 0-21.4-6.17c-3-.46-4.15.37-4 3.84.23 4.68 2.28 9.12 1.38 14.66zM448.4 842.73c2.4-2.74 2.58-3 4.33-2.67 9.17 1.64 18.4 3.15 27.28 6 2.6.83 3 .26 3.48-2.26s-.68-4.93.05-7.35c2.5-8.32 5-16.63 8.9-24.43 1.55-3.1 3.08-6.1 1.68-9.84-3.27-8.78-6.25-17.67-8.7-26.74-.74-2.78-2.4-.74-3.4-.13-7.2 4.43-14.28 9.07-21.54 13.4-6 3.6-12.25 6.9-18.4 10.32-.72.4-1.86.58-1.65 1.72 1.15 6.2-.77 12-2.1 17.9-1 4.6-2.54 9.1-3.9 13.6-.84 2.73.32 3.9 2.88 4.46 2.74.6 2.87-.9 2.77-2.9a6.64 6.64 0 0 1 .4-1.8q4-16.13 7.95-32.25c.45-1.83 1.1-3.4 3.05-4.24.58 4-1 7.35-1.87 10.8-2.48 9.5-4.95 19-7.65 28.45-.6 2.14-.3 2.9 1.8 2.43 1.55-.34 2.5-.06 2.54 1.6 0 1.35-.5 2.46-2.13 2.53-2.45.13-4.8.43-7.24-.82s-5.2-2-7.55-3.57c-1.68-1.14-3.07-.04-3.52 1.45-.57 1.85 1.4 1.14 2.23 1.58s1.6.65 2.4 1c17 7.34 34.74 12.16 52.83 15.64 10 1.93 19.9 4.33 29.84 6.5 2.8.63 5.28 1.87 4.25-2.9-.2-.85.7-1.93 1-2.58-23.68-3.16-46.23-11-70-14.87zM634.5 862c2.78 1.76 5.4 3.95 8.4 5.16 7.18 2.9 12.66 7.12 14.9 14.93a36 36 0 0 1 1.32 4.56c.2 1.33-.14 2.83-1.38 3.18-1.5.42-1.4-1.26-1.74-2.23-.56-1.67-2.55-2.27-2.8-.93-.85 4.25-2.07 2.2-3.52.58-1.1-1.22-4.3-1.56-2.6-3.94 1.5-2.1 2.6 1.46 4.3 1.18.83-1.3-.86-3 0-3.88 2.7-2.74.5-3.82-1.42-5a174.23 174.23 0 0 1-26.07-19.7c-2.2-2-5.06-3.05-7.14-5.3-.74-.78-2.7-1.36-3.85-.43-4.45 3.66-10.32 2.85-15.3 5.1-5.8 2.6-12.14 4-18.2 5.88.26 1.18.92 1.32 1.42 1.66 8.73 6 17.9 11.46 25.18 19.3 6.14 6.6 14.14 5.52 21.86 6.2a21.24 21.24 0 0 0-5-4.27c-.92-.56-2-.88-1.32-2.12a2.08 2.08 0 0 1 2.94-.78c2.08.9 3.6 2.6 5.3 4 2.87 2.42 5.27 5.07 9.7 5.36 19.6 1.27 39.1 4.22 58.8 3.27a150.27 150.27 0 0 0 16.7-1.7c1.33-.2 2.87-.76 3.18-2.23s-1.48-1.33-2.3-2c-2.6-2-6-1.23-8.73-2.42-6.46-2.82-13.28-4.56-19.8-7.2-1.46-.58-4.1-3-5-.24-.8 2.44 2.56 2.78 4.33 3.67 3.78 1.9 7.84 3.3 11.23 6.58a4.48 4.48 0 0 1-3.67-.63c-8.06-4.77-17.26-6-26.08-8.44-2.3-.62-3.4-1.54-3.87-3.78 4.54-.93 8.24 1.65 12.26 2.66 1.2.3 2.64 1.18 3.3-.17s-.5-2.67-1.85-3.2c-3.94-1.5-7.83-3.28-11.9-4.17-7.08-1.54-13.72-4.17-20.46-6.66-3.38-1.2-6.62-3.42-11.15-1.8zm48.86-448.5a13.23 13.23 0 0 0-1.1 1.94c-.67 2-2.62 4.48-.38 6.14 4.16 3.08 7.08 7.2 10.35 11a18.62 18.62 0 0 1 4.8 12.55c0 9.35-1.22 18.6-1.8 27.9-.2 3.22-1.34 6.56-.73 9.58.44 2.2 1.12 3.77-.72 5.42-.54.48-1.22 1.14-.6 1.86.3.34 1.14.28 1.74.27 6-.1 6.42.2 6.95 6.34.13 1.55.37 2.73 1.87 3.72a9.76 9.76 0 0 1 4.33 8.22 56.54 56.54 0 0 1-3.35 20.16c-1 3-3.66 1.93-5.7 2.18-2.25.27-1.8-1.58-2.34-2.92-1.3-3.18.17-6.9-3-9.86-3.7-3.4-8.65-5.3-12.3-3.2-6.14 3.55-7.23 7.88-3.92 15.53 1.52 3.5 7.38 6 11.5 4.7 1.76-.55 3.4-1.53 5.17-2.1 1.07-.33 2.06-2.1 3.2-.83s-.33 2.2-1.08 3.14c-.43.54-1.34 1.3-.5 1.85 4.66 3 6.43 8.36 9.95 12.32 3.32 3.75 7.75 6.1 11 9.87.9 1.04 1.56 2.4 3.23 2 1.94-.47 1.28-2.23 1.4-3.45.74-6.68 4.16-10.73 10.9-12 3.2-.63 4.08-3.42 1.82-5.5-4-3.7-7.68-7.73-12.35-10.57-1.77-1.08-2.36-2.8-3.34-4.36-.37-.58-.55-1.38.3-1.45 4.05-.36 3.33-4.34 5-6.5.76-1 1.07-2.55-.22-3.33-1.52-.92-2.14.6-2.77 1.64a75.16 75.16 0 0 1-10.5 13c-.73.74-2.4 1.23-1.68 2.5s2 .26 3.07 0c.82-.2 2-1.17 2.36.54a2.27 2.27 0 0 1-1.2 2.83 6.27 6.27 0 0 1-5.76-.1c-1.82-.93-1.33-2.76-1.27-4.34.08-2 1.37-3.4 2.78-4.65 3.64-3.24 7-6.75 8.53-11.48.68-2.07 3.54-5.22-1.58-6-.32 0-.54-.76-.8-1.17-1.15-1.8-2.07-3.63-4.07-5-2.28-1.52-1.68-4.37.76-5.93 1-.64 2.95-1.16 2.3-2.44a28.7 28.7 0 0 0-5.66-7.32c-1.46-1.45-2.74-1-4.36-.93-1.88.1-3.25-.37-3.7-3-.64-3.5.45-6.6 1-9.85 1.63-10.66.5-21.34.13-32a12.5 12.5 0 0 0-2-7.1c-5-6.6-8.74-14.17-15.64-19.82zM618.1 526.45a27.2 27.2 0 0 1 4.38-.63 156.1 156.1 0 0 0 44.35-4.5c2.78-.7 5.52-1.9 6.92-4.63 3-5.76 7.64-7.44 13.67-6.14 2.06.44 3.77.25 4.62-1.9.36-.92.73-1.68 1.8-1.4s1.15 1.28 1.05 2.14a11.07 11.07 0 0 0 1.88 7c1.3 2.22 3 4.28 3.34 7 .1.65.3 1.67 1.2 1.68 1.18 0 1.1-1.15 1.37-1.92 1.35-3.78 1.63-7.76 2.34-11.67a8.58 8.58 0 0 0-3.92-9.3 4.43 4.43 0 0 1-2.1-5.1c.8-3-.32-3.84-3.08-3.8-10.56.13-21.07 1.1-31.55 2.24-9.5 1-19 2.53-28.55 1a4.48 4.48 0 0 0-4.4 1.43c-1.92 2.5-3.73 5.07-3.2 8.73.64 4.6-.52 10.1-4 12.07s-4.14 4.56-6.15 7.7zm84.52 27.42a3.63 3.63 0 0 1-2.88-1 150.53 150.53 0 0 0-23.78-14.55c-1.5-.75-5.23.14-3.45-3.8.1-.2-1-1-1.58-1.4-5.47-2.82-10.76-3.63-15.75 1.15a16 16 0 0 1-4.4 2.77c-5.7 2.62-6.3 8.23-6.87 13.2-.26 2.23.1 6.15 3.83 7.57 1.36.5 2.4 2 3.43 3.22.56.64.53 1.6-.65 1.42-2.53-.4-1.64 1.56-1.34 2.3.86 2.1 1.47 4.28 2.92 6.26 2.7 3.67 6.6 5.95 9.67 9.18a11.52 11.52 0 0 0 7.66 3.5 3.16 3.16 0 0 0 3.1-1.74c.7-1.45-1-1.4-1.67-1.92-5.28-4.33-10.64-8.56-15.88-12.92-1.22-1-3.84-2.14-2.52-3.77 1-1.23 3 .9 4.1 2 5.2 5.1 11 9.44 16.7 13.87 1.82 1.4 6.9.12 8-2.5s-2.1-2.18-3.28-3.18a18.72 18.72 0 0 0-3.5-2.1c-8.93-4.63-15.88-11.82-23.47-18.2-.6-.5-1.06-1.24-.26-1.86.64-.5 1 .28 1.5.65q9.38 7.5 18.8 15c3.74 2.95 8.48 4.12 12.3 7 1.26 1 3.06.12 3.88-1.2 1-1.63-1-1.62-1.7-2.26a60.7 60.7 0 0 0-9.72-7.34c-8.77-5.6-16-13.45-25.83-17.5-.72-.3-1.35-.76-1.18-1.65a2 2 0 0 1 1.86-1.6c.62-.1 1.35-1 1.9.07 2 3.8 6.1 5.26 9.17 7.83 7.25 6.1 15.34 11.1 22.82 17 5.18 4.05 6.7 3.82 10.28 1.2 1.67-1.22 1.5-2.06 0-3a68.7 68.7 0 0 0-7.2-4.6c-11-5.42-20.34-13.3-30.7-19.64-.78-.47-2.1-.7-1.82-2a2.9 2.9 0 0 1 2.16-1.9c1.74-.52 1.1 1.14 1.56 1.82a7.32 7.32 0 0 0 1.7 1.9c10.08 6.96 20.22 13.8 30.87 19.83 2.5 1.4 4.6 3.35 7.2 4.57a2.12 2.12 0 0 0 2.94-.63c.68-1.07-.7-1.43-1.27-1.9-1.92-1.54-3.95-3-5.94-4.42-6.2-4.54-12.4-9.06-18.56-13.62-.7-.52-2.1-1-.94-2.24.68-.7 1.5-.34 2.28.3 4 3.16 7.84 6.48 12.06 9.28 6.64 4.4 11.3 12 20.3 12.72.5 0 1 .8 1.5 1.05 3.8 1.84 7.13 4.7 11.58 5.43a7.82 7.82 0 0 0-2.83-6.7c-3.72-3.34-7.95-5.94-11.66-9.23-5.33-4.72-9.17-10.68-13.56-16.18-.84-1.07-1.53-1.55-2.75-1.17-1.88.57-4 .55-5.88 1.9 5.06 4.85 11.87 7.8 16.77 13.7zm-134 43.1c.7-3.32.5-3.85-2.56-5.56-1.73-1-3.73-1.48-5.32-2.6-4-2.85-11.88-1-13.7 4.14a290.55 290.55 0 0 1-19.66 43.76c-4 7.3-8.12 14.5-13.65 20.8-3.4 3.87-2.45 6.65 2.4 7.56 1.6.3 3.16.73 4.74 1a5.13 5.13 0 0 0 4.28-.76c2.68-2 5.38-4 8-6.13 8.1-6.65 13.86-15.2 19.36-23.94 7.44-11.85 15.93-23.3 16.13-38.3zm274.42 385.3c3.06 1.9 5.53 1.9 7.72 2.72a43.38 43.38 0 0 0 23.77 2.35c5.73-1.07 11.44-2.3 17.1-3.7s10.35-3.85 13.57-9c1.16-1.85 2.5-4.08 5.05-4.7.86-.22 1.22-2.1 2.36-1 .93.86.54 2.05-.36 3-.4.4-1.05.74-.34 2 2.86-2.1 5.88-3.68 7.44-7.2 1.38-3.14 1.57-3-2.67-3.35 3.42-2.4 4.37-6.06 6.82-8.46 6.2-6.13 6.75-14.08 6.5-21.77-.22-6.77-1.4-13.6-2.33-20.38-1.6-11.75-6.78-22.24-10.7-33.17-.52-1.47-1.53-3.6-4.18-2.18-2.2 1.17-2.62 2.5-1.63 4.75a71.2 71.2 0 0 1 5.55 29.57 93.57 93.57 0 0 1-6 32.76c-2.85 7.37-6.1 14.7-11.34 20.85-10.66 12.6-24.66 17.25-40.83 16.63a110 110 0 0 0-15.5.25zM827.3 855.5c4 1.84 3.88 6.35 6 7.25 4 1.67 2.73 4.5 3.57 7.23a132.88 132.88 0 0 0 7.53 18.14c2.6 5.4 5.55 10.62 8.36 15.9 4 7.5 8.34 14.77 13 21.84a2.87 2.87 0 0 0 2.43 1.4c4.6.28 8.2-1.9 11.24-4.93a3.83 3.83 0 0 0 .36-5.12 45.24 45.24 0 0 1-3.17-6.18c-5.4-11.17-10.16-22.63-16.1-33.55-3.47-6.4-7.08-12.8-9.77-19.53-1.33-3.32-2.8-4.65-6.1-4.5q-10.14.52-20.28.95c-3 .12-5.07 1.2-5.16 4.57a2.38 2.38 0 0 1-1.15 1.84c-3.7 2.74-6.8 6.2-10.63 8.8-3.57 2.44-6.9 5.24-10.32 7.88l.66.9c2.46-1.62 4.93-3.2 7.36-4.83a176 176 0 0 1 19-11c.84-.43 1.93-1.25 2.62 0 .55 1-.72 1.38-1.23 2-1.55 2-4.36 2.07-5.85 4.16a82.55 82.55 0 0 0 8.93-4.1 1.32 1.32 0 0 0 .5-2.2c-2.04-1.8-.72-4.1-1.8-6.9zM613.73 594.1a90.47 90.47 0 0 0 17.85-.66c.84-.13 1.94-.16 2.18-1.14s-.6-1.58-1.4-2c-4.32-2.12-8.36-4.8-13.3-5.63-8.23-1.36-16.53-2.1-24.82-2.78s-17.1-.75-25-3.54c-12.23-4.3-24.73-7.3-37.3-10.17-9.2-2.1-18.4-4.26-27.42-7-1.84-.58-3.5-1.8-4.63.75-1.35 3.06-.5 6 1.9 7.1 13.7 6.08 28.23 9.88 42.13 15.4 2.18.88 4.7 1.86 7.26 1 6.28-2 12-1.18 17 3.27a5.4 5.4 0 0 0 2.13 1.4c8.08 1.76 16.05 3.9 24.5 3.85 6.23-.02 12.58-.76 18.92.14zm-20.42 79.47a5.07 5.07 0 0 0-1.4 0c-6.8 2-13.47 4.62-20.4 5.85-5.4 1-7.16 3.9-8.07 8.57-2 10.58-5.08 20.93-7.72 31.38-1.6 6.33-2.23 12.9-3.3 19.36 3 2.5-.4 4.28-.7 6.4-1 7.38-2 14.74-3.15 22.92 4.5-3.32 9.68-5.46 12.1-9.34 3.68-5.85 5.42-12.9 8.1-19.78-3.58 1-5.94 3.83-9.36 4 2.73-3.46 6.55-5.36 9.85-7.94 3.7-2.9 3.37-7.64 6.2-11.76-4.62 1-6.73 4.62-11.28 5.92 2.68-3.75 5.2-7.38 8.3-7.74 5.65-.67 4.67-4.58 6-8.1-3.7.52-5.96 3.4-9.73 3.58 3.3-4.52 8.12-6.36 12.73-9.7-4.48-.9-7.3 2.74-11 1.84.53-1.66 1.92-1.78 3-2.35 2.73-1.5 5.5-2.92 8.2-4.44.83-.46 2-1 1.4-2.23s-1.78-.54-2.7-.22c-1.8.64-3.33 2.12-5.77 1.75 1.43-2.05 3.35-2.9 5.2-3.83a58.17 58.17 0 0 0 5.23-2.85 2.5 2.5 0 0 0 1-3c-.8-1.33-1.87-.05-2.8.42-2.35 1.2-4.55 2.83-8.38 3.4 4.33-4.5 9.73-5.9 13.4-9.5l-.46-1.1-18.42 5.74c6.37-5.28 14.84-6.2 21.26-11.24-5.85.93-11.2 3.54-17 4.3 6.22-3.96 13.6-5.64 19.64-10.33zm-28 186.38c-1.2 1.14-2.33.73-3.38.66s-1.85-.14-2.3.8c-.63 1.35.85 1.22 1.4 1.7a28.72 28.72 0 0 0 2.68 2c7.57 5.16 16.67 8.12 22.6 15.66.25.32.9.34 1.37.48a51.33 51.33 0 0 0 7.17 1.9c3.35.43 6.55 2.28 11 1.2-3.15-2-5.16-5.56-8-5-3.27.64-5.25-.37-7.35-2.1-5.86-4.8-12.14-9-18.28-13.43-2.33-1.66-2.35-2.86.26-4.05 7.48-3.4 15.43-5.5 23.35-7.35 5.38-1.26 10.22-3.7 15.4-5.28a4 4 0 0 0 2.8-4.7c-.5-2.35-2.7-1.75-4.37-1.7a16.24 16.24 0 0 0-7.7 2.57 53.24 53.24 0 0 1-23.47 7.68c-4.45.33-9.33.57-13.1 2.57-4.3 2.3-7.32.5-10.66-.94-1.7-.7-3.37-1.5-5.07-2.22-5.95-2.5-12-4.87-17.76-7.7-2.78-1.37-5.07-3.12-7.58.2a1.4 1.4 0 0 1-2.32.22 31.33 31.33 0 0 1 4-7.4c4.15-5.23 8.4-10.4 11.64-16.32 3.6-6.53 7.73-12.78 9.68-20.1.3-1.06 1-2.43.12-3.2-1.16-1-1.83.7-2.76 1.13-.62.3-1.08 1.14-2.07.4.34-2.13 2.06-3.23 3.57-4.4 1.92-1.5 3.73-3.32 4.28-5.52 1.95-7.83 5.5-15.06 8.46-23.33a76.46 76.46 0 0 0-11.18 6.84 2.23 2.23 0 0 0-.72 1.24c-1.42 7.17-5.18 13.42-7.86 20.1-5 12.44-10.8 24.53-16.2 36.8-2.16 4.86-4.24 9.8-2.8 15.43.58 2.25.86 3 2.8 1a3.23 3.23 0 0 1 4.15-.35 54 54 0 0 0 5.38 2.56c10.68 4.46 22 7.07 32.82 11.97zm-195.8 61.6a34.3 34.3 0 0 1-1-11.47 24.7 24.7 0 0 0-.37-6.22c-.2-1.08-2.73-1.83-.78-3.2 1.7-1.2 2 1.32 3.14 1.78 1.8.7 1 2.35 1 3.6.08 5.35.3 10.65 2.88 15.57a6.53 6.53 0 0 0 4.77 3.73 36.54 36.54 0 0 0 22.2-2.25c6.65-2.9 7.2-10.27 1.32-14.5a22.37 22.37 0 0 0-3.83-2.24c-13-5.95-27.1-7.7-40.66-11.43-6.37-1.74-12.92-2.43-19.38-3.65-5.5-1-11-2.43-16.8-2.32a1.75 1.75 0 0 0 1.2 1.72c8.7 4.65 16.06 11.08 23.33 17.6a7.6 7.6 0 0 0 6.44 2.25c4.16-.66 7.36 1.27 10.08 3.82a45.45 45.45 0 0 1 6.45 7.22zM511.85 788l-1-.35c-1.32 2.2-2.8 4.32-3.93 6.6-3.8 7.7-5.63 16.14-8.8 24.08-2.78 7-6.3 13.66-7.46 21.23-.4 2.6.18 3.28 2.74 3.9 6.73 1.6 14 .88 20.28 4.42 1.68.94 3.26.35 2.6-1.83-1.14-3.7-.18-7.16.18-10.8.9-9.23 4.24-18 4.23-27.42 0-6.36 1-12.72 1.53-19-1.82-.44-2.1 2.76-4.15 1.56a9.12 9.12 0 0 1 2.88-4.7c1.18-1.18 2.4-2.76 1.73-4.3-1.38-3.17-.47-6.6-1.6-9.75-.22-.58-.2-1.34-.8-1.57a1.62 1.62 0 0 0-1.87.94c-2.43 4.18-5.28 8.35-4.55 13.48.8 5.52 1.6 11 1.93 16.6.27 4.57.95 9.1 1.5 13.64.1.83.06 1.6-.77 1.84-1.15.32-1-.7-1.15-1.4-.4-1.8-1-3.6-1.2-5.42-1-7.26-2.4-14.43-2.33-21.76zm-378.6-433.56c-9-2.6-9-2.6-14.67 3.78a12.64 12.64 0 0 1-1.9 1.8c-5.28 3.88-6.14 9.35-5.88 15.4.1 2.56 1.85 5.6 1.22 7.15a45 45 0 0 0-3.55 15.45c0 1.1-.66 2.48.36 3.07s2-.6 2.7-1.44c5.16-5.7 10.3-11.4 15.52-17.06 7.72-8.37 15.15-17 23.54-24.76.46-.43.94-.85.57-1.57s-.94-.72-1.57-.8c-3.58-.35-7.17-.75-10.75-1.1a5.26 5.26 0 0 0-4.8 2.25c-4 4.88-8.1 9.73-12.27 14.47-1.17 1.3-2 3.14-4.1 3.53 4.9-6.83 9.64-13.76 15.58-20.2zm456.1 125.8c-.17-1.9-.38-3.8-.48-5.72-.06-1.08-.35-1.7-1.56-1.36-1.67.46-3.38.82-5 1.4-3.12 1.1-2.66 4.37-3.25 6.65-.34 1.32 2.54 1.38 4 1.62q7.9 1.27 15.85 2.18c8 .92 15.77 3.48 23.94 3.87 4.33.2 8.24-.17 9.76-2.9 1.34-2.4-.14-8.1-2.56-10.55-1.37-1.4-2.63-1.65-4.24-.53-3 2.04-5.3 4.2-3.23 8.3a2.4 2.4 0 0 1-1.58 3.58c-2 .46-2.15-1.4-2.2-2.7-.16-5.36 0-10.6 6.16-13 .73-.3 2-.78 1.4-1.8a8.32 8.32 0 0 0-7-4.24c-2.74-.08-2.6 2.47-2.77 4.4a15.88 15.88 0 0 1-2.07 6.95 20.1 20.1 0 0 1 .53-7.68c.9-4-.5-5-4.5-4.54-4.53.5-5.16 3.83-6 7.1-1 3.6-1.86 7.22-2.78 10.82-1-5.58 2.2-10.52 1.6-16-.08-.62 1.5-1.65.16-2.32-1.16-.58-2.26-.06-3.12 1.22-1.52 2.28-2.18 5.45-5.3 6.25a4.85 4.85 0 0 0-4.07 4.12 16 16 0 0 1-1.7 4.86zm-350.94 127a61.54 61.54 0 0 0-10.8-1c-1.28 0-3.05-1.1-3.66.54s1 2.6 2.26 3.4a103.4 103.4 0 0 1 12.27 8.9 10 10 0 0 0 7.8 2.7c19.76-1.6 39.45-.12 59.1 2 5.2.54 10.37 1.36 15.55 2 1.15.13 3 .77 3.2-.78s-1.84-1.26-2.88-1.65a25.74 25.74 0 0 0-4-.7c-15.57-3.13-31-6.9-46.83-8.8-1-.1-2.24-.3-2.48-1.32-.63-2.7-2.77-2.53-4.68-2.72-8.52-.82-16.97-2.9-24.83-2.56zm202.7-303.2c-2.56-3-4.6-3.13-5.44-.7a13.32 13.32 0 0 1-2.44 4c-1.2 1.5-.76 2.58 1.3 2.52a31.86 31.86 0 0 1 21.62 6.93c2.34 1.86 5.17 2.45 6.4 6.33 1.18 3.67 4.25 7.1 6.67 10.5 1.14 1.6 2.3 3.2 4.56 3.54a49.3 49.3 0 0 1 19.76 7.06c.78.5 1.57.85 2.38.17s.2-1.6 0-2.4c-1.08-4.4-4.5-7.35-6.93-10.88-1.77-2.56-4.48-4-7.24-5.6-2-1.12-7.9.12-5.3-5.65 0-.1-.25-.44-.44-.56-1.78-1.06-3.2-3.34-5.38-2.92s-.74 3.07-1.6 4.5c-.27.48.5 1.22-.3 1.63-.9-.38-.7-1.2-.78-1.9a26.75 26.75 0 0 0-2-7.92 2.63 2.63 0 0 0-3.38-1.6c-1.37.43-1.36 1.6-1.22 2.78.12.94.64 1.92-.32 2.92-1.93-2.4-1.3-5.53-2.4-8.1-.67-1.55-1.46-3.53-3.33-2.57-2.5 1.27-3.1 0-3.7-1.78-.48-1.37-1.16-2.72-2.74-2.64s-1.3 1.87-1.87 2.9a8.4 8.4 0 0 1-.76 1c-1-2 .75-5.47-2.73-5.86-2.3-.28-2.5 1.83-2.4 4.3zm144.62 70.83c1.5-.42 1.37-1.52 1.55-2.47.68-3.7-.3-7.52 1.65-11.18.9-1.67-1-3.55-2.85-4.2-2.82-1-9.92 2.45-11.6 5.08s-2 6-3.7 8.5c-5.72 8.4-1.25 17-.64 25.43 0 .52.6 1.1 1.06 1.5 3.63 3.25 14.23.1 15.7-4.63 1.63-5.2 2.34-10.36-.8-15.5l-2.6 9.4c-.86-5.4.75-9.77.3-14.18-.08-.7.1-1.3.93-1.25s.9.64 1 1.3-.84 1.34 0 2.2zm49.23 90.94c-.38 3.83.5 4.57 4.33 4.1 1.9-.22 2.65-1 2.5-2.88-.13-1.6-.1-3.23-.2-4.83-.33-4.43.38-8.86-1.3-13.27-3.38-8.77-10.13-14.9-16-21.7-4.55-5.24-10.4-9.57-13.45-15.8s-9.16-10.2-12-16.54c-.36-.8-.3-2.28-1.67-2.15a3.4 3.4 0 0 0-2.74 2.28c-.86 2-1 4 .95 5.36s3.43 3.56 5.12 5.38a192 192 0 0 1 35.7 54.36c.56 1.3.87 2.25-.3 3.3a3.35 3.35 0 0 0-1 2.37zm-430.7 422.8a45.44 45.44 0 0 1-5.33-4 5.64 5.64 0 0 0-5.42-1.56c-17.42 3-35.06 3.5-52.66 4.22-3.9.16-6.52.85-7.53 5.22-.9 3.9-1.17 3.94 2.78 3.57q22.4-2.07 44.8-4.14c7.64-.66 15.28-1.33 23.36-3.3zM676 605.65c.94 3.25.15 6.4 2.87 9.6 1.66 2 2 5.67 4 8 .66.78 0 2.85 2.13 2.3 1.88-.46 1.5-1.9 1.6-3.26.76-9 1.46-18.07 2.43-27.1.2-2-.62-2.2-2-2.2-4.56 0-9.1 1.26-13.7.12a1.65 1.65 0 0 0-1 .35c-.67.4-1.07 1.95-1.92 1.13-.66-.63-.74-2-.76-3.12s1.2-1.94.28-3.1c-1.44-.24-1.9 2.22-3.54 1.28s-4.17-.38-5.62-2.34c-.8-1.1-2-.65-3.06-.1-.75.4-.86 1-.56 1.84 1.3 3.83 3.2 7.18 6.64 9.5 1.6 1.1 3.2 2.24 4.73 3.46.5.4.48 1.57 1.52 1.24s.92-1.32 1.16-2.15c.48-1.6-.66-3.62 1.6-4.9a68.92 68.92 0 0 1-.36 10.14c-.08 1-.36 2.23.9 2.52s2-.6 2.3-1.87c.05-.43.23-.88.35-1.34zm98.26 259.7c3.72-.18 6.58-1.93 9.6-3.1l13.92-5.4c.86-.33 1.83-.48 2.25.55.5 1.2-.57 1.46-1.37 1.77-6.6 2.6-13 6-19.8 7.56-8.54 1.94-11.35 8.57-15 14.93 17.27-9.8 35.92-16.64 54.04-26.1-4-1.6-7.15.07-10.34-.07-7.82-.35-15.68-.6-23.25 2-4.12 1.4-8.2 2.86-10.05 7.88zM266.56 603.9c4 3 8 5.35 13.15 5.3 6.77-.07 13.65-1.75 20.27 1.08a6.8 6.8 0 0 0 2.2.25c4.74.28 9.4 1 14.08 1.68 7.67 1 15.4 3.36 23.18.1 1.75-.72 3.75-1.68 5.87-.1.68.52 2.35.1 3.22-1.25l-27.18-3.6c.2 2.3 2.9 1.65 2.8 3.66-3.14 0-5.05-3-7.65-3.3-8.8-1-17.47-4-26.5-2.08a3.4 3.4 0 0 1-1.77-.28c-7.04-2.6-14.34-1.7-21.67-1.45zm518.83-38.94c-1.1-.1-2.63-.93-3.33.5-.8 1.6 1.1 1.87 1.84 2.74a56.05 56.05 0 0 1 5.63 6.9c8.55 14.06 15.47 29 23 43.58.53 1 .48 2.76 2.4 1.95 1.6-.7 1.7-2 1-3.4-2.26-4.57-3.42-9.54-5.67-14.12-4.1-8.33-8.35-16.6-11.33-25.48-2.2-6.47-4.9-12.8-13.54-12.66zM953.45 847.3c-.83-1.26-1.56-2.83-3-3.55-1.3-.64-2.64 0-3.78.93a199 199 0 0 1-30.56 19.85c-3.25 1.7-1.35 3.23-.62 4.92.85 1.95 2.1 2.46 4.1 1.15 10.75-7.1 21.56-14.1 32.33-21.15a2.9 2.9 0 0 0 1.53-2.14zm-600.24-247c.08.82-.5 1.87.6 2.33s1.84-.4 2.67-.92c15.12-9.54 29-20.93 43.93-30.7.52-.33 1.18-.53 1-1.32s-.84-.83-1.46-.9c-1.22-.1-2.65-.7-3.6.27-2.7 2.75-6.4 3.77-9.5 5.8-9.88 6.44-19.2 13.74-29.62 19.35a7.26 7.26 0 0 0-4.03 6.1zm331-206.7a12.12 12.12 0 0 0-.65-6.33c-.3-.8-.83-1.67-1.86-1.53a2.05 2.05 0 0 0-1.65 1.8c-.32 1.6-.53 3.18-.88 4.75-1.24 5.52-2.4 11.06-3.8 16.55-1.87 7.28-1.8 15.06-5.85 21.78-1.16 1.92-.3 3.37 2 3.57 3.14.27 4.43-1.84 5-4.38 1.06-4.58 1.55-9.32 2.9-13.8 2.4-7.66 3.12-15.58 4.83-22.43zM567.38 872.38l.44-1.08c-2.75-1.63-5.48-3.28-8.26-4.87-.88-.5-2-.93-1.93-2 .3-3-2-3.57-3.94-4.56a58.66 58.66 0 0 0-8.36-3.18c-6.13-2-12.56-3.47-18.2-6.44-3.4-1.8-4.24-.92-5.35 1.67-.42.95-1.4 1.73-.87 2.4 15.22 6.8 31.2 11.43 46.45 18.04zm102.47-31c.27 1.63.07 3.3 1 5 2.73 4.58 4.14 9.72 6.06 14.65 1.87 4.77 1.3 11.52 8.47 13 .9.2 1.74 1.2 2.73.48 1.26-.9 0-1.78-.25-2.6a284.9 284.9 0 0 0-12.38-31.46c-.63-1.33-.86-3.22-2.66-3s-2.62 2-2.95 3.88zm-325.4-226c-1.78-1.58-2.93-.7-4-.3a23.06 23.06 0 0 1-12.73 1.1c-11-2.23-22.2-2.48-33.27-4.16-4.4-.66-9-.33-13.93-.48a5 5 0 0 0 3.83 1.82c13.67 1.28 26.7 5.68 40.08 8.37 2.27.47 4.35.68 6.5-.35 4.27-2.07 8.46-4.4 13.52-6zm200.47 153.2a36.58 36.58 0 0 0-14.8 12 2.58 2.58 0 0 0-.36 1.43c0 .93-.73 2.13.4 2.72.9.47 1.5-.57 2.2-1 2.2-1.46 3.8-3.73 7.1-5-2.58 5.43-9.12 6.87-9.9 12.42-.73 5.18-2 10.4-.34 15.93 6.02-12.08 11.78-24.2 15.7-38.5zm398.54 70a11.84 11.84 0 0 0-6.32 2.37c-8.24 6.42-17.5 11.26-26.1 17.1-1.77 1.2-2.62 2.1-1.24 4 1.16 1.57 2.17 2.7 4.5 1.27a304.07 304.07 0 0 0 30.5-21.1c.6-.46 1.9-.57 1.5-1.78s-1.4-1.7-2.84-1.83zM394.4 567.26c-2.8-.43-4.42-2.76-7.3-1-9.65 6-19 12.55-29.13 17.8a7.08 7.08 0 0 0-4.2 5.72c-.14 1.37-.67 2.93.57 3.8s2.2-.6 3.15-1.28c11.9-8.4 23.43-17.34 36.9-25.05zM136.9 879.12a1.86 1.86 0 0 0-1.35-1.6c-1.5-.57-3.15-.82-4.58-1.5q-13.4-6.4-26.74-12.95c-1.33-.65-2.47-1.7-4-1.85-.87-.08-1.9-.07-2.23.92s.74 1.15 1.3 1.56c9.67 7.1 19.53 13.94 30.34 19.27 2.86 1.4 6.97-.8 7.26-3.85zm51.14-185.2c1.9.55 3-.5 4.17-1.34 3.82-2.76 7.5-5.72 11.5-8.16a7.93 7.93 0 0 0 4.13-6.1 44.9 44.9 0 0 1 1.53-6.88c.33-1.18 1.4-2.86-.78-3.32-1.94-.42-3 .74-3.24 2.68a27.73 27.73 0 0 1-3 8.76c-.42.84-.34 2.3-1.76 1.83s-1-1.77-.63-2.85c.9-2.84 1.9-5.65 2.65-8.53.38-1.43.55-3.44-1.26-3.78-2.14-.4-1.87 1.63-2.08 3.1-.7 4.85-2.13 9.5-6 12.76a7.94 7.94 0 0 0-2.8 3.7c-.83 2.64-1.6 5.35-2.42 8.12zM108.24 853c-2.7-.2-4.9.6-5.64 2.67s2 2.3 3.15 2.85q12.9 5.83 26 11.2a45.24 45.24 0 0 0 7.9 2.16 2.2 2.2 0 0 0 2.82-1.8c.25-1.46-1.18-1.34-2-1.73q-12.44-5.93-24.9-11.82c-2.55-1.2-5.1-2.46-7.33-3.54zm445.62-385c-6.28.12-11.83.5-17.38 1-2.7.24-3.4 1.42-3.15 3.8s1.28 3.8 3.8 3.43c5.63-.87 11.07.5 16.56 1.3 6 .88 5.82 1 4.94-4.73a5.32 5.32 0 0 0-4.78-4.8zM188.34 628.94c-7.27-.45-14.38.9-21.53 1.66-3.8.42-6.58 2.1-7.77 5.9-.32 1-1.66 2-.82 3s2.37.2 3.47-.12c8.86-2.48 17.75-4.77 26.93-5.78 1.2-.13 3.1.26 3-1.82s-1.62-2.54-3.26-2.83zM579.72 402c6.07 0 10.5-2.88 12.6-8.43 4.2-11.12 4.72-22.78 4.14-34.53a3.56 3.56 0 0 0-1.33-2.56c-1.46-1.3-3.16-3.3-5.1-2.08s.73 2.4 1.08 3.68a51.6 51.6 0 0 1 .27 27.1 38.8 38.8 0 0 1-4.77 11.9c-1.73 2.56-4.7 3.1-6.88 4.9zm-66 267c-5.12-3.2-5.1-3.2-9.82-.75-2.2 1.15-4.4 2.33-6.6 3.43-5.12 2.55-10.25 5-15.36 7.6-.9.44-2.67 1-1.14 2.25 1.83 1.5 3.88 3.3 6.66 1.48a52.15 52.15 0 0 1 4.6-2.43c7.07-3.74 14.38-7.13 21.58-11.6zm-125.56-51.5c-5.83-.62-11.72-3.5-16 2.83a4 4 0 0 1-1.55 1c-4.63 2.34-9.27 4.7-13.94 7-.9.45-1.87.75-2.12 1.85-.05.24.26.67.5.86 2.44 1.8 9 1.4 11.37-.52 6.6-5.32 14-9.28 21.76-13zm-3.44-53.06c-5.7-2.44-9.82-.6-14 2-5.5 3.4-10.77 7-15 12-.77.92-1.9 2.55-.95 3.6 1.1 1.18 2.44-.13 3.57-.85q9.7-6.16 19.42-12.28c2.2-1.4 4.34-2.8 6.96-4.48zM104.3 847.8c3.23 0 5.93.47 7.24 3.8.16.43 1.06.57 1.62.8 6.5 2.8 12.8 5.92 19 9.25 3.57 1.9 7.4 3.34 11.12 5a1.58 1.58 0 0 0 2.25-.67c.4-.85-.47-1.33-1-1.8a7.13 7.13 0 0 0-1.88-1.2c-9.73-4.12-18.67-9.7-27.74-15a10.38 10.38 0 0 0-10.6-.17zm447.6-125.14c-6.92 3.53-12.57 8.54-17.9 13.87a55.9 55.9 0 0 0-6.2 7.8c-.72 1-1.48 2.83-.1 3.74s2.08-.76 3-1.56c5.26-4.73 10-10.38 16.22-13.62 4.68-2.44 4.3-6.25 4.97-10.22zm-22 44.9c1.57.2 2.38-1.1 3.38-1.9 2.7-2.2 5-5.18 8-6.55 6.34-2.86 6.28-8.35 7.24-14.4a32.85 32.85 0 0 0-3.9 2.36c-3.33 2.78-6.35 6-9.9 8.42-4.42 3.06-5.9 6.96-4.86 12.08zm214.9 99.18c14.2-20.57 25.85-42.63 37.88-64.47-13.4 21.05-26.48 42.27-37.9 64.46zm-306.78-59.1a19.5 19.5 0 0 0 .24-3.33c-.1-1 1.36-2.4 0-3s-1.9 1.14-2.68 2c-2.33 2.75-2.1 6.3-3 9.47-1.65 6-3.18 11.94-4.77 17.9-.42 1.6-.52 3 1.62 3.34 1.76.3 2.8-.25 3.2-2.1 1.84-8.05 4.47-15.97 5.4-24.27zm-77.45-193c-11.76-2.8-18.9 6.36-28.33 8.56 10.74 3.83 8.87 5.14 16.62-.62 3.6-2.68 7.97-4.3 11.7-7.95zm340.07-25.5c3.58 0 6.9-.32 8.67-4.25a57.52 57.52 0 0 1 5.7-9.9c1.2-1.68 2-3.46-1-4.67-2.47-1-4.08-.82-4.9 1.87a21.83 21.83 0 0 1-4.45 7.6 82.8 82.8 0 0 0-5 7.25c-.73 1.1-.93 2.15 1 2.08zm-356.42 38.5c4.17 1.47 7.52 2.55 10.9.1A111.47 111.47 0 0 1 374 616.52a26.55 26.55 0 0 0-8.78-1.9 2.54 2.54 0 0 0-2.52 1.3c-1 2.4-3.15 3.36-5.18 4.48-4.2 2.3-8.43 4.6-13.28 7.23zm185.5 127.62a9.44 9.44 0 0 0 4.44-2.45c3.34-2.72 6.38-6 10.08-8.1 4.37-2.48 6.07-5.74 5.48-10.62-1.6-.07-2.7 1-3.77 2-5 4.62-9.88 9.33-14.86 14-1.5 1.36-1.6 3.04-1.38 5.18zm160.3-166.56c3.2.7 6.08 1.3 8-1.56 3.2-4.92 5.1-10.65 9.36-15 .9-.92 1.9-3.25.2-4.22a3.3 3.3 0 0 0-4.74 1.6c-2.9 7.1-8.6 12.3-12.77 19.18zm8.96-16.26c.06-1.22-.54-1.95-1.3-1.5-3.52 2-7.5 3.54-10.1 6.6s-4.2 6.9-6.28 10.38c-.57.95-1 2.24.45 2.18 2.47-.1 5.27.27 7-2.48 2.2-3.57 4.7-7 6.75-10.6.97-1.84 1.74-3.7 3.48-4.58zm-374 379.9c3 .1 5.2-.25 6.14-3.56.6-2.1 2-4 3-6 2.9-5.75 5.73-11.53 8.66-17.26.55-1.08 1.2-2-.33-2.72a2.1 2.1 0 0 0-2.85 1 34.87 34.87 0 0 0-2.3 4.66 55.75 55.75 0 0 1-3.07 6.72c-3.16 5.56-6.06 11.26-9.2 17.12zm-197.26-67.16l.13-.78c-1.52-.8-3-1.6-4.57-2.4-8.4-4.3-15.9-10.07-24.13-14.62-1.5-.82-3-1.56-4.23.3-1.32 2.05.37 2.84 1.82 3.6 6 3.15 11.87 6.5 18 9.34 4.13 1.92 8.63 3.07 12.98 4.56zm53.78-192.3c-.05.6-.13 1.23-.15 1.84 0 1.06-.5 2.46 1.08 2.7 1.3.2 1.4-1 1.76-2a201 201 0 0 0 7-24.44c.2-.88.75-2.15-.43-2.67-1.44-.63-1.93.8-2.44 1.7-4.06 7.1-5.6 14.94-6.84 22.88zm552.4-97.3c-4.27-5-6-11-8.18-16.9a1.7 1.7 0 0 0-1.58-1.3 2 2 0 0 0-2.14 1.67c-.84 2.57-1.5 5.23-3.24 7.4-.45.57-1 1.47-.1 2 4.8 2.74 9.6 5.56 15.22 7.12zm-58.64 274c2.14.7 2.28-.6 1.38-2.8-2.24-5.5-4.4-11-6.76-16.45-.37-.84 0-2.67-1.65-2.42-1.44.22-1.77 1.7-1.86 2.93a11.65 11.65 0 0 0 .3 3.3c.7 3.14 2 6.25 2.1 9.4.08 4.14 2.38 5.3 6.48 6zm-6.88-451.37a9.85 9.85 0 0 0-.14 1.86c.1 1-.86 2.6.74 2.78 1.22.13 1.42-1.55 1.65-2.57q3.67-16.13 7.2-32.3c.17-.82 1-2.2-.32-2.6s-1.64 1-2.04 2.1c-3.65 9.97-5.33 20.33-7.1 30.7zm-292.1 510.92c1.4 6.26 9.1 6.8 13.93 5.4 6.3-1.8 11.5-6.4 18.22-7.43 1.62-.26.6-2.18 1.1-3.25a.83.83 0 0 0-.67-1.13c-1-.07-1.46.83-1.85 1.58a5.9 5.9 0 0 1-3.53 2.6c-8.75 3.24-17.7 4.4-27.2 2.22zM596.02 486.9c-13.56-1.38-26.12-4.64-39.94-5.87 3 2.46 5.73 2.42 8.24 3.1a241.43 241.43 0 0 0 24.3 5.52c2.73.45 5.08.2 7.4-2.75zm-74 182.7a16.57 16.57 0 0 0-8.95 2.53c-7.58 4.26-15.23 8.4-23.18 11.93-.8.36-2.33.4-1.9 1.8s1.9 1.68 3.13 1.23c2.08-.78 4.06-1.84 6.1-2.7 8.97-3.85 16.7-9.66 24.84-14.8zm-256.1-62.58c-5.33-3.34-11-5.75-17.34-4.92a13.54 13.54 0 0 1-6.18-.4 29.1 29.1 0 0 0-12.2-1.14 12.1 12.1 0 0 0 7.7 3.52c3.56.28 7.17.07 10.68 1a54.87 54.87 0 0 0 17.32 1.94zm667.44 233.13l-.4-.93c-3.8 1.2-7.58 2.4-11.36 3.63-.26.1-.67.62-.6.78 1 2.38-1.4 2.44-2.37 2.93-4.23 2.15-7.6 5.54-11.7 7.83-1 .54-2.2 1.3-1.3 2.55s2.12 1 3.3.2c2.27-1.48 4.62-2.88 6.84-4.44 5.9-4.14 11.74-8.36 17.6-12.55zM571.5 480.45c1.45.2 2.45.27 3.42.47 3.16.65 2.86-1.6 3.23-3.58.4-2.2-.12-3.2-2.47-3.44-4.18-.46-8.08 1-12.1 1.46a1.75 1.75 0 0 0-1.5 1.88c0 .7.28 1.4 1 1.32 3.18-.38 5.6 2.8 8.43 1.88zm-25.1 278.6a3.83 3.83 0 0 0-2.92 1q-6.18 5.3-12.27 10.7a4.87 4.87 0 0 0-1.12 1.9c-.3.77-.75 1.77.13 2.36s1.53-.05 2.26-.65c2.57-2.1 5-5 7.93-5.92 4.88-1.6 5.9-4.85 6-9.43zm109.64-229.5a34.56 34.56 0 0 0-14.4 5.33c-3.35 2.2-3.6 6.22-1.18 9.66a1.75 1.75 0 0 0 1.84 1 1.5 1.5 0 0 0 1.13-1.33 9.08 9.08 0 0 0 .3-3c-.7-3.54 1.37-5.2 4.1-6.54 2.9-1.4 5.9-2.53 8.2-5.12zm-57.25 136.6c-6.83 1-13.65 2-20.47 2.9-2.33.33-4.7.42-7 .6a2.22 2.22 0 0 0-2.3 2.8c.3 2 1.7.62 2.6.5 6.5-.86 12.9-2.5 19.5-2.84a9.87 9.87 0 0 0 7.66-3.96zM431.2 805.02c-2.47 1-3.3 2.1-3.65 3.9-.53 2.78-1.4 5.5-2.07 8.26q-1.38 5.58-2.7 11.18c-.22 1-.44 2.14.84 2.5 1.52.44 1.84-.74 2.1-1.9.43-1.93.94-3.85 1.37-5.78 1.34-5.87 2.62-11.76 4.1-18.17zM117.93 601.2a15.2 15.2 0 0 0 1.85 0c1-.14 2.62.44 2.88-.9s-1.12-2.2-2.3-2.55c-2.5-.74-3.9-2.92-5.94-4.27a7.64 7.64 0 0 0-4.9-1.3c-1.73.1-2.78.93-1.35 2.56 2.63 2.97 5.06 6.43 9.74 6.46zm730.63 303.46c-.86 2.1-4.64 1.94-4.37 4.7a12.35 12.35 0 0 0 2.87 6.7c1.15 1.28 2.58-1.3 4-1.67 3.32-.87 3-2.52 1.35-4.8a16.38 16.38 0 0 1-1.72-3.26 2.7 2.7 0 0 0-2.13-1.68zM596.12 490.44c7.37 4.3 13.32 4.28 18.5-.5-6.5.17-12.25-4.8-18.5.5zm116.38 97.9c2.35.3 4.48-.68 4.84-4 .3-2.66 1.92-4.7 3.08-7 .44-.85 2.85-1.05.8-2.6-1.37-1-2.8-1.26-3.72.6a79.4 79.4 0 0 1-6.78 11.1c-1 1.3-.57 2 1.78 1.93zm-379.45 342.2a3.75 3.75 0 0 0-2.5 1.7c-4.33 5.52-6.78 12.1-10.25 18.1-.38.65-1.48 1.56-.45 2.22a2 2 0 0 0 2.8-1.08c3.27-6.94 7.58-13.36 10.4-20.93zm-194.33-578c3.4.28 6.72.53 10 .87a12.42 12.42 0 0 0 4.76-.43 2.34 2.34 0 0 0 1.9-2.42c-.1-1.23-1.4-1.2-2.37-1.25a45.1 45.1 0 0 0-10.36.1c-1.75.27-3.43.67-3.92 3.13zm-11.8 500c6.24 3.3 12.46 6.65 18.74 9.88a2.23 2.23 0 0 0 2.86-1.15c.8-1.46-.77-1.45-1.53-1.78-4-1.74-7.9-3.56-11.95-5.07-2.57-1-4.86-2.86-8.16-1.92zm-15.52-494.2c-.17.86-.4 1.8.38 2.42a1.4 1.4 0 0 0 2-.4c2.63-2.93 5.37-5.78 7.16-9.33.36-.7 1-1.65.12-2.37a2.14 2.14 0 0 0-2.77 0c-2.88 2.78-6.37 5.22-6.9 9.68zm423.2 506c5 8.48 12.8 9.77 21.7 9.56-.47-.58-.7-1.1-.9-1.1a8.5 8.5 0 0 1-7.74-3.26c-.35-.43-1.52-.6-1.67-.1-1.22 3.94-2.48.65-3.6 0-2.68-1.5-4.53-4.35-7.8-5.13zM86.17 876.26c3 .7 3.24-1.6 3.53-3.27.54-3.12-2.34-4.33-4.22-4.67-2.46-.45-3.15 2.4-3.53 4.36-.7 3.58 2.9 2.43 4.22 3.56zm144.55-199.5c1 .62 1.77 0 2.46-.34 5.7-2.58 10.14-7 14.9-10.86.55-.46 1.1-1.22.38-1.9s-1.37 0-1.94.43c-4 3.13-8 6.2-11.9 9.45-1.3 1.05-3.36 1.14-3.9 3.22zm-133.1-83.13a23.2 23.2 0 0 1 2.92 3.35c2.77 4.43 4.3 4.8 10.23 2.7-4.7-2.24-7.23-7.55-13.15-6.05zM672.4 826.2c-1.32 3 .32 3.62 1.75 3.78 2.45.26 3.84-1.5 4.73-3.48.48-1.1-2.58-6.48-3.42-6.22-3.36 1.02-2.18 4.53-3.07 5.92zm191.84 102.46c-3.18-2.72-4.05-5.64-5.57-8.16-1.4-2.33-2.4-.38-3.05.18-1 .9-3.44 2.56-1.84 3.55 2.84 1.76 5.55 4.44 10.46 4.43zm-29.34-52.13c-1.6.86-4 .3-4.92 2.56-.35.85 2.85 5.3 3.6 5.08 1.84-.57 4.38-1.1 4.55-3.05a4.73 4.73 0 0 0-3.23-4.6zm33.9 156.66a216.62 216.62 0 0 1-26.45 1.6c8.94 1.06 17.84 1.54 26.44-1.62zM629.95 493.8c1.34-.2 3.15.06 3.87-1.5 1-2.2 2.8-3.78 4.07-5.74.48-.73 1.64-1.7.4-2.53-1-.7-2.05.4-2.37 1.2-1.24 3.06-3.9 4.33-6.56 5.7-.76.38-1.83.58-1.63 1.7s1.25 1.03 2.22 1.16zm279.6 375.64c-1.54.24-2.85 1.22-2.72 2.85.15 2 .22 4.62 2.76 5 1.64.23 3.27-1.24 3.9-2.92.5-1.44-2.34-4.88-3.94-4.94zm-7.4-22.8c-3.3.47-6.52.88-9.72 1.4-.9.15-1.55.7-1.12 1.86a5 5 0 0 0 3.22 3.3c.7.2 1.9-.3 1.78-.9-.84-3.78 2.24-2.68 3.9-3.3.93-.38 1.9-.63 1.94-2.4zm11.38-1.47c-2.47-.3-9.54 3.53-10.8 6.24a1.52 1.52 0 0 0 .32 2 1.5 1.5 0 0 0 2-.3c2.9-2.66 5.75-5.4 8.48-7.97zm-544.16-284l-.5-.82c-4.6 2.74-9.2 5.47-13.75 8.25a1 1 0 0 0-.26 1.62 1.47 1.47 0 0 0 2 0c4.23-3 8.36-6.04 12.5-9.07zm250.1-30c-.1-.85 1.22-2.06-.34-2.5-1-.25-1.82.67-2.37 1.53a9.78 9.78 0 0 0-1.3 5.34c0 1.5 1.22 1.73 2.05 2.34 1 .75 1.93 0 2.67-.6 1.3-1-.25-1.63-.5-2.44a6.8 6.8 0 0 1-.23-3.74zm-295.9 407.7c-4.3 2.85-5.63 7.6-8.08 11.63-.38.63-1.48 1.5-.17 2.12.84.4 1.6-.3 2-1.17q3.13-6.37 6.24-12.65zm96.6-126.28c-.14-.9.38-1.86-.55-2.18-1.1-.38-1.6.7-1.8 1.43-.94 3.68-1.75 7.4-2.58 11.1-.14.62-.1 1.3.77 1.38.58 0 .85-.37 1-.9 1.06-3.73 2.14-7.4 3.16-10.9zM129.94 351.66c1.84.18 3.7.42 5.44-.43.64-.3 1.5-.67 1.42-1.5-.08-1-1.1-.88-1.75-.88-2.32 0-4.65.1-7 .2-.86 0-2 .1-2.1 1.1-.16 1.5 1.28 1.12 2.13 1.33a11.55 11.55 0 0 0 1.86.17zm69.55 339.86c4.8-1.14 8.22-3.58 11.86-5.56.9-.5 1.77-1.4 1.1-2.38s-1.62-.1-2.2.4c-3.23 2.65-7.54 3.73-10.78 7.53zm386.8-18.67c-6.36 1-13 1.36-18.78 5 6.55-.42 12.4-3.5 18.78-5zm-376 6.47c2-1.43 3.68-2.57 5.28-3.8.72-.57 1.92-1 1.5-2.24a2.87 2.87 0 0 0-2.24-1.72 2.13 2.13 0 0 0-2.7 1.34c-.54 1.93-1.84 3.67-1.8 6.4zM90.72 867.2a1.83 1.83 0 0 0 2.6-1.76c.08-2.47-2.23-3.17-3.9-3.73-1-.34-2.72 1-2.66 2.46.1 2.28 1.96 2.85 3.96 3.04zm748.16 17.44c-1.73.55-3.7 1.06-3.72 3.1 0 1.4.47 3.45 2.33 3.7 2.14.3 2.93-1.55 3.23-3.28a2.85 2.85 0 0 0-1.85-3.52zm10.54 18.8a41.58 41.58 0 0 0-3.13-3.92c-1.34-1.3-2.45-.1-3.6.6-1.7 1.06-1.27 2.64-.75 3.95.62 1.57 1.82.48 2.83.23 1.37-.37 2.78-.56 4.64-.86zM898.85 855a2.26 2.26 0 0 0-2 .64c-.75.8 0 1.3.37 1.88.85 1.34 1.7 2.67 2.52 4 .43.7 1.08 1.2 1.8.84a2.94 2.94 0 0 0 1.42-1.55c.4-1.36-2.74-5.66-4.1-5.83zm-759.6 20.44l.3-1.1-12.18-3.62-.3 1.12c4.1 1.03 7.45 4.8 12.18 3.6zm688.8.67c1.87.3 5.8-2.3 5.83-3.64 0-.9-.24-1.95-1.36-1.8-2.2.3-4.45.76-5.3 3.24-.35.97-.25 2 .82 2.22zm-148.7-290c-.2-1-.63-2.07-1.76-2-2.74.3-3.2 2.9-4.15 4.8-.6 1.2.76 1.2 1.6 1.3 3.1.43 3.2-2.3 4.3-4.1zM103.65 851a26.82 26.82 0 0 0-3.6-1.23c-1.7-.3-2.65 1-3.63 2.07-.57.6-.67 1.43.15 1.87a3.82 3.82 0 0 0 3.88.08 27.4 27.4 0 0 0 3.2-2.78zm562.87 13.8c-.73-1.84-.15-4.95-2.42-5.23-2.1-.25-2.07 2.78-2.46 4.4-.48 2 1.6 2.16 3 2.4.95.16 2-.1 1.88-1.58zm-304.3-31c3.27 4.78 8.24 7.66 12.43 11.4-3.87-4.13-7.57-8.43-12.42-11.45zm476.55 61.64c.06 1.3-.26 2.83 1.68 2.74a3.7 3.7 0 0 0 3.57-3.18 2.2 2.2 0 0 0-2.38-2.68c-1.92 0-2.75 1.4-2.87 3.12zM363.72 557.58c-3.32-1.18-6.75-.06-7.7 2.37a2.2 2.2 0 0 0 0 1.72c.4.6 1.18.28 1.62-.1 1.77-1.5 4.3-1.84 6.08-4zM262.48 660.13c-3.27.43-5.47 2.72-8.16 4.08-.75.4-1.94 1.26-1.15 2.32s1.75.1 2.48-.5c2.28-1.96 4.2-4.32 6.83-5.9zM612.32 495.2c2.9.86 5.35 1.23 7.6-.74.45-.4 1.17-.8.9-1.43a1.92 1.92 0 0 0-1.47-.9c-2.63.03-5.05.62-7.03 3.07zm296.2 371.13c-.67-1.54-1.66-2.87-3.38-3a1.8 1.8 0 0 0-2 2.1c.26 1.48.44 3.48 2.55 3.5 1.4 0 2.27-1.24 2.82-2.6zm-669.6 79.1l-3.54-10c-.58 8.2 0 9.7 3.54 10zM128.5 848.3c-2.6-.48-4.44-.88-6.32-1.15a1.58 1.58 0 0 0-1.83.93c-.32 1.06.75 1 1.34 1.35 2.26 1.3 4.12.04 6.8-1.12zM516 754c-.95.93-1.84 1.73-2.63 2.62a3.36 3.36 0 0 0-1 3.38c.2.58.92.73 1.18.35 1.14-1.7 2.17-3.48 3.18-5.26.1-.13-.35-.54-.75-1.1zM326.8 626.3c2.3.85 4.5 2.44 7.67 1.14-2.75-1.6-5-2.9-7.7-1.14zm95.6 190.94c-.63 3-2.27 5.55-3.25 8.3-.25.7-.76 1.48.26 1.84s1.3-.57 1.43-1.25c.56-2.97 1.72-5.85 1.55-8.9zM640.7 530.72c3.12-.43 5.7-.47 7.42-2.85-2.3.75-5.34-.53-7.42 2.85zm-418 146.9c-2.5 1-3.68 2.68-4.7 5.06 3.5-1.24 4-1.74 4.7-5.07zM95.92 860.04c-.24-1.42-1.57-1.76-2.6-2.28a1.27 1.27 0 0 0-1.9 1.12c0 1.62 1.73 1.48 2.7 2.07.74.47 1.43 0 1.8-.92zm622.05-359.3c-.9-1.15-1-3.2-3.3-2.38-.9.33-2.18 1-1.64 2 1.2 2.07 3.15.5 4.94.37zm-73.08-22.88a3.43 3.43 0 0 0 3.07-2.22c.33-.73-.4-1.05-1.07-1.06a2.92 2.92 0 0 0-2.8 2c-.28.7-.14 1.24.8 1.27zM346.6 916.44c-2.42.58-3.77 1.6-4.26 3.48-.14.53.62 1.13 1.3 1 2.32-.48 2.08-2.48 2.96-4.48zm290.9-442.46a2 2 0 0 0-1.9 1.9c-.06.86 0 1.75 1.32 1.64s1.67-1.17 2-2.23-.2-1.34-1.42-1.34zm162.58 95.84c.64-.42 1.74-.73 1.86-1.84.13-1.27-1.06-1.17-1.84-1.28-1-.14-1.85.27-1.8 1.34a1.68 1.68 0 0 0 1.78 1.76zm-127.53-133.1c1 1.3 2.16 1.9 3.55.87.54-.4.9-1.2.46-1.62-1.53-1.54-2.5 1.2-4 .73zm-50.7 97c1.83-1.4 2.38-2.68 2-4.2-.16-.6-1.08-.65-1.6-.23-1.66 1.24-.03 2.53-.4 4.37zM776.4 890.43c2.24-.54 4.47-1.05 5.8-3.15-1.8 1.38-4.48.93-5.8 3.14zm-208.6-13c-1.86-1.48-3.7-3-6.78-1.9zm-202.08-514.8c.14-.87 0-1.65-.88-1.8a1.75 1.75 0 0 0-2.1 1.08 1.66 1.66 0 0 0 1.25 2c1.1.4 1.46-.48 1.72-1.28zM552.3 205.72a1.93 1.93 0 0 0 1.42 2.23c.64.18 1.36.07 1.2-.8a3 3 0 0 0-1.46-2.4c-.74-.3-1 .32-1.17.97zm107.68 264.92c1.56-1.22 3-1.67 3.07-3.3 0-.6-.67-.54-1.15-.46-1.93.3-1.5 1.93-1.92 3.76zm2.8 12.14c1.3-1.05 2.22-2 1.85-3.47 0-.14-.7-.34-.9-.22-1.34.73-1.84 1.8-.94 3.7zM168.93 970.6c.05-.9.52-1.46 1.42-1.23 5.14 1.33 10.45.8 15.64 1.7-5.77 1.5-11.46-.28-17.17-.6zM196.28 354.6c1.26-2.6 3.12-2.94 6-2.5a86.3 86.3 0 0 0 12.92.62c4.7 0 9.43-.16 14.14-.3a14.38 14.38 0 0 1 6.2 1c-5.2 1.54-10.53.8-15.8 1-5.58.17-11.16 0-16.74-.1a6.24 6.24 0 0 0-5.07 2.45q-18.86 20.37-38.2 40.27c3-5.32 7.28-9.66 11.3-14.18q12.6-14.16 25.25-28.26zM170.46 356.03c.8 1.27 0 2.07-.82 2.9-6.25 6.73-12.62 13.32-19.18 19.75-6.38 6.25-12.82 12.4-19.66 18.1-.8.68-1.48 1.62-3.2 1.57 4.93-4.67 9.64-9 14.2-13.5 8.4-8.27 17.14-16.18 24.35-25.58 1.06-1.38 2.33-3 4.42-3.15zM224.35 356.67c-11.82 13.76-22.82 28.23-36.54 40.22 12.54-13.1 23.1-28 36.55-40.23zM235.33 353.5c4.75-1.43 9.66-.87 14.5-1.07-.32.66-.6 1.46-1.47 1.44-4.34-.1-8.72.77-13.03-.37zM365.44 522.44c6 1.47 11.87 4.13 18 6.07 20.7 6.57 40.68 15.2 61.38 21.77 5.56 1.77 10.88 4.23 16.4 6.15 1.43.5 1.8 1.34 1.62 2.4-.33 1.77-1.8 1-2.66.66-9.22-3.65-18.42-7.3-27.84-10.43-12.1-4-24-8.65-36-12.9-10.52-3.74-21.1-7.3-31.6-11-1-.36-3-.34-2.57-2 .28-1.3 1.9-.58 3.27-.7zM486.5 462.55c-.8-5.58-2-11.12.8-16.45.74-1.4-.5-3.1-1-4.6a1 1 0 0 0-1.27-.5c-1.23.32-1.4 1.36-1.47 2.34-.35 4.82-.7 9.65-.9 14.48a4.53 4.53 0 0 1-1 3.42c-1.6-4.58-.37-8.75-.42-12.86 0-2 .73-4.1.2-5.86-1-3.26 3.2-4.37 2.6-7.46-.12-.62 1.2-.16 2 .76 3.2 3.7 4.25 8.4 5.74 12.7 4 11.48 8.43 22.78 11.7 34.5 1.16 4.08 3.2 7.93 3.36 13.2-3-3.1-3.06-6.66-4.22-9.56-1.56-3.9-2.6-2.9-4.94.66.24-2.83.15-4.56.57-6.15 1.25-4.72-1-8.77-2.25-13a1.37 1.37 0 0 0-1.3-1.16c-1 0-1.06.83-1.3 1.53-1 2.72-1.1 5.6-1.55 8.4-.13.83.35 2.4-1.17 2.17-1.23-.18-.48-1.37-.38-2.17.65-5.3.94-10.65 2-15.86.83-4-1.87-6.77-2.58-10.2a.73.73 0 0 0-1.13-.52 2.66 2.66 0 0 0-1.26 2.18c-.26 3.34-.56 6.68-.84 10.02zM465.96 432.83c0-5.78 1.34-11.42 2.38-17.08.4-2.17 1.58-3.9-.43-6.4-1.46-1.84-.05-5.3 1.36-7.36 2-2.88 2-5.72 1.54-8.82-.07-.5-.17-1-.25-1.47-.2-1.4 1.18-3.28-.32-4.17-1.83-1.08-1.54 2.28-3.32 2.2.28-5 4.32-9.52 2.18-15.2-3.43 2.6-1 6.85-4.13 9.85a59.5 59.5 0 0 1 2.44-12.13 2 2 0 0 1 2.35-1.36c1.2.08 1.66 1 1.78 2.06.32 2.95.6 5.9.86 8.85 1.47 15.9-.63 31.42-4.65 46.76-.37 1.42-.56 2.88-.83 4.32zM368.4 609.62c3.77-4.5 8.8-7.13 13.52-10.13 10.27-6.55 20.38-13.3 30.14-20.58a7.62 7.62 0 0 1 1.2-.9c.8-.37 1.62-1.64 2.53-.4.68 1-.37 1.62-1 2.13-3.43 2.88-6.64 6.1-10.4 8.47-11.14 7-22.5 13.67-33.8 20.45a17.06 17.06 0 0 1-2.2.95zM421.53 611.3c3-3.56 6.78-5.77 10.6-7.83a192.78 192.78 0 0 0 20.75-13.03c.94-.67 2.23-2.08 3.2-.94 1.2 1.4-.58 2.48-1.5 3.18-7.33 5.56-15.54 9.66-23.64 13.9-3.12 1.6-6.28 3.13-9.4 4.7zM498.53 584.15a142.34 142.34 0 0 0 8.86 26.83c.93 2 1.7 3.47-.17 5.48-1.2 1.28-1.53 3.33-2.38 5-.63 1.2-1.35 2.45-2.93 2.6a2 2 0 0 1-1.35-.3c-.46-.37-.2-1 .18-1.27 2.4-2 1.84-5.82 4.63-7.73 1-.7 1-2.27.48-3.48a161.1 161.1 0 0 1-7.34-20.63 12.42 12.42 0 0 1 0-6.52zM403.8 640.73c4.53-2.67 9-5.36 13.57-8 1.28-.75 2.62-1.4 3.9-2.14.8-.48 1.52-1.63 2.47-.4s-.25 2.1-1.1 2.62a87.18 87.18 0 0 1-18.23 8.83zM455.08 661.5c2.52-1.4 5-2.87 7.56-4.2 2.85-1.5 5.77-2.88 8.63-4.35.82-.42 1.68-.9 2.28.06s0 1.64-.73 2.26c-2.84 2.6-6.58 3.4-10 4.67-2.37.88-4.64 2.48-7.28 2.54zM418.16 646.5c2.34-3.4 6.1-4.76 9.43-6.73 1.57-.93 3.45-1.27 4.8-2.72.86-.92 2.3-1.68 3.2-.37 1 1.48-.6 2-1.58 2.68-4.87 3.23-10.37 5.08-15.86 7.15zM444.78 657.33c3.84-3.94 8.68-6.1 13.4-8.5a1.28 1.28 0 0 1 1.9.46c.73 1.18-.06 1.86-.92 2.42-4.44 2.84-9.54 3.72-14.38 5.6zM425.9 649.78c1.64-2.22 4.08-3.1 6.32-4.28 2.4-1.27 4.94-2.24 7.07-4a1.44 1.44 0 0 1 2.27.2c.62.9.26 1.5-.52 2.2-4.4 3.74-9.87 4.54-15.15 5.88zM477.54 596.8a81.75 81.75 0 0 1-12.82 7.64c-.57.27-1.2.48-1.72 0s-.06-1.2.34-1.55a74.24 74.24 0 0 1 11.07-7.37c1-.54 2.13.03 3.14 1.27zM436.5 652.06c3-4.27 7.87-5.63 12-8.1.77-.47 1.66-.05 2.2.83.77 1.24-.4 1.52-1 1.88a61.37 61.37 0 0 1-13.2 5.38zM514.23 597.2c-2.2-3.06-4-6.2-4.58-9.85-.12-.78-.34-1.93.93-2s.83 1 1 1.82c.8 3.35 1.76 6.68 2.65 10.03zM507.08 601.1c-1.8-4-3.83-8-4.76-12.4-.23-1.07-.6-2.2.3-3.15a1.06 1.06 0 0 1 1 .07c1.05.85.06 1.8.06 2.72 0 2.67 1.15 5.06 2.2 7.4a11.3 11.3 0 0 1 1.2 5.35zM519.58 593.96c-3.67-2.26-4.08-5.42-4.7-8.45a1.4 1.4 0 0 1 .75-1.1c.78-.3 1.13.34 1.17 1 .17 2.74 1.53 5.13 2.78 8.56zM765.5 586.07a9.56 9.56 0 0 1 .84 6.54c-.52 1.8-.6 3.95 1.42 4.3 2.4.44 1.87-2.06 2.16-3.5.35-1.82-.23-4.1 2.73-4.8 0 2.9-1.06 5.28-1.62 7.78s-1.24 4.87.84 7c.86.9 1.75 1.44 3 .93s1.17-1.5.9-2.53a3.13 3.13 0 0 1 .43-2.84 1.3 1.3 0 0 1 1.52-.5c.8.32.5.85.38 1.5-.47 2.76-1.8 5.4-.94 8.34.4 1.38 1 2.78 2.4 3.05 1.77.34 1.73-1.24 2-2.46.2-.9.95-1.63 1.9-1.28a1.54 1.54 0 0 1 .7 2.24 8.9 8.9 0 0 0-1.33 5.33c.13 1.6.8 3 2.42 3.42 2 .48 2.24-.77 2.1-2.42 0-.56.64-1 1.38-.9a1.12 1.12 0 0 1 .87 1.68c-2.46 6 1.3 9.9 4.5 14.3 5.56 7.75 9.76 16.33 13.8 25a167 167 0 0 1 10.15 27.4 119.56 119.56 0 0 1 3.2 13.75c-1.75-2.05-2.2-4.6-3-7a259.4 259.4 0 0 0-23.42-52.53c-2-3.44-4.94-6.4-7.23-9.6s-4.6-6.52-6.9-9.8c-4.5-6.4-10.4-11.53-15.13-17.67-4.2-5.46-8.3-11-11.95-16.93-2.33-3.76-4.9-7.16-5.27-11.84-.18-2.33.13-4.74-.7-7.1-.46-1.28.5-2.66 2-3.15 1.66-.54 3.66-1.22 5 .1 1.5 1.55 3.26 3.1 2.7 6a63.9 63.9 0 0 0-.63 11.1c0 2.6-1.1 6 3.5 6.27 1.34.07.4 1.45.7 2.17.6 1.48.1 4 2.44 4 2.2 0 1.12-2.38 1.7-3.6a10.1 10.1 0 0 0 .45-1.73zm-9.7-13.8c.2-2.26.4-3.6.4-4.94 0-.82-.12-1.9-1.24-1.95-.94 0-1 1-1.1 1.65a19.07 19.07 0 0 0-.38 4.42c.2 1.8-1.54 5 .8 5.1 2.64.12 1.2-3.35 1.54-4.3zm-3.56-8.34c0 2-3.24 3.24-.88 6 .54-2.17 1.83-3.86.9-6zM313.05 640.03a9.7 9.7 0 0 1 8.7-.38c9.62 3.86 20.05 4.44 29.87 7.53 6.62 2.08 13.36 3.78 20 5.73a6.26 6.26 0 0 1 2.17 1.4c1 .87 2.35 2.25 1.6 3.3-1.1 1.5-2.66.52-3.82-.58s-2.86-1.4-4.4-1.9c-13-4.2-26.27-7.1-39.57-10.06-4.7-1.06-9.2-3.15-14.55-5.03zM552.3 702.12c-1.9 2.22-4.05 2.37-5.65 3.42-8.07 5.27-15.9 10.88-22.75 17.7a3.24 3.24 0 0 1-3.34.9c-.78-.17-1.53-.53-1.58-1.33-.1-1.36 1.18-1.76 2.08-2.36 7.2-4.82 13.9-10.4 21.3-14.94 2.87-1.78 5.98-2.5 9.95-3.38zM688.92 944.57a186 186 0 0 1 21.54-22.27c1-.86 2.36-2 3.55-.5 1.4 1.7-.64 2.28-1.47 3q-10.25 9.44-20.63 18.74c-.73.7-1.36 1.98-2.98 1.03zM504.72 691.08c6.53-5.47 14.46-8.62 21.53-13.18 2.7-1.75 5.54-3.3 8.3-5 1.8-1.1 3.6-1.64 5.7-.07a326.9 326.9 0 0 1-35.53 18.25zM480.72 932.07a17 17 0 0 1-2 2.25c-6 4.58-12.1 9.12-18.14 13.66-.64.48-1.3 1.55-2.15.6s0-1.74.6-2.28c6-5.17 12-10.35 18.18-15.35 1.04-.88 2.52-.4 3.52 1.12zM541.72 942.38a227.87 227.87 0 0 1 19.55-14.5 3.1 3.1 0 0 1 2.16-.28c1.1.24 2.1 1 .73 2a182.7 182.7 0 0 1-21 13.36c-.28.1-.72-.26-1.44-.58zM528.72 690c-5.6 2-9.47 6-14 8.9-1.56 1-3.18 1.95-4.83 2.8a1.88 1.88 0 0 1-2.57-.86 1.38 1.38 0 0 1 .54-1.95c6-3.4 11.9-7.16 18.35-9.82.5-.24 1.43-.2 2.5.92zM533.25 701.66a1.38 1.38 0 0 1-1.2 1.6c-5 1.26-8.4 5-12.4 7.8-1.6 1.15-4 3.45-5.4 1.56-1.25-1.67 2-2.44 3.26-3.5 4.17-3.5 8.5-6.74 14.1-7.67.6-.1 1.12-.4 1.65.2zM666.8 933.44c-2.9 5.23-8.66 6.76-11.9 11.87-.38-5.1 6.4-11.6 11.9-11.86zM679.72 945.28c-1.33-2.53.3-3.35 1-4.5 2-3.22 5.07-5.3 8.12-7.4.56-.38 1.18-1.12 1.9-.32a1.78 1.78 0 0 1 0 2.38 1.88 1.88 0 0 1-.52.52c-3.83 2.48-7.8 4.9-10.5 9.32zM607.35 929.84c1 .28 1.72.55 2 1.3s-.43 1.1-.9 1.45q-4.28 3.22-8.57 6.4c-.5.4-1.07.66-1.63.1a.94.94 0 0 1 0-1.35q4-3.82 8-7.54c.26-.28.84-.28 1.1-.36zM666.03 945.22c-1.2-.2-1.23-.82-.68-1.57a36.34 36.34 0 0 1 7.4-7.1 1.77 1.77 0 0 1 2.62.53c.73 1 .07 1.68-.6 2.2-2.47 1.83-5 3.6-7.5 5.37a7.25 7.25 0 0 1-1.24.57zM580.1 940.84c2.3-3.3 5.76-5.42 8.8-7.94.94-.78 1.9.23 2.56.86 1.07 1-.15 1.56-.74 1.93-3.25 2.07-6.57 4.05-9.87 6.07zM653.66 935.87a6.26 6.26 0 0 1-4.12 3.68c-1.6.53-3.28 3.36-4.7 1.3-1.1-1.6 2-2.2 2.9-3.47a6.75 6.75 0 0 1 3.83-2.7c1.33-.37 1.73.27 2.1 1.2zM624.24 933.03c-.25 1.7-6.17 6.66-7.54 6.58s-1.2-1.1-.7-1.76a24 24 0 0 1 6.1-5.86c1.22-.74 2.14-.22 2.14 1.05zM634.1 933.7c.73 0 1.07.48 1.37 1 .38.7 0 1.2-.5 1.6-1.75 1.4-3.5 2.77-5.28 4.13-.52.4-1.15.68-1.68.12a2 2 0 0 1-.52-1.28c.07-1.2 5.38-5.66 6.6-5.58zM761.67 572.12c-.18 3.28 1.6 6.65-.42 9.84-.42-3.3-.66-6.6.42-9.84zM291.22 747.24l-19.26-17.56a5.2 5.2 0 0 1-1.7-3.6 1.43 1.43 0 0 1 1-1.42c.54-.2.84.2 1.2.6 5.94 6.83 13.38 12.1 19.62 18.58 5.2 5.4 11.6 7.7 18.2 10a5.92 5.92 0 0 0 1.47.27c.2 0 .42-.14.93-.33-4.45-4.64-9.63-8.26-14.32-12.4-4.93-4.38-9.88-8.73-14.77-13.15-1.08-1-2.56-2.36-1.12-3.76s2.53.2 3.6 1.28c7.57 7.88 16.16 14.65 24.2 22 6.42 5.86 13 11.42 21 15.2 3 1.42 6.4 1.93 9.8 4.55-.85-3.1-2.92-4-4.34-5.2-7.8-6.54-15.6-13-23.14-19.9a75.6 75.6 0 0 1-7.3-7.42c-.93-1.1-1.72-2.6-.73-3.5s1.65.8 2.45 1.52c8.87 8 17.86 15.82 26.7 23.82 6.34 5.7 12.55 11.56 18.72 17.44 2.67 2.54 6.07 3.87 9.1 5.8 2.4 1.54 4.6-.5 6.27-2 .88-.76-.8-1.85-1.5-2.53-5.13-4.9-10.33-9.72-15.5-14.55-8.72-8.1-17.52-16.12-26.94-23.4a71.52 71.52 0 0 1-5.9-5.7c-.8-.8-1.8-1.72-.83-2.85 1.1-1.3 2.5-.48 3.24.43 4.3 5.37 10.32 8.85 15.1 13.7 2.13 2.16 3.78 6.5 8.32 3.46.6-.4 1.13.6 1.6 1.2a86.62 86.62 0 0 0 11.84 11.62 63.67 63.67 0 0 1 14.3 15.9 1.75 1.75 0 0 0 2.44.94 69.18 69.18 0 0 0 6.48-2.76c1.9-1 .35-1.8-.38-2.45-4.6-4.17-9.33-8.2-13.84-12.47-6.86-6.5-14.74-11.76-21.82-18-1.76-1.55-1.13-2.55-.25-3.7 1.38-1.77 2 0 2.8.82 8.26 8.2 17.57 15.15 26.2 22.83 1.4-1.18-1.72-1.88.22-2.8a2.9 2.9 0 0 1 3.43.34c2.66 2.2 4.26 5.13 6 8 2.6 4.14 3.9 4.56 8.2 2.68-7.18-7.2-13.2-15.43-21-21.93-2.2-1.8-4.42-3.57-6.6-5.4a12.9 12.9 0 0 1-1.72-1.9c-.76-1-1.07-2.1 0-3 1.27-1.07 1.9.1 2.7.94 4.82 5.2 11.2 8.72 15.42 14.66 1.4 2 3.62 4.2 6.9 3.6 1.28-.23 1.45 1.2 1.9 2a35.36 35.36 0 0 0 3.58 6.1c3.63 4.32 4.3 4.37 8.84.33-6.46-5.6-12.32-11.76-19.32-16.7a2 2 0 0 1-.43-2.9c.82-1.23 1.77-.42 2.8.3 6.3 4.47 11 10.62 16.4 16 2 2 3.77 2.7 6.4 1.22 3.47-1.93 7.1-3.58 10.66-5.32 1.66-.8 2.36-1.7.23-2.67-3.7-1.67-6-5.17-9.57-7.05-.93-.5-2-1.24-1.68-2.6a2.23 2.23 0 0 1 1.18-1.3c1.66-.67 1.55 1.1 2.28 1.76 3.07 2.7 6.14 5.4 9.3 8 1.8 1.5 7.85.32 9.1-1.62.62-1-.15-1.47-.77-1.7-2.24-.8-3.48-3.2-6-3.6-.73-.13-1.4-1-2-1.63a1.3 1.3 0 0 1 .16-2c.7-.6 1.15-.28 1.84.27 2.62 2.07 5.54 3.78 8 6 2.92 2.6 5.38.76 7.8-.47 1.4-.73.44-1.43-.67-1.93s-3.7-1-2.85-2.6 2.8-.34 4 .74 3.5 1.13 4.84 2.9c-9.65 6.14-19.94 10.75-29.88 16-5 2.67-10 5.4-15 8.24a9 9 0 0 1-2.28.94c-2.62.7-6.2 0-6.7 4.2-.1.62-.83.44-1.25.3-4.75-1.54-8.33.16-11.2 3.94-.48.63-1.07 1.13-1.9.84-3.32-1.16-5.9 1.34-8.92 1.78-2.1.3-.52 1.86-.72 2.84-2-.18-3.54-1.24-5.1-2.22-14.4-9-29.12-17.4-44.74-24.1-1.84-.8-3.88-2.3-6.2-.52-1 .73-2.1 0-3-.76-7.45-5.93-16.47-6.76-25.35-6.8-4.17 0-8.84 1.1-12.4-.58a15.06 15.06 0 0 0-12.78-.3c-8.9 4-18.25 3.17-27.42 4.28a55.5 55.5 0 0 1-8.17-.1c-.6 0-1.34.04-1.58-.67-.32-1 .53-1.23 1.15-1.6 2-1.26 4.27-1 6.48-1.32 8.7-1.12 17.4-2.47 26.1-3.66 4-.55 8.2.3 12.54-1.45-1.64-1.5-3-2.9-4.47-4.06a2.56 2.56 0 0 1-1.24-2.8 1.94 1.94 0 0 1 1.46-1.57c1.4-.22 1.72 1 2.32 1.94 3.15 5.05 6.87 6.76 12.6 5.46a80.87 80.87 0 0 1-10.16-8.3c-1.34-1.3-2.78-2.46-3.37-4.34-.2-.67-1.8-1-.48-2a1.7 1.7 0 0 1 2.6.42c3.6 4.4 8.06 7.92 12.24 11.74s7.7 4.9 14.32 4.18zM393.67 705.66l-5.18-.44c-.64-.05-1.3-.1-1.5-.83s.35-1.14.93-1.38c1.48-.62 2.9-1.37 4.62-1.17 18.1 2.08 35.05 7.86 51.25 15.9a44.82 44.82 0 0 1 11 7.95c.78.75 2.37 1.68 1.06 3s-2-.16-3-.9c-5.54-3.88-11-8-17.4-10.4-13.63-5.02-27.1-10.53-41.8-11.74zM396.5 744.6a45.67 45.67 0 0 1 16.6 12.68c-6.07-3.5-12.2-6.93-16.6-12.67zM229.95 985.44c0 2.7-1.42 4-3.07 4.16-7.6.66-14.5 4-21.85 5.64a43 43 0 0 1-14.4.85c-3.32-.38-6.66-.87-10-.13a5.77 5.77 0 0 1-5.5-1.53 7.57 7.57 0 0 0-4.27-2.07c-21.86-4.67-36.56-18.46-48.24-36.7a83.86 83.86 0 0 1-13-33.9c-.17-1.2-.53-2.34.8-2.85 1.54-.6 1.53 1.13 1.83 1.77 2.75 6 3.82 12.52 6.32 18.56a92 92 0 0 0 19.35 29.26c5.1 5.23 11.36 9.25 17.62 13.16 7.72 4.82 16.3 6.8 25 8.9 13.43 3.25 26.38 1.26 39-3.3 3.5-1.3 7.3 1.56 10.4-1.84zM210.16 906.44c-4.42 3.75-10 3-15.3 4.58 3.56 1.6 7.13.07 10.5 1.2-9.7 3.82-19.93 1.3-29.8 2.9 2.1-2.82 5.34-1.9 8.12-2.9-2.52-.84-5.07.72-7.4-1.2 11.32-1.2 22.44-3.65 33.88-4.58zM217.05 897.44c.06 2.13-1.78 2.3-3.08 2.6a62.34 62.34 0 0 1-19.07 1.68c-3.05-.23-6.47 1.12-9.77 1.3-8.28.42-16.56.94-25.27.27 1.3-2 3-1.5 4.23-1.52 17.5-.44 34.9-2.25 52.3-4.24a4.87 4.87 0 0 1 .74 0zM191.04 948.74c-.15 1.6-2 1.4-1.6 3 2.68.37 5.5-.94 8.45.28a3.47 3.47 0 0 1-3.1 2.08c-5.5.1-10.87 1.18-16.3 1.8-2.3.28-3.65-.12-1.62-2.75-3.15-.24-5.8.5-8.5.86-.94.14-2.2.4-2.53-.85s1-1.65 1.86-1.8c7.67-1.3 15.3-2.9 23.34-2.6zM238.12 896.08c-2.93 1.7-5.2.43-7.07-.65-8.6-4.94-17.05-10.12-25.56-15.22-1.1-.65-2.44-1.46-1.6-2.84 1-1.65 2.3-.44 3.52.2 8.38 4.36 15.86 10.13 23.88 15.06 2.04 1.25 4.28 2.18 6.82 3.46zM153.4 949.1c2.15-2.2 4-2 5.6-2 9.34-.34 18.4-2.72 27.65-3.52 1-.08 2.53-.94 2.9.6.42 1.72-1.28 1.83-2.44 2.08a121.93 121.93 0 0 1-33.7 2.83zM232.78 879.24c.08.9.27 1.83 1.14 2.2 6.82 2.95 10.95 9.62 17.65 12.73.54.25 1.64.68 1.1 1.57s-1.45.46-2.27 0a64.26 64.26 0 0 1-8.2-5c-5.46-4-11-7.9-16.48-11.9-.84-.63-2.62-1.23-1.37-2.83s2.5-.3 3.5.46c1.57 1.2 2.9 2.7 5 2.9zM190.23 939.1c-.44 1.7-2.2 1.92-3.74 2.06-4.1.37-8.2.7-12.3.72-4.6 0-9.18-.2-13.73.55-.9.15-1.5 0-1.73-.88-.3-1.16.45-1.56 1.44-1.64 8.3-.62 16.6-1.26 24.9-1.84 1.2-.1 2.45.25 3.68-.2.78-.3 1.5-.23 1.47 1.24zM194.13 957.53c-.8.1-1.67-.07-1.6-1s1-1 1.74-1c9-.6 18.06-1.2 27.08-1.8a1.67 1.67 0 0 1 1.3.44c.4.6-.07 1.14-.54 1.58a5.53 5.53 0 0 1-3.42 1.27 168.76 168.76 0 0 1-24.55.5zM161.22 936.6c-.33-.05-1.7-.2-3-.5-.76-.18-2.06-.15-1.82-1.34.2-1 1.34-.9 2.2-.8 6.5.7 12.92-.27 19.36-.7 1.6-.1 3.2-.4 4.8-.54.74-.07 1.65-.1 1.85.8s-.7 1.22-1.3 1.57c-3.08 1.76-6.55 1.25-9.85 1.47-3.73.26-7.46.04-12.23.03zM214.2 925.8c1.47.28 2.4 1.2 1.47 2.58a12.3 12.3 0 0 0-2 8.4c.13 1.5-.33 2.93-2 3.1s-1.47-1.64-1.92-2.68c-1.6-3.64-.22-6.8 1.68-9.83a2.64 2.64 0 0 1 2.76-1.57zM789.3 770.1c-1.52 4.47-4.12 8.24-6.32 12.2q-13.8 24.7-27.45 49.48c-5.68 10.3-10.58 21-16.4 31.23-.56 1-1 1.72-2.12 1.6-.43 0-1.08-.35-1.2-.7-.44-1.13 1-1.24 1.26-1.9 1.63-3.3 3.1-6.67 4.6-10 4.45-9.73 9.93-18.9 15.12-28.22 6.16-11.05 12.5-22 18.83-33 3.68-6.34 7.48-12.6 11.26-18.88.48-.77.96-1.73 2.45-1.8zM710.6 856.86a5.46 5.46 0 0 1-2.2-2.94 328.33 328.33 0 0 0-24.6-47c-.62-1-1.7-1.84-.47-2.84s2.07.32 2.7 1.1c4.3 5.4 7.4 11.55 10.5 17.66a262.82 262.82 0 0 1 14 33 3 3 0 0 1-.07 1.1zM771.9 780.52c-4.3 10.17-10.24 19.3-15.68 28.7-3.5 6.1-7.1 12.22-10.8 18.22-.85 1.4-2.16 4-3.43 3.26-1.83-1.13.4-3.08 1.16-4.3 9-14.7 18.06-29.32 27.15-43.93a20.1 20.1 0 0 1 1.6-1.95zM711.05 596.44c-.15 21.94-4.46 43.24-9.58 64.42 3.68-21.42 8.1-42.7 9.58-64.42zM695.98 630.95c.8-11.1 1.1-22.1 1.7-33.1.07-1.14 0-2.5 1.6-2.3 1.15.15.88 1.3.7 2.15-2.13 10.66-1.54 21.64-3.74 32.3-.05.32-.17.64-.26.95zM750.38 659.96c-.6-9 .58-17.75 1.38-26.57.36 8.9.48 17.8-1.38 26.56zM761.52 639.44l-1.4 16.08-.9-.07c.66-5.37-1-10.9 1.2-16.15zM791.32 716.8l1.35-15.63c1.6 5.4-.62 10.46-1.35 15.64zM870.5 822.67c8.84-2.2 16.94-4.3 25.1-6.2a85.94 85.94 0 0 0 15-4.5c1-.44 2.76-.06 2.9-1.66.1-1.2-1.4-1.65-2.17-2.4-1-1-2.17-.24-3.4.18a114.34 114.34 0 0 1-26.76 5.22c8.65-2.8 17.16-6 26.64-7.36-2.1-3.12-4.05-4-7.6-3.63-8.16.8-16.2 2.47-24.35 3.2a1.88 1.88 0 0 1-1.38-.68c7-2.7 14.4-3.62 21.93-5.55-1.9-2.53-4.82-3.5-6.9-5.47-.5-.46-1.34 0-2.06.33-5.4 2.23-11.22 2.12-16.9 3.08 3.65-4 8.92-3.76 14.37-5.25-4-2.72-7.62-4.1-11.15-5.72-1.9-.87-4-1.5-5.8-2.48-1.33-.7-2.57-2.12-1.77-3.62s2.14-.4 3.25.14c14.4 7.14 29.48 13.06 42.47 22.78a15.3 15.3 0 0 1 5.72 7.77c2 5.9-1.63 4.27-4 4.77q-18.76 4-37.55 7.74c-1.53.3-3.12 1.1-5.57-.67zM888.53 839.87c-3.64 3.22-7.55 3.47-11.18 4.25-11.85 2.55-24 2-36 2.5-9.36.37-18.42 2.7-27.72 3.12-5.93.27-11.8 1.65-17.78.8-1.2-.18-2.9-.16-2.85-1.74s1.72-1.56 2.92-1.58c18.48-.25 36.6-4.8 55.1-4.75a232.24 232.24 0 0 0 34.78-2.8 15.8 15.8 0 0 1 2.73.2zM847.72 962.9c-.32-5.73-.58-11.48 1.88-16.85 1-2.3 3.55-3.07 5.74-3.82 7.5-2.57 15-3 22.3.75a3.47 3.47 0 0 1 2.23 2.77c.66 6.8-.87 12.65-6.45 17.26s-11.7 5.44-18.35 2.44c-2.38-1-4.58-2.8-7.42-2.6zm28.84-12.46c.6-2.8-.6-4.84-3.44-5.47a28 28 0 0 0-15.72.78c-5.38 1.93-6.92 4.7-6.07 10.5.27 1.9.62 3.8 2.34 4.87 10.64 6.66 22.44-2.77 22.9-10.68zM814.66 963.2c-1.3 1-2 .25-2.72-.44-10.65-9.82-20.33-20.37-25.94-34a71.56 71.56 0 0 1-5.53-20.73c-.3-3.17-.53-6.24 1.76-9.2s4.88-3.56 8.14-3.38c-5.36 4.34-8.05 9.23-6.87 16.78 2.6 16.5 11.25 29.42 22.15 41.3 2.97 3.2 5.98 6.4 9 9.67zM801 906.26c1-9.9 13.3-23 22.3-24.4 2.1-.34 2.52.88 2.2 2.36-1 4.8-1.6 9.7-3.5 14.28-.34.84-.3 2.3-1.72 1.93s-.85-1.74-.74-2.57c.37-2.7 1-5.35 1.48-8 .16-.87 1.4-1.9.1-2.6-.9-.5-1.8.44-2.67.9-8.1 4.2-11.75 11.67-14.6 19.76-.38 1.07.56 3.43-1.63 3-1.68-.32-1.15-2.4-1.22-3.8a6.94 6.94 0 0 1 0-.86zM847.65 962.85c-4.3 1.94-8.08-.6-11.73-1.92-10.9-4-20.43-10.08-27.16-19.9-.64-.92-1.5-1.72-.77-3a1.15 1.15 0 0 1 1.23-.57c1.55.18 1.4 1.2 1.5 2.4.1 1.55 1.44 2.52 2.55 3.5 9 8 19 14.38 30.68 17.72a22.7 22.7 0 0 1 3.7 1.8s0-.03 0-.03zM820.04 920.17c.4-1.38.48-3.38 2.48-3.53 2.2-.16 1.4 2.13 2.12 3.17 2.86 4.17 6 8.1 9.14 12.1.58.74 1.86 1.12 1.5 2.33a3.06 3.06 0 0 1-2.54 1.95c-1.16.23-2.38 0-2.67-1.38-.4-1.9-3.77-2.58-2.17-5.28-.68-.27-1.37-.52-2-.82-3.28-1.5-6.18-5.65-5.86-8.53zM898.63 927c-.28 6.9-4.64 10.84-10.44 10.24-.7-.07-1.7.18-1.9-.7-.3-1.2.73-1.28 1.6-1.46 5-1 6.8-4.86 7.86-9.23.28-1.13-.24-3.1 1.27-3 1.7.12 1.5 2.17 1.63 3.58.06.46-.06.96-.03.56zM886.23 864.5c1.5.27 2.48.47 3.47.6a2.26 2.26 0 0 1 2.1 2.58c-.14 1.42-1.58 1.33-2.66 1.14-5.33-.9-10.66-2.53-16 0a.8.8 0 0 1-1.13-.6 1.43 1.43 0 0 1 .7-1.6 10.2 10.2 0 0 1 5.16-1.85c2.95-.2 5.93-.2 8.37-.26zM905.72 902.66l-5.77-17c4.2 2.13 7.06 10.27 5.77 17zM550.44 812.77c.5 2.2 2.2 2.86 3.75 3.74a8.84 8.84 0 0 1 4.27 4.93 6.9 6.9 0 0 0 4.38 4.7c1.76.62 2.48 2.22 3 3.94.28 1 .06 1.9-1 2-3.9.38-7.72 2-11.76.9a3.65 3.65 0 0 1-2.96-2.47c-1.8-5.9-.28-11.72.3-17.73zm9.7 17.06a9.54 9.54 0 0 1-4.46-5.15 1.4 1.4 0 0 0-1.46-1c-.8.15-.64.93-.7 1.5-.5 4.17.88 5.26 6.63 4.64zM494.16 245.3c1.7-1.63 3.55-1.36 5.13-1 4.27 1 8.32-.13 12.4-1s6.14 1.06 5.5 5.23a12.36 12.36 0 0 0 .34 6.24c.3.85.25 1.87-.94 2-1.37.16-1.17-.94-1.17-1.78 0-2.1-.92-4.1-.45-6.27s-.32-2.74-2.4-1.75c-5.83 2.77-8.74 7.48-8.6 13.94.1 3.9 0 7.77 0 12.58-2.3-2.3-3.37-4-3.08-6.4.17-1.35.14-2.73.2-4.1.1-3.2 1.5-7-4.73-7.18 3-2.63 5.3-4.63 7.55-6.7.67-.6 2-1.04 1.4-2.28-.43-.9-1.55-.82-2.36-.7-2.87.56-5.63 0-8.8-.84zM518.38 306.37c-1.58-5.64-.4-8 4.64-10.2 1.7-.75 1.87-2.1 1.62-3.72-1-6.37-1.85-12.76-2.8-19.13-.14-.9-1-2.06.73-2.2 1.37-.13 1.6 1.07 1.65 2 .3 7.06 2.56 13.87 2.83 21 .07 1.8-.35 3-1.78 3.63-3.74 1.7-6.25 4.33-6.9 8.62zM508.07 265.63c-1.1-2.68-.72-4.86-.55-7 .08-1-.28-2.33.93-3 .7-.36 1.2.25 1.3.87.18 1.22 2.4 2.27.27 3.72-1.65 1.22-.68 3.3-1.95 5.4zM492.65 318.44l-10.45-22 1-.48c5.35 6.46 7.12 14.6 10.5 22zM357.86 917.02c-1.64 8.13-5.84 15.2-9.6 22.4-1.58 3.07-2.5 6.63-5.52 9.67-.7-2.67.2-4.3 1-5.87 3.87-7.37 7-15.07 10.3-22.7.78-1.8 1.6-3.4 3.9-3.4zM470.13 788.63c-2 7.42-3.92 14.72-5.87 22-1.63 6.1-3.24 12.23-4.93 18.32-.3 1.05.26 3.12-1.5 2.82s-.63-2-.43-3.1c2.27-12.36 6.13-24.32 9-36.5.3-1.33.53-2.67.9-4 .28-1 .78-2 2-1.7 1.1.34.84 1.44.83 2.16zM449.07 832.77c-1-3.85.56-6.86 1.3-9.87 2.37-9.87 5.06-19.66 7.68-29.47.26-1 .22-2.65 1.82-2.2 1.3.34 1.1 1.74.8 2.88-2.67 10.44-5.24 20.9-8.8 31.07-.83 2.37-.36 5.2-2.8 7.6zM701.6 892.1c-1.94.76-3.43-.1-4.9-.33-9.57-1.53-19.12-3.14-28.68-4.7-1.3-.2-2.67-.47-2.52-2.1.18-1.9 1.8-1.28 2.94-1.24 3.9.15 7.54 1.54 11.3 2.4 6.4 1.44 12.82 2.92 19.23 4.35a4.1 4.1 0 0 1 2.64 1.62zM641.38 882.57a1.64 1.64 0 0 1-2.5.64 20.55 20.55 0 0 1-6.13-5.3c-.58-.74-.7-1.66.38-2.18s8.38 5.72 8.25 6.85zM677.55 506.98a5.58 5.58 0 0 1 4.23-3.87 1.26 1.26 0 0 1 1.57.66c.3.76-.42 1.08-1 1.3-1.46.64-3 1.2-4.8 1.92zM674.34 542.22c-4.6-.14-6.9-3.5-10.27-4.48a1.12 1.12 0 0 1-.22-1.88 1.66 1.66 0 0 1 2.36 0c2.52 1.95 5.52 3.14 8.14 6.36zM365 907.9l-21.64-11.87.52-1c8.5 1.5 14.75 7.3 21.8 11.55zM236.78 651.9l-7.3-15c4 2.7 7.6 9.6 7.3 15zM236.28 663.7c-3.7-4.23-5.6-9.3-7.48-14.4 4 4.05 5.26 9.48 7.48 14.4zM656.84 478.23c.25 3.74-3 6-4 9.3-.52 1.7-2.35-1-3.85-.42-.62.26-1.24-.7-.92-1.2 1.54-2.4 1.84-5.6 4.37-7.4 1.74 1.24-.44 2.6.56 4 1.78-1 1.5-4 3.9-4.2zM132.67 594.7c2.7-.15 4.35 2.08 6.58 3a1.12 1.12 0 0 1 .55 1.56c-.33.52-1 1-1.55.42-1.8-1.7-5-1.92-5.48-5.08zM677.12 599.85c-1.17-.18-1.24-.9-1.1-1.66.3-1.47.6-3 2.7-2.68.88.14 1.84.4 1.72 1.5-.22 1.98-2.3 1.9-3.32 2.83z"/><path d="M194.24 402.6s-.07.4 0 .4a12.87 12.87 0 0 0 1.73-.3 8.83 8.83 0 0 0 1.8-.13s0-.1 0-.1a3.78 3.78 0 0 0-3.53.15M194.24 402.23c.57-.08 1.1-.32 1.67-.42s1.18-.07 1.77-.12c0 0 .06-.26 0-.28a3.82 3.82 0 0 0-3.44.5s-.06.34 0 .33M195.02 401.24a7.75 7.75 0 0 0 1.25-.4c.44-.1.9-.1 1.33-.18 0 0 .06-.27 0-.28a3.37 3.37 0 0 0-2.6.62s0 .24 0 .24M199.27 400.74a2 2 0 0 0 .86 0s0-.2 0-.22a2.05 2.05 0 0 0-.85-.13 2.3 2.3 0 0 0-.86 0s0 .14 0 .15a2.37 2.37 0 0 0 .85.15M194.24 402.6s-.07.4 0 .4a12.87 12.87 0 0 0 1.73-.3 8.83 8.83 0 0 0 1.8-.13s0-.1 0-.1a3.78 3.78 0 0 0-3.53.15M196.27 400.84c.44-.1.9-.1 1.33-.18 0 0 .06-.27 0-.28a3.36 3.36 0 0 0-2.6.62s0 .24 0 .24a7.76 7.76 0 0 0 1.26-.4" class="a"/></svg>