<svg xmlns="http://www.w3.org/2000/svg" viewBox="0 0 56.618 44.096"><defs><style>.a{fill:#fff;}</style></defs><title>scooter white</title><path d="M32.98 3.4a3.12 3.12 0 0 1 .86.08c.25 0 .5.12.75.12.12 0 .13.1.1.18a10.5 10.5 0 0 1-.34 1.14c-.02.06-.07.1-.04.2a2.46 2.46 0 0 1 .07.92c0 .36-.03.4-.37.52a.16.16 0 0 0-.14.18v.97a.3.3 0 0 1-.2.3 1.72 1.72 0 0 1-1.17.1 1.02 1.02 0 0 0-.78.07 1.22 1.22 0 0 1-.57.1.15.15 0 0 1-.16-.1.14.14 0 0 1 .08-.17c.1-.07.23-.14.35-.05.1.07.17 0 .26-.06a1.7 1.7 0 0 1-.7-.5c-.08-.1-.24-.07-.34.1a1.15 1.15 0 0 0-.13.7c0 .1.04.18-.05.26s-.16-.03-.27-.07c.1.2.2.35.3.52a1.57 1.57 0 0 1 .26.7c0 .25.25.4.3.65a14.2 14.2 0 0 1 .32 1.98.95.95 0 0 0 .28.62 2.83 2.83 0 0 0 1.03.74 3.32 3.32 0 0 1 1.68 1.5 4.43 4.43 0 0 0 1.16 1.24.63.63 0 0 1 .13.15 2.22 2.22 0 0 0 .93.7.1.1 0 0 1-.13.03c-.03-.02-.07-.03-.1-.05-.1-.05-.13.04-.16.08-.04.07.05.1.1.1a1.1 1.1 0 0 0 .95 0 .26.26 0 0 1 .24-.02.44.44 0 0 0 .45-.1 1.57 1.57 0 0 1 .48-.28c.3-.1.34-.34.37-.57.07-.62.22-1.2.33-1.82.07-.45.17-.9.25-1.34-.06-.02-.1.03-.15.04-.27.06-.32.02-.36-.26a5.47 5.47 0 0 1 .4-2.45.73.73 0 0 1 .23-.32c.2-.17.32-.13.4.1a2.33 2.33 0 0 1 0 1.03c-.23 1.35-.48 2.7-.72 4.04a.45.45 0 0 1-.07.16.86.86 0 0 0-.1.34c-.04.2.1.45-.14.62 0 0-.17.23.1.2.03 0 .08.08.1.13.26-.23.5-.48.74-.7a2.92 2.92 0 0 1 1.58-.62 1.75 1.75 0 0 1 .7.15.7.7 0 0 1 .56.74 14.34 14.34 0 0 1 .04 2.6.75.75 0 0 1-.36.66.35.35 0 0 1-.43 0 .84.84 0 0 0-.18-.12 10.53 10.53 0 0 0-1.7-.56c-.03.25.05.5-.1.7-.26.24-.15.44 0 .7a17.54 17.54 0 0 1 .85 2.22c.54 1.45 1.2 2.85 1.82 4.27a.43.43 0 0 1 0 .07c.1.34.3.45.67.46a2.38 2.38 0 0 1 2 1.12.84.84 0 0 1 .1.7 6.14 6.14 0 0 1 2.24-.3 3.5 3.5 0 0 1 2.27.84 8 8 0 0 1 2.3 3.22c.04.08.08.16.12.24.1.2.03.3-.17.33a.45.45 0 0 1-.4-.07c-.07-.07-.16-.05-.25-.05a13.8 13.8 0 0 1-1.68 0c0 .08.06.1.1.13a6.53 6.53 0 0 1 1.94 3.4 4.38 4.38 0 0 1-.32 3.15 6.18 6.18 0 0 1-3.98 3.24c-.14.03-.27.07-.42.12.06.07.14.05.2.05 1.17.03 2.33.13 3.5.06.88-.06 1.77-.02 2.66 0a23.48 23.48 0 0 1 2.73.14.8.8 0 0 1 .4.13 1.93 1.93 0 0 1-.68.13c-1 .07-1.98.04-2.97.04-1.5 0-3.02.05-4.54 0-4.2-.1-8.4-.05-12.6-.1-3.82-.03-7.63-.05-11.44-.08-2.57-.04-5.14 0-7.7-.04q-1.97-.03-3.93-.07c-1.05-.03-2.1 0-3.14 0q-3.47 0-6.92-.04c-.42 0-.83-.04-1.25-.06 4.1-.1 8.2-.07 12.3-.2-.2-.02-.4-.04-.6-.1a4.82 4.82 0 0 1-3.72-3.14 4.73 4.73 0 0 1 .16-3.35c.06-.15.1-.22-.14-.2-.84.04-1.68.15-2.52.26-.17.03-.34.04-.5.06-.14.02-.18-.05-.2-.15-.04-.15.1-.12.15-.13 1.08-.15 2.15-.37 3.24-.5.8-.07 1.62-.02 2.44-.1 1.55-.1 3.1-.2 4.66-.25 1-.03 2.02-.06 3.03 0a.33.33 0 0 0 .33-.15 2.4 2.4 0 0 1 .5-.45 6.3 6.3 0 0 0-1.52-.35 12.04 12.04 0 0 0-4.38.57c-.3.07-.6.17-.9.27-.1.03-.2 0-.24-.1s.1-.1.16-.1c.83-.2 1.6-.58 2.43-.8a8.7 8.7 0 0 1 4.2-.15c.4.1.54.2.64.4a3.42 3.42 0 0 1 1.25-.37 1.05 1.05 0 0 1 .64.12c.14.1.2.04.26-.06a5.88 5.88 0 0 0 .5-4.98 5.03 5.03 0 0 0-2.83-2.84 6.26 6.26 0 0 0-4.7-.07 14.8 14.8 0 0 0-7.02 5.23 22.94 22.94 0 0 0-2.27 3.66s-.03.03-.05.05a.7.7 0 0 1 .02-.28 15.42 15.42 0 0 1 9.1-9 6.78 6.78 0 0 1 5.87.3 4.64 4.64 0 0 1 2.35 2.7.22.22 0 0 0 .06.08 1.43 1.43 0 0 0-.2-.8c-.1-.15-.2-.3-.3-.47a.56.56 0 0 1-.06-.6c.06-.1 0-.13-.06-.18a2.08 2.08 0 0 0-1.24-.6 1.33 1.33 0 0 1-1.12-1.3c0-.06 0-.1-.02-.18a1.76 1.76 0 0 1-.84.13c-.56 0-1.1.1-1.68.12-.76 0-1.52.08-2.28.06a.24.24 0 0 1-.18-.08.95.95 0 0 0-.55-.17 1.58 1.58 0 0 1-1.14-.56.25.25 0 0 0-.34-.05c-.08.03-.16.04-.15-.06.03-.3-.18-.55-.2-.86a3.72 3.72 0 0 1 .57-2.18c.12-.18.2-.24.44-.07a2.58 2.58 0 0 0 1.03.34 3.38 3.38 0 0 0 1.13.17.1.1 0 0 1 .12.07s0 .03-.02.03a3.95 3.95 0 0 1-1.96-.27c-.1-.07-.24-.12-.35-.2s-.16-.07-.23.04a2.7 2.7 0 0 0-.3.77c0 .1 0 .16.1.17a.14.14 0 0 1 .1.08.46.46 0 0 0 .45.2c1.7.03 3.4.06 5.1.07.38 0 .74.2 1.13.13a18.7 18.7 0 0 1 3.3-.06c1.05-.03 2.1 0 3.13.03a1.25 1.25 0 0 0 .32-.02.4.4 0 0 0-.1-.76c-.45-.02-.9-.02-1.33-.03l-8-.08h-.1c-.04 0-.12 0-.13-.06s.05-.1.12-.1a.3.3 0 0 0 .33-.28v-.02a.3.3 0 0 1 .3-.2h.23c.38 0 .38 0 .37-.37 0-.02 0-.04 0-.05-.28-.13-.16-.4-.22-.6 0-.03 0-.07-.02-.1-.14.05-.28.1-.4-.05a.3.3 0 0 1 .05-.4.76.76 0 0 0 .17-.6.97.97 0 0 1 .37-.87 1.18 1.18 0 0 0 .4-.96 9.34 9.34 0 0 1 .12-1.23 2.36 2.36 0 0 1 .47-.98 4.8 4.8 0 0 1 .34-.4 5.6 5.6 0 0 0 1.22-2.3c.14-.37.34-.72.48-1.1.15-.4.3-.8.42-1.22.02-.07.03-.14-.05-.18-.2-.08-.23-.22-.15-.42a3.5 3.5 0 0 0-1.13.28.23.23 0 0 1-.3-.02.8.8 0 0 0-.6-.2 13.9 13.9 0 0 0-2.53.17 5.86 5.86 0 0 0-1.2.45c-.08.04-.15.1-.15-.06 0-.1-.16-.1-.15-.23.03.02.08.05.1.04.13-.15.33-.15.5-.24-.22.02-.44 0-.6.2-.1-.05-.07-.1.02-.13a1.28 1.28 0 0 1 .56-.14.24.24 0 0 0-.33-.08c-.08.03-.17.06-.25.1.12-.17.32-.15.52-.2a.47.47 0 0 0-.5 0 .15.15 0 0 0-.1.2c-.03-.05-.12-.1 0-.2a.08.08 0 0 0 .02-.1c-.13-.25.07-.24.22-.28.08-.02.18.03.25-.04.1-.14-.08-.18-.1-.27a1.67 1.67 0 0 0-.87-.23 4.56 4.56 0 0 0-1.1-.1c-.1.02-.12-.04-.1-.13a.44.44 0 0 1 .13-.18c.1-.1.25-.2.27-.36a.07.07 0 0 1 .06-.08 2.2 2.2 0 0 1 .84-.16c.04 0 .1.03.1-.04s-.05-.07-.1-.08a1.52 1.52 0 0 0-.88.16l.1-.1a1.43 1.43 0 0 1 .82-.12c.05 0 .08 0 .1-.05s.05-.12.02-.17-.08 0-.12 0a2.97 2.97 0 0 0-.78.26 1.25 1.25 0 0 1 .82-.33c.12-.03.17-.07.17-.2l-.4.1c-.2-.12-.36.04-.53.06-.03-.34 0-.37.4-.32-.1.1-.4-.1-.33.23a4.38 4.38 0 0 1 .85-.12.08.08 0 0 0 .1-.1c-.02-.06-.08-.04-.12-.04h-.32l.14-.05c-.1-.07-.22-.06-.3-.16.23 0 .44.2.74.07-.2-.04-.38-.04-.5-.18.07 0 .12.03.18.04.17.04.02-.07.04-.1a.12.12 0 0 1 .04 0c.1.05.22.2.3.06s-.08-.2-.18-.28a.78.78 0 0 1-.26-.22 4.86 4.86 0 0 1 .56.3 2.04 2.04 0 0 0 .7.18.6.6 0 0 1 .42.27c.13.15.1.22-.02.33a1.84 1.84 0 0 0-.55 1.2c0 .1-.02.2-.02.3 0 .15.12.16.2.16.12 0 .07-.1.07-.15a1.77 1.77 0 0 1 .64-1.54 2.1 2.1 0 0 0-.53 1.02 1.47 1.47 0 0 0-.05.55c.02.1.04.17.15.16.14-.02.08-.12.07-.18a1.92 1.92 0 0 1 .6-1.46c.07-.07.14-.18.28-.1.05.04.13 0 .2 0 .48-.13.86.15 1.27.3.33.12.66.26 1 .38A1.23 1.23 0 0 0 22 8c.88-.2 1.76-.4 2.64-.6a7.66 7.66 0 0 0 1.72-.75c-.1-.02-.15.06-.22 0 .66-.2 1.26-.62 2.04-.37-.07-.14-.2-.18-.2-.3 0 0-.05-.03-.05-.03-.18.16-.3-.12-.5-.05-.07.03-.15-.06-.1-.16a.72.72 0 0 1 .1-.17.34.34 0 0 0 .08-.4 2.26 2.26 0 0 1-.24-.66c.12.07.14.2.23.27.05-.06 0-.13 0-.2a3.87 3.87 0 0 1 1.6-3.9A4.27 4.27 0 0 1 33.7.65a2.47 2.47 0 0 1 .9 1.13c.05.13.1.26.16.4a.18.18 0 0 0 .23.12c.18-.06.2.05.17.2a.26.26 0 0 0 .16.32.37.37 0 0 1 .13.1c.07.08.25.1.2.26-.03.13-.33.22-.48.17a1.4 1.4 0 0 0-.63-.1c.23.06.42.1.6.16.04.02.1 0 .1.08s-.06.08-.12.08a.76.76 0 0 1-.15-.03 9.3 9.3 0 0 0-1.48-.22.62.62 0 0 0-.53.1 1.2 1.2 0 0 0-1.03.46c-.02.04-.06.1 0 .13a.6.6 0 0 0 .68-.13c.1-.17.15-.37.36-.47zm-1.75 31.57c.1.05.22.1.34.16.04 0 .1.03.1-.03s-.02-.07-.06-.1a.5.5 0 0 0-.38-.02.53.53 0 0 0-.6-.2 1.66 1.66 0 0 0 .6.2zM15.53 8.62c.24.02.47.07.64-.16.05-.05.17-.06.12-.15s-.15-.02-.23 0c-.27.1-.52.28-.83.22l.3.1a.6.6 0 0 1-.28-.02c-.12-.02-.22 0-.25.18a2.2 2.2 0 0 1 .84 0c.14 0 .28.02.42.03.05 0 .12.05.12-.04s-.06-.06-.13-.05a1.1 1.1 0 0 1-.7-.08zm7.14 26.66c.2-.28.16-.34-.2-.37a1.26 1.26 0 0 0-.32 0 2.85 2.85 0 0 0-1.1.46 1.48 1.48 0 0 0-.5.37 1.62 1.62 0 0 0 .72-.06c.18-.1.38.02.52-.12 0 0 .03 0 .04 0 .25.15.43 0 .62-.14 0 .1-.26.2-.03.25a.53.53 0 0 0 .52-.18.24.24 0 0 0 0-.32c-.1-.12-.14.06-.2.08a.27.27 0 0 0-.08.05zM17.73 7.05c0-.02-.02-.07-.04-.07-.25-.07-.5-.13-.74-.2a.1.1 0 0 0-.13.08 2.33 2.33 0 0 0-.4 1.64c.04.33.12.38.48.4.13.02.16 0 .16-.12a1.63 1.63 0 0 1 .18-.7c-.02.05-.03.12-.04.2a1.96 1.96 0 0 0-.06.6c0 .04 0 .08.08.07.04 0 .03-.04.02-.07a2.2 2.2 0 0 1 .6-1.72c.02-.04.08-.07.04-.1-.05-.1-.1-.04-.15 0zm28.52 30.1c-.06-.18-.12-.36-.17-.55-.04-.13-.08-.16-.24-.15a1.18 1.18 0 0 0-1.07 1 2.8 2.8 0 0 0 .23 2 1.06 1.06 0 0 0 .75.58 2.5 2.5 0 0 0 2.42-.8 1.4 1.4 0 0 0 .34-.86c.02-.13-.02-.17-.14-.1-.56.26-1.15.47-1.68.8a3.22 3.22 0 0 1-.7.2c-.12.04-.2-.05-.27-.14a.9.9 0 0 1-.18-.7c0-.04.03-.1 0-.14-.16-.2 0-.26.14-.33.64-.32 1.3-.63 1.95-.9.07-.03.2-.04.16-.13-.06-.13-.04-.27-.1-.4-.12-.26-.1-.26-.37-.13-.12.07-.23.14-.34.2-.06.02-.13.1-.18.02-.06-.1.07-.1.1-.13a.46.46 0 0 1 .1-.08c.5-.3.5-.3.3-.84-.05-.1-.1-.13-.2-.08-.25.1-.5.24-.74.38-.1.05-.08.17-.2.2s-.08.15-.1.26c.24-.14.3-.12.4.1a.6.6 0 0 0 .1.24c.1.12.06.2-.07.27-.1.05-.2.08-.23.22zM32.5 3.27c.16.06.24-.1.37-.13a3.06 3.06 0 0 0 .77-.3 5.88 5.88 0 0 1-1.17.25.12.12 0 0 1 .07-.06c.65-.2 1.27-.5 1.95-.62.06 0 .17-.02.1-.15A2.98 2.98 0 0 0 33.6.8a4.1 4.1 0 0 0-4.37.02 3.72 3.72 0 0 0-1.53 3.68 1.7 1.7 0 0 0 .52 1.16 1.85 1.85 0 0 0 .98.43 1.76 1.76 0 0 0 2-1.26c.07-.23.12-.47.2-.7a1.28 1.28 0 0 1 .76-.8 1.77 1.77 0 0 0-.77 1.14c-.03.12-.06.24-.1.37a1.5 1.5 0 0 1-.64.96 2.14 2.14 0 0 1-2.1.2c-.02-.02-.05-.06-.1-.02a1.63 1.63 0 0 0 1.25.34 1.84 1.84 0 0 0 1.77-1.38c.04-.16.06-.32.1-.48s0-.37.1-.5a1.6 1.6 0 0 1 .62-.52.37.37 0 0 0 .23-.17zm4.04 15.96c.35-.07.35-.07.3-.44a.22.22 0 0 1 .04-.22.3.3 0 0 0 .1-.22c-.02-.15.08-.18.18-.2a.66.66 0 0 1 .76.28c.05.08.1.04.13.02.13-.08.15 0 .15.1a3.02 3.02 0 0 1-.12.73c.35-.14.4-.22.4-.55v-.77c.1.33.06.67.14 1a.18.18 0 0 0 .17-.2 4.33 4.33 0 0 0-.14-.9.9.9 0 0 1-.1-.43c.03-.15-.02-.15-.15-.12-.32.08-.66.13-1 .2-.2.06-.4-.04-.6 0a.6.6 0 0 1-.5-.07c-.2-.15-.33-.05-.46.08-.07.07-.13.15-.2.22-.28.37-.27.42.05.74.15.16.33.3.5.47a3.1 3.1 0 0 1-.7-.57c-.02-.04-.05-.14-.14-.08s-.15.02-.2-.04a.7.7 0 0 0-.92-.2c-.1.06-.2 0-.25-.1a1.1 1.1 0 0 0-.76-.56 5.88 5.88 0 0 1-2.4-1.23 1.63 1.63 0 0 0-.4-.26 3.14 3.14 0 0 1-1.68-1.66s0 0-.02-.02a.6.6 0 0 0-.2.4 5.4 5.4 0 0 1-.23 1.04 2.82 2.82 0 0 0-.22.93.28.28 0 0 1-.43.28c-.1-.04-.15-.02-.15.1a.53.53 0 0 1-.17.46c-.12.1-.06.22.1.25a1 1 0 0 1 .73.45.37.37 0 0 0 .48.1.6.6 0 0 1 .7 0 .54.54 0 0 0 .3.1c.26 0 .52.02.8.04a.5.5 0 0 1 .32.12.4.4 0 0 0 .34.1c.26 0 .52.15.53.33 0 .12.07.14.15.17a12.9 12.9 0 0 0 1.4.47c.13.02.22.07.2.24-.54-.15-1.06-.32-1.56-.52-.13-.04-.26-.18-.4 0-.02.06-.1 0-.13-.02-.26-.2-.57-.27-.8-.48a1.35 1.35 0 0 0-.8-.27 5.58 5.58 0 0 0-.6 0 1.5 1.5 0 0 1-1.04-.38 1.1 1.1 0 0 0-.74-.33c-.1 0-.16 0-.2.1a.7.7 0 0 1-.45.42 1.4 1.4 0 0 1-.55.1 6.96 6.96 0 0 0-2.14.2 5.35 5.35 0 0 1-1.73.3.54.54 0 0 0-.23.07 9.07 9.07 0 0 1-1.04.44 1.47 1.47 0 0 0-.64.3c-.2.2-.38.45-.6.63a.18.18 0 0 0-.05.2 3.8 3.8 0 0 0 .34.87.55.55 0 0 0 .52.3c2.44.06 4.88.15 7.32.2.42 0 .8.17 1.22.15a.18.18 0 0 1 .08.03 3.03 3.03 0 0 1 .68.43 1.35 1.35 0 0 0 .47.3 1.2 1.2 0 0 1 .53.32.36.36 0 0 0 .5-.06c.12-.12-.06-.15-.07-.24a.17.17 0 0 1 0-.05c.17.04.27 0 .26-.2 0-.04 0-.1.05-.1a.18.18 0 0 1 .1.07.2.2 0 0 1 .06.16 2.04 2.04 0 0 1-.2 1.3.64.64 0 0 0-.08.2c-.34 1.02-.63 2.07-.92 3.1a3.67 3.67 0 0 0-.2 1.07.56.56 0 0 1-.07.28 1.23 1.23 0 0 0-.14.67 1.66 1.66 0 0 1-.2.84 1.04 1.04 0 0 0-.2.53.42.42 0 0 1-.15.3 4.66 4.66 0 0 0-.4.43c-.18.24-.4.5-.25.85.04.1.06.24-.02.3-.32.2-.24.5-.25.8 0 .14.03.2.2.2a.8.8 0 0 1 .52.2 2.15 2.15 0 0 0 1.22.4 1.3 1.3 0 0 1 .72.16c.18.15.3.06.3-.17 0-.32-.03-.63-.02-.94a6 6 0 0 1 .55-2.42 30.2 30.2 0 0 1 3.95-6.45 5.75 5.75 0 0 0 1.06-1.6 1.02 1.02 0 0 0-.36-1.32 5.75 5.75 0 0 0-.98-.6l-.75-.4a.48.48 0 0 1 .4-.06 5.04 5.04 0 0 1 1.5.77 1.32 1.32 0 0 1 .5 1.18 2.2 2.2 0 0 1-.5 1.13c-.33.45-.68.87-.97 1.33-1 1.6-1.95 3.22-2.78 4.9a9.22 9.22 0 0 0-1 3.17 3.7 3.7 0 0 0 .07 1.36 1.23 1.23 0 0 0 .7.82c.08.03.22.08.25.02.07-.16.2-.1.28-.1.88 0 1.75.1 2.63.05.15 0 .33.03.3-.22a.1.1 0 0 1 .07-.1 1.96 1.96 0 0 0 .6-.46 7.52 7.52 0 0 0 2.3-3.62 13.87 13.87 0 0 0 .37-3.02 15.57 15.57 0 0 0-.84-5.15.38.38 0 0 0-.1-.17 3.06 3.06 0 0 1-.8-1.37 1.3 1.3 0 0 1 .3-1.5c-.15.02-.28.06-.4.1a1.24 1.24 0 0 1-.77 0 2.42 2.42 0 0 0-.66-.3zm2.9 17.65a2.54 2.54 0 0 1-.95.77c-.35.14-.7.25-1.06.38a.23.23 0 0 1-.2 0 .9.9 0 0 0-.6-.06 15.16 15.16 0 0 1-2.4-.03 23.5 23.5 0 0 0-2.52-.1 8.27 8.27 0 0 1-1.03.02c-.1 0-.23-.05-.32.06-.04.05-.1 0-.14-.04a1.22 1.22 0 0 0-.38-.18.97.97 0 0 1-.66-.45.76.76 0 0 0-.14-.15c-.1.13-.16.26 0 .37a.1.1 0 0 1-.12.05c-.56 0-.67.08-.86.6a.17.17 0 0 1-.16.15c-.34.04-.68.1-1.02.13a17.66 17.66 0 0 0-3.27.6 11.6 11.6 0 0 1-2.1.5c-.3.03-.36 0-.37-.32 0-.28.02-.56 0-.83a1.6 1.6 0 0 0-.14-.72c-.06-.1-.12-.13-.22-.04a3.92 3.92 0 0 1-.42.34.32.32 0 0 0-.13.28 4.92 4.92 0 0 1-.5 2.14 7.1 7.1 0 0 1-1.84 2.06 5.66 5.66 0 0 1-1.93 1.04c1.05 0 2.1 0 3.16 0 1.23.02 2.47 0 3.7 0 1.74 0 3.48-.03 5.23-.03 3.83 0 7.66.02 11.5.03 1.38 0 2.77-.02 4.15-.02h.73a4.43 4.43 0 0 1-2.77-2.34 6.16 6.16 0 0 1-.5-4.06 5.35 5.35 0 0 1-1.16.2c-.26.02-.5-.02-.55-.36zm-14 1.08v-.03c-.34 0-.7 0-1.03 0a13.08 13.08 0 0 1-2-.12c-.17 0-.37-.02-.4-.24a.6.6 0 0 1 .5-.65.28.28 0 0 0 .17-.1 7.54 7.54 0 0 0 1.4-1.7 2.5 2.5 0 0 0 .48-1.53s.02-.03.03-.05a.47.47 0 0 1 .1.35 5.83 5.83 0 0 1-1.44 3.03h.34l5.25.05c.23 0 .45.02.68.03a.2.2 0 0 1 .18.12c.05.1-.05.1-.1.15s-.13.07-.15.2a1.66 1.66 0 0 1 .75-.03c.1.03.05-.08 0-.12-.08-.08-.1-.15.02-.24.08-.06.1-.2-.03-.23a2.48 2.48 0 0 0-.45-.1 4.6 4.6 0 0 1-1.6-.07c-.1-.04-.2-.05-.15-.2a1.9 1.9 0 0 0 .08-.67c0-.38-.03-.4-.36-.52a3.46 3.46 0 0 1-1.7-1.2 4.04 4.04 0 0 1-.8-3.14 1.98 1.98 0 0 1 .4-1.18.54.54 0 0 0 .08-.23 3.28 3.28 0 0 1 .15-.5c.1-.23.17-.5.53-.53-.1.22-.22.4-.32.6a5.4 5.4 0 0 0-.35 3.3 2.85 2.85 0 0 0 .25.97 3.77 3.77 0 0 0 1.77 1.6c.13.05.14.02.18-.1a8.26 8.26 0 0 0 .27-1.4c.05-.4.1-.8.2-1.2a2.38 2.38 0 0 1 .6-1.22.82.82 0 0 0 .32-.64.34.34 0 0 1 .04-.13 3.5 3.5 0 0 0 .33-1.27.55.55 0 0 1 .08-.28.8.8 0 0 0 .1-.5 9.1 9.1 0 0 1 .13-1.85 3.52 3.52 0 0 1 .5-1.13 7.65 7.65 0 0 0 .46-1.1c-.1-.02-.12.1-.2.07-.04-.44-.03-.45-.17-.56-.44-.34-.95-.56-1.38-.9a1.6 1.6 0 0 0-.26-.16c-.07-.04-.12-.02-.12.06a4.82 4.82 0 0 0-.04 1.05 1.22 1.22 0 0 1-.18.93 1.77 1.77 0 0 1-1.12.83c-.17.04-.34.05-.5.1a3.31 3.31 0 0 1-1.95-.04 2.06 2.06 0 0 0-.62-.1 19.77 19.77 0 0 1-2.67-.07c-.1-.02-.13.02-.15.12a.87.87 0 0 0 .6.98 2.8 2.8 0 0 1 1.16.5c.27.25.3.64.57.88v.02c-.07.13.03.23.08.33.1.18.2.35.3.53a.63.63 0 0 1 .06.52.64.64 0 0 0 .1.6c.2.24.16.4-.1.53-.1.04-.03.1-.03.13a8.46 8.46 0 0 1 .07 1 4.78 4.78 0 0 1-1.2 3.34c-.1.1-.1.14 0 .23a.53.53 0 0 1-.34.9c-.28.07-.55.03-.83.07.08.02.16.02.24.03a.36.36 0 0 1 .32.3c.02.14 0 .27-.13.33-.2.08-.4.18-.62.03a.17.17 0 0 0-.24.06c-.16.2-.3.38-.48.56-.06.07-.08.12 0 .18a.84.84 0 0 1 .32.55c.05.28.1.56.13.84 0 .15.06.16.2.12.62-.17 1.2-.43 1.84-.58s1.25-.32 1.87-.48zM40.16 18.9a3.1 3.1 0 0 0-.2-.38.9.9 0 0 0-.75-.43c-.05 0-.12.06-.14-.04 0-.07.07-.1.12-.1a.82.82 0 0 1 .8.2 1.5 1.5 0 0 1 .4.63c0 .07.04.1.13.12a2.77 2.77 0 0 1 .88.22c.15.06.2 0 .2-.13.04-.3.1-.6.1-.9a6.73 6.73 0 0 0-.02-2c-.06-.23-.17-.3-.37-.27a2.13 2.13 0 0 0-1.35.53 11.73 11.73 0 0 1-1 .8.34.34 0 0 0-.12.45 2.4 2.4 0 0 1 .13.64c.02.17.05.34.07.5.02.14.15.3 0 .47a.3.3 0 0 1-.1.08.98.98 0 0 0-.6 1.4 4.13 4.13 0 0 0 .8 1.27 3.94 3.94 0 0 1 .78 1.4c.2.6.3 1.2.44 1.82a11.08 11.08 0 0 1 .25 2.24 16.7 16.7 0 0 1-.46 4.73 6.22 6.22 0 0 1-5.08 4.9c-.52.1-1.05.15-1.57.24q.9.03 1.8.02a15.3 15.3 0 0 0 2-.05.43.43 0 0 1 .35.1.35.35 0 0 0 .34.03 1.72 1.72 0 0 0 .43-.22 4.32 4.32 0 0 0 1.85-2.78 8.5 8.5 0 0 1 1.22-2.98 5.85 5.85 0 0 1 2.04-1.92c.1-.06.17-.1.05-.22a.77.77 0 0 1-.15-.78 2.13 2.13 0 0 1 .35-.62.36.36 0 0 0-.3-.04 2.1 2.1 0 0 0-.54.18.28.28 0 0 1-.42-.3.42.42 0 0 0-.03-.2c-.1-.28-.22-.56-.35-.83a38.26 38.26 0 0 1-2.02-4.97 8.44 8.44 0 0 0-.87-1.83c-.04-.06-.14-.1-.1-.2s.17-.04.22-.02c.22.1.25-.06.32-.2.1-.22.06-.46.14-.68a.4.4 0 0 0 .32.13zm7.13 10.43a3.6 3.6 0 0 0-2.05.48 9.26 9.26 0 0 0-2.36 2.06 7.88 7.88 0 0 0-1.84 3.54 3.57 3.57 0 0 0-.07.94c0 .28.12.35.37.24.1-.05.23-.1.34-.15a8.04 8.04 0 0 0 1.96-1.46 7.83 7.83 0 0 1 2.26-1.56 4.55 4.55 0 0 1 2.53-.4c1.06.18 2.14.13 3.2.25.17.02.22-.08.15-.23-.2-.37-.38-.74-.6-1.1a4.95 4.95 0 0 0-3.9-2.6zm-3.7 9.13v.2a2.37 2.37 0 0 0 2.66 2.44 4.78 4.78 0 0 0 2.8-1.25 1.96 1.96 0 0 0 .55-1.95c-.02-.14-.06-.18-.2-.1a5.08 5.08 0 0 1-.5.23.24.24 0 0 0-.17.26 2.42 2.42 0 0 1-.43 1.45 2.15 2.15 0 0 1-1.62.84 2.05 2.05 0 0 1-2.13-1 2.6 2.6 0 0 1-.07-2.42 1.74 1.74 0 0 1 .97-.97c.14-.05.35-.05.4-.17s-.1-.27-.16-.4c-.22-.54-.24-.54-.7-.2a3.6 3.6 0 0 0-1.42 3.03zm-8.95-3.04l-.04.04a.96.96 0 0 1 .38 1.12c-.02.12.05.1.12.1a5.15 5.15 0 0 0 2.38-.95 6.48 6.48 0 0 0 2.13-3.2 13.63 13.63 0 0 0 .53-4.68c0-.27-.02-.54-.06-.8 0 .6.02 1.23-.02 1.85a8.32 8.32 0 0 1-.57 2.64 8.18 8.18 0 0 1-2.43 3.28c-.04.04-.14.05-.1.17.06.13-.15.4-.3.4a13.68 13.68 0 0 1-1.76 0 1.75 1.75 0 0 0-.25.02zM32.62 7.75c-.04-.02-.08-.04-.13-.05-.1-.03-.22-.04-.2-.17s.17-.08.26-.06a2.67 2.67 0 0 1 .77.27c.25.14.32.1.33-.2V6.6c0-.17.04-.27.22-.27.1 0 .25-.04.26-.16.02-.23 0-.47 0-.7a.2.2 0 0 0-.16.1.94.94 0 0 1-.67.36c-.46.08-.8-.2-.88-.76-.08-.4-.08-.4-.5-.46-.16 0-.23.03-.25.2a1.7 1.7 0 0 1-.55 1.04c-.1.1-.25.15-.28.25-.04.1.14.2.2.3a1.52 1.52 0 0 0 .5.65 1.98 1.98 0 0 1 .43.36.8.8 0 0 0 .65.25zm-4.37-1.2c-.18-.04-.36-.07-.54-.1a1.44 1.44 0 0 0-.9.2 6.84 6.84 0 0 1-2.3.9c-.26.05-.5.1-.76.16-.12.03-.18.08-.2.2a1.8 1.8 0 0 0 .4 1.24.3.3 0 0 0 .26.14 2.63 2.63 0 0 0 1.62-.67 9.53 9.53 0 0 0 .7-.8 2.42 2.42 0 0 1 .96-.8 1.02 1.02 0 0 1 1.4.4l.02.03a5.13 5.13 0 0 1 .42.74c.03.08.06.15.16.17.04-.48.05-.57-.06-.73a1.8 1.8 0 0 0-1.45-.85 2.77 2.77 0 0 0-1.6.52c-.2.13-.4.28-.6.4a3.62 3.62 0 0 1 2.48-1.13zM17.48 39.22a1.23 1.23 0 0 0-.43.07 3.17 3.17 0 0 1-1.95-.12c-.14-.06-.27-.15-.38.04-.02.04-.1.06-.12.03-.12-.12-.36.06-.45-.17 0-.02-.1-.02-.13-.02a12.53 12.53 0 0 0-1.57.25c-.2.06-.18.14-.07.28a2.7 2.7 0 0 0 1.6.97 3.16 3.16 0 0 0 3.38-1.12.3.3 0 0 0 .1-.2zm4.7-31.15a2.62 2.62 0 0 1-1.8-.2.25.25 0 0 0-.25 0 1.08 1.08 0 0 0-.54 1.25.43.43 0 0 0 .38.4 4.4 4.4 0 0 1 1.45.5.1.1 0 0 0 .08 0 7.52 7.52 0 0 1 1.06-.3 1.8 1.8 0 0 1-.37-1.65zm-5.35 28.36h-.78c-.05 0-.1 0-.12-.07a.1.1 0 0 1 .08-.12h.02a.8.8 0 0 1 .1 0c.1 0 .12-.03.1-.1s-.02-.1-.1-.1a.34.34 0 0 0-.43.26c-.03.13-.08.14-.18.15q-.92.03-1.84.07c-.08 0-.2-.04-.24.05a.3.3 0 0 0 .08.32 1.1 1.1 0 0 0 .6.35 6.7 6.7 0 0 0 2.73.2.87.87 0 0 0 .88-.74c.04-.17.02-.28-.2-.27s-.46 0-.7 0zM45 29.87a.35.35 0 0 0-.26.07 7.22 7.22 0 0 0-2.6 2.3 17.52 17.52 0 0 0-2.35 4.56c-.06.15.02.17.13.18a1.74 1.74 0 0 0 .68-.12c.33-.1.38-.16.36-.5a4.32 4.32 0 0 1 .2-1.6A9.53 9.53 0 0 1 44 30.6a9.17 9.17 0 0 1 1-.75zM33.62 5.47c-.3.34-.5 0-.73-.03.07.2.1.23.26.28a1.1 1.1 0 0 0 1.13-.84v-.02c-.07-.37.16-.7.12-1.06.1.16-.02.33.04.5.05-.16.1-.3.14-.44s0-.17-.13-.16c-.4.04-.8.06-1.2.1-.17 0-.3.07-.3.23a.47.47 0 0 1-.05.24c-.16.34.06.67.06 1a.12.12 0 0 0 .1.1.98.98 0 0 0 .54.1zm1.9 20.1l-.05-.04c-.18.27-.38.53-.55.8q-1.05 1.74-2.1 3.46a7.3 7.3 0 0 0-1.12 4.37.56.56 0 0 0 .56.56h.04a2.5 2.5 0 0 1-.25-1 7.37 7.37 0 0 1 .7-3.22 40.05 40.05 0 0 1 2.42-4.4c.1-.17.23-.36.34-.54zm-20.13 13.5a2.15 2.15 0 0 0 .9.06 10.16 10.16 0 0 0 3.24-1.04.96.96 0 0 0 .2-.14c.14-.12.03-.27 0-.4-.02-.1-.1 0-.14 0a5.82 5.82 0 0 1-2.96.85c-.06 0-.1 0-.1.1a.6.6 0 0 1-.7.57 1.3 1.3 0 0 0-.45 0zM14 38.6c.2.07.36-.03.46-.27a.28.28 0 0 1 .1-.1c.14-.1.08-.17-.04-.25a2.96 2.96 0 0 0-1.6-.42c-.13 0-.13.08-.13.16a5.1 5.1 0 0 1-.16.9c-.05.25-.06.24.2.18a4.03 4.03 0 0 1 1.15-.2zm34.52-1.06c-.03-.43-.03-.43-.38-.25a14.45 14.45 0 0 1-1.43.68c-.2.08-.47.1-.43.44 0 .02-.02.04-.03.06a.3.3 0 0 0 0 .33c.1.1.2 0 .3-.05.6-.32 1.18-.64 1.8-.9.14-.08.22-.16.17-.3zM29.88 8.7c-.37.13-.25.4-.2.66.06.3.1.6.16.88a7.16 7.16 0 0 0 .55 2.1 2.85 2.85 0 0 0 .98 1.35 17 17 0 0 0 1.57.85c.12.05.24.1.37.14a4.9 4.9 0 0 0-1.08-.63 2.86 2.86 0 0 1-1.1-.86 5.87 5.87 0 0 1-1.06-2.78 6 6 0 0 0-.2-1.7zm11.98 7.24a3.2 3.2 0 0 1 .08.4 9.52 9.52 0 0 1-.2 2.8c-.02.04-.06.1 0 .13a.9.9 0 0 0 .4.15c.1 0 .1-.2.15-.3a.3.3 0 0 0 0-.07 8.27 8.27 0 0 0-.1-2.62c-.03-.17.02-.5-.34-.5zM13.4 37.18c-.08-.13-.2-.25-.16-.38.1-.3-.08-.27-.27-.26-.17 0-.24.08-.35.2a2.22 2.22 0 0 0-.6 1.95.75.75 0 0 0 .14.4 1.5 1.5 0 0 0 .25-.76 3.6 3.6 0 0 0 .26-1c0-.06.06-.08.13-.08.2-.02.38-.05.6-.08zm6.3-29.56c-.2-.14-.33-.18-.44-.14a1.73 1.73 0 0 0-.83 1.63c.04.15.17.13.26.12.12 0 .02-.1 0-.15a1.15 1.15 0 0 1 .26-1 4.47 4.47 0 0 0-.18.53 1.04 1.04 0 0 0 .02.55.2.2 0 0 0 .23.14c.1-.02.03-.13.04-.2s0-.14 0-.22a1.87 1.87 0 0 1 .63-1.26zm25.1 21.5c.12 0 .14 0 .12-.08-.1-.35-.05-.77-.5-.96-.32-.12-.5-.1-.58.23a.8.8 0 0 0 .12.77.23.23 0 0 0 .28.1 1.07 1.07 0 0 1 .55-.05zM18.54 9.88a.96.96 0 0 1-.25-.5.12.12 0 0 0-.1-.12c-.28-.04-.55-.08-.82-.13-.1 0-.15.02-.15.12a1.22 1.22 0 0 0 .2.78c.05.07.1.16.2.12.24-.1.5-.14.75-.22-.08-.13-.2-.2-.22-.4a.82.82 0 0 0 .4.35zm21.22.65l-.07-.02c-.03.1-.06.16-.1.24 0 .03-.02.1-.08.07s-.03-.06-.02-.1c0-.08.05-.16 0-.24a3.63 3.63 0 0 0-.4 2.34 4.83 4.83 0 0 0 .67-2.27zm8.3 25.4c-.2.23-.2.3.1.46a.5.5 0 0 1 .15.14c.05.06.03.22.15.18s.3-.04.37-.22a.13.13 0 0 0 0-.13 3.85 3.85 0 0 0-1.05-1.12c-.12-.07-.24 0-.23.1a1.62 1.62 0 0 0 .22.55c.06.13.18-.06.28.04zM21.82 16.78c-.26.32-.15.7-.22 1.02-.02.08.07.06.1.04a5.7 5.7 0 0 0 .63-.18c.1-.05.27-.1.24-.26a2.23 2.23 0 0 0-.22-.74c-.1-.17-.24-.02-.35 0-.15.04-.02.12 0 .17a1.02 1.02 0 0 1 .07.74c-.1-.24-.1-.52-.23-.8zm24.9 16.95c.02-.32-.04-.36-.34-.26a3.25 3.25 0 0 0-.64.26c-.44.25-.44.25-.2.7.07.1.12.14.23.04a3.3 3.3 0 0 1 .86-.6c.1-.02.14-.06.1-.14zM15.3 38.8a2.3 2.3 0 0 1 .72.02c.1.03.16-.05.18-.15a.32.32 0 0 0-.18-.37.76.76 0 0 0-.7.03c-.16.07-.26.1-.38-.03-.08-.08-.14-.05-.2.04a.8.8 0 0 0-.08.23c-.02.16 0 .28.22.24a2.4 2.4 0 0 1 .43 0zm13.02-1.63c-.06 0-.12 0-.18-.02-1.65-.07-3.3-.02-4.96-.07a.2.2 0 0 0-.24.15 47.47 47.47 0 0 0 5.38-.06zm-5.86-20.63c.06.17.12.3.18.45s-.02.37.1.42.32-.03.5-.06h.03c.1 0 .13-.06.12-.15-.05-.15-.07-.3-.1-.47a.25.25 0 0 0-.34-.22c-.16.03-.32.03-.5.04zm24.46 17.9a1.2 1.2 0 0 1-.06-.2c-.03-.2-.14-.22-.3-.14a6.97 6.97 0 0 0-.72.45c-.2.12-.14.25-.05.4.1.15.22.06.33-.02a1.97 1.97 0 0 1 .7-.37c.07 0 .1-.04.1-.1zm3.8 2a8.97 8.97 0 0 0-1.04.25c-.36.1-.35.1-.14.4.1.14.17.15.3.08a2.2 2.2 0 0 1 .66-.25.14.14 0 0 0 .12-.12c.04-.1.07-.23.1-.37zm-6.57-6.63a4.76 4.76 0 0 0-2.55 2.42 10.9 10.9 0 0 1 2.55-2.4zm2.07 5.94s.03-.02.05-.03c.27-.14.53-.3.8-.45.07-.04.07-.08.06-.16-.07-.3-.07-.3-.36-.2a.63.63 0 0 0-.16.05c-.17.14-.4.18-.54.37-.1.14.04.23.06.34 0 .04.03.1.1.08zm-26 1.9a4.83 4.83 0 0 0 .77-.7c.07-.08.24-.18.17-.3s-.25-.03-.38-.03a.2.2 0 0 0-.16.1c-.12.1-.24.23-.36.34-.26.25-.26.25-.07.6zm28.35-.48c.03.16.05.28.08.4 0 .1.06.1.14.07.16-.08.34-.14.5-.22.05 0 .1 0 .1-.1a.4.4 0 0 0-.57-.33l-.16.07c-.08.03-.1.08-.1.12zM23.95 16.92a.84.84 0 0 1 0 .2c-.03.15 0 .2.16.2.43.04.43.05.4-.38a.33.33 0 0 0 0-.1.37.37 0 0 0-.42-.3h-.02c-.2.03-.05.2-.1.3a.27.27 0 0 0 0 .08zm5.26-10c.1.12.2.24.28.37a1.87 1.87 0 0 1 .27.65c.02.15.14.16.24.2a.2.2 0 0 0 .2-.08c.03-.1-.06-.15-.13-.2a.14.14 0 0 1-.04-.08c-.07-.5-.45-.68-.82-.9zm-4.6 9.74a1.38 1.38 0 0 1 .03.56c-.02.12.03.18.16.2.45.14.45.14.45-.36 0-.13-.1-.16-.17-.2-.15-.06-.3-.12-.5-.2zm-.72.37c0-.46-.03-.5-.4-.55-.06 0-.12-.04-.15.02s0 .1.03.13a.96.96 0 0 1 .18.52c-.03.2.1.18.2.16.2 0 .1-.2.14-.27zm8.2-12.5a.32.32 0 0 1 .08 0c.2.05.3-.02.3-.24 0-.25-.17-.1-.27-.15a1.16 1.16 0 0 0-.16 0c-.08-.03-.17-.1-.22 0a.42.42 0 0 0-.08.32c.04.1.16.04.24.05a.62.62 0 0 0 .1 0zm-6.67 12.54a2.14 2.14 0 0 1-.03.4.1.1 0 0 0 .04.15.47.47 0 0 0 .46.02c.08-.04.2-.15.07-.23a4.1 4.1 0 0 0-.52-.33zm-6.94-7.74a.53.53 0 0 0 .68.46c-.08-.38-.34-.48-.68-.47zm1.12 27.2l.32.44a.06.06 0 0 0 .1 0 1.78 1.78 0 0 0 .42-.4zM34.6 17.64a1.26 1.26 0 0 1 .68.24c.08.04.1.05.14-.03s.06-.12-.04-.16a1.86 1.86 0 0 1-.5-.28c-.1-.07-.18 0-.16.04.05.14-.1.1-.12.2zm1.06-.2a.98.98 0 0 1-.52-.3c-.1-.1-.15-.03-.22.05-.1.1-.03.13.06.2a1.7 1.7 0 0 1 .3.15c.17.15.25.13.38-.1zM31 37.43c.17-.02.3-.02.42-.04.1-.02.2-.07.18-.15-.02-.1-.14-.07-.2-.05a.43.43 0 0 1-.43-.03c-.07-.05-.18-.1-.23-.03-.07.1.05.18.12.23a.25.25 0 0 0 .14.06zM15.35 8.33a2 2 0 0 1 .85-.12c.06 0 .1 0 .1-.06 0-.05-.02-.07-.07-.1a1 1 0 0 0-.88.3zm9.1 9.48a4.67 4.67 0 0 0-1.68.03c.56.06 1.12-.03 1.67-.02zm2.35-1h-.06a1.95 1.95 0 0 0-.2.52c-.02.07-.05.17.07.17.1 0 .2 0 .2-.14q0-.28 0-.55zM23 8.35c-.07.55.2 1.12.5 1.13a2.34 2.34 0 0 1-.5-1.13zm7.25-.87c.02-.4-.17-.6-.5-.6a5 5 0 0 1 .5.6zm5.53 9.9a3.26 3.26 0 0 0-.46-.45c-.05-.06-.1-.03-.15 0-.06.08 0 .1.03.16a1.58 1.58 0 0 0 .58.28zM30.18 6.7c.14.14.3.23.36.42 0 .05.04.1.1.04s.1-.07.06-.16a.54.54 0 0 0-.5-.3zM19.34 9.5c.2.33.48.28.82.27a2.44 2.44 0 0 0-.82-.26zm4.15.24a1.1 1.1 0 0 0 .9-.24 3.97 3.97 0 0 0-.9.24zm12.54 7.4a3.85 3.85 0 0 1-.68-.38.94.94 0 0 0 .2.2 2.06 2.06 0 0 1 .2.2c.12.13.2.1.3-.02zm2.38.02c.4.07.4.07.55-.17-.17.05-.42-.1-.55.16zM35.16 3.03c-.26-.3-.32-.33-.66-.2a.67.67 0 0 1 .66.2zM17.14 9.7a.32.32 0 0 0-.47-.1.07.07 0 0 0-.02.07.05.05 0 0 0 .07.03c.14-.07.28 0 .42 0zm20.9 8.88c-.12.24-.03.53-.2.76a.94.94 0 0 0 .2-.76zm-3.96 16.6h1.06a4.13 4.13 0 0 0-1.06 0zM22.5 9.15a.54.54 0 0 0 .34.48zm.95-1.33a.98.98 0 0 0 .06.9 2 2 0 0 1-.05-.9zm10.2 28.8a1.2 1.2 0 0 0 .43-.02c-.14-.2-.26-.13-.42.02zm.04-33.6a.75.75 0 0 0-.4.12c.13-.05.3.08.4-.13zm-10.84 4.9a.48.48 0 0 0-.13.5c.04-.18.1-.33.13-.5zm.05 4.5a1.72 1.72 0 0 0-.15.58 1.18 1.18 0 0 0 .16-.56zm8.35 24.43a.34.34 0 0 0-.36.07.28.28 0 0 0 .35-.07zm3.33-21.27a.37.37 0 0 0 .27.3zM12.5 26.84v.04c-.32.2-.5.53-.82.75A11.35 11.35 0 0 0 9.3 30a20.77 20.77 0 0 0-1.73 2.8c-.34.6-.68 1.23-1 1.86a4.05 4.05 0 0 0-.46 1.58.72.72 0 0 1-.02.13c-.1-.04-.06-.12-.07-.18a2.97 2.97 0 0 1 .38-2c.34-.72.75-1.4 1.12-2.1a.36.36 0 0 0 .03-.33 2.8 2.8 0 0 1-.14-.97c0-.08.02-.2-.1-.2-.47 0-.64-.34-.73-.72a1.95 1.95 0 0 1 .17-1.35 1.2 1.2 0 0 1 1.23-.65c.14 0 .28.03.4-.1.04-.08.12-.04.2 0a1.66 1.66 0 0 0 1.42.32 2.15 2.15 0 0 1 .5-.1c.1 0 .14-.07.2-.12a4.03 4.03 0 0 1 1.52-1 .54.54 0 0 1 .3-.04zm-4.23 3.94a15.92 15.92 0 0 1 1.78-2.3 3.14 3.14 0 0 1-1.17-.2c-.1-.03-.13 0-.17.1a7.17 7.17 0 0 0-.43 2.4zm-.46.72c.17-.24.32-.4.24-.7a2.08 2.08 0 0 1 0-.78 6 6 0 0 1 .53-1.67c.03-.07.1-.16 0-.2s-.13.05-.16.1a4.64 4.64 0 0 0-.46 1.3 6.92 6.92 0 0 0-.13 1.95zm.2-3.3a1.58 1.58 0 0 0-.42 1.17A4.75 4.75 0 0 1 8 28.2zM12.44 32.72a6.65 6.65 0 0 1 2.13-1.4 12.23 12.23 0 0 1 3.48-.97 5.5 5.5 0 0 1 2.3.13 1.84 1.84 0 0 1 1.37 1.4 1.7 1.7 0 0 1-.16 1.16c-.1.2-.22.2-.32 0a.2.2 0 0 0-.2-.12 23.91 23.91 0 0 0-2.63.02c-.6.06-1.23.17-1.85.26a13.08 13.08 0 0 0-2.7.6 3.88 3.88 0 0 0-1.1.67c-.06.04-.12.15-.2.07s0-.17.05-.24a2.13 2.13 0 0 1 .77-.64 7.57 7.57 0 0 1 2.6-.84c1.15-.16 2.3-.3 3.5-.4a2.38 2.38 0 0 1 1.6.24c.14.1.14-.03.13-.12A1.7 1.7 0 0 0 20 31a4.85 4.85 0 0 0-1.92-.2 11.7 11.7 0 0 0-3.76.84 7.8 7.8 0 0 0-1.78 1.02.96.96 0 0 1-.1.06zM12.35 33.3a5.13 5.13 0 0 1 1.93-1.1 16.05 16.05 0 0 1 4.46-.9 5.12 5.12 0 0 1 1.77.26c.1.03.2.05.17.17s-.06.24-.24.23c-.3-.03-.57-.15-.86-.2a6.53 6.53 0 0 0-1.87.05 22.3 22.3 0 0 0-2.97.56 8.13 8.13 0 0 0-1.95.84.47.47 0 0 1-.43.1zM13 34.75a9.93 9.93 0 0 1 2.1-.73 18.54 18.54 0 0 1 2.72-.42 16.05 16.05 0 0 1 1.68-.12 4.7 4.7 0 0 1 2.04.43c.05.03.1.05.1.1 0 .1-.07.08-.13.1a.65.65 0 0 1-.3.02 15.9 15.9 0 0 0-4.06-.12 12.32 12.32 0 0 0-3.76.85c-.13.05-.13.04-.24-.06-.03-.04-.08.03-.14-.05zM1.77 43.6a7.72 7.72 0 0 1-1.77 0zM16.87 9.17h-.15a.07.07 0 0 0-.07.07c0 .07.05.06.1.06.13 0 .27 0 .35.14-.18-.04-.34-.16-.54 0 .07-.34.07-.34.3-.27zM17.93 22.38a.6.6 0 0 1-.4 0c.15-.06.26-.13.4 0zM46.24 37.16a2 2 0 0 1 .23 0c.07 0 .17-.06.18.1 0 .1-.03.2-.15.2a.18.18 0 0 1-.23-.1.78.78 0 0 1-.02-.2z" class="a"/></svg>