<?xml version="1.0" encoding="utf-8"?>
<!-- Generator: Adobe Illustrator 21.0.2, SVG Export Plug-In . SVG Version: 6.00 Build 0)  -->
<svg version="1.1" id="Layer_1" xmlns="http://www.w3.org/2000/svg" xmlns:xlink="http://www.w3.org/1999/xlink" x="0px" y="0px"
	 viewBox="0 0 349.3 311.3" style="enable-background:new 0 0 349.3 311.3;" xml:space="preserve">
<g>
	<path d="M311.5,275.3c0.7,0.5,1.5,0.6,1.7,1.8c0.1,0.5,0.7,1.3,1.6,1.3c0.4,0,0.5,0.4,0.6,0.6c0.8,1.7,1.8,3.4,3.1,4.6
		c2,2,2.7,4.6,3.5,7c0.5,1.5,1.1,3,1.5,4.6c0.2,0.6,0.6,1.2,0.8,1.9c0.1,0.4,0.3,0.9-0.3,1.1c-0.5,0.2-0.7-0.3-0.8-0.7
		c-1.4-2.9-3-5.8-4.2-8.8c-1.4-3.3-3.2-6.2-6-8.5c-1.9-1.6-3.6-3.3-5.3-5.1c-2.7-2.9-5.9-5.1-9.3-7.1c-0.5-0.3-1.2-0.5-2-0.9
		c1.2-0.4,1.9,0.8,3,0.4c-2.1-1.7-4.8-0.7-6.9-1.6c-2.4-1-5.1-0.9-7.6-1.1c0.1,0.4,0.2,0.7,0.5,1c-0.3,0.1-0.6,0.2-0.7-0.1
		c-0.5-1.2-1.6-1.1-2.5-1.1c-0.8,0-1.3-0.3-1.8-0.9c0.9-0.1,1.8,0.6,2.9,0.4c-0.8-0.3-1.4-0.6-2-0.9c-0.6-0.3-0.8,0-0.9,0.5
		c-2.1-1.4-4.4-1.6-6.8-1.5c-2.3,0-4.6,0-6.9-0.1c-1.9,0-3.7,0.9-5.4,1.7c-0.5,0.2-1,0.5-1.8,0.5c1.8-1.1,3.5-1.8,5.3-2.6
		c-1.4-0.4-2.4-1.5-4.3-1.1c-1.1,0.3-1.3,0.8-1.7,1.5c-0.7,1.3-1.6,2.4-2.7,3.3c0.7-1.5,1.6-2.8,2.1-4.3c0.1-0.4,0.5-0.8-0.1-1.1
		c0.4-0.2,0.7-0.4,0.7-0.9c0-0.6-0.5-0.6-0.8-0.7c-0.6-0.2-1.1-0.4-1.7-0.6c-0.2,0.8-0.1,1.3,0.7,1.5c0.4,0.1,1,0.1,1.2,0.7
		c-0.6-0.2-1.2-0.3-1.9-0.5c-0.6,6.3-4.4,10.5-9.3,13.9c4.1-3.1,5.8-7.2,6-12.2c0.5,1.2,0.4,3-0.4,6.4c1.5-2.1,2.2-4.2,2.6-6.5
		c0.1-0.3,0.1-0.6,0.2-0.9c0.2-0.7,0-0.9-0.6-1.1c-1.7-0.6-3.3-1.3-5-1.8c-0.3-0.1-0.7-0.6-1,0c-0.3,0.5-1,0.9-0.6,1.7
		c0.8,1.8,1.1,3.6,1.5,5.5c0.1,0.2,0.1,0.5,0.1,0.7c0,0.4,0.1,0.9-0.5,0.9c-0.6,0-0.4-0.5-0.5-0.9c-0.2-1.8-0.6-3.6-1.2-5.3
		c-0.1-0.3-0.1-0.6-0.4-0.6c-0.4,0.1-0.4,0.4-0.3,0.8c0.3,1.3,0.7,2.6,0.8,3.9c0.2,2.3,0.7,4.7-0.7,7c0.2-3.5,0.3-6.9-1-10.2
		c-0.7,0.6-0.5,1.2-0.3,1.9c1.4,3.8,1.2,7.5-0.6,11.1c0,0.1-0.1,0.2-0.2,0.3c0,0.1-0.1,0.1-0.4,0.2c0.3-1.1,0.6-2.1,1-3.2
		c0.4-1.4-0.1-2.4-1.1-3.3c-0.3-0.3-0.1-0.5-0.1-0.8c0-1,0.1-1.9,0.1-2.9c0-0.3-0.1-0.6-0.3-0.7c-0.2-0.1-0.4,0.2-0.5,0.5
		c-1.2,1.5-2.7,2.7-4.1,4c-0.2,0.2-0.5,0.3-0.8,0.2l0,0c0-0.3,0.5-0.5,0.2-0.8c-0.3-0.3-0.5,0.1-0.8,0.2c-1.6,1.1-3.3,2.2-5.3,2.3
		c0.1,0.6,0.9,0.5,0.8,1.2l0,0c-2.1-0.8-3.8-2.1-5.3-3.8c0.9,0.6,1.8,1.2,2.7,1.8c0.6,0.5,1.2,0.6,2,0.3c0.9-0.4,1.9-0.6,2.8-1.1
		c-1.9-1.2-3.8-2.3-5.3-4.1c0.8-0.2,1.2,0.5,1.7,0.8c1.2,0.9,2.4,1.8,3.5,2.8c0.2,0.2,0.4,0.5,0.8,0.2c2.3-1.3,4.6-2.7,6-5.2
		c-0.8-0.6-1.8-0.3-2.6-0.5c-2.5-0.5-4.8-1.4-6.8-2.9c-0.3-0.2-0.6-0.4-0.9,0c-2.1,2.2-4.8,3.6-7.5,4.7c-6,2.3-12,4.7-18.4,5.9
		c-5.4,1-10.8,1.3-16.2,0.9c-1.9-0.2-3.8-0.3-5.7-0.3c5.1,1,10.3,0.9,15.4,1.4c-23.4,1.6-45-4.4-65.6-15.9c1.7,0.5,3.1,1.2,4.4,1.8
		c1.4,0.6,2.8,1.2,4.3,1.5c-1.3-0.6-2.6-1.2-3.9-1.9c-2.3-1.1-4.7-2.1-6.7-3.6c-1.9-1.3-4.1-1.9-6-3.2c-0.2-0.2-0.7-0.3-0.5-0.7
		c0.2-0.4,0.5,0.3,0.9-0.1c-1.1-0.5-1.8-1.4-3.2-1.3c-0.7,0-1.1-0.6-1.6-1c-1.6-1.4-3.5-2.5-5-4c-0.4-0.4-0.8-0.2-1.2,0
		c-1.2,0.6-2.4,1.3-3.6,1.9c-0.4,0.2-0.8,0.5-1.2,0.4c0.6-0.7,1.6-0.8,2.3-1.3c1-0.5,2-1,3-1.8c-1.3-0.2-2.1,0.7-3.2,0.7
		c0.3-0.4,0.8-0.5,1.2-0.7c0.2-0.1,0.4-0.1,0.3-0.4c-0.1-0.2-0.3-0.3-0.5-0.3c-0.6,0-1.1,0.5-1.4,1c-0.2,0.4,0.1,0.3,0.3,0.4
		c-1,1-2.3,1.5-3.5,2.1c-1.8,0.9-3.6,1.8-5.5,2.8c0.7,0.2,1.1-0.2,1.5-0.3c1.8-0.6,3.5-1.7,5.3-2.2c-1.6,1.3-3.6,1.7-5.4,2.6
		c-0.5,0.2-0.9,0.4-1.6,0.6c1.6,1.5,3.1,3,4.6,4.4c1.9,1.7,3.9,3.3,6,4.7c3.5,2.4,7.2,4.5,10.8,6.9c4.9,3.3,10.4,5.5,15.8,7.8
		c4,1.7,8,3.3,12,4.9c0.3,0.1,0.6,0.3,1.2,0.6c-1.6-0.1-2.9-0.5-4-1c-5.5-2.3-10.9-4.7-16.4-7c-0.3-0.1-0.6-0.4-1.4-0.2
		c4.2,1.7,7.3,4.6,11.4,5.9c-8.7-2.6-16.5-7.2-24.5-11.6c0.5,0.8,1.7,1,2.1,2.1c-3.3-1-18.1-12.9-17.9-14.6c0.8,1,1.6,1.7,2.7,2.7
		c0-1-0.8-1.2-0.9-2c4.9,4.6,9.7,9.2,16.2,11.4c-2.1-1.5-4.3-3-6.3-4.6c-4.1-3.1-8.1-6.2-11.9-9.6c-0.5-0.4-0.9-0.4-1.4-0.2
		c-2,0.6-4,1.3-5.9,2.2c-0.7,0.3-0.7,0.4-0.2,0.9c1.1,1.2,2.5,2.1,3.9,2.8c0.3,0.2,0.7,0.2,0.9,0.6c-0.7,0.3-1.3,0.1-1.8-0.3
		c-1-0.8-2.1-1.5-3-2.4c-0.7-0.8-1.5-1.5-2.6-0.6c0.3,0,0.7,0.1,1.1,0.1c-1.5,0.6,0.1,0.8,0.1,1.2c-0.3,0.3-0.6,0.1-0.8-0.1
		c-0.7-0.5-1.5-0.6-2.4-0.5c-3.2,0.3-6.4,0.6-9.5,1.3c-3.6,0.8-7.1,2.1-10.7,3.2c-6.5,2-13.1,4.1-19.6,6.1c-0.9,0.3-1.7,0.6-2.5,1
		c-2.8,1.5-5.7,3-8.5,4.4c-1.5,0.8-2.9,1.8-4,3c-2.3,2.5-4.8,4.9-6.6,7.8c-0.7,1.2-1.4,2.3-1.7,3.7c-0.9,3.9-1.9,7.9-2.8,11.8
		c-0.1,0.3-0.1,0.6-0.2,0.9c-0.2,0.5-0.5,0.9-1.1,0.8c-0.7-0.2-0.8-0.7-0.7-1.3c0.1-0.4,0.2-0.8,0.3-1.2c0.7-3,1.6-6,2.1-9.1
		c0.4-2.1,0.8-4.2,2-5.9c2.1-3.2,4.5-6.2,6.8-9.3c0.1-0.1,0.1-0.2,0.2-0.3c3.7-1.8,6.1-5.2,9.7-7.1c1.4-0.7,2.9-0.9,4.3-1.5
		c3.4-1.4,6.6-3.1,10-4.3c1.2-0.4,2.5-0.2,3.6-0.9c1.4-0.9,3-0.9,4.6-0.8c0.5,0,0.8-0.1,1.2-0.4c1.6-1.3,3.5-1.6,5.4-2.2
		c-0.3,0.7-1,0.4-1.4,1c0.5-0.2,0.9-0.2,1.3-0.3c1.3-0.2,2.7-0.2,3.9-0.9c0.8-0.5,1.8-0.8,2.8-0.3c0.3,0.1,0.7-0.1,1-0.2
		c1.5-0.4,3.1-0.8,4.8-1.3c-2.2-1-3-3.1-4.3-4.6c-0.5-0.6-0.8-1.5-1.9-1c-0.6,0.2-1-0.3-1.1-0.9c-0.4-2.2-1.5-4.1-2.7-5.9
		c-0.4-0.5-0.3-1.1-0.3-1.7c0-4-0.3-8,0.1-11.9c0.5-5,0.5-10,0.8-15.1c0.1-1.6,0.7-3.3,1.5-4.9c1.8-3.7,3.8-7.3,6.2-10.6
		c2.1-2.9,3.6-6.2,6.1-8.7c0.2-0.3,0.4-0.6,0.7-0.9c-3.5-1.1-6.7-3-10.2-3.7c-0.1,0.4,0.4,0.4,0.2,0.7c-0.6-0.1-1-0.4-1.4-0.7
		c-1.4-0.9-2.9-1.8-4.6-2.2c-1-0.2-1.3-1.3-2.1-1.8c-1.7-1.3-3.3-2.6-4.8-4.2c-1.4-1.5-1.8-3.4-2.2-5.2c-0.5-2.4-0.5-4.8-0.5-7.3
		c0-1,0.3-1.8,0.9-2.5c0.1-0.1,0.1-0.1,0.2-0.2c1-2.1,2.5-3.5,4.8-3.4c-0.7-3.8-1.3-7.4,0.5-10.9c0.1-0.2,0.2-0.5,0.3-0.8
		c0.7-1.2,0.6-2.2-0.1-3.6c-4.2-8.5-2.2-17.8,5-24.3c2.2-0.7,2.1-2.4,1.9-4.1c-0.3-4.3,0.8-8.2,2-12.3c0.5-1.7,1.5-3.4,1.5-5.3
		c0-1,0.7-1.7,1.2-2.5c0.6-0.9,1.1-1.8,1.4-2.9c0.2-0.7,0.6-1.2,1.1-1.7c0.6-0.6,1-1.2,1.4-2c-0.7-0.2-1.3,0.5-2,0.4
		c0.1-0.1,0.1-0.2,0.2-0.2c2.5-0.8,3.9-2.9,5.6-4.6c1.3-1.2,1.9-2.8,2.3-4.6c0.6-3.4,1-6.9,1.4-10.3c0.4-4,2.4-7.2,3.8-10.7
		c0.1-0.3,0.4-0.6,0.6-0.9c1.8-1.6,3.4-3.4,4.8-5.2c0.1-0.1,0.2-0.2,0.4-0.3c3.8-1.8,6.9-4.9,10.6-6.9c2.2-1.2,4.4-2.4,6.7-3.5
		c2.7-1.3,4.9-3.5,7.1-5.9c-1.9,0.5-3.5,1.5-5.2,2.1c1.4-1.1,2.9-1.9,4.5-2.6c1.6-0.7,3.4-1,4.9-2.1c1.5-1,3.3-1.5,4.6-2.7
		c1.3-1.2,3-1.9,4.6-2.7c-0.1,0.6-0.7,0.6-0.9,1.3c0.5-0.2,0.9-0.3,1.2-0.5c4.6-2.1,9.2-4.4,14.2-5.4c0.4-0.1,0.8-0.2,1.2-0.3
		c1.1-0.2,2.1-0.4,3.2-0.6c1.1-0.2,1.3-1.6,2.5-1.8c-2.5,0.3-4.6,1.8-7.1,2.2c2.2-1.4,4.7-2.2,7.2-2.8c6.2-1.4,12.4-0.9,18.7-0.8
		c-0.5,0.1-1,0.2-1.5,0.3c0.7,0.6,0.7,0.6,2.9,0.7c-0.1,0.4-1-0.1-0.8,0.7c0.1,0.3,0.1,0.7,0.8,0.7c3.4,0,6.7,0.6,10.1,1.1
		c-1.1-0.4-2.2-0.7-3.2-1.3c-1.2-0.6-2.2,0.2-3.3,0.1c2.6-2.2,5.8-1.9,8.9-2c-1,0.1-2,0.2-3,0.4c-1,0.2-2,0.3-3.1,0.8
		c5.5,1.4,10.8,3,16.3,3.2c-0.4-0.5-0.4-0.5,0.4-0.7c-0.9-0.7-1.7-1.5-2.9-1.4c-0.6,0-0.3-0.7-0.7-0.9c-0.8-0.5-1.6-0.8-2.8-1.2
		c1.8-0.1,3.1,0.3,4.3,1.1c2.5,1.6,5.1,2.9,7.8,3.8c1.4,0.5,2.7,1.2,4.1,1.8c-0.6,0.3-1-0.4-1.5-0.2c0.6,1.1,1.5,1.6,2.7,1.8
		c4.6,1,8.6,3.3,12.2,6.3c1.1,0.9,2.4,1.8,3.7,2.4c2.9,1.3,5.3,3.4,7.9,5.2c1.8,1.2,2.9,3.1,4.5,4.4c2,1.6,3.5,3.6,5.2,5.5
		c1.5,1.7,3.5,2.8,5.5,3.8c0.3,0.2,0.7,0.2,1,0.7c-2-0.6-3.6-1.7-5.4-2.4c0.5,0.6,1,1.3,1.6,1.8c1,0.9,1.9,2,2.7,3
		c0.6,0.8,1.4,1.4,2,2.1c0.9,1,2,1.4,3,2.1c1.1,0.8,2.4,1.4,3.6,2.1c2.2,1.2,4.2,2.5,5.9,4.3c1.8,1.9,3.2,4.1,4.4,6.4
		c0.3,0.6,0.4,1.3,0.4,2c-0.1,3.9-0.5,7.8-0.3,11.7c0.1,1.8,0.7,3.6,1.3,5.3c0.3-1.8,0-3.6,0.4-5.4c0.1,3.5,0.3,7,1.3,10.3
		c1,3.3,2.9,6.3,5.6,8.8c-1.7-0.2-2-1.8-3.1-2.4c1.1,1.5,1.3,3.5,3.3,4.5c1.1,0.6,2.1,1.6,2.9,2.7c1.3,1.6,0.8,3.5,0.7,5.3
		c-0.1,2.5-1.2,4.8-1.9,7.1c-0.3,1-0.3,1.8,0.3,2.8c1.7,2.7,2.2,5.8,2.2,8.9c0,1.5,0,3-0.1,4.4c-0.2,2.4-0.7,4.7-2.1,6.8
		c-0.1,0.2-0.2,0.3-0.4,0.5c-0.5,0.5-1.4,1-1.5,1.6c-0.2,0.6,0.8,1.1,1.1,1.8c1.2,3.1,2.9,6,3.9,9.2c0.2,0.5,0.1,1,0.2,1.5
		c0.3,4.6,0.5,9.3,0.4,13.9c0,1.4-0.4,2.8-1.5,3.8c-0.5,0.5-0.5,0.9,0,1.3c0.4,0.3,0.7,0.7,1.1,0.9c2.4,1.4,3.8,3.6,5.1,6
		c1.7,3,0.9,6.3,0.9,9.4c0,3.4-0.9,6.8-0.8,10.3c0,1.6-1.3,2.6-2.2,3.7c-2,2.5-4.1,4.9-5.8,7.6c-0.7,1.2-1.2,2.6-2.1,3.7
		c-0.3,0.3-0.4,0.8-0.4,1.2c0,0.2,0,0.6-0.1,0.6c-1.3,0.1-0.5,1.4-1,1.9c-1.5-2.5-1.5-5.3-2-8.1c-2,1.1-4.2,1.7-6.2,2.9
		c-0.4,0.2-0.3,0.5-0.3,0.8c0.3,5.1,0.3,10.2,0.1,15.3c-0.1,2.2-0.8,4.5-2.4,6.3c-0.7,0.8-1.2,1.7-1.7,2.6c-0.1,0.2-0.2,0.4-0.2,0.5
		c0.8,1.1,0.7,2.6,1.6,3.7c1.1,1.3,2.2,2.8,3.5,3.9c0.6,0.5,1,1,0.4,1.7c-0.6,0.7-1.2,0.2-1.8-0.1c-2.9-1.5-5.3-3.5-7.6-5.6
		c-0.3-0.3-0.6-0.3-1-0.2c-0.8,0.2,0.3,0.9-0.4,1.2c-0.9-1.6-2.3-0.6-3.6-0.7c-0.6-0.1-0.8,0.3-0.8,0.9c0,2.7,0,5.4,0,8.2
		c0,0.5,0.2,0.7,0.7,0.8c2.4,0.7,4.8,1.2,7.1,1.9c0.9,0.3,2.1,0.2,3.1,0.1c2.6-0.1,5.1,0.3,7.6,0.4c0.4,0,0.9,0.1,1.3,0.3
		c1.6,0.6,3.2,0.8,4.9,0.9c2.4,0.1,4.7,0.9,6.8,1.8c0.4,0.2,0.7,0.4,1.1,0.4c2.3,0,4.5,0.8,6.6,1.4c1.2,0.4,2.1,1.1,3,1.9
		c1.9,1.6,3.6,3.4,5.1,5.4C309.4,274.1,310.3,274.9,311.5,275.3z M144.2,112.4c-0.2,0-0.5-0.1-0.6,0.1c2.6,1.7,5.5,2.2,8.4,2.8
		c-2.2-1.3-4.6-1.8-6.9-2.7c1.5,0,2.9,0.8,4.4,0.9c-1.8-0.8-3.6-1.5-5.5-2.1c-0.6-0.2-0.6,0.2-0.7,0.5c-0.2,0.5,0.3,0.3,0.5,0.4
		C143.9,112.3,144.1,112.4,144.2,112.4z M155,128.7c0.7,0.2,0.6-1,1.4-0.8c-0.1,0.3-0.3,0.5-0.4,0.8c-0.1,0.2-0.1,0.4,0.1,0.5
		c0.3,0.1,0.4-0.1,0.5-0.3c0.6-1.4-0.7-3.3-2.2-3.3c-0.5,0-0.7,0.3-0.8,0.6c-0.2,0.4-0.1,0.7,0.5,0.6c0.4-0.1,0.2,0.2,0.1,0.4
		C154.2,127.8,154.1,128.4,155,128.7c-0.6,0.4-0.8,1.1-1.2,1.5c-0.4,0.4-0.1,0.7,0.1,1.1c0.1,0.2,0.4,0.4,0.6,0.2
		c0.7-0.3,0.9-1.2,1.4-1.7c0,0-0.1-0.2-0.1-0.3c-0.7-0.4-0.8,0.6-1.3,0.7c0,0-0.1,0-0.1,0C154.4,129.7,155.1,129.4,155,128.7z
		 M226.3,246.4c-0.2,0.8,0,1.5,0.9,1.9c0.7,0.3,1.4,0.8,2.2,1.1c0,0.1-0.1,0.1-0.1,0.2c-1.1-0.4-2.2-0.9-3.6-1.4
		c1.9,3.4,5.2,4.6,8.4,6.5c-2.3,0.1-3.6-1.3-5.3-1.9c-0.3,0.6,0.1,1,0.4,1.2c0.6,0.4,0.9,1,1.3,1.5c1.6,2.1,1.9,2,3.6-0.2
		c0,0,0-0.1,0.1-0.1c0.4-0.6,1.2-1.3,1.2-1.8c-0.1-0.6-1.2-0.7-1.8-1.1c-0.1-0.1-0.2-0.2-0.5-0.3c0.9,0,1.5,0.4,2.1,0.7
		c0.6,0.4,1,0.2,1.1-0.4c0.1-0.5,1.2-0.8,0.1-1.5c-2.3-1.5-4.7-2.9-6.9-4.7c0.5,1.4,1.7,2.5,1.5,4.3c-0.3-0.3-0.7-0.2-0.8-0.8
		c-0.2-0.9-0.7-1.7-1.7-2.1C227.7,247.2,227,246.8,226.3,246.4c0.8-0.3,1.4,0.6,2.3,0.6c-0.1-1.9-1.7-3.1-2.2-4.9
		c-0.8-2.5-2.1-4.9-2.9-7.4c-0.9-2.5-1.8-5.1-2-7.8c0.3-0.1,0.4,0.1,0.4,0.4c1.3,5.7,3.3,11.2,6,16.4c0.1,0.2,0.1,0.5,0.4,0.7
		c1.3,1,2.6,2,3.9,3c1.2,0.9,2.4,0.8,3.6-0.1c-0.7-0.1-1.2-0.5-1.4-1.3c1.1,0.1,1.8,0.9,2.8,0.8c0.8-0.1,1.4,0.1,1.5,1.1
		c0,0.5,0.6,0.4,0.8,0.8c0.9-0.6,1.3,0.4,1.9,0.7c0.9,0.5,1.7,1,2.5,1.5c1.3,0.7,2.5,1.3,3.8,2c-2.3-0.6-4.3-1.8-6.6-3.1
		c0.4,0.7,0.7,0.9,1.1,1.2c3.5,2.4,7.6,3.5,11.5,4.9c1.3,0.5,1.4,0.3,1.1-1.1c-0.1-0.7-0.5-1.4-0.2-2.2c0.6,1,0.8,2.2,1,3.3
		c0.1,0.5,2.1,1.5,2.5,1.3c0.1,0,0.1-0.2,0.1-0.3c0-2.2,0.4-4.5-0.6-6.6c-2.6-5.8-7.4-9.5-12.3-13.2c-1.7-1.3-3.5-2.4-4.9-3.9
		c2.2,1.5,4.8,2.4,7,4.1c-0.8-1.4-1.1-3-1.3-4.5c-0.2-1.7-0.5-3.5-0.6-5.2c0-0.3,0-0.7,0.4-0.8c0.5,0,0.3,0.5,0.3,0.7
		c0,2.8,0.6,5.5,1.7,8.1c0.6,1.5,1.3,3,2.5,4.1c1.6,1.5,3.5,2.7,4.9,4.4c0.5,0.6,0.9,0.7,1.5,0.1c1.9-1.7,3.2-3.7,3.6-6.2
		c0.4-2.2,1.1-4.5-0.9-6.4l0.1,0c0.4-0.1,0.6,0.3,1,0.3c0,0,0.1,0,0.1,0c0.2,0,0.4-0.1,0.4,0.1c0.4,2,2.2,3.1,2.8,5.2
		c0.8-1.9,1.3-3.5,2.1-5c1.1-2,1.1-3.9,0.5-6c-1.2-4.2-3.2-7.9-6.6-10.8c-1.6-1.3-3.4-2.2-5.2-3.1c3.6,0.8,6.4,2.9,8.6,5.8
		c2.1,2.8,3.8,5.8,4.4,9.4c0.6-1.7,1.2-3.5,1.8-5.2c0.2,0.6,0,1-0.1,1.5c-0.6,2.4-1.5,4.8-1.7,7.3c-0.3,2.7-0.4,5.3-2.7,7.2
		c-0.5,0.4,0,1.1-0.2,1.4c-1.3,1.3-0.6,2.9-0.7,4.4c0,0.2-0.1,0.5,0.2,0.6c0.2,0,0.4,0,0.6-0.1c0.3-0.2,0.1-0.4,0.1-0.7
		c0-0.4-0.7-0.8,0-1.3c0.4,0,0.6,0.2,0.7,0.5c0.3,0.7,0.6,0.6,1.2,0.3c1.3-0.7,0.9-1.7,0.6-2.7c-1,0.4-1.3,1.7-2.5,1.9
		c0.4-0.4,0.8-0.9,1.2-1.3c0.9-0.9,1.5-1.8,1.3-3.2c-0.2-2.2,0.3-4.4,0.8-6.6c0.1-0.3-0.1-1,0.5-0.9c0.7,0.1,0.1,0.7,0,1
		c-0.6,2.1-0.7,4.3-0.7,6.5c0,0.5,0.1,0.7,0.7,0.4c-0.9,0.8-0.9,1.8-0.2,3.7c4.1-4.1,4.9-6.1,4.5-12.4c-0.5,1.5-1,2.7-1.4,3.8
		c-0.6,1.7-1.4,2.8-2,3.1c0,0,0-0.1,0-0.1c0.8-1.7,1.7-3.4,2.2-5.2c0.6-1.8,0.9-3.6,1.1-5.5c0.2-1.8-0.7-3.4-0.5-5.1
		c0-0.2-0.1-0.5-0.4-0.5c-0.3,0.1,0.1,0.4-0.2,0.6c-0.7-1.1-1.4-2.4-2.5-3.2l0,0c0.7-0.4,0.9,0.3,1.2,0.6c0.5,0.5,0.6,1.3,1.5,1.7
		c-0.7-3-2.3-5.1-4.3-7.1c2.5,1.1,3.6,3.3,5,5.4c0.4-0.7,1.2-0.9,1.6-1.5c1.8-2.3,4.1-3.9,6.9-5c0.4-0.1,0.6-0.3,0.7-0.8
		c0.3-1.9,0.7-3.7,1.4-5.5c0.4-1.2,0.9-2.3,2.2-3.3c-0.2,0.5-0.2,0.7-0.3,1c-0.9,2.3-1.6,4.6-1.8,7c0,0.2-0.2,0.6,0.2,0.7
		c0.4,0.1,0.4-0.2,0.5-0.6c0.6-2,1.3-4.1,1.9-6.1c0.2-0.7,0.5-1.2,1.5-1.1c-1.1,2.4-2,4.7-2.5,7.5c2.4-2.4,4.1-4.9,5.3-7.7
		c0.4-0.9,0.5-2,0.8-2.8c0.6-1.4,1.2-2.8,1.4-4.3c0.4,0,0.3,0.5,0.6,0.6c0.4-0.7,0.7-1.5,0.5-2.3c-0.6-2.7-0.4-5.5-1.6-8
		c-0.5-1.1-1.2-2-1.8-3c-1-1.8-2.8-2.6-4.5-3.5c0.8,2.5,3.3,3.9,4.3,6.3c-0.8-1.2-1.9-2-3.1-2.9c0.1,1,0.8,1.5,1,2.4
		c-1.2-0.7-1.7-1.7-2.1-2.8c-0.3-1-0.9-1.6-1.5-2.3c-0.9-1-2.1-1.6-3.1-3c1.5,0.8,2.6,1.8,3.7,2.6c0.2-0.8-0.1-1.4-0.7-1.8
		c-1-0.8-2-1.6-3-2.3c-0.7-0.5-0.9-1.1-0.8-2c0-0.2-0.1-0.5,0.3-0.5c0.2,0,0.5,0.2,0.4,0.5c-0.2,0.8,0.4,1.2,0.9,1.6
		c2.4,2.2,2.3,2.2,3.1-1.1c0.9-3.6,2.1-7,2.2-10.8c0.1-3.2-0.2-6.2-1.4-9.1c-0.7-1.7-2-2.8-3.1-4.1c-0.5-0.6-1.3-0.6-1.6-1.1
		c-0.8-1.1-1.2,0.3-1.8,0.2c-0.1,0-0.2,0-0.4,0c0.6-0.6,1.1-1.2,1.5-1.6c-1.4-1.5-3.3-2.2-4.8-3.4c1.7,0.4,3.2,1.1,4.7,1.9
		c0.4,0.2,0.8,0.3,1.2-0.1c2-2.2,3.4-4.6,3.3-7.7c-0.1-2.2-0.1-4.3,0-6.5c0.1-1.7-0.3-3.3-1.1-4.8c-0.3-0.7-0.8-1.3-1.3-1.9
		c-0.6-0.9-1.3,0.1-2,0c0.1-0.4,0.7-0.3,0.8-0.9c-2.5-0.8-5.1-1.2-7.8-1.5c2.8-0.3,5.4,0,7.9,1.3c0.6-0.9,0.3-1.4-0.5-1.8
		c-1.1-0.5-2.2-1-3.4-1.3c-0.9-0.3-1.9-0.6-2.7-1.4c0.3,0,0.5,0,0.7,0c2.2,0.6,4.3,1.4,6.2,2.6c1.4,0.9,1.8,0.8,2.6-0.6
		c0.1-0.2,0.3-0.5,0.4-0.7c0.5-2.9,1.3-5.8-1.7-7.8c-0.3-0.2-0.5-0.5-0.8-0.8c-1.4-1.4-3.1-2.2-5.1-2.3c-1.6-0.1-3.2-0.4-4.8-0.7
		c-1.6-0.3-3.1-0.8-4.7-0.8c-1,0-2.1-0.2-2.5-1.4c-0.1-0.3-0.5-0.8-0.1-1c0.5-0.3,0.6,0.4,0.7,0.7c0.7,1,2.7,2,3.5,1.4
		c0.7-0.6,1.1-0.2,1.6-0.1c2.3,0.4,4.7,0.8,7.3,1.2c-0.7-0.7-1.3-1.1-1.8-1.6c0.4,0.2,0.9,0.2,1.2,0.5c1.2,1.2,2.7,1.8,4.3,2.2
		c1.2,0.3,2.1,1.1,3.5,1.6c-0.9-1.5-1.3-3-2.8-3.8c-1.1-0.6-2.6-0.8-2.7-2.5c0-0.1-0.1-0.2-0.2-0.3c0.3-0.1,0.7,0.3,1.1-0.1
		c-1.1-1.6-1.9-3.5-3-5.2c-1.1-1.6-2.2-3.2-3.1-4.9c-1-1.7-1.9-3.5-2.7-5.3c-0.9-1.7-1.7-3.5-2.5-5.2c-0.8-1.7-1.6-3.5-1.9-5.4
		c2.9,5.4,5.6,11,8.8,16.6c0.1-1.3-0.3-2.3-0.7-3.2c-1-2.8-1.8-5.6-1.7-8.6c0-1.2,0-2.4,0-3.6c0-1-0.2-1.9-0.6-2.8
		c-1.3-2.5-2.5-5.1-3.7-7.7c-0.2-0.3-0.6-0.6-0.2-1.3c1.8,2.7,3,5.6,4.5,8.5c0.2-1.1-0.1-1.9,0.2-2.7c0.4-1.1-0.1-2-0.7-2.8
		c-0.5-0.6-1.1-1.2-1.6-1.8c-2.8-3.6-6.2-6.4-10.3-8.6c-2-1.1-4.2-1.9-5.5-4c-0.4-0.7-1-1.1-1.8-1.3c-3-0.9-5.8-2.1-8.5-3.7
		c-0.2-0.1-0.6-0.1-0.5-0.7c3.1,1.2,5.9,3.1,9.2,3.9c-0.1-0.7-0.5-0.9-0.8-1.3c-1.2-1.3-2.4-2.6-3.5-3.9c-0.8-0.9-1-2.2-1.9-3.1
		c-1-1-2.1-1.9-3-2.9c-1.6-1.7-3.5-2.5-5.6-2.8c-0.3,0-0.4-0.1-0.4-0.4c1.3-0.2,2.3,0.6,3.8,0.7c-1.8-1.9-3.8-3-5.6-4.4
		c0.6,1.3,1.7,2.2,1.9,3.7c-1.5-0.2-3.1,0.1-4.9-0.3c1.7-0.5,3,0.1,4.4,0c-0.3-0.5-0.5-0.9-0.9-1.2c-0.1-0.1-0.2-0.1-0.2-0.2
		c0-0.3-0.3-0.6-0.4-0.8c-1.8-2.5-4.3-4.1-7-5.5c-3.1-1.5-6-3.5-9.4-4.4c-0.7-0.2-1.3-0.6-2.3-0.7c0.6,0.4,1,0.7,1.3,0.9
		c2.7,1.8,5.2,3.7,7.4,6.1c1.4,1.5,2.7,3.2,2.9,5.4c0,0.2,0.1,0.4,0.1,0.4c1.6,0.5,1.7,2.2,2.9,3.2c7.7,6.2,13.7,13.8,17.3,23.1
		c2,5.2,3.9,10.4,6.1,15.5c0.9,2,1.8,4,2.7,5.9c1.4,3,2.5,6.2,4.6,8.9c0,0-0.1,0.1-0.2,0.3c-2.1-2-3.6-4.3-5-7.2c0,0.6,0,0.8,0,1
		c0.6,3.1,0.9,6.3,1.2,9.5c0.2,1.3-0.2,2.6,0.2,3.8c0.6,1.7,0.8,3.3,0.7,5.1c-0.1,1.4-0.1,2.8,0.2,4.2c0.7,3.6,0.9,7.2,2.1,10.7
		c1.5,4.5,1.2,9.2,1.1,13.8c0,3.1-0.6,6.2-1.6,9.2c-1.4,4.2-2.7,8.4-5.8,11.7c-0.2,0.2-0.2,0.3-0.1,0.6c0.4,1.5,0.8,3.1,0.9,4.6
		c0.1,1.6,0.5,3.3,0.2,4.9c-0.3,1.7-0.3,3.5-0.4,5.3c-0.2,2.3,0.4,4.7,0.5,7c0.1,4,2.4,6.6,5.2,8.9c2,1.7,4.5,2.5,7.3,2.9
		c-1.3,0.3-2.2,0-3.2-0.3c-7.5-2.1-12.1-10.2-10.6-18.3c0.9-4.7,0.7-9.3-0.4-14c-0.2-0.7-0.4-0.8-1-0.3c-1.2,1-2.5,1.8-4,2.4
		c-0.3,0.1-0.6,0.2-0.6,0.6c-0.3,2.7-2.6,4.2-4.2,6c-0.7,0.7-1.8,1.4-2.7,2c-0.6,0.4-0.8,0.9-0.5,1.6c1.1,3.4,2.6,6.6,4.4,9.7
		c0.4,0.6,0.9,1.2,1,2.2c-1.5-1.1-2.1-2.6-2.9-4c-0.8-1.4-1.4-2.8-2.1-4.3c0.4,2.1,1.1,4.1,1.8,6.1c0.7,1.9,1.7,3.6,2.5,5.5
		c0.8,1.8,2.1,3.3,2.9,5c-2.5-2.8-4.4-6-6-9.4c-1.5-3.4-2.6-6.9-3.3-10.6c-0.7,0.2-1,0.6-1.5,0.9c-0.8,0.5-1.5,1.1-2.2,1.7
		c-0.4,0.3-0.3,0.7-0.3,1.1c0,0.1,0.1,0.1,0.1,0.1c0.5,0.1,0.1-0.8,0.7-0.6c-0.1,0.3,0.3,0.4,0.3,0.7c0.2,2,0.8,3.9,1.6,5.8
		c0.1,0.3,0,0.5-0.1,0.6l0,0c-0.4-0.4-0.6-1-0.8-1.6c-0.5-2-1.9-3.3-3.5-4.6c-0.2,0.4,0,0.7,0,1.1c0.3,1.7,1.7,2.8,2,4.5
		c0.1,0.6,0.6,1.2,0.7,1.7c0.3,1.4,1.4,2.2,1.8,3.5c0.3,0.8,1.1,1.4,1.8,2.1c0.2,0.2,0.6,0.5,0.3,0.8c-0.4,0.4-0.6-0.1-0.9-0.3
		c-0.4-0.3-0.7-0.7-1-1c-1.5-1.5-2.6-3.2-3.8-5.2c0,0.5-0.1,0.7,0,0.9c1.3,2.6,2.8,5,4.6,7.3c0.9,1.1,2,2.1,2.9,3.3
		c0.2,0.3,0.7,1,0.2,1.1c-1.2,0.2-0.4,0.7-0.3,1c0.4,0.9,0.9,1.7,1.4,2.6c0.7,1.3,1.8,2.3,2.7,3.4c-2.3-1.5-4.4-3.8-4.9-6.1
		c-0.4-1.8-1.3-3.1-2.5-4.4c-0.4-0.4-0.7-0.9-1.1-1.3c-2-2.5-3.3-5.4-5.8-7.5c-0.3-0.2-0.4-0.6-0.9-0.7c0.4,1.1,0.8,2.1,1.3,3.1
		c0.3,0.6,1,1,1.4,1.6c0.2,0.2,0.7,0.5,0.2,0.7c-0.9,0.3-0.2,0.6-0.1,0.9c1.4,2.7,2.9,5.2,4.7,7.6c0.4,0.5,0.8,1.1,0.4,2
		c-0.6-0.6-1.2-1.1-1.8-1.7c-1.9-1.9-2.9-4.3-4-6.7c-0.1-0.3-0.1-0.8-0.8-0.5c-0.7,0.3-0.2,0.6-0.1,0.8c1.1,3.4,2.7,6.5,5.1,9.3
		c0.1,0.2,0.4,0.3,0.1,0.6c-0.1,0-0.2,0-0.3-0.1c-3.1-3.1-5.2-6.7-6-11c-0.1-0.3-0.1-0.6-0.4-0.8c-1.3-0.9-2.4-2-3.7-3.2
		c0.2,2.8,3,3.7,3.8,6c-1.3-0.8-2-2.2-3.3-2.8c0.2,2.1,0.9,3.9,2.2,5.5c0.2,0.3,0.4,0.7,0.1,0.9c-0.4,0.3-0.5-0.2-0.7-0.4
		c-0.6-0.5-0.7-1.5-1.7-1.9c1.2,2.5,1.4,5.2,1.3,7.8c-0.1,0.8,0.1,1.9-1.1,2.2c0.5-5.6,0.2-10.8-4.5-14.9c2.3,0.3,2.7,2.6,4.4,3.4
		c-0.3-2.5-1.3-4.6-3.6-6c-0.5-0.3-0.7-0.4-1.1,0.2c-1.2,2.1-2.9,3.9-4.5,5.8c-1.1,1.3-2.7,2.4-2.5,4.6c0,0.5,0.4,0.9,0.3,1.4
		c-0.2,2.2,0.1,4.4,0.2,6.6c0.1,2.9,1.3,4.9,3.2,6.8c0.2,0.2,0.4,0.6,0.7,0.2c0.2-0.3,0.2-0.5-0.1-0.8c-0.9-0.8-1.6-1.8-2.3-2.7
		c-0.2-0.2-0.7-0.4-0.3-0.7c0.3-0.3,0.7,0,0.9,0.3c0.7,1,1.7,1.8,2.5,2.7c0.3-0.6,0.5-1.2,0.7-1.7l0,0c2.6-3.1,3.8-6.5,2.8-10.6
		c-0.1-0.4-0.3-0.5-0.6-0.8c-1.7-1.4-3.3-3-4.7-4.7c1.9,0.9,3.4,2.3,4.7,3.9c-0.2-1.5-1.3-2.5-1.8-3.8l0,0c0.8-0.2,0.8,0.8,1.4,1
		c-0.1-0.6-0.3-1.2,0.1-1.8c1.6,2.6,2.5,5.3,2.6,8.2c0.1,3.2-0.9,6.2-2.7,8.8c-1.8,2.6-3.5,5.4-4.3,8.5c-0.4,1.3-1.2,2.6-0.8,4
		c1.1-3.5,2.2-7,4.4-10c0.5,0.3,0.2,0.5,0.1,0.8c-1,2.3-2,4.6-2.9,7c-0.7,1.8-1.7,3.6-0.7,5.6c0.2,0.3,0,0.7-0.1,1
		c-0.4-0.2-0.1-0.9-0.7-1.1c-0.1,0.7-0.3,1.4-0.1,2c0.9,2.5,1.3,5.1,2.1,7.6c0.8,2.5,2,4.9,2.4,7.5
		C225.4,244.2,225.4,245.5,226.3,246.4z M117.6,47.4c-1.2,0.5-2.4,1-3.6,1.5c2.8-2.8,5.7-5.4,8.8-7.8c0.8-0.6,1-1.3,1.3-2.2
		c-1.1,0.5-2.2,0.6-2.6,1.9c-0.2,0.6-0.8,1-1.4,1.4c-3.2,2.2-5.9,4.9-8.4,7.9c-1.3,1.6-2.6,3.2-4.6,4.1c0-0.6-0.1-1.2-0.1-1.8
		c-1.6,0.8-2.5,2.2-3.7,3.4c-2.9,2.9-4.7,6.5-6.1,10.4c-0.3,0.9-0.7,1.8-0.8,2.7c-0.1,3.8-0.8,7.6-1.5,11.4c0.2-0.1,0.3-0.2,0.6-0.3
		c0.3-0.1,0.5-1,1-0.3c0.3,0.5-0.3,0.6-0.5,0.8c-0.5,0.4-1.3,0.6-1.2,1.5c0,0.3-0.6,0.6-0.7,0.5c-0.6-1-0.6,0.1-0.7,0.3
		c-0.3,0.6-1,0.5-1.3,0.9c-0.1-0.3-0.2-0.5-0.3-1.1c-0.8,2-2.2,3.2-3.3,4.7c-0.4,0.6-1.2,1-1.4,1.8c-0.4,1.3-0.8,2.4-1.7,3.5
		c-1.3,1.7-1.5,3.9-2.1,5.9c-0.4,1.6-1.1,3.2-1.3,4.9c-0.3,1.9-1.4,3.6-1,5.6c0.2-0.2,0.3-0.5,0.4-0.8c0.9-3.3,1.6-6.6,2.4-9.9
		c0.1-0.3,0-0.6,0.4-0.5c0.5,0.1,0.2,0.4,0.1,0.7c-0.4,2.4-0.9,4.9-1.5,7.3c-0.6,2.5-1.3,5.1-2,8c1.3-1.4,3-1.4,4.2-2.3
		c4.8-3.3,9.9-6.3,13.9-10.7c0.3-0.3,0.6-0.6,0.6-1.1c0.1-5.1,1.4-10,2.7-14.9c0.5-1.8,1.1-3.5,1.7-5.3c0.2-0.6,0.6-0.8,1.1-0.9
		c0.2,0,0.3,0.1,0.3,0.2c0,0.5-0.4,0.6-0.7,0.9c-0.2,0.1-0.4,0.2-0.3,0.5c0.1,0.3,0.4,0.2,0.6,0.1c0.2-0.1,0.4-0.3,0.6-0.2
		c0.1,0.2,0,0.4-0.1,0.6c-2.2,6.4-3.9,13-4.3,19.9c-0.1,2.4-0.4,4.8-0.5,7.2c0,0.7,0.1,1.2,1.1,0.9c1.3-0.4,2.6-0.2,3.9,0.4
		c1.2,0.6,1.3,0.6,1.3-0.8c0-2.2-0.5-4.5-0.3-6.7c0.5-8.4,2.4-16.5,5.6-24.3c0.8-1.8,0.9-4.1,2.8-5.4c0,0,0.1-0.2,0-0.2
		c-0.7-0.6,0-1.1,0.2-1.6c2.6-5.5,5.9-10.7,10-15.3c0.4-0.4,0.7-0.8,0.1-1.2c-1.1-0.8-1.6-2-2.1-3.2c-0.3-0.8-0.6-0.6-0.9,0
		c-1,1.6-2.2,3-3.4,4.3c-1.8,2-3.3,4.3-4.7,6.7c-2.2,3.8-4.1,7.7-5.8,11.7c-0.1,0.3,0,0.8-0.7,0.8c-0.9,0-1.3,0.7-0.9,1.5
		c0.3,0.6,0.2,1.1-0.2,1.6c-0.4-0.5-1.1-0.8-0.4-1.5c0.1-0.1,0-0.4-0.1-0.4c-1,0-0.3-0.6-0.2-0.8c3.9-9.3,8.8-18,15.4-25.7
		c0.1-0.2,0.3-0.3,0.4-0.5c0.4-0.5,0.2-1.2-0.1-1.6c-0.3-0.3-0.7,0.1-1,0.3c-0.7,0.4-1.3,0.9-2,1.2C118.2,48,117.6,48.3,117.6,47.4
		c2.1-0.6,5.7-3.6,5.6-4.7c-1.3,0.7-2.2,1.8-3.3,2.7C119.1,46,118.1,46.4,117.6,47.4z M95.3,148.7L95.3,148.7c0-0.3,0.1-0.5,0.3-0.7
		c1.7-2.9,3.6-5.7,3.2-9.4c-0.2-1.6,0.3-3.3,0.2-5c-0.2-3.3-0.2-6.5,1-9.6c0.5-1.3,0.7-2.6,0.4-4c-0.3-1.6-1-3-1.6-4.5
		c-0.6-1.7-0.8-3.5,0.2-5.1c0.5-0.9,0.7-1.7,0.6-2.6c-0.2-1.5-0.1-3-0.1-4.6c0-0.3,0.1-0.6-0.2-0.8c-2.1,2.2-3.7,4.7-6.5,6.1
		c1-1.3,2.2-2.4,3.3-3.5c1.1-1.1,2.1-2.3,3.2-3.5c-0.3-0.1-0.5-0.1-0.6,0c-1.9,2-4.1,3.7-6.3,5.4c-3.2,2.5-6.5,4.9-10.1,6.9
		c-0.6,0.3-0.8,0.7-0.6,1.3c0.1,0.5,0.2,1-0.2,1.7c-0.4-0.8,0-1.5-0.4-2.3c-0.3,0.6-0.4,1.2-0.9,1.5c-1,0.6-1.7,1.5-2.4,2.3
		c-0.6,0.6-1,1.2-0.1,1.8c-0.5,0.5-1-0.4-1.6,0.2c-1.2,1.2-1.9,2.4-2.1,4.1c-0.4,2.3-0.1,4.7-1,7c-0.2,0.5-0.2,1.2,0,1.8
		c0.8,2.7,1.5,5.4,3.5,7.5c0.3,0.3,0.5,0.6,0.4,1.1c-0.9-0.3-1.4-1.3-2.3-1.8c0.6,1.9,0.2,3.5-0.9,4.9c-1.3,1.7-1.3,3.4,0,5
		c0.7,1,1.5,2,2.9,2.4c-0.2,0.1-0.3,0.1-0.5,0.1c-0.7,0-1.6-0.2-1.7,0.9c-0.1,0.8,0,1.7,1.2,1.8c0.5,0,0.8,0.5,0.7,1
		c0,0.4,0.2,0.8,0.3,1.1c0.3,1.1,1.3,1.4,2.2,2.2c-1.3,0.1-2.5-0.4-3.4-0.9c-1-0.6-1.7-0.5-2.6-0.2c-1.2,0.3-1.3,0.7-0.8,1.7
		c0.3,0.6,0.9,0.5,1.3,0.6c1.9,0.4,3.9,0.3,5.8,0c1.8-0.3,3.6-0.9,4.7-2.5c0.3-0.4,0.7-0.7,1.1-1c0.2-0.1,0.3-0.5,0.6-0.2
		c0.2,0.3-0.1,0.4-0.2,0.6c-1.9,3-6,4.7-9.5,3.9c-1.2-0.2-2.3-0.5-3.6-0.8c-0.1,1.8,0.5,3.4,1,5c0.2,0.6,0.2,0.7-0.4,1
		c-0.8,0.4-1.6,0.4-2.5,0.3c1.5,3.6,3.9,6.5,6.9,9.2c-1.2-0.2-1.6-1.1-2.6-1.6c0.6,1.3,1.7,1.9,2.5,2.7c1.2,1.1,2.6,1.9,4.1,2.4
		c0.9,0.3,1.9,0.3,2.8,0.7c1.4,0.7,2.8,0.9,4.3,0.8c1,0,1.9,0,2.9,0c0.2,0,0.4,0,0.6,0.1c1.3,0.9,3.3,1,4.5,0.1
		c1.7-1.3,3.6-2.2,5.7-2.7c-2,1-4.1,2.1-5.9,3.6c0.8,0.2,1.4-0.5,2.1-0.4c-0.1,0.4-0.6,0.7-0.5,1.1c0.4-0.1,0.8-0.1,1.2-0.3
		c1-0.5,2.2-0.4,3-1.3c1.6-1.9,3.4-3.6,4.9-5.6c1.3-1.7,3.3-3,3.1-5.5c0-0.1,0-0.2,0.1-0.2c1-0.4,0.7-1.3,0.9-2
		c0.2-0.5,0.1-0.7-0.3-1c-2.2-1.6-4.3-3.4-6-5.6c-0.3-0.4-0.4-0.4-0.8,0c-0.8,1.1-1.5,2.2-2.4,3.2c-1,1.1-1.9,2.4-3.5,2.9
		c0.3-0.5,0.8-0.8,1.2-1.2c1.7-1.6,3.1-3.4,4.3-5.4c0.1-0.2,0.5-0.5,0.3-0.8c-1.2-1.8-2.1-3.8-2.9-5.8c-2.2,2.8-3.9,5.8-7.4,6.9
		c0.2-0.3,0.4-0.5,0.6-0.6c2-1.2,3.6-2.9,4.9-4.8c1-1.5,2-3,1-4.9c-0.3-0.5-0.2-1.2-0.3-1.9c-0.3-1.6-0.1-3.3-0.3-5.2
		c-0.8,1.4-1.4,2.5-2.2,3.6C96.2,147.8,96.1,148.6,95.3,148.7z M93.5,188.5c0.9-1.2,2.2-2,3.2-3c1-0.9,2.2-1.7,3-2.8
		c-1,0.7-2.5,0.2-3.2,1.3c-1.4,2.3-3.3,4.1-5.4,5.8c-0.4,0.4-0.8,0.8-1.1,1.7c0.7-0.6,1.1-0.9,1.5-1.3c-0.2,1-1.1,1.4-1.7,2.1
		c-2.2,2.3-2.7,3.1-2.9,4.7c2-2.2,4-4.3,6.7-5.8c-1,1.2-2.1,2.3-3.3,3.4c-2.8,2.7-4.9,5.8-6.9,9.1c-0.9,1.5-1.4,3.3-2.2,4.9
		c-0.9,1.8-1.4,3.6-1.4,5.6c0.8-1.3,1.2-2.9,2.2-4.3c0,0.9-0.6,1.5-0.7,2.2c-0.5,2.4-1.2,4.8-1.9,7.1c-0.7,2.6-0.9,5.4-1.2,8.2
		c-0.2,2.1,0.2,4.3,0.3,6.4c0.1,2,0.1,4,0.9,6c1,2.8,2.8,4.9,4.9,6.9c-3.9-5.2-4.6-11.4-5.6-17.5c0.6,0.6,1.7,0.4,1.8,1.5
		c0.3,2.3,2.6,6.4,4.3,7.7c-0.5-3.5-1.1-7.1,0-10.7c0.3,3.4-0.1,6.8,0.8,10.1c0.8,3.2,2,6.2,4.2,8.8c-2.4-1-3.6-3-4.3-5.4
		c-0.2-0.7-0.1-1.5-0.7-2c-1.3-1-2.5-2.2-3.6-3.5c0.5,2.7,1.9,5,3.1,7.6c-0.8-0.3-0.9-1-1.5-1.4c1.2,3.6,3.8,6.9,6.3,8.7
		c0.2,0.1,0.4,0.2,0.7,0.1c0.8-0.3,1.7-0.5,2.6-0.7c-0.2-0.3-0.3-0.4-0.4-0.6c-3.5-4.6-4-10.1-5.1-15.4c-0.3-1.3,0.7-2.2,1-3.3
		c0.9-2.9,2.1-5.6,3.3-8.4c2.1-4.6,5.2-8.5,9.4-11.5c2.2-1.6,4.9-2.1,7.3-3.4c1.6-0.9,3.3-1.6,5-2.1c1.5-0.5,3.1-0.9,4.6-1.3
		c-3.8,1.6-7.6,3.2-11.3,5.1c-5.6,2.8-10,6.9-13,12.4c-0.5,0.9-1,1.8-0.5,2.8c0.2,0.4,0,0.9,0,1.5c-0.9-0.9-0.5-1.9-1.1-2.7
		c-0.6,1.6-1.3,3.1-1.6,4.9c1.4-0.8,2.1,0.2,2.9,0.9c3.3,2.8,6.9,5,11,6.2c1.8,0.5,3.5,1.2,5.5,1c4-0.5,8-1,12-0.9
		c0.9,0,1.6-0.1,2.4-0.6c1.4-0.9,2.9-1.8,4.4-2.7c0,0.6-0.6,0.7-0.6,1.2c1.1,0,2.1-0.2,3-0.9c-0.1,0.8,0.6,0.1,0.8,0.5
		c-1.2,0.6-2.4,1.1-3.8,0.9c-1.1-0.1-1.7,0.5-2.6,1.3c0.5,0,0.7,0,0.9,0c0.8-0.2,1.7-0.3,2.5-0.8c0.9-0.7,1.7-0.3,2.4,0.4
		c0.2,0.2,0.2,0.2-0.9,1.2c-0.2,0.2-0.4,0.4-0.6,0.6l0,0c-2.5,1.6-4.7,3.7-7.7,4.6c-1,0.3-2.1,0.5-3.1,1c-1.2,0.6-1.3,0.9-0.2,1.7
		c2.9,2.1,5.8,4.1,8.9,5.9c1.5,0.8,3.1,1.5,4.3,2.8c-0.6-0.3-1.3-0.6-1.9-0.9c2.6,2,5.6,3.1,8.5,4.4c0.7,0.3,0.4-0.8,1-0.3
		c2.1,1.8,4.7,2.3,7.2,3.3c8.3,3.4,16.7,6.6,25.3,9.3c2.6,0.8,5.1,1.5,7.8,1.8c4.1,0.5,8.2,0.3,12.3,0.3c1,0,2-0.4,3,0
		c-0.5,0-1.1,0.1-1.6,0.1c3.7,0.3,7.3-0.1,11-0.4c1.8-0.2,3.3-1.4,5.1-1.5c3-0.3,5.7-1.1,8.3-2.7c1.6-1,3.4-1.9,4.9-3.2
		c-0.8-0.4-1.5-0.8-2.2-1.2c1.4,0.1,2.8,1.9,4.1-0.1c-0.6-0.5-1.5-0.7-2.1-1.3l0,0c0.7-0.1,1.2,0.5,1.8,0.7c0.3,0.1,0.6,0.7,1,0.2
		l0,0c0.2,0.2,0.3,0.5,0.5,0.8c-0.1,0-0.3,0-0.4,0c-0.6,0-0.9,0.6-1.4,0.9c-0.1,0.1,0.1,0.3,0.3,0.5c0.5,0.4,1,0.2,1.4-0.1
		c1.8-1.1,3.6-2.2,5.1-3.7c0.3-0.3,0.7-0.5,0.2-1c-1.8-1.6-2.9-3.8-5-5c0.2-0.3,1.2,0.3,0.7-0.6c-0.9-1.5-1.5-3.2-2.6-4.6
		c-0.8-0.9-1.3-2-1.8-3.1c-2.5-5.7-2.4-11.8-3-17.8c-0.4-4-0.5-8-0.9-12c-0.2-2.8-0.9-5.5-0.5-8.3c0.1-0.7,0.6-1.2,0.3-2.1
		c-0.2-0.9-0.2-1.8,0-2.7c0.3-1.6-0.1-3.2-0.1-5c-1.9,1.5-3.2,3.3-4.8,4.8c-0.6,0.6-1.2,1.2-1.8,1.8c-0.5,0.6-1.2,1-1.6,1.7
		c-0.3,0.5-1.1,0.8-0.7,1.7c0.1,0.1-0.6,1-1.2,1.4c-1.9,1.5-3.7,3-5.6,4.5c-2.4,1.9-4.9,3.7-7.7,5c-2.2,1-4.6,1.6-7,2.3
		c-0.7,0.2-1.5,0.1-2.2,0.6c0.5,0.6,1.5,0.4,1.8,1.1l0,0c-0.7,0.1-1.2-0.4-1.8-0.6c-0.5-0.2-0.9-0.5-1.5-0.4
		c-3.6,0.4-7.2,0.2-10.7-0.4c-1.7-0.3-3.5-0.5-5.1-1.9c0.6,0.1,1,0.2,1.4,0.2c2.2,0.3,4.3,1.2,6.5,1.3c3.4,0.2,6.9,0.1,10.2-0.5
		c3.1-0.6,6.3-1.1,9-3c1.8-1.2,3.5-2.5,5.2-3.8c1.4-1.1,3.2-1.6,4.3-3.1c0.1-0.2,0.6-0.3,0.3-0.6c-0.7-0.7,0-0.9,0.4-1.2
		c1.9-1.7,4-3.2,5.7-5.1c1.4-1.5,2.7-3.1,4-4.7c1.6-2,3.9-3.4,5.2-5.7c0.9-1.5,2.2-2.8,3.1-4.5c-0.3,0.1-0.4,0.2-0.5,0.2
		c-4.9,3.5-9.7,7-14.6,10.5c-0.4,0.3-0.4,0.6-0.6,1c-1,2.7-2.6,5-5.5,5.5c-2.9,0.5-5.9,0.5-8.7-0.6c-1.7-0.6-1.7-0.6-1.4-2.4
		c0-0.2,0-0.3,0-0.5c-0.2-5.5,3.2-8.9,8.7-8.9c0.7,0,1.4,0,2,0c0.3,0,0.7-0.1,1,0.4c-1.3,0-2.6,0-3.8,0c-1.5,0-2.9,0.5-4.2,1.4
		c-1.8,1.3-2.6,3.3-3.1,5.3c-0.4,1.5,0.1,2.3,1.5,2.9c1.3,0.5,2.5,0.9,3.4-0.7c0.1,0.6-0.5,0.9-0.1,1.2c0.4,0.3,0.7-0.1,0.9-0.4
		c0.9-1.4,2.3-2.2,3.6-3c0.3-0.2,1.2-0.2,0.6-1c-0.1-0.1,0.2-0.2,0.3-0.2c0.3,0,0.5,0.1,0.6,0.4c0.2,0.3-0.1,0.6-0.3,0.7
		c-0.9,0.5-1.5,1.3-2.5,1.7c-0.9,0.4-1.6,1.1-2.2,1.9c2.2,0.7,2.6-1.5,4-2.3c-0.3,1.1-1.2,1.6-1.7,2.3c1,0,1,0,1.7-1.2
		c0.5-0.9,1-1.3,1.6-1.6c-0.4,0.7-0.8,1.3-1.2,2c0.4-0.1,0.6-0.3,0.9-0.5c1.2-1,1.6-2.4,2.2-3.8c0.6-1.2,0.7-1.2-0.6-1.5
		c-0.9-0.1-0.9-0.7-0.9-1.4c0.1-0.5,0.6-0.9,0.4-1.5c-0.3-0.7,0.2-0.7,0.7-0.7c0.9,0,1.7-0.1,2.5-0.6c6.2-4.8,12.5-9.5,18.7-14.3
		c0.5-0.4,0.6-0.8,0.7-1.4c0.1-0.7-0.6-2,1.1-1.7c0.1,0,0.2-0.3,0.2-0.5c0.2-0.9,0.5-1.8,0.5-2.7c-0.2-2.8-0.1-5.6,0.4-8.4
		c0.1-0.6-0.2-1-0.7-1.4c-0.9-0.6-1.7-1.4-2.3-2.3c1.3,0.4,2,1.8,3.2,2.5c0.4-2.9,1.6-5.6,2-8.5c-0.5,0.3-0.4,0.9-1,1
		c0.4-2.4,2.1-4.3,2.2-6.8c-1,0.4-0.7,1.6-1.6,2.1c0.3-1.8,1.1-3.1,2-4.4c0.7-1,0.8-2.2,0.7-3.4c-0.8,1.6-1.6,3.3-2.6,4.8
		c0.4-1.5,1-2.9,1.8-4.3c0.5-0.7,0.8-1.5,0.9-2.4c0.4-3.3-0.1-6.7-0.3-10c-0.1-1.4-0.1-2.9-0.7-4.5c-1.1,2.3-1.7,4.6-3.2,6.4
		c0.1-0.7,0.2-1.4,0.6-2c0.7-1.4,1.4-2.8,2.1-4.2c0.4-0.8,0.4-1.5-0.1-2.3c-0.7-1.4-1.5-2.7-2.3-4c-0.4-0.6-0.6-1.2-0.5-1.9
		c0.5,0.1,0.7,0.5,0.9,0.8c1,1.6,2.1,3.2,3.1,4.8l0,0c0.2,1.3,0.9,2.4,1.3,3.5c0.8,2.4,1.1,4.9,1.2,7.5c0.1,1.2-0.2,2.4-0.1,3.6
		c0.3,3-0.4,5.9-0.8,8.9c-0.2,1.4-0.6,2.8-0.2,4.3c0.1-0.2,0.2-0.4,0.3-0.5c0.2-0.1,0.3,0.1,0.3,0.2c0,0.5-0.1,1,0,1.6
		c0.1,0.9-0.7,1.7-0.3,2.6c0.4,1,0.3,2,0.3,2.9c0.2,2.2-0.3,4.4-0.3,6.6c0,0.7,0.2,1,0.8,1.3c2.2,1.1,4,0.4,5.8-0.9
		c3-2.4,5-5.6,6.2-9.2c1.7-4.7,2.4-9.6,2.8-14.7c0.6-8.7,1.4-17.3,1-26c-0.1-4.2-0.7-8.3-2.6-12.2c-0.6-1.2-0.2-2.6-0.2-4.1
		c1.6,1.7,2.3,3.7,3.3,5.5c-0.1-2-0.3-3.9-0.5-5.9c-1.3-12.1-4.9-23.4-11.5-33.7c-3-4.8-6.3-9.3-10.1-13.5c-0.3-0.3-0.6-1-1-0.6
		c-1,0.9-2.3,0.7-3.4,1.1c-2,0.8-3.9,0.9-6,0.3c-4.9-1.2-9.7-2.8-14.3-4.7c-6.9-2.7-13.7-5.5-21.2-6.4c-5.1-0.6-10.2-1.3-15.3-0.7
		c-6.3,0.8-12.5,2.3-18.6,4.1c-4.7,1.4-9.1,3.3-12.7,6.7c-1,1-2.3,1.7-3.6,2.4c-1.2,0.6-2.4,1-3.8,0.9c-0.4,0-0.6,0.1-0.9,0.3
		c-0.8,0.6-1.7,1.3-2.8,0.8c-0.6-0.3-1-0.1-1.3,0.4c-1.7,2.2-3.6,4.3-5.1,6.6c-3,4.6-5.3,9.6-7.3,14.7c-3.5,8.6-5.6,17.5-5.8,26.8
		c0,1.7,0.3,3.4-0.2,5c-0.4,1.4,0.1,2.2,1,3.2c0.7-1.1,1.4-2.2,2.2-3c0.2-0.2,0.3-0.5,0.3-0.8c0.3-3.8,0.9-7.5,1.7-11.2
		c0.3-1.4,0.5-2.8,1.4-4c-0.6,4.8-1.3,9.6-1.9,14.6c1-0.5,1.8-1,2.6-1.2c2.3-0.7,4.3-0.1,6.3,1c0.2,0.2,0.3,0.3,0.5,0.5
		c2,2.2,3.8,4.5,5,7.2c1.6,3.6,2.6,7.4,3.5,11.2c0,0.2,0.1,0.4,0,0.6c-0.7,1.7-0.3,3.5-0.4,5.2c0,0.1-0.1,0.2-0.1,0.4
		c-0.2-0.4-0.3-0.7-0.5-1c-0.9,2.3-0.9,4.5,0.3,6.7c-0.1,0-0.2,0-0.4,0c-0.3-0.2-0.6-0.5-1-0.7c-0.5,3.9-0.8,7.7-0.8,11.6
		c-0.4-0.1-0.4-0.3-0.4-0.4c-0.1-4.8,0-9.6,0.8-14.3c0.4-2.3,1.2-4.6,0.4-7.1c-1.1-3.4-1.5-7-3-10.3c-1-2.3-2.1-4.6-4.1-6.2
		c-0.2-0.2-0.3-0.3-0.5-0.5c-3-3.1-7.5-2.4-8.9,1.5c-0.1,0.2-0.2,0.3-0.4,0.4c-0.6,0.1-0.9,0.7-1.1,1.2c-1,2-1.5,4.1-1.6,6.3
		c-0.3,5.5,0.7,10.8,1.2,16.2c0.8,8.3,3,16.2,5.8,23.9c1.7,4.6,4.4,8.7,8.2,11.9c1.8,1.5,3.7,2.5,6.1,2.4c1,0,1.4-0.2,1-1.3
		c-1.3-4-2.2-8.2-2.8-12.4c0-0.2,0-0.4-0.3-0.5c-0.3-0.1-0.6,0.2-0.7,0.4c-0.7,1.1-1.9,1.5-3.1,2.3c0.3-0.5,0.3-0.6,0-0.8
		c-0.3-0.2-0.5-0.5-0.4-0.8c0.1-0.4,0.4-0.2,0.7-0.3c1.6-0.3,3.2-0.5,3.8-2.4c0.4-1.3,1.6-2.2,2.2-3.6c2.6-5.9,3.6-12.2,4.5-18.5
		c0.9-6.5,2.5-12.7,4.7-18.8c0.4-1,0.4-2.1,0.9-2.9c0.8-1.5,1.7-3,2.3-4.7c1.6-4.4,3.4-8.7,5.4-12.9c0.7-1.4,1.4-2.8,2.1-4.4
		c-1.1,0.5-1.3,1.8-2.5,2.3c0.3-0.8,9.7-13.2,10.7-14.3c0.8-0.9,1.7-1.8,2.8-2.3c-0.8,0.7-1.4,1.7-2.1,2.5c-0.7,0.8-1.4,1.6-2,2.5
		c-0.6,0.8-1.3,1.6-1.6,2.6c6.9-6.3,14.7-11.3,23.2-15.2c-0.4,0.3-0.9,0.6-1.3,0.9c4.7-1.5,9.4-3.2,14.2-4.3
		c-4.6,1.8-9.2,3.5-13.6,5.6c1.4-0.1,2.9-0.3,4.2-0.6c3.1-0.7,6.2-1.6,8.8-3.4c3.8-2.6,7.7-5,11-8.2c0.3-0.3,0.7-0.8,1.3-0.6l0,0
		c-0.6,0.6-1.6,1.2-1.3,2.1c0.4,1.1,0.5,2.3,0.9,3.4c0.2,0.5,0.2,1.1-0.3,1.8c-0.1-1.8-0.5-3.3-0.9-4.9c-1.7,1.3-1.8,1.4-1.3,3
		c0.2,0.6,0,1.2,0.4,1.7c0.1,0.2,0.1,0.4-0.2,0.4c-0.2,0-0.4-0.1-0.4-0.4c-0.1-0.7-0.2-1.3-0.3-2c0-0.9-0.3-0.9-1-0.5
		c-0.6,0.3-0.8,0.9-1.4,1.3l-0.1,0.1c-0.1,0.1-0.2,0.1-0.3,0.2c-1,0.4-1.8,0.8-1.1,2.2c0.3,0.5,0.6,1.3,0.1,2
		c-0.5-0.3-0.4-0.9-0.6-1.3c-0.3-0.4,0.2-1.5-0.7-1.3c-1,0.2-0.6,1-0.4,1.7c0,0-0.1,0.1-0.2,0.3c-0.6-1.7-1.4-0.9-2.3-0.4
		c-0.4,0.2-0.8,0.4-1.2,0.5c-0.8,0.4-1,0.8-0.7,1.8c0.3,0.9,0.3,2,0.4,3c-1.2-1.2-1-2.7-1-4.1c-1,0.1-1.5,0.5-1.6,1.4l0,0
		c-0.4,0,0-0.9-0.8-0.6c-3.7,1.4-7.6,1.9-11.4,3.2c-0.7,0.3-1.3,0.4-0.9,1.4c0.3,0.7,0.5,1.6,0.5,2.5c0,0.7,0.6,1.5,0,2.4
		c-0.6-1.9-1-3.6-1.1-5.4c-0.1-0.8-0.3-0.9-0.9-0.6c-2,0.9-4,2-5.7,3.5l0,0c-0.3,0.2-0.7,0.3-1,0.6c-3.3,2.4-6.8,4.6-9.9,7.3
		c-1.9,1.7-3.8,3.4-5.1,5.7c-1.9,3.3-3.4,6.9-4.9,10.4c-1.1,2.7-2.2,5.4-3.3,8.2c-0.3,0.6-0.4,1.1,0.7,1.3c1.1,0.2,2.1,0.6,3.2,1
		c5.4,2,10.7,4.4,16.3,6c0.8,0.2,0.8,1.1,1.5,1.4c-0.3,0,0.4,0.5-0.1,0.4c-1.1-0.4-2.2-0.1-3.3-0.3c-3-0.5-5.7-1.9-8.7-2.3
		c-0.3,0-0.6-0.3-0.7,0c-0.1,0.1,0.2,0.5,0.3,0.7c0.4,1,1,1.9,1.2,3c-0.7-0.1-0.9-0.7-1-1.1c-0.5-2.6-2.2-3.7-4.7-3.9
		c-0.5,0-1-0.5-1.4-0.2c-0.4,0.4,0.1,0.9,0.2,1.4c0.3,1.3,0.9,2.6,0.9,3.9c-0.6-0.8-1-1.8-1.2-2.8c-0.4-2.1-1-3.7-3.5-3.8
		c-0.1,0-0.2,0-0.2-0.1c-1-0.7-1.2-0.2-1.2,0.8c-1,0.8-0.2,1.6,0,2.3c0.5,1.8,0.3,3.9,2.5,4.9c-0.2-0.6-0.4-1.1-0.6-1.7
		c-0.7-1.8-1.6-3.6-1.9-5.6c0.6,0,0.6,0.6,0.7,0.9c0.7,1.7,1.3,3.4,2,5.1c0.2,0.4,1.5,1,1.6,0.9c0.4-0.5-0.3-0.8,0-1.1
		c1,0.5,1.8,1.7,3.1,0.5c0,0,0.3,0.1,0.4,0.2c0.7,0.4,1.3,0.5,1.3-0.8c0.4,0.9,1.1,1,1.9,1.1c2.7,0.3,5.3,1.1,7.8,2.4
		c-2-0.4-3.8-1.4-6-1.4c0.5,0.8,0.4,2,1.1,2.2c1.6,0.3,2.5,1.5,3.9,2.1c1.6,0.6,2.9,1.7,4.1,3.1c-0.3,0-0.4,0-0.5,0
		c-0.7-0.2-1.1,0.4-1.1,0.8c-0.1,0.4-0.4,1.1,0.3,1.4c0.5,0.2,0.9,0.5,1.4,0.8c-1,0-2-0.1-3-0.3c-0.8-0.1-1.6-0.1-2.2,0.5
		c-0.4,0.5-0.8,0.8-1.3,1.1c-1.6,1.1-3.8,0.8-5.3,2.2c-0.2,0.1-0.5,0.3-0.8,0.1c0-0.4,0.5-0.4,0.6-0.7c-1.4-0.7-2.6,0.4-4,0.5
		c0.1-0.5,0.8-0.4,0.9-0.9c-1.3-1.1-2.2,0.8-3.4,0.5c0.2-0.7,1-0.6,1.3-1.1c-1-0.6-1.9-1-2.9-0.3c-0.4-1.9-1.7-0.6-2.7-0.7
		c0.4-0.3,0.7-0.6,0.9-0.8c-0.2-0.1-0.3-0.2-0.4-0.3c-0.4-0.2-0.8-0.8-1.3-0.4c-0.5,0.3,0,0.8,0,1.2c-0.1,0.7,0.7,1.4,0,2.2
		c-0.3-1.1-0.5-2-0.8-3c-0.6,1.2,0.4,2.3-0.1,3.5c-0.4-1.7-1.1-3.3-0.8-5.1c0.7,0.4,0,1.2,0.9,1.5c-0.3-1.3-0.6-2.4-0.9-3.7
		c-0.1,0.6-0.3,0.9-0.8,0.5c0.4-0.4-0.3-1,0.3-1.5c0.3-0.3,0.9-0.6,0.5-1.3c-0.1-0.2,0.1-0.2,0.3-0.2c0.4,0.2,0.8-0.1,0.7-0.3
		c-0.2-0.5-0.6-1-1.2-1.2c-0.4-0.1-0.6,0.1-0.6,0.6c-0.3,1.8-0.7,3.5-0.9,5.3c-0.2,1.6-0.9,3.1-0.3,4.7c0.1,0.2,0,0.5-0.2,0.5
		c-0.6-0.1-0.4,0.3-0.5,0.6c-0.9,2.2,0.2,4.2,0.4,6.3c0.1,0.8,0.5,1.7,0.1,2.5c-0.6-1.6-0.9-3.1-1.1-4.8c-0.5,1.3-1.1,2.8-0.9,4.1
		c0.4,2,0,4.1,0.5,6.1c0.1,0.3,0.2,0.8-0.3,0.8c-0.6,0-0.3-0.5-0.3-0.8c0-1.4,0-2.9,0-4.3c-1.7,2.3-0.5,4.8-0.6,7.2
		c-0.1,0-0.2,0-0.3,0c-0.2-0.9-0.3-1.8-0.6-3.1c-0.5,1.4-0.7,2.6-1.3,3.5c-0.7,1.1,0,2.3-0.7,3.5c-0.3-0.6,0-1.2-0.6-1.9
		c0.2,0.8-0.7,1-0.3,1.6c0.7,0.9,1.4,1.8,2.2,2.7c0.9,1,1.8,2,2.7,2.9c-1.3-0.5-2-1.8-3.1-2.4c-0.5,0.2,0.5,0.9-0.3,0.8
		c-0.5,0-0.3-0.6-0.3-0.9c0-0.7-0.2-1.3-1.1-1.7c0,1,0,2,0,2.9c0,0.6-0.5,1.1-0.2,1.9c1.2,3.2,1.7,6.6,2.9,9.9
		c0.5,1.4,1.3,2.9,0.7,4.6c1,2.6,2.3,5.1,3,7.9c0.2,0.7,0.6,1.4,1,2.1c0.8,1.4,1.4,2.8,2.7,3.9c-0.6-1-1.1-2-1.7-3.1
		c0.5,0,0.6,0.3,0.7,0.5c1.2,1.8,2.5,3.6,3.6,5.4c2,3.4,4.2,6.7,7.3,9.2c2.1,1.7,4.2,3.5,6.2,5.3c2.4,2.1,4.8,4.2,7.5,5.9
		c0.7,0.5,1.6,0.7,2.1,1.5c-0.1,0-0.2,0.1-0.3,0.1c-0.3-0.1-0.6-0.3-0.8-0.5c-6.6-4.3-13.1-8.5-18.3-14.5c-0.8-0.9-2.2-1.2-2.7-2.7
		c-0.2-0.8-1.4-1.5-2.2-2.5c0.2,2.5,0.4,4.8,0.5,7.2c0.4-0.5,0-1.2,0.5-1.9c0.3,3.3-0.1,6.4-0.5,9.4c-0.4,3-1.2,6-2.1,8.9
		c-0.6,2-1.1,4.1-1.9,6c-0.7,1.8-2.1,3.1-3.4,4.4c-0.6,0.5-1,1.2-1.9,1.5c1.2-2,2.6-3.7,3.3-6c-1.6,1.9-3.1,3.8-5.3,4.9
		c0-0.4,0.4-0.6,0.6-0.8c1.7-1.6,3.1-3.4,4.6-5.2c1.3-1.7,1.5-4.1,3.2-5.7c0.7-0.6,0.8-2,0.8-3.1c0.1-2.2,0.3-4.4,0.5-6.5
		c0.3-3.4,0.9-6.7,0.6-10.1c-0.1-1.8-0.1-3.7-1.2-5.4c-2.6-3.7-4.5-7.8-6.4-11.9c-0.9-2-0.7-4.3-1.6-6.3c-0.3-0.5-0.4-0.9-1.1-0.7
		c-1.5,0.3-3,0-4.5-0.4c-2.8-0.9-5.2-2.6-7.1-4.9c-0.8-1-1.7-2-3.3-1.6c-0.6,0.1-1.3,0-1.9-0.1c-1.1-0.2-2.4-0.9-2.4,1.1
		c0,0.4-0.4,0.5-0.7,0.5c-0.4-0.1-0.2-0.5-0.2-0.7c0-0.5,0.2-1,0.2-1.5c0.1-0.3-0.2-0.5-0.4-0.6c-0.4-0.1-0.3,0.3-0.3,0.5
		c-0.2,1.8-1.6,3.4-1.3,5.3c0,0.2-0.1,0.6-0.3,0.8c-0.8,1-1.5,2.1-1.9,3.4c-0.5,1.5-1.8,2.4-2.7,3.6c-1.3,1.8-3,3.1-4.6,4.6
		c0.7-1.4,2-2.4,2.9-3.7c-2.4,1.1-4.6,2.6-6.7,4.2C95.6,187.3,94.8,188.3,93.5,188.5z M216.1,47.6c-0.4-0.5-0.9-0.9-1.3-1.4
		c-0.3-0.5-1.3-1-0.6-1.5c0.6-0.5,1,0.4,1.3,0.8c2.1,2.6,4.8,4,8.2,4.1c1.1,0,2.4-0.1,3.1-1.1c2.4-3.2,1.8-9.1-1.1-11.8
		c-2.1-2-4.5-3.9-7-5.5c-4.2-2.6-8.7-4.5-13.4-6.2c-0.3-0.1-0.9,0-0.9-0.7c0-1.5-0.1-1.6-1.6-1.2c-0.2,0.1-0.5,0.2-0.6-0.1
		c-0.1-0.2,0.1-0.4,0.2-0.5c0.1-0.2,0.5-0.2,0.3-0.5c-1.3-0.1-1.3,0.9-1.3,1.9c-0.5-1.1-1.4-0.4-2.2-0.6c-4.1-1.2-8.3-2.3-12.5-2.4
		c-3.9-0.1-7.8-0.5-11.7-0.7c-4.4-0.3-8.7-0.1-13,0.8c-7.7,1.5-15,4.5-22.1,7.8c-1.6,0.7-3.1,1.8-4.6,2.4c-1.5,0.6-2.9,1.2-4.2,2.1
		c-3.5,2.4-5.8,5.7-6.2,10.1c0,0.6-0.2,1.2,0.1,1.8c1,1.8,2,3.6,3,5.4c1.2,2.2,4.9,2.5,6.6,0.5c-1-0.5-2-1-3.2-1.6
		c0.9-0.4,1.6-0.1,2.2,0.1c1.7,0.5,3.2,0.6,4.4-1c0.4-0.5,1.2-0.7,1.3-1.2c0.1-0.7-1-0.4-1.3-0.9c0-0.1-0.1-0.1-0.2-0.5
		c2.1,1,3.6,0.4,5.1-1c-0.5-0.3-1-0.5-1.5-0.8c0.8-0.4,1.5-0.4,2.2-0.1c0.5,0.2,1,0.2,1.5-0.1c0.6-0.4,1.6-0.4,1.7-1
		c0-0.7-1-0.7-1.6-1c-0.2-0.1-0.5-0.2-0.5-0.4c0.1-0.3,0.4-0.3,0.7-0.3c0.8,0,1.6,0.3,2.3,0.7c1.7,0.8,3.1-0.2,4.9-0.6
		c-1.1-0.5-1.9-0.9-2.7-1.2c-0.3-0.1-0.8-0.1-0.6-0.6c0.1-0.4,0.6-0.3,0.9-0.2c1,0.3,2.1,0.4,2.8,1c1.1,0.8,2,0.5,3,0.2
		c0.3-0.1,0.8,0,0.8-0.4c0.1-0.4-0.4-0.5-0.7-0.7c-0.7-0.4-1.5-0.7-2-1.3c-0.2-0.2-0.4-0.4-0.2-0.7c0.2-0.3,0.5-0.1,0.7,0
		c1.5,0.7,3.1,1.4,4.8,1.9c0.7,0.2,1.3,0.1,2-0.3c-0.9-0.6-1.8-1.1-2.6-1.6c-0.2-0.2-0.7-0.3-0.5-0.7c0.2-0.4,0.6-0.1,0.8,0
		c1.8,0.7,3.7,1.1,5.7,1.4c0.4,0.1,0.8,0.2,1.2-0.2c-0.2-0.5-0.7-0.5-1.1-0.8c-0.4-0.3-0.8-0.6-1-1.2c-0.1-0.3,0-0.5,0.2-0.6
		c0.2-0.2,0.4-0.1,0.6,0.1c1.3,1.4,3.1,1.6,4.8,2c0.5,0.1,1.1,0.1,1.6-0.1c-0.4-0.8-1.4-0.6-1.8-1.2c0.4-0.5,0.8-0.2,1.2-0.2
		c0.9,0.2,1.7,0.8,2.5,1.1c1.5,0.6,3,0.6,4.6,0.5c-0.8-0.7-1.6-1.3-2.4-1.8c-0.3-0.2-0.5-0.5-0.3-0.8c0.3-0.4,0.6-0.2,0.8,0
		c1.6,1.2,3.6,1.8,5.3,2.8c0.6,0.4,1.3,0.4,2.2,0.3c-0.7-1.1-1.4-2-2.6-2.7c1.4-0.3,2.2,0.5,2.9,1.3c1.4,1.5,3.3,2.1,5.4,2.2
		c-0.4-1-1.4-0.9-2.2-1.4c0.5-0.3,1-0.3,1.4-0.1c0.7,0.2,1.3,0.6,1.9,1.1c1.4,1.1,2.9,1.7,5,2.1c-0.8-0.8-1.3-1.3-1.8-1.9
		c-0.3-0.3-0.5-0.7-0.2-1.1c0.4-0.5,0.7-0.1,1,0.2c1.4,1.2,2.8,2.3,4.1,3.5c1,1,2.3,1.2,3.6,1.5c-0.7-1.2-2-1.6-2.7-2.7
		c-0.2-0.3-0.8-0.5-0.3-0.9c0.4-0.3,0.7,0,1,0.3c2.2,1.7,4.5,3.5,6.7,5.2c0.5,0.4,1,0.6,1.8,0.7c-1-0.9-1.8-1.6-2.4-2.6
		c-0.2-0.3-0.3-0.6,0-0.9c0.3-0.2,0.5-0.1,0.7,0.1c1.4,1.8,3.5,2.8,5,4.5C213.1,47.2,214.6,47.5,216.1,47.6z M105.6,117.1
		c-0.2,0.4-0.2,0.5-0.2,0.6c-0.1,0.2-0.2,0.3-0.4,0.5c-1.8,1.9-2.9,4.1-3.5,6.8c-0.6,2.7-0.9,5.4-0.6,8.2c0.4,3.6,1.2,7.2,2.1,10.7
		c0.7,2.9,1.2,5.8,2.2,8.6c1,2.8,3.3,3.2,5.5,1c0.6-0.6,0.8-1.2,0.6-2c-0.6-2.3-0.9-4.7-1.4-7c-1.3-6.1-2-12.2-2.7-18.4
		c-0.4-3.7-0.5-7.3,0.5-10.9c0.1-0.3,0.1-0.5-0.1-0.8c-0.6-1.3-1.2-2.5-2.2-3.6c-1.4-1.5-2.9-1.5-4.3,0c-0.8,0.9-1.1,1.9-1,3.1
		c0.3,2.5,1.9,4.6,2.1,7.3C103.5,119.6,104.1,118.2,105.6,117.1z M253.8,145.3c0,1.1,0,2.2,0,3.2c0,0.6,0.2,1.3,0.9,1.5
		c0.7,0.2,1.2-0.3,1.7-0.7c0.5-0.5,0.8-1.2,1-1.9c0.9-3,1.2-6.2,1.8-9.3c1.4-7,1.7-13.9,0-20.9c-0.5-2.3-0.9-4.8,0-7.2
		c0.4-1,0.3-2.1,0-3.2c-0.2-0.8-0.5-1.7-1.4-1.7c-0.9-0.1-1.9,0.2-2.4,1.2c-0.1,0.3-0.3,0.6-0.6,0.7c-0.9,0-0.8,0.6-0.7,1.2
		c0.1,0.4,0.2,0.9,0.2,1.3c0.9,7.9,0.5,15.7,0.1,23.6C254.5,137.2,253.6,141.2,253.8,145.3z M97.8,247.4c0.5-0.1,1.1,0,1.3-0.2
		c0.9-1.4,2.5-1.3,3.8-1.6c3.5-0.8,6.4-2.7,9.2-5c0.8-0.6,1.6-0.9,2.4-0.5c1.2,0.7,2.4,0.3,3.3,0c2.2-0.5,4.2-1.5,6.3-2.3
		c0.2-0.1,0.6-0.1,0.5-0.6c-0.4,0-0.8,0-1.2,0c-3.2-0.2-6.4,0.5-9.6,0.5c-1.6,0-3.3,0.2-4.9,0.5c-4.6,0.7-8.7-0.2-12.4-3.1
		c-1.1-0.9-2.2-1.4-3.5-1.7c-2.1-0.5-2.1-0.5-2.1,1.6c0,1.6-0.3,3.1,0.2,4.6c0.7,2.3,2.3,4.2,3.2,6.4c0.7,1.7,1.8,2.8,3.9,2.1
		c0.1,0,0.2-0.1,0.3-0.1C98.3,247.8,98.1,247.6,97.8,247.4z M232.4,45c-0.1,0.6,0,1.2-0.3,1.6c-1.2,2-0.1,3,1.3,4.4
		c9.6,9.5,16,20.9,19.4,34c1.5,6,2.5,12,2.9,18.2c0,0.6,0.2,0.9,0.9,0.6c0.3-0.1,0.6-0.2,0.9-0.2c0.8,0,0.8-0.4,0.8-1
		c-0.4-4.2-0.6-8.4-1.7-12.5c-2-8-4.9-15.7-8.1-23.3c-2-4.7-4.5-9-7.6-13.1C238.4,50.6,235,48.2,232.4,45z M246.5,167.4
		c0-0.5-0.2-0.9-0.6-1.1c-0.6-0.3-1.1-0.1-1.6,0.2c-1.4,0.9-2.6,2-3.9,2.9c-10.8,7.9-21.6,15.9-32.3,23.8c-0.3,0.2-0.6,0.4-0.8,0.7
		c-0.4,0.5-0.5,1.1-0.1,1.6c0.5,0.7,1,0.3,1.4-0.1c2-1.4,4-2.7,5.9-4.2c2.4-1.9,5.2-3.3,7.2-5.6c0.4-0.4,0.9-0.8,1.4-0.9
		c1-0.1,1.7-0.8,2.5-1.3c2.8-2.1,5.5-4.2,8.3-6.3c3.8-2.7,7.2-5.8,11.2-8.2C245.8,168.6,246.4,168.2,246.5,167.4z M148.6,134.7
		c3.1-0.2,6.2,1.3,9.4-0.9c-0.9,0-1.5,0.2-2.1,0.3c-0.6,0.1-1.3,0-2.1,0c2.6-0.7,5-1.7,7.6-1.6c0.4,0,0.7-1.2,0.4-1.6
		c-0.5-0.6-0.5-0.7,0.4-0.8c0.3,0,0.5-0.2,0.8-0.4c-1.9-1.2-3.4-2.6-5.6-3.2c0.2,2.2,0.3,4.3-1.7,5.8c-0.7,0.5-1.5,0.8-2.4,1
		c-0.8,0.3-1.8,0.4-2.4-0.2c-0.7-0.7-1.4,0.2-2.2-0.4c-2.2-1.7-2.9-3.7-1.7-6.1c0.2-0.4,0-0.6,0-0.9c0-0.2-0.3-0.1-0.4-0.1
		c-1.3,0.4-2.6,0.7-3.8,1.5c0.2,0.3,0.6,0.1,0.7,0.5c-1.6-0.5-3.3,0.6-3.6,2.2c-0.1,0.8,0.3,1.6,0.9,1.7c0.6,0.1,0.8,0.5,1.2,0.7
		c1.1,0.5,2,1.5,3.3,1.5c0.2,0,0.4,0.1,0.5,0.2c1.6,1,3.4,1.1,5.2,1C150.3,135,149.4,134.8,148.6,134.7z M117.4,167.4
		c-2.2-3.4-3.7-7.1-5.1-10.8c-0.1,1.2-0.2,2.4-0.2,3.5c-0.6-1.7-0.3-3.4-0.5-5.2c-1.6,1-0.5,2.9-1.6,4c-0.4-0.5,0.1-0.9,0-1.4
		c0-0.4,0.2-0.9-0.3-1c-0.5-0.1-1,0.1-1.3,0.6c-0.1,0.2-0.2,0.5-0.2,0.8c-0.1,0.6-0.3,1.1-0.4,1.7c-0.3-0.7-0.2-1.3-0.2-2
		c0-0.3,0.1-0.6-0.3-0.8c-0.9-0.5-1.1-0.3-1.2,0.9c0,0.3,0.1,0.7-0.4,0.7c-0.4,0-0.4-0.4-0.3-0.7c0.4-2-1.1-3.2-1.7-4.8
		c-0.4-0.9-0.3,0.3-0.7,0.1c0.2-2.4-0.6-4.7-1.4-7.3C99.9,154,110.3,168.1,117.4,167.4z M254.2,155.1c0.5-0.8,1-1.5,1.5-2.3
		c0.3-0.5,0.4-1-0.4-0.8c-0.8,0.2-1.3-0.3-1.8-0.8c-0.7-0.6-0.9-0.4-1.1,0.4c-0.7,3.8-2.1,7.4-4.4,10.6c0.7,0.1,1.3,0.1,1.9-0.1
		c3.2-1.3,5.5-3.6,7.3-6.5c0.1-0.2,0.3-0.4,0.2-0.5c-0.4-1.3,0.5-2.4,0.8-3.5c0.2-0.6,0.5-1.2,0.5-2c-0.9,1-1.5,2.1-2.1,3.1
		C256,153.6,255.5,154.8,254.2,155.1z M237.9,258.6c0.2,0.2,0.5,0.3,0.7,0.5c1,1.1,2.3,2,3.5,3c0.6,0.6,0.7,0,0.9-0.3
		c0.3-0.4,0-0.8-0.2-1.1c-1.3-2.4-3.1-4.4-5.4-6c-0.5-0.4-0.8-0.3-1.2,0.2c-0.9,1.1-1.7,2.1-2.7,3.1c-0.4,0.4-0.3,0.6,0,0.9
		c2,2.2,4.7,2.6,7.4,3.1C239.9,261.1,238.7,260,237.9,258.6z M151.3,261.9c6.2,4,24.4,9.5,28.2,8.8c-11.9-2.8-23.4-7.9-35.1-12.3
		c2.5,1.3,5.2,2.1,7.6,3.6C151.8,262.1,151.5,262,151.3,261.9z M259,243.7c1.9-1.3,4.6-1.7,4.9-4.5c0.2-2-1-3.5-2.2-5
		C261.8,237.7,261.1,240.8,259,243.7z M263.4,241.7c-1.8,1.3-3.6,2.4-5.6,3c-0.5,0.2-1,0.4-0.7,1c0.2,0.4,0.3,1.1,1,0.9
		c1.7-0.3,3.5-0.5,5.2-1c0.3-0.1,0.7-0.1,0.6-0.7C263.7,243.9,263.6,242.9,263.4,241.7z M141.7,124.1c-1.5-0.7-0.2-1.3-0.2-2
		c0.3,0.4,0.5,0.8,0.6,1.3c0.1,0.2,0.1,0.6,0.5,0.3c0.2-0.2,0.5-0.4,0.2-0.7c-0.4-0.3-0.2-0.7-0.3-1.1c-0.3-1.5-0.5-3.1-1.2-4.7
		c-0.7,2.3-1.4,4.4-2.1,6.5c-0.4,1.4-0.3,1.8,1,2.3c0.4,0.2,0.7-0.1,0.9-0.3c0.2-0.3-0.1-0.5-0.3-0.7c-0.3-0.2-0.7-0.3-1.1-0.5
		C140.5,124.3,141.1,124.6,141.7,124.1z M72.5,166.1c-0.4-1.1-0.9-2.3-1.2-3.4c-0.3-1.2-0.3-2.5-0.3-3.8c-1.1,0.6-1.9,1.3-1.6,2.3
		c0.2,0.8,0.2,1.6,0.2,2.3C69.6,165.8,70.2,166.4,72.5,166.1z M262.3,134.9c-0.1,0-0.2,0-0.3,0c-0.1,0.2-0.1,0.4-0.2,0.7
		c-0.5,3.4-1.1,6.8-1.8,10.2c-0.2,0.8-1,1.8,0.4,2.5C262,144,262.3,139.5,262.3,134.9z M231.3,186.6c0.7,0,1.1-0.1,0.7-0.8
		c-0.4-1-0.8-2-1-3c-0.1-0.6-0.3-0.7-0.9-0.3c-1,0.8-1.6,3.2-0.6,4.1c1,1,2.2,1.6,3.4,2.5C233.3,187.6,231.9,187.5,231.3,186.6z
		 M220.4,219.5c0.8-2,1.2-3.8,2-5.5c0.1-0.2,0-0.4-0.2-0.6c-1-0.7-1.9-1.4-2.6-2.8C219.4,213.7,220,216.4,220.4,219.5z M140.4,257.4
		c4.1,3.1,8.5,5.3,13.6,6.7c-0.1-0.2-0.2-0.2-0.2-0.3c-4.2-2-8.2-4.1-12.2-6.4C141.1,257.2,140.7,257.4,140.4,257.4z M99.9,57.7
		c3-3.2,6-6.3,9.3-9.2c-1.7,0.8-3.5,1.4-4.7,3.1c-0.7,1-1.5,2.2-2.6,2.9C100.7,55.3,100.3,56.4,99.9,57.7z M242.4,254.8
		c-0.2-0.7-0.7-0.9-1.1-1.1c-1.1-0.6-2.1-1.2-3.2-1.7c-0.2-0.1-0.6-0.7-0.8,0c-0.2,0.6-1.2,1.2-0.4,1.9c1.3,1,2.8,1.9,4.4,3
		c-0.4-0.9-1-1.3-1.4-1.8c-0.2-0.2-0.7-0.3-0.3-0.7c0.3-0.4,0.6-0.6,1.1-0.3C241.2,254.2,241.8,254.4,242.4,254.8z M231.9,166.1
		c-0.2,2.5-0.7,4.9-0.5,7.4c0,0.3-0.4,0.7,0.2,0.9c0.5,0.2,0.7-0.3,1-0.5c0.4-0.3,0.3-0.7,0.3-1.1
		C232.8,170.6,232.7,168.4,231.9,166.1z M240.1,254.5c1,1,1.7,2.1,2.6,2.9c0.8,0.8,0.8,1.9,1.5,2.7c0.8-1.4,0.8-1.4,0.7-1.9
		C244,256.1,242.4,255.1,240.1,254.5z M233.6,180c-1.1,0.4-1.3,1-1,2.1c0.2,0.7,0.7,1.1,1.1,1.6c0.6,0.8,1.3,1.5,2.2,2.5
		C235.3,183.9,234.1,182.1,233.6,180z M250.2,255.9c-0.4,0-0.7,0.1-0.8,0.5c-0.1,0.4,0.3,0.3,0.6,0.4c1.5,0.8,3,1.3,4.6,1.9
		c0.3,0.1,0.6,0.6,0.8,0c0.1-0.4,0.1-0.8-0.5-1c-0.9-0.3-1.7-0.6-2.5-0.9C251.6,256.4,250.9,256.1,250.2,255.9z M175,17.3
		c0-0.7,0.7-0.7,1-1.2c-0.9,0.1-1.7,0.3-2.4,0.6c1.7,1.4,4.4,1.6,6.6,0.4c-0.9-0.4-1.7-0.8-2.7-0.7C176.6,16.6,175.9,17.4,175,17.3z
		 M220.7,235.8c-0.3,2.1,1.3,7.2,2.9,9.5C223.1,241.8,221.3,239,220.7,235.8z M228.9,188.3c-0.1-0.6-0.2-1.1-0.3-1.5
		c-0.1-0.5-0.2-0.9-0.2-1.4c-0.1-0.4,0.2-0.9-0.2-1.1c-0.5-0.3-0.8,0.3-1.1,0.5c-1.3,0.9-1.2,1.3,0,2.1
		C227.7,187.3,228.2,187.8,228.9,188.3z M293.6,205.7c-1.4,1.9-3.2,3.6-3.7,6.1C292.1,210.3,293.1,208.1,293.6,205.7z M109.6,51.4
		c1.6-1.8,3-3.4,4.5-5.1C111.5,47,110.1,48.6,109.6,51.4z M281.9,212.3c-1.9,0.9-3.5,2.2-5.2,3.5C279.1,215.8,281.7,214,281.9,212.3
		z M163,18.3c1.6,0.1,3.2,0.1,4.6-0.9c0.2-0.2,0.5-0.4,0.3-0.7c-0.1-0.4-0.5-0.2-0.7-0.2C165.7,16.8,164.3,17.2,163,18.3z
		 M235.8,168c0.1,0.9,0.1,1.6,0.3,2.4c0.1,0.3,0.3,0.6,0.7,0.2c0.7-0.6,1.4-1.1,2.2-1.8C237.9,168.6,236.9,168.3,235.8,168z
		 M289,208.3c-0.1,0.1-0.2,0.1-0.3,0.2c-1.1,1.4-2.2,2.9-3.5,4.2c-0.4,0.4-0.2,0.9-0.1,1.5C286.8,212.4,288.4,210.6,289,208.3z
		 M168.5,17.8c1.1,0,2.1,0,3.1,0c0.4,0,0.9-0.1,0.5-0.6c-0.8-0.8-1.8-0.8-2.9-0.8C168.2,16.5,168.9,17.4,168.5,17.8z M161.6,118.6
		c-2.7-0.8-5.2-2.2-8.4-2.3C156,117.8,158.8,118.2,161.6,118.6z M151,122.5c0,0.1-0.1,0.2-0.1,0.3c0.2,0.2,0.5,0.3,0.6,0.5
		c0.3,0.4,0.5,1,1.2,0.9c0.8-0.1-0.3-0.9,0.4-1.1c0.1,0.1,0.2,0.1,0.3,0.3c0.3,0.5,0.8,0.8,0.8,1.4c0,0.2,0.2,0.3,0.4,0.3
		c0.2,0,0.2-0.1,0.2-0.3c0-1.1-0.7-2.1-1.7-2.1C152.5,122.7,151.8,122.7,151,122.5z M269.6,247.7c-0.4-1.2-0.8-2.1-1.1-2.9
		c-0.1-0.3,0-0.8-0.4-0.7c-0.4,0.1-0.9,0.4-1.2,0.7c-0.2,0.2,0.1,0.6,0.3,0.8C267.9,246.2,268.6,246.8,269.6,247.7z M152.7,132.3
		c-0.1-0.6-1.2-0.1-0.9-1c0,0-0.1-0.1-0.2-0.1c-1.2,0.3-2.2-0.4-3.1-1C148.8,131.7,150.3,132.5,152.7,132.3z M90.1,251.2
		c0.7,1.1,1.7,1.2,2.8,0.5c0.2-0.1,0.8,0,0.6-0.5c-0.2-0.4-0.4-0.9-1-0.7C91.6,250.8,90.8,250.9,90.1,251.2z M212.2,23.6
		c-1.6-1.1-3.6-1.3-4.9-0.7C208.8,23.9,210.4,23.7,212.2,23.6z M237.1,250.4c0-0.5,0.1-0.9,0-1.1c-0.3-0.5-0.4-1.5-1.3-1.1
		c-0.4,0.1-1.1,0.2-1.1,0.7c0,0.5,0.6,0.6,1,0.9C236.1,249.9,236.4,250.3,237.1,250.4z M218.4,25.6c0,0.1-0.1,0.2-0.1,0.3
		c2.1,0.8,4.1,1.6,6.2,2.4C222.7,26.9,220.6,26,218.4,25.6z M116.2,42.2c-1.9,0.7-3.7,1.7-5.3,3C113.1,44.8,114.6,43.4,116.2,42.2z
		 M88.6,251c-1.1-1.4-2.4-2.4-3.8-3.1c0.4,0.7,0.8,1.5,1.7,1.7c0.4,0.1,0.7,0.4,0.7,0.7C87,251.7,87.9,251,88.6,251z M74.7,176.4
		c-1.3-1.4-2.3-3.1-3.4-4.6C71.9,173.6,72.5,175.6,74.7,176.4z M224.4,263.2c-2-0.6-2.8,1-4.4,1.4
		C221.8,264.9,222.9,264,224.4,263.2z M290.2,206.4c1.5-1.1,2-2.6,2.2-4.9C291.9,203.1,291,204.6,290.2,206.4z M216.2,26.9
		c-0.7-1.3-1.6-2.3-3.3-1.6C214.1,25.8,215.1,26.4,216.2,26.9z M148.3,124.1c-0.8-0.4-1.5-1.4-2.7-1
		C146.1,124.3,147.2,124.2,148.3,124.1z M235,153.3c0,1.8,0,3.6,0,5.5C235.9,156.9,235.1,155.1,235,153.3z M93.7,250.3
		c0.6,1.1,1.1,1.1,2.7,0C95.5,250.3,94.7,250.3,93.7,250.3z M105.9,178.1c1.2-0.4,2.1-1.7,2.2-3.1
		C107.2,176,106.7,177.1,105.9,178.1z M235.7,132.8c0.1-1.6,0.4-3.3-0.6-5.1C235.2,129.6,235.8,131.2,235.7,132.8z M91.1,252.9
		c-1.4-0.2-2.8,0-4.2,0.5C88.5,253.9,89.7,252.9,91.1,252.9z M246.3,259c0.5-0.8,0.1-2.2-0.7-2.4c-0.1,0-0.2,0-0.3,0.1
		c0,0.1,0,0.2,0,0.3C245.6,257.7,246,258.4,246.3,259z M73.1,136.4c0.2,1.1,0.2,2.3,1.3,2.9C74,138.4,73.5,137.4,73.1,136.4z
		 M151.2,123.8c-0.6-0.5-1-1.5-2.4-1.2C149.7,123.2,150.3,123.9,151.2,123.8z M249.3,255.7c-1.1-0.1-1.9-0.3-2.7-0.4
		C247.4,255.5,248.1,256.7,249.3,255.7z M91.3,182.3c0.9,0.3,1.9,0.8,3.1,0C93.2,182.3,92.3,182.3,91.3,182.3z M147.4,114.8
		c1.1,0.8,2.2,1,3.3,1.2C149.8,115.4,148.8,115,147.4,114.8z M246.6,256.4c0.4,0.4,0.1,1.1,0.8,1.2c0.3,0,0.7-0.4,0.6-0.6
		C247.8,256.6,247.3,256.4,246.6,256.4z"/>
	<path d="M206.7,281.8c2.9-1,5.8-2.4,8.9-2.9c-2.7,1.3-5.5,2.2-8.3,3.2c2.4,0,4.6-1,6.9-1.5c-0.5,0.7-1.1,1-2,1.2
		c-3,0.6-5.8,1.7-8.8,2c-1.6,0.2-3.3,0.4-4.9,0.4c-4.5,0-9,0.3-13.5-0.2c-0.1,0-0.2,0-0.7,0.1c6.9,1.1,13.2,3.2,19.8,4
		c-3.4-1-6.5-2.6-10.3-2.6c0.3-0.1,0.5-0.1,0.8-0.2c-0.2-0.3-0.5-0.4-0.8-0.6c5.1,1.1,10.1,2.7,14.9,4.6c-1.4,0.2-2.7-0.4-4.1-0.1
		c3.3,1.1,6.6,2.2,9.9,3.4c0,0.1-0.1,0.2-0.1,0.3c-1.3-0.4-2.7-0.7-4-1.1c-4.9-1.4-9.9-2.9-14.8-4.2c-2.5-0.7-5-0.8-7.5-1.1
		c-2.4-0.3-4.8-0.4-7.2-0.8c-1.1-0.1-2.1-0.6-3.1-0.9c-2.7-0.8-5.5-0.9-8.3-1.4c-4.1-0.7-8.2-1.9-12.3-2.6c-3.1-0.5-6.1-1.3-9.1-2.3
		c-0.5-0.2-1.1-0.3-1.5-0.8c19.3,5.3,38.8,7.7,58.9,4.1c-0.4-2-0.8-3.9-1.1-5.7c0-0.1,0.1-0.1,0.2-0.3c0.6,1.1,0.7,2.4,1.1,3.5
		C205.8,280,205.8,281.1,206.7,281.8c-2-0.1-3.8,0.7-5.6,1C203,282.9,204.9,282.4,206.7,281.8z M181.3,284.8c2.6,0.7,5.3,1.1,8,1.1
		C186.7,285.1,184,285,181.3,284.8z"/>
	<path d="M238.5,268.2c0.1,0.3-0.1,0.5-0.3,0.6c-2.7,1.8-5.3,3.6-8,5.3c-3.7,2.3-7.8,3.6-11.9,5c-0.1,0.1-0.3,0-0.5,0
		c0.2-0.2,0.3-0.3,0.4-0.4c4-1.4,7.5-4,11.4-5.5c1.2-0.5,2.6-0.6,3.6-1.5c0.2-0.2,0.6-0.3,0.2-0.7l0,0c0.6,0,1-0.4,1.5-0.6
		C236.2,269.7,237.1,268.6,238.5,268.2L238.5,268.2z"/>
	<path d="M140.4,279.2c5.5,5.2,11.2,9.7,16.6,14.6C153.8,292.6,140.9,281.3,140.4,279.2z"/>
	<path d="M133.5,276.7c0.4-0.3,0.8,0,1.1,0.2c4,3.5,8,7,11.6,11c1.6,1.8,3.4,3.4,4.9,5.2c-0.6,0.3-0.9-0.3-1.2-0.6
		c-5.3-5.2-10.7-10.3-16-15.5C133.8,276.9,133.6,276.8,133.5,276.7L133.5,276.7z"/>
	<path d="M133.5,256c-4.3-2.3-9.3-3.5-12.3-8c1.4,0.7,2.3,2.2,3.7,2.9c1.5,0.8,2.9,1.6,4.4,2.4c1.4,0.8,2.9,1.5,4.4,2.3
		C133.6,255.8,133.5,255.9,133.5,256z"/>
	<path d="M199.7,284.6c5.2,1.2,10.3,2.7,15.4,4.2c0,0.1-0.1,0.2-0.1,0.3c-5.1-1.4-10.3-2.8-15.4-4.2
		C199.6,284.8,199.6,284.7,199.7,284.6z"/>
	<path d="M161.2,294c-2-0.4-7.6-4.7-9.9-7.5C154.5,289.1,157.7,291.7,161.2,294z"/>
	<path d="M165.5,295.4c-3.2-1.4-5.5-3.9-7.4-6.8C160.6,290.9,162.7,293.4,165.5,295.4z"/>
	<path d="M220.5,286.2c-3.1-0.8-6.1-1.5-9.3-2.3c0.3-0.4,0.8-0.6,1.3-0.5c2.7,0.8,5.4,1.7,8.1,2.5
		C220.5,286.1,220.5,286.1,220.5,286.2z"/>
	<path d="M224.5,274.9c-2.7-1.7-4.6-4.1-6-6.9C220.5,270.3,222.3,272.7,224.5,274.9z"/>
	<path d="M121.2,260.5c2.2-2.1,4.3-4.2,6.5-6.3c0.1,0.2,0.1,0.3,0.1,0.3c-1.8,2-3.5,4.1-5.6,5.8
		C121.8,260.6,121.5,260.5,121.2,260.5z"/>
	<path d="M130.5,256.7c-1.5,2.4-3.2,4.7-5.4,6.6c-0.1-0.1-0.2-0.2-0.3-0.2c1.8-2.2,3.6-4.4,5.4-6.6
		C130.3,256.6,130.4,256.7,130.5,256.7z"/>
	<path d="M140.1,260c-0.9,2.7-2.4,4.9-4.6,6.7C137.1,264.5,138.5,262.2,140.1,260z"/>
	<path d="M207.9,272.5c0.6,2.4,0.9,4.7,1.1,7c0,0.2,0.1,0.6-0.3,0.7c-0.4,0-0.4-0.3-0.4-0.6c-0.1-2.1-0.4-4.3-0.7-6.4
		C207.5,273,207.5,272.7,207.9,272.5z"/>
	<path d="M146.6,263.7c-1.5,2.4-3.3,4.7-5.7,6.4C142.9,268,144.5,265.6,146.6,263.7z"/>
	<path d="M159.4,270.7c-0.8,2.1-2,3.9-3.5,5.5C156.7,274.1,157.9,272.3,159.4,270.7z"/>
	<path d="M107.5,251.7c2.2-1.6,4.4-3.3,6.9-4.4c-1.2,0.9-2.3,1.7-3.5,2.6c-0.7,0.5-1.4,1.1-2.1,1.7C108.4,252,108,252.3,107.5,251.7
		z"/>
	<path d="M168.3,273.5c-0.5,1.9-0.9,3.8-0.8,5.8c0,0.3,0,0.6-0.4,0.6c-0.4,0-0.3-0.3-0.3-0.5C166.7,277.3,167.1,275.3,168.3,273.5z"
		/>
	<path d="M109.8,254c2.2-1.6,4.2-3.2,6.3-4.7C115.4,250.7,111.3,253.6,109.8,254z"/>
	<path d="M159.6,277.7c0.5-2.1,1.6-4,2.7-5.8C161.9,274.1,160.9,276,159.6,277.7z"/>
	<path d="M152.3,274.5c0.7-2.1,1.5-4.2,3.4-5.6c-1,1.9-2,3.9-3.1,5.8C152.5,274.6,152.4,274.6,152.3,274.5z"/>
	<path d="M176.9,280.8c-0.1-2.1,0.3-4.2,1.6-6c-0.4,2-0.8,4.1-1.3,6.1C177.1,280.9,177,280.9,176.9,280.8z"/>
	<path d="M198.2,275.2c0.8,2,1.1,4,0.8,6.1C198.4,279.3,198.3,277.3,198.2,275.2z"/>
	<path d="M214.2,270.7c1.4,1.4,2.5,3,3.9,4.4c0.1,0.1,0.4,0.3,0.1,0.5c-0.2,0.1-0.4,0.2-0.6-0.1c-0.7-0.8-1.4-1.6-2-2.4
		C215,272.3,214.3,271.6,214.2,270.7z"/>
	<path d="M181,274.5c-0.5,1.9-1.2,3.9-1.1,6.1C179.1,279.1,179.6,276,181,274.5z"/>
	<path d="M117.1,257.1c0.9-1.9,2.2-3.5,3.8-4.9C119.8,253.9,118.6,255.6,117.1,257.1z"/>
	<path d="M129.6,263.2c1.3-1.5,2.6-3,3.9-4.6c-0.9,1.9-1.9,3.7-3.7,4.8C129.7,263.4,129.7,263.3,129.6,263.2z"/>
	<path d="M219,288.1c-3.2-0.7-6.2-1.6-9.1-3.1C213,286,216,287.1,219,288.1z"/>
	<path d="M138,268.1c2.1-1,2.8-3.2,4.4-4.6c-0.1,0.8-0.5,1.3-1,1.9c-0.7,0.9-1.3,1.7-2,2.5C139,268.3,138.6,268.7,138,268.1z"/>
	<path d="M165.5,279.9c-0.2-1.8,0-3.6,0.4-5.4C166.5,276.3,166,278.1,165.5,279.9z"/>
	<path d="M168.6,295.9c-2.2-0.7-3.6-2.3-4.8-4.2C165.4,293.1,167,294.5,168.6,295.9z"/>
	<path d="M233.8,260.8c1.9,1.1,3.6,2.5,5,4.2C237,263.9,235.4,262.3,233.8,260.8z"/>
	<path d="M191.4,281.6c0-2.4-0.7-4.7,0.1-7.1C191.9,276.9,191.5,279.2,191.4,281.6z"/>
	<path d="M186,277.6c0.2,1.8-0.5,3.5-0.5,5.2C185.2,281,185,279.3,186,277.6z"/>
	<path d="M227.8,272.8c-1.9-0.8-3.3-2.2-4.3-4.1C225.1,270,226.1,271.7,227.8,272.8z"/>
	<path d="M174.7,273.2c-0.4,1.9-0.9,3.5-0.8,5.5C173.1,277.2,173.5,274.3,174.7,273.2z"/>
	<path d="M133.5,276.7c-0.3-0.5-0.9-0.6-1.4-0.9c-1.3-0.5-2.2-1.5-3.5-2.4c0.7-0.1,1.1,0.2,1.3,0.4c0.8,0.8,1.8,1.1,2.8,1.7
		C133.1,275.8,133.9,275.9,133.5,276.7C133.5,276.7,133.5,276.7,133.5,276.7z"/>
	<path d="M195.5,17.8c2.3-0.5,4.7-0.6,7,0C200.2,17.6,197.9,17.6,195.5,17.8z"/>
	<path d="M119.9,248.2c-1.8-0.8-3.5-1.8-4.9-3.2C116.6,246,118.2,247.1,119.9,248.2z"/>
	<path d="M168,293.6c1.3,0.3,2.1,1.3,3.1,1.9c0.1,0.1,0.2,0.3,0.1,0.4c-0.3,0.2-0.5,0.1-0.7-0.1C169.6,295,168.8,294.3,168,293.6z"
		/>
	<path d="M174.3,296.3c-1.4-0.6-2.5-1.5-3.7-2.5c0.1-0.1,0.1-0.2,0.2-0.3c1.2,0.8,2.4,1.6,3.7,2.5
		C174.4,296.1,174.4,296.2,174.3,296.3z"/>
	<path d="M311.5,275.3c-1.2-0.5-2.1-1.2-2.7-2.4C310,273.4,310.8,274.3,311.5,275.3z"/>
	<path d="M195.5,278.5c0.1,1.1,0.2,2.2,0.3,3.3c-0.1,0-0.2,0-0.3,0C195.1,280.7,194.9,279.6,195.5,278.5z"/>
	<path d="M146.7,272.2c0.7-0.9,1.4-1.4,1.8-2.3c0.1-0.1,0.1-0.3,0.3-0.2c0.3,0.1,0.2,0.4,0.1,0.6
		C148.4,271.2,147.8,271.8,146.7,272.2z"/>
	<path d="M228.8,285.1c-1.2,0.7-2.5,1.2-3.8,1.5C226.1,285.8,227.5,285.5,228.8,285.1z"/>
	<path d="M117,252.4c-0.6,0.9-1.5,1.3-2.4,1.9C115.1,253.3,116,252.8,117,252.4z"/>
	<path d="M121.6,107.2c0.4-2.7,1.2-5.2,1.9-7.8c2.1-7.6,5.1-14.9,8.9-21.8c0.9-1.6,1.9-3.2,3.2-4.7c0.3,0.4,0,0.7-0.2,1
		c-4.5,8.2-8.2,16.6-11,25.5c-0.9,2.8-1.4,5.6-2.3,8.3C122,107.5,121.8,107.3,121.6,107.2z"/>
	<path d="M260.9,232c-0.7-3.9-1.7-8.1-6.6-11.5c1,0,1.6,0.6,2.2,1.1c2.6,2.2,4.1,5,4.6,8.4c0.1,0.7,0.4,1.4,0,2.1
		C261,232,261,232,260.9,232z"/>
	<path d="M129.6,236.3c1.1-0.3,1.7-1.5,3-1.8c-1.6,2.1-3.8,3.4-5.3,5.5C127.6,238.5,129,237.7,129.6,236.3L129.6,236.3z"/>
	<path d="M238,40c0,0.2,0.1,0.6-0.3,0.3c-1.9-1-3.8-2-5.7-3c2,0.7,4,1.4,5.8,2.5C237.9,39.8,238,39.9,238,40z"/>
	<path d="M121.6,110.5c0,1.1-0.3,2.2-0.7,3.3c-0.1-1.3-0.5-2.6,0.3-3.8C121.3,110.2,121.4,110.3,121.6,110.5z"/>
	<path d="M226.6,112.8c0.1-0.3,0.6-0.6,0.2-0.8c-0.3-0.1-1-0.3-1.2,0.3c-0.4,0.8-0.7,1.7-1.2,2.5c-0.2-1,0.3-1.8,0.7-2.9
		c-3.1,0.1-6-0.1-9,0.2c-4.4,0.3-8.2,2.3-12.1,3.9c-1.6,0.7-2.7,1.9-4,3c-0.7,0.6-0.7,0.7-1.7,0.9c0.6-0.6,1.2-1.1,1.8-1.7
		c-1.7,0.3-2.6,1.7-4.1,1.9c1.5-1.3,3-2.5,4.8-3.2c1.8-0.7,3.2-2.1,4.7-3.2c0.2-0.2,0.4-0.4,0.7-0.3c0.1,0.7-0.9,0.6-1,1.3
		c1.1-0.3,1.9-0.8,2.8-1.6c1.3-1.2,2.9-2.1,4.5-2.8c1.1-0.5,2.1-1,3.3-1.6c-1.1-0.2-1.9,0.1-2.7,0.5c-1.6,0.8-3,2-4.7,2.7
		c0.1-0.6,0.7-0.6,1.2-1.2c-1.6,0.5-2.8,1.4-4.1,2.1c-1.7,1-3.4,2-5.1,3.1c-0.3,0.2-0.5,0.3-0.8,0.2l-0.1-0.1c2.6-2,5.4-3.6,8.2-5.2
		c1.4-0.8,2.8-1.5,4.2-2.2c0.8-0.4,1.7-0.7,2.7-0.2c-0.2-0.3-0.4-0.4-0.4-0.5c0.1-0.3,0.4-0.2,0.5-0.1c1.3,1.2,2.8,0.4,4.2,0.2
		c0.8-0.1,1.6,0,2.6,0c-0.8,0.6-1.6,0.4-2.4,0.7c0.7,0.2,1.4,0.4,2.2,0.5c0.4,0.1,0.4-0.4,0.5-0.7c0.5-1.9,1.3-3.7,2.5-5.2
		c0.6-0.7,0.4-1.2,0.7-1.9c1.7,4.8,3.5,9.5,6,14c-2.5-7.6-4-15.5-5.8-23.3c0.1,0,0.3-0.1,0.4-0.1c0.6,2.3,1.2,4.6,1.8,7
		c1.2,4.7,2.4,9.5,3.7,14.2c0.4,1.4,1.4,2.6,2.4,4.1c0-2.1,0.5-3.8-0.3-5.7c-1.4-3.2-2-6.7-2.6-10.2l0,0c0.4-0.2,0.4,0.1,0.5,0.4
		c0.9,2.7,1.8,5.4,2.7,8.2c0.5-1.2,0.4-2.4,0.6-3.5c0.2-1.1,0.4-2.2,0.7-3.3c0.2-0.8,0.4-1.5,1.4-1.5c0.4,0,0.6-0.3,0.6-0.8
		c0-0.5,0-1,0.1-1.6c0.2-1.4,1-2.4,2.3-2.8c0.8-0.2,1.7,0,1.8-1.2c0-0.1,0.4-0.3,0.6-0.3c0.7-0.2,1.4-0.3,2.1-0.3
		c2.9,0.1,3.9,1.1,4,4.1c-0.5-0.1-0.7-0.5-1-0.8c-1.6-1.4-3.4-1.7-5.3-0.7c-0.5,0.3-0.9,0.8-1.6,0c-0.4-0.5-1.3-0.1-1.3,0.6
		c-0.2,2.4-1.3,4.7-1.8,7c-0.9,4.2-1,8.5-1.2,12.7c0,0.5,0.4,1.4-0.8,1.1c-0.3-0.1-0.2,0.4-0.2,0.6c-0.1,0.7-0.3,0.7-0.9,0.1
		c0.7,1.3,1.2,2.3,0.6,3.5c0,0,0,0,0,0c0-1.3-0.7-2.3-1.4-3.2c-1.6-2.2-2.7-4.6-4.1-6.9c-0.5-0.8-1.1-0.9-1.8-0.2
		C226.9,113,226.7,112.9,226.6,112.8L226.6,112.8z M225.5,105.6c0.1-0.8-0.1-1.5-0.5-2.3c-1.1,1.7-1.9,3.4-2.5,5.1
		c-0.1,0.4-0.6,0.9,0.3,1c0.6,0.1,1,0.4,1.2-0.5c0.2-1.1,0.6-2.1,1-3.2C225,105.5,225.1,104.9,225.5,105.6c0,0.8-0.4,1.5-0.7,2.3
		c-0.6,2-0.7,2,1.4,2.4c0.2,0,0.7,0,0.6,0.3c-0.3,0.8,0.4,0.4,0.5,0.4c0.3,0,0.5-0.2,0.3-0.6c-0.3-0.8-0.6-1.6-1-2.3
		C226.2,107.3,226.2,106.3,225.5,105.6z M211,111.5c3.1-0.6,6.1-1.8,9.3-1.6c-1.2-0.3-2.4-1.1-3.6-0.8
		C214.6,109.5,212.7,110.4,211,111.5z"/>
	<path d="M222.3,127.4c-2.2-0.8-4.3-2-6.7-2.3c-0.5,0-0.5-0.1-1.1-0.6c0.8-0.2,1.5,0.6,2.4,0c-1.2-0.7-2.5-0.7-3.8-1
		c-0.3-0.1-0.4,0.3-0.6,0.5c-0.8-0.7-1.5-0.2-2.2,0.1c-0.7,0.3-0.2,0.9-0.4,1.5c0.7-0.3,1.2-0.3,2-0.2c-0.7,0.4-0.8,0.9-0.5,1.4
		c-0.4-0.5-0.9-0.3-1.2,0.1c-0.3,0.4-1.4,0.5-0.7,1.4c0.4-0.1,0.8-0.9,0.8-0.7c0.1,0.8,0.3,0.6,0.7,0.2c0.4-0.3,0.7-0.6,0.2-1.1
		c1.1,0.3,1.3-0.3,1.3-1.2c0-0.6-0.3-1-0.2-1.6c0.8-0.2,0.8,0.7,0.8,0.9c0.4,3.5-0.8,5.5-4.4,6.4c-0.3,0.1-0.6,0-0.8,0
		c-0.7,0.1-1.2-0.9-2.2-0.3c-0.8,0.5-3.4-2.2-3.5-3.4c0-0.4,0-0.9-0.3-1.1c-0.4-0.2-0.8,0.3-1.2,0.4c-0.2,0.1-0.4,0.4-0.6,0.6
		c-1.6,1.5-1.6,1.5-0.7,3.5c0.1,0.3,0.6,0.6,0.1,0.9c-0.7,0.4-0.5-0.4-0.7-0.6c-0.4-0.6-0.7-1.3-1.2-2.2c-0.7,0.8-1.4,1.6-2.3,2.5
		c0.4-2.9,2.2-4.7,4.6-5.4c0.9-0.3,1.7-1.3,2.5-2c0.2-0.2-0.1-0.4-0.2-0.6c-0.1-0.3-0.3-0.6-0.1-0.7c0.2-0.2,0.5,0,0.7,0.3
		c0.4,1,1,0.3,1.6,0.2c0.8-0.1,0.4-0.7,0.4-1.1c0.5-0.1,0.5,0.5,0.8,0.6c0.1-0.1,0.2-0.1,0.2-0.2c0-0.2-0.1-0.4,0-0.6
		c0-0.5,0.4-0.9,0.8-1c0.4-0.1,0.3,0.5,0.5,0.8c0.1,0.2,0.2,0.6,0.5,0.6c0.2-0.1,0.1-0.3,0.2-0.5c0.1-0.4,0-1,0.6-1
		c0.6,0,0.3,0.6,0.3,1c0,0.4,0.2,0.6,0.6,0.8c0.5,0.2,0.7-0.1,0.9-0.5c0.6-0.8,1.2-1.6,2.3-2.1c-0.3,1.2-1,1.9-2.1,2.4
		c1.3-0.2,2.4-1.1,3.1-2.7c-2.9-0.3-5.6,0.2-8.3,0.9c3.1-2.2,6.5-1.2,10-1c-1.6-0.1-1.5,1.4-2.3,2.3c0.9-0.2,1.1-0.7,1.4-1.2
		c0.1-0.2,0.2-0.4,0.5-0.2c0.2,0.1,0.1,0.3,0.1,0.4c0,0.5,0.6,1.2-0.5,1.5c1.5,0,2.1-1.7,3.7-1.4c-0.7,0.8-1.7,0.9-2.5,1.8
		c1.7-0.5,3.1-1.6,4.7-0.6c-0.4,0.4-1.5-0.5-1.7,0.6c-0.8-0.4-1.4-0.2-2.2,0.6c1.4-0.1,2.4,0.7,3.5-0.3c-0.5-0.2-1,0.1-1.3-0.3
		c1.1-0.2,2.3-0.4,3.5-0.6c-0.2,0.7-1,0.3-1.3,0.9c1.3,0.8,2.9-0.3,4.2,0.5c-0.1,0.7-0.6,0.9-1.5,1.1c-1,0.2-2,0.4-3.1,0.6
		c1.2,0.7,2.1,0.5,3.3-0.2c0.3-0.2,1.2,0.1,1.7-0.2c0.2,0.5,0,0.8-0.4,0.9C224,126.8,223.1,127.1,222.3,127.4
		C222.3,127.5,222.3,127.4,222.3,127.4z M217.5,125c1.5,0.8,1.7,0.8,4,0.1C220.1,124.7,218.8,124.3,217.5,125z M207.6,129.1
		c-0.5-0.7-1-0.6-1.6-0.4c-0.3,0.1-0.6-0.3-0.8,0.2c0,0.2,0,0.3,0.1,0.4c0.3,0.2,0.5,0.5,1,0.2C206.7,129.3,207,128.9,207.6,129.1z
		 M202.8,126.8c0.4-0.4,0.9-0.8,1.3-1.2C202.7,125.6,202.5,125.9,202.8,126.8z"/>
	<path d="M204.1,59.7c-1.3-1-2.7-2-4-3.1c-2.6-2.2-5-4.6-6.9-7.5c-0.4-0.7-0.8-1.4-0.7-2.2c0-0.2-0.1-0.6,0.3-0.7
		c0.3,0,0.4,0.2,0.5,0.5c0.4,0.8,0.9,1.7,1.4,2.5c0.4,0.6,0.4,1.4,1.6,1.2c0.5-0.1,0.9,0.8,1.4,1.3c0.9,0.8,1.8,0.8,2.9,0.9
		c0.5,0,1,0.1,1.5,0.3c-0.9,0.2-1.8,0-2.8,0.5c2.4,0.9,4.9,1.3,7.3,2.8c-1.5,0.3-2.8,0-4,0c3.7,3.3,7.9,5.7,12.3,7.8
		c-3.4-0.7-6.6-2-9.6-3.8C204.8,60,204.5,59.6,204.1,59.7C204.1,59.7,204.1,59.7,204.1,59.7z"/>
	<path d="M179.2,188.4c1.9,0.3,0.9,1.4,0.8,2.3c-0.7-0.3-0.1-1.1-0.9-1.4c0,0.8,0,1.5,0,2.4c-0.7-0.5-0.8-1-1-1.5
		c-0.8,0.4-0.1,1.4-0.9,2.2c0-1-0.1-1.7,0-2.4c0.2-1.3-0.5-1.7-1.6-1.8c-5.4-0.6-10.7-2-15.9-3.5c-0.2-0.1-0.4-0.2-0.6,0
		c-0.7,0.8-0.9,0.2-1.1-0.4c-0.4,0.2-0.2,0.9-1,0.7c0.3-0.9,0.8-1.6,1.4-2.3c0.4-0.5,0.9-0.4,0.9,0.4c0,1.2,0.9,1.4,1.8,1.6
		c4.3,1.1,8.6,2.1,12.9,3c1.2,0.2,2.4-0.1,3.6-0.1c3.4-0.3,6.7-0.4,10.1-1c2.1-0.4,4.1-1.5,6.2-1.9c1.4-0.3,2.7-0.6,3.9-1.3
		c1.3-0.7,2.6,0.3,3.9,0C194.5,185.6,187.3,188.4,179.2,188.4z"/>
	<path d="M211.8,133.4c-1.1-0.7-2.3-0.3-3.5-0.4c-0.7-0.1-1.5,0-2.3-0.2c1,0,2,0,3,0c-2.2-0.7-4.5-0.5-6.9-1.2
		c3.1-0.1,5.8,0.2,8.5,0.3c2.8,0.1,4.8-1.2,6.8-2.8c0.9-0.8,1.8-1.5,3-1.7c-1,0.9-1.6,2.2-2.7,3c1.8-0.5,3.4-1.5,4.8-2.6
		c0.3-0.2-0.1-0.3-0.2-0.4c0,0,0,0,0,0c0.4-0.4,0.8,0.1,1.5-0.1c-0.9,1.4-2.3,1.9-3.2,2.9c0.6,0.5,1.5,0.2,2.2,0.8
		c-1.2,0.5-2.4-0.9-3.6-0.1c0.3,0.4,0.9,0.2,1.1,0.7c-1,0.1-2.1-0.9-3,0.2c0,0,0.2,0.3,0.5,0.5c-1-0.2-1.9-0.6-2.7-0.1
		c0.4,0.5,1.2,0.4,1.8,1.1c-0.9-0.3-1.6-0.4-2.2-0.6c-0.9-0.4-1.8-0.1-2.7-0.1C211.1,132.7,211.9,133.2,211.8,133.4L211.8,133.4z"/>
	<path d="M221.4,75.7c1,0,1.1,0.9,1.5,1.4c4.3,6.1,7.5,12.8,9.1,20.2c0,0.1,0.2,0.2,0.2,0.4c0,0.3,0.2,0.8-0.1,1
		c-0.5,0.2-0.5-0.4-0.6-0.7c-2.5-7.7-5.6-15.1-10-22C221.4,75.9,221.5,75.8,221.4,75.7L221.4,75.7z"/>
	<path d="M181.3,184.4c-2.1-0.3-3.7-1.5-5.4-2.6c-0.3-0.2-0.6-0.3-1-0.1c-2,1.1-4.2,1.2-6.5,1.3c-2.2,0.2-4.3,0.6-6.5,0.3
		c2.7-0.2,5.3-0.7,7.9-1.1c1.7-0.3,3.2-0.7,4.8-1.1c0.6-0.2,1.2,0,1.7,0.3c1.1,0.5,2.2,1,3.2,1.6c0.6,0.3,1,0.3,1.5-0.2
		c0.9-1,2.2-1.5,3.3-2.3c0.2-0.1,0.4-0.2,0.5,0c0.9,1.3,2.3,0.9,3.5,1.1l0,0c-0.7,0.3-1.5,0.3-2.2,0.1c-0.9-0.3-1.5,0-2.1,0.6
		c0.3,0.2,1,0.1,0.4,0.7C183.5,183.9,182.5,184.3,181.3,184.4c0.5-1.2,1.5-1.9,2.7-2.9c-1.1,0.3-1.7,0.8-2.3,1.3
		C181.1,183.3,180.9,183.8,181.3,184.4z"/>
	<path d="M191.5,53c-2.3,1.5-4.9,2-7.3,2.9c-4.1,1.6-7.7,4-11.2,6.6c-1.6,1.2-3.1,2.5-4.5,3.9C170.5,61.6,185.5,52.9,191.5,53z"/>
	<path d="M119.1,94.6c2-6.8,3.5-13.7,7.8-19.6C124.3,81.6,121.7,88.1,119.1,94.6z"/>
	<path d="M227.5,91.8c-1-2.1-1.9-4.1-2.9-6.2c-1.5-3.3-3.3-6.4-5.2-9.5c-0.8-1.3-1.6-2.7-1.8-4.6c1,1,1.5,2,2,3
		c3,5.2,5.6,10.6,7.7,16.2C227.6,91,228,91.4,227.5,91.8L227.5,91.8z"/>
	<path d="M207.3,216.4c-0.5,0.8-0.8,1.5,0.3,1.8c-0.2,0.4-0.4,0.3-0.5,0.1c-0.6-0.4-0.9-0.3-1.3,0.3c-1.1,1.5-1.2,1.5,0.6,2.3
		c0.8,0.4,1.5,0.7,2.2,1.4c-0.9-0.5-1.8-0.8-2.6-1.4c-1-0.7-1.7-0.5-2.3,0.5c-0.2,0.3-0.4,0.6-0.6,0.9c-0.4,0.5-0.4,0.5-0.1,1
		c-1.9,0.1-2,2.4-3.5,3.3c0.5-1.5,1.5-2.4,2.1-3.6c-2.8-1-5.6-2-8.5-3c0.9-0.3,1.7,0.2,2.5,0.4c1.8,0.6,3.7,1.3,5.5,2
		c0.7,0.3,1,0.2,1.5-0.4c1.4-1.9,1.4-1.8-0.7-2.7c-0.5-0.2-1.1-0.4-1.6-0.7c1,0,2,0.5,2.9,0.9c0.9,0.4,1.3,0.3,1.9-0.5
		c0.9-1.4,1-1.3-0.5-2.1c-0.9-0.5-1.9-1-2.8-1.6c1.2,0.2,2.2,0.9,3.2,1.4C205.7,217.2,206.5,217.6,207.3,216.4z"/>
	<path d="M133.4,94.4c-0.6,2.1-1.3,4.1-1.9,6.2c-1.1,3.5-2.1,7-3.4,10.4c-0.1,0.3-0.1,0.7-0.5,0.6c-0.3-0.1-0.2-0.5-0.2-0.7
		c0.1-1.8,0.8-3.5,1.4-5.1c1.4-3.8,2.8-7.6,4.2-11.4C133.1,94.3,133.3,94.4,133.4,94.4z"/>
	<path d="M187.7,60.2c-5.4,2.3-10.5,4.9-15.7,7.5C176.1,62.9,182.4,62.5,187.7,60.2z"/>
	<path d="M180.4,196.7c0.9,0,1.8,0,3,0c-0.9-0.5-1.6,0-2.3-0.7c1.9,0.5,3.8,0.4,5.4-0.1c2.1-0.6,4.1-1.8,5.8-3.2
		c0.8-0.7,1.6-1.3,2.2-2.1c0.1-0.2,0.2-0.3,0.5-0.2c0.2,0.1,0.2,0.3,0.1,0.4c-0.2,0.4-0.3,0.9-0.7,1.2c-1.5,1.1-3,2.1-4.7,2.9
		c2.1-0.5,3.8-1.7,5.7-2.6C190.8,195.4,186.1,197.5,180.4,196.7z"/>
	<path d="M132.2,131c0.6,0.9,0,1.6,0,2.3c-0.3,2.9-0.5,5.8-1.1,8.7c-0.2,1.1-0.3,2.2-0.5,3.3c0,0.2,0.1,0.7-0.3,0.6
		c-0.4,0-0.3-0.4-0.3-0.7c0-0.7,0.1-1.4,0.2-2.1c0.5-3.6,0.7-7.3,1.7-10.9C131.8,131.8,132,131.5,132.2,131z"/>
	<path d="M189.4,55.4c-5.7,2.1-10.8,5.2-15.8,8.5c0,0-0.1,0-0.3-0.1C177.8,59.4,183.3,56.9,189.4,55.4z"/>
	<path d="M173.9,195.9c-0.8-0.4-1.4-0.7-2-1c2.3,0.7,4.7,1.4,7.4,1.9c-1.6,0.2-2.8-0.4-4.3-0.3c2.3,0.7,4.3,0.7,6.3,0.8
		c-3.3,0.4-6.3-0.2-9.4-1.3c-2.4-0.9-4.2-2.6-6-4.3c-0.8-0.7-1.9-0.9-2.4-2.1c1.6,1.1,3.2,2.1,5,2.8c-0.5,0.4-0.8-0.2-1.2,0
		C168.1,193.6,171.7,195.6,173.9,195.9z"/>
	<path d="M229.7,76.3c-4.1-4.6-8.1-9.3-12.2-14C222.2,66.4,226.1,71.2,229.7,76.3z"/>
	<path d="M127.3,62.5c3.5-4.6,8-7.8,13.4-9.8c0.5-0.2,1.1-0.5,2-0.4c-2.2,0.9-4.2,1.7-6,2.8c-2.9,1.7-5.6,3.7-7.8,6.3
		c-0.4,0.5-0.7,1.1-1.4,1.2C127.4,62.5,127.4,62.5,127.3,62.5z"/>
	<path d="M221.7,104c-0.6-2.8-0.1-5.4,1-8c0.1-0.2,0.3-0.5,0.3-0.3c0.1,1,0.7,0.1,1.1,0.3C223.1,98.7,222.7,101.4,221.7,104z"/>
	<path d="M174.9,169.1c-1.8,0.5-3.2,0-4.4-1c-0.5-0.4-0.5-0.9,0.1-1.2c0.2-0.1,0.5-0.1,0.4-0.5c-0.1-0.5,0.3-0.6,0.7-0.4
		c0.6,0.2,1.3,0.4,1.9,0.7c0.8,0.5-0.1,0.4-0.2,0.5c0.8,0.1,0.3,1.2,1,1.4C174.4,168.7,174.6,168.9,174.9,169.1z"/>
	<path d="M142.3,58.9c-3.8,3.7-7.5,7.5-11.2,11.2C134.2,65.8,138,62.1,142.3,58.9z"/>
	<path d="M184.9,168.3c-0.3-0.1-0.7-0.3-1.1-0.5c0.2-0.3,0.3-0.6,0.6-0.9c1.4-1.6,1.6-1.6,3.6-0.6c0.3,0.2,0.6,0.2,0.8-0.2
		c0.2-0.4,0.6-0.1,0.8,0.1c0.3,0.4-0.1,0.6-0.3,0.7C187.9,167.4,186.5,167.8,184.9,168.3z"/>
	<path d="M191.9,166.4c2.9-4.1,2.8-5.9-0.6-9.3c1.8,0.4,3.8,2.8,3.6,4.7C194.6,163.7,193.3,166.1,191.9,166.4z"/>
	<path d="M127.4,62.6c0.2,0.8-0.6,1.1-0.9,1.5c-2.1,3.1-4,6.3-6,9.6c-0.1,0.2-0.2,0.3-0.5,0.3c1.8-4.3,4.1-8.1,7.2-11.5
		C127.4,62.5,127.4,62.5,127.4,62.6z"/>
	<path d="M176.6,57.1c4.3-1.7,8.5-3.6,12.8-5.1c0,0.1,0.1,0.2,0.1,0.3c-4.8,2-9.6,3.9-14.6,5.9c0.3-0.7,1-0.5,1-1.1
		C176.2,57.1,176.4,57.2,176.6,57.1z"/>
	<path d="M143.2,173.1c-1.3-0.5-2.5-1.4-3.4-2.5c-0.9-1.1-1.9-2-3-2.9c-0.2-0.2-0.5-0.3-0.6-0.5c-0.2-0.2-0.4-0.5-0.2-0.7
		c0.2-0.3,0.5,0,0.7,0.2c1.1,0.9,2.2,1.8,3.2,2.9C140.8,170.8,142.2,171.7,143.2,173.1z"/>
	<path d="M185.4,143.4c1.3,2.2,2.5,4.4,4.1,6.3c-0.2,0.3-0.5,0.3-0.7,0.1c-0.4-0.3-0.6-1-1.3-0.4c-0.2,0.2-0.5-0.1-0.6-0.5
		c-0.1-0.8-1.1-1.3-0.5-2.3c0.2-0.3-0.5-1-0.8-1.5C185.5,144.5,185.1,144.2,185.4,143.4z"/>
	<path d="M174,227.7c-3.9-1.7-7.7-3.4-11.6-5.2c0.1-0.2,0.2-0.3,0.2-0.5c3.9,1.6,7.6,3.7,11.5,5.4
		C174.1,227.5,174.1,227.6,174,227.7z"/>
	<path d="M176.6,57.1c-0.2,0.1-0.4,0.1-0.6,0c1-1.5,2.4-2.3,3.8-3.3c2.1-1.5,4.5-2.5,7-3.1c-2.3,1-4.6,2.1-6.6,3.5
		C178.9,55,177.4,55.7,176.6,57.1z"/>
	<path d="M166.5,160.3c-1,1.7-1,3.4-0.2,5.1c0.2,0.4,0.3,1,0.1,1.2c-0.5,0.4-0.8-0.2-1-0.5c-0.6-0.7-1.3-1.3-0.4-2.3
		c0.2-0.2,0.1-0.7,0.1-1C165.1,161.6,165.5,160.8,166.5,160.3z"/>
	<path d="M248.4,92.8c-0.4-3.6-0.8-7-1.5-10.4C248.2,84.6,249.3,92,248.4,92.8z"/>
	<path d="M235.8,86.5c1.3,1.3,1.7,3,2.3,4.6c0.4,1,0.6,2,1,3c0.1,0.3,0.3,0.5-0.1,0.7c-0.5,0.2-0.5-0.3-0.6-0.5
		C237.7,91.6,236.7,89.1,235.8,86.5z"/>
	<path d="M237.3,61.2c-1.7-2.1-4.3-3.5-5.4-6.2C234.1,56.7,235.8,58.8,237.3,61.2z"/>
	<path d="M202,229c0.9-2.1,2.3-3.9,3.6-5.8c0.3-0.5,0.6-1.5,1.2-1.2c0.5,0.3-0.4,1-0.7,1.5C204.9,225.5,203.6,227.4,202,229z"/>
	<path d="M218.7,88.1c-0.6-1-0.3-1.9,0-2.8c0.5-1.5,1-3.1,1.5-4.6c0.1-0.3,0.1-0.8,0.5-0.7c0.5,0.1,0.1,0.5,0,0.8
		C220.1,83.3,219.4,85.7,218.7,88.1z"/>
	<path d="M144.5,211.3c2.6,1.8,5.2,3.7,7.7,5.5c-0.1,0.1-0.1,0.2-0.2,0.3c-2.9-1.5-5.3-3.5-7.8-5.5
		C144.3,211.4,144.4,211.3,144.5,211.3z"/>
	<path d="M219.5,100.6c0.2-2.9,1.2-5.7,2.3-8.4C221.5,95.1,220.4,97.8,219.5,100.6z"/>
	<path d="M143.3,175.3c-2.5-1.7-4.7-3.7-6.8-5.9c0.1-0.1,0.1-0.1,0.2-0.2c2.3,2,4.5,3.9,6.8,5.9
		C143.5,175.2,143.4,175.2,143.3,175.3z"/>
	<path d="M151.5,107c-1.2-2.7-1.9-5.5-1.8-8.4C150.1,101.4,150.9,104.2,151.5,107z"/>
	<path d="M152.6,215.2c-1.9-1.6-3.7-3.5-5.7-5.1C149.2,211.3,151.2,212.9,152.6,215.2z"/>
	<path d="M177.7,227c-3.3-1.2-6.4-2.8-9.2-4.9C171.7,223.7,174.7,225.5,177.7,227z"/>
	<path d="M177.3,51.3c2.4-1.6,5-2.9,7.7-4.4C184,48.2,179.3,50.8,177.3,51.3z"/>
	<path d="M187.7,224.6c-3.6-0.8-7-1.9-10.3-3.5C180.8,222.2,184.2,223.4,187.7,224.6z"/>
	<path d="M119.6,156.1c-0.9-1.8-2.1-3.4-2-5.8C118.5,151.5,119.9,155.3,119.6,156.1z"/>
	<path d="M231.1,138c-0.3-1.8,1.1-5.8,2.4-6.6C232.7,133.6,231.9,135.7,231.1,138z"/>
	<path d="M159.2,94.7c-0.9-2.4-1.2-4.8-1.3-7.3c0.1,0,0.2,0,0.3-0.1c0.4,2.4,0.8,4.9,1.3,7.3C159.4,94.6,159.3,94.7,159.2,94.7z"/>
	<path d="M134.9,245.7c-2.4-1.1-4.8-2-7.1-3.3c0.1-0.2,0.1-0.3,0.2-0.5c2.3,1.2,4.7,2.3,7,3.5C135,245.5,134.9,245.6,134.9,245.7z"
		/>
	<path d="M204.1,268.4c3.6-1,7.1-2,10.9-3.1C213.7,266.2,205.6,268.4,204.1,268.4z"/>
	<path d="M144.9,231.6c-2-0.9-3.6-2.5-5.6-3.5c0.8-0.3,0.9-0.4,1.3-0.1c1.5,1.1,3,2.2,4.5,3.3C145,231.4,144.9,231.5,144.9,231.6z"
		/>
	<path d="M153.3,213.3c-2.5-1.5-4.4-3.6-6.2-5.7C149.4,209.2,151.1,211.5,153.3,213.3z"/>
	<path d="M231.4,122.9c-0.9,1.9-1.7,3.9-2.6,5.9C228.3,127.4,229.3,125.2,231.4,122.9z"/>
	<path d="M140.6,175.2c1.7,1.1,3.5,2.3,5.3,3.5C144.6,179,142.4,177.6,140.6,175.2z"/>
	<path d="M185.8,135.2c1.2,1.9,2.4,3.9,3.6,6C188.3,140.7,185.8,136.7,185.8,135.2z"/>
	<path d="M153.2,93.7c0.5,1.8,0.9,3.6,1.4,5.4c0.1,0.2,0.1,0.5-0.2,0.6c-0.2,0-0.3,0-0.4-0.1c-0.4-1.9-1-3.8-1.2-5.7
		C153,93.8,153.1,93.7,153.2,93.7z"/>
	<path d="M211.6,217.8c-2.4-1.5-4.9-2.9-7.3-4.4c2.7,1,5.1,2.5,7.5,4.2C211.7,217.7,211.6,217.8,211.6,217.8z"/>
	<path d="M203.3,182.6c-1.2,0.4-1.9,0.2-2.5-0.7c-0.3-0.4-0.3-0.9,0-1.2c0.3-0.3,0.6,0.1,0.9,0.2C202.5,181.2,202.7,182,203.3,182.6
		z"/>
	<path d="M213.4,215.7c-2.5-1-4.7-2.4-6.7-4.1C209.1,212.8,211.1,214.5,213.4,215.7z"/>
	<path d="M187.4,221.4c0.9-0.1,1.6,0.5,2.3,0.8c2.1,0.9,4.1,1.9,6.1,2.9C193,223.9,190,223,187.4,221.4L187.4,221.4z"/>
	<path d="M228,124.7c-0.6-0.1-0.5-0.5-0.5-0.9c0.3-1.7,0.9-3.2,1.7-4.7c-0.1,1.7-0.8,3.2-1.1,4.8C228.2,124.1,228.1,124.4,228,124.7
		z"/>
	<path d="M219.8,77.5c-0.4,2-0.9,4-1.8,5.9c-0.1,0-0.2-0.1-0.3-0.1c0.6-2,1.2-3.9,1.8-5.9C219.5,77.4,219.6,77.5,219.8,77.5z"/>
	<path d="M150.5,111.9c-1.1-0.5-2.2-3.1-1.9-4.8C149.2,108.7,149.8,110.2,150.5,111.9z"/>
	<path d="M189.3,137.6c-1.4-0.8-2.6-2.5-2.8-4C187.8,134.9,188.6,136.2,189.3,137.6z"/>
	<path d="M139.1,230.3c0.8,0.6,1.5,1.3,2.3,1.9c0.5,0.4,0.9,0.8,1.6,0.8c0.2,0,0.4-0.1,0.5,0.2c0.1,0.3-0.2,0.4-0.5,0.4
		c-0.3,0.1-0.6,0-0.9-0.2C140.9,232.6,139.7,231.7,139.1,230.3z"/>
	<path d="M228,124.7c0.1-0.3,0.2-0.5,0.1-0.8c0.9-0.7,0.8-1.9,1.4-2.7c0.1-0.2,0.1-0.7,0.5-0.5c0.3,0.1,0.2,0.4,0,0.7
		c-0.2,0.2-0.2,0.6-0.3,0.8c-0.4,1.1-0.9,2.2-1.4,3.4C227.8,125.4,228.1,125,228,124.7z"/>
	<path d="M146.7,216.3c1.8,1.2,3.5,2.4,5.3,3.7C151.2,220.3,148.8,218.7,146.7,216.3z"/>
	<path d="M157.3,96.9c-1.3-1.7-1.6-3.7-1.7-5.8C156.2,93.1,156.7,95,157.3,96.9z"/>
	<path d="M172.6,132.3c-1.4-1-2.8-2-3.9-3.4C170.2,129.8,171.7,130.7,172.6,132.3z"/>
	<path d="M144.6,180.7c-2-1.1-3.7-2.4-5.4-3.9C141.3,177.8,143,179.2,144.6,180.7z"/>
	<path d="M210.8,66.1c-0.1,1.6-1,2.7-1.4,4c-0.1,0.3-0.2,0.4-0.4,0.3c-0.3-0.1-0.2-0.3-0.1-0.5C209.2,68.6,209.6,67.3,210.8,66.1z"
		/>
	<path d="M168.1,77.9c0.6-0.1,0.7,0.3,0.8,0.8c0.2,1.2,0.4,2.3,0.2,3.5C168.4,80.9,168.5,79.3,168.1,77.9
		C168.2,77.9,168.1,77.9,168.1,77.9z"/>
	<path d="M184.7,146.1c0.2,1.5,0.3,2.9,0.6,4.4c0,0.2,0,0.5-0.3,0.6c-0.4,0-0.3-0.3-0.3-0.5C184.3,149,184.6,147.6,184.7,146.1z"/>
	<path d="M160.9,87c0.7,1.3,0.8,2.6,1,4c0.1,0.3-0.2,0.5-0.5,0.6c-0.2,0-0.3,0-0.3-0.2C161,89.9,160.9,88.5,160.9,87z"/>
	<path d="M177.5,201.3c2.4,0.2,4.6,1,6.8,2.1C182,202.7,179.8,202,177.5,201.3z"/>
	<path d="M201.3,121.3c0.9-0.1,1.8,0.6,2.8,0.2c-1.5,0.6-3,1.1-4.6,1.7c0.6-1,0.9-1.2,2.5-1.6C201.9,121.4,201.4,121.7,201.3,121.3
		L201.3,121.3z"/>
	<path d="M193,160.2c1,1.7,0.5,3.4-1,4.4C192.6,163.2,192.8,161.9,193,160.2z"/>
	<path d="M212.6,212.1c-1.7,0.1-2.9-0.8-3.8-2.2C210.1,210.6,211.4,211.4,212.6,212.1z"/>
	<path d="M216.3,79c-0.3-1.6,0.1-3.1,0.5-4.7c0-0.2,0.2-0.4,0.4-0.3c0.2,0.1,0.2,0.3,0.1,0.4C217,76,216.6,77.5,216.3,79z"/>
	<path d="M188.4,71.6c0.7,0,0.4,0.6,0.5,0.9c0.3,0.9,0.5,1.8,0.8,2.6c0.1,0.3,0.3,0.6-0.1,0.8c-0.4,0.1-0.6-0.3-0.6-0.6
		C188.7,74.1,188.2,72.9,188.4,71.6C188.4,71.6,188.4,71.6,188.4,71.6z"/>
	<path d="M186.2,140.7c0.8,0.8,1.3,1.8,1.7,2.8c0.1,0.2,0.3,0.4,0,0.6c-0.3,0.2-0.5,0-0.7-0.3C186.8,142.8,186.3,141.8,186.2,140.7z
		"/>
	<path d="M138.6,138.3c-0.2-1.6-0.4-3.1-0.6-4.7C139,135,139,136.6,138.6,138.3z"/>
	<path d="M180.1,164.9c-3,0.4-4.8-0.6-4.6-2.8C176.3,164.7,178.3,164.6,180.1,164.9z"/>
	<path d="M225.2,260.6c0.4-0.3,0.9-0.6,1.4-1.1c-1.2-0.5-2.3-1-3.3-1.5c1.5,0.3,2.9,0.8,4.2,1.8
		C226.5,259.5,226.2,261.1,225.2,260.6L225.2,260.6z"/>
	<path d="M186.3,129.6c1.1,0.9,1.7,2.1,2.4,3.3c0,0.1,0,0.2-0.1,0.3c-0.1,0.2-0.3,0.1-0.4-0.1C187.5,132,186.7,130.9,186.3,129.6z"
		/>
	<path d="M138.7,241.6c-1.7-0.7-3.3-1.5-5-2.2c1.9,0.3,3.5,1.1,5.2,1.9C138.8,241.3,138.8,241.5,138.7,241.6z"/>
	<path d="M181.7,204c-1.3,0.1-4.3-0.8-5.8-1.7C177.9,202.6,179.7,203.6,181.7,204z"/>
	<path d="M168.9,220.1c1.8,0.8,3.7,1.7,5.5,2.5c-2-0.5-3.9-1.3-5.7-2.3C168.8,220.2,168.8,220.2,168.9,220.1z"/>
	<path d="M188.4,181.6c-0.9-0.6-2.1-0.5-2.9-1.3c2.2,0.7,4.5,1.1,6.9,1.2C191.1,181.6,189.7,181.6,188.4,181.6
		C188.4,181.6,188.4,181.6,188.4,181.6z"/>
	<path d="M134.4,237.4c1.8,0.3,3.5,0.8,5,2.1C137.8,238.8,136.1,238.1,134.4,237.4z"/>
	<path d="M140.4,229.8c0.9,0.7,1.8,1.5,2.8,2.1c0.2,0.1,0.3,0.4,0.1,0.6c-0.1,0.1-0.3,0.1-0.4,0C142,231.7,140.9,231.1,140.4,229.8z
		"/>
	<path d="M174.3,142.6c-1.4-0.6-2.4-1.6-3.3-2.8C172.4,140.4,173.4,141.5,174.3,142.6z"/>
	<path d="M179.9,200.3c1.6,0.3,3.1,1,4.6,1.8C182.8,201.9,181.3,201.3,179.9,200.3z"/>
	<path d="M227.5,91.8c0.4-0.2,0.4,0.1,0.5,0.4c0.4,1.4,0.9,2.7,1.2,4.1C228.5,94.8,227.8,93.4,227.5,91.8L227.5,91.8z"/>
	<path d="M150,116.7c0.8,1.1,1.2,2.4,1.6,3.8c-0.1,0-0.2,0.1-0.3,0.1c-0.6-1.2-1.1-2.5-1.7-3.7C149.8,116.8,149.9,116.8,150,116.7z"
		/>
	<path d="M205.1,229.6c-0.4,1.2-1.7,2.3-3.5,3.1C202.8,231.7,203.9,230.6,205.1,229.6z"/>
	<path d="M172.6,135.7c-1.3-0.9-2-1.9-2.8-2.9C170.7,132.9,172,134.2,172.6,135.7z"/>
	<path d="M170.9,135.3c0.7-0.1,0.8,0.4,1,0.7c0.5,0.7,1.1,1.2,1.6,1.8c0.1,0.1,0.5,0.3,0.2,0.6c-0.3,0.3-0.6,0-0.8-0.2
		C172.3,137.3,171.6,136.3,170.9,135.3z"/>
	<path d="M212.2,68.2c0.5,1.1,0.1,3.5-0.8,4.2C211.5,70.9,212.2,69.6,212.2,68.2z"/>
	<path d="M173.3,147.4c-1.2-0.5-2-1.4-2.8-2.4C171.7,145.1,172.4,145.8,173.3,147.4z"/>
	<path d="M137.1,243.9c-1.7-0.5-3.2-1.3-4.8-2c0-0.1,0.1-0.2,0.1-0.3c1.6,0.7,3.2,1.3,4.8,2C137.2,243.7,137.1,243.8,137.1,243.9z"
		/>
	<path d="M147.5,222.5c-1.7-0.5-3.3-1.2-4.8-2.1C144.5,220.7,145.9,221.6,147.5,222.5z"/>
	<path d="M211.8,133.4c0.8-0.4,1.5,0.2,2.1,0.4c0.8,0.3,1.6,0.7,2.3,1.4C214.6,134.9,213.3,133.8,211.8,133.4L211.8,133.4z"/>
	<path d="M182.4,204.9c-2.2-0.1-4.5-0.4-6.6-1.3C178,204.1,180.2,204.5,182.4,204.9z"/>
	<path d="M222.4,259.8c-1.4-0.4-2.5-1.2-3.7-2C220.2,258.1,221.4,258.7,222.4,259.8L222.4,259.8z"/>
	<path d="M145.9,182.6c-1.4-0.6-2.6-1.5-3.7-2.6C143.6,180.5,144.7,181.6,145.9,182.6z"/>
	<path d="M146.7,224.9c-1.6-0.1-2.7-1.4-4.1-1.9C144.1,223.3,145.5,224,146.7,224.9z"/>
	<path d="M231.1,126.2c0.5-1.3,0.9-2.4,1.3-3.5C232.9,123.4,232.3,125.3,231.1,126.2z"/>
	<path d="M215.7,73.6c-0.3,1.2-0.6,2.3-0.9,3.7C214.4,75.9,214.6,74.9,215.7,73.6z"/>
	<path d="M198.2,65.6c0.6,0.5,1.2,2.6,0.9,3.4c-0.1,0.2-0.2,0.3-0.3,0.2c-0.1,0-0.2-0.2-0.2-0.2C198.8,67.8,198.3,66.8,198.2,65.6
		L198.2,65.6z"/>
	<path d="M152.8,103.4c-0.4-1.3-0.7-2.5-0.6-3.9C152.7,100.8,153.1,102.1,152.8,103.4z"/>
	<path d="M217,79.5c0.7,0.9,0.1,1.6,0,2.3c-0.1,0.5,0.3,1.6-0.6,1.5c-0.4,0,0.2-1,0.3-1.5C216.7,81,216.9,80.3,217,79.5z"/>
	<path d="M138.2,144.7c-0.5-1.2-0.7-2.4-0.5-3.6C138,142.3,138.4,143.5,138.2,144.7z"/>
	<path d="M173.7,140.6c-1.4-0.2-1.8-1.4-2.4-2.4C172.3,138.8,172.7,140,173.7,140.6z"/>
	<path d="M182.2,188.8c0.5,0.7-0.2,1.3-0.1,1.9c0,0.2-0.3,0.3-0.4,0.3c-0.4,0.1-0.4-0.2-0.4-0.4c0-0.3-0.4-0.8,0.1-0.9
		C181.9,189.6,181.8,189.1,182.2,188.8z"/>
	<path d="M180.6,171.5c-1.7,0-3.3-0.2-4.9-1C177.4,170.9,179,171.2,180.6,171.5z"/>
	<path d="M228,166.9c-1-0.5-1.8-1.1-2.6-2.1C226.8,165.1,227.4,166.1,228,166.9z"/>
	<path d="M145.6,119.1c-0.6-1-0.9-2.1-1-3.3C145.2,116.8,145.7,117.8,145.6,119.1z"/>
	<path d="M211.7,64.7c1.4,0.2,2.4,1.3,3.6,2.1C213.9,66.2,212.7,65.6,211.7,64.7L211.7,64.7z"/>
	<path d="M201.4,121.3c-1.8,0-3.4-0.6-5.2-0.7C197.9,120.7,199.7,120.6,201.4,121.3C201.3,121.3,201.4,121.3,201.4,121.3z"/>
	<path d="M221.7,115.8c-1.4,0.1-2.4-0.9-3.7-1.3C219.4,114.6,220.6,115.1,221.7,115.8z"/>
	<path d="M170.6,80.9c-0.3-0.9-0.6-1.9-0.4-3.1C170.9,78.9,170.9,79.9,170.6,80.9z"/>
	<path d="M220.7,87.5c0.5,1.3-0.6,2.2-0.7,3.3C220,89.6,220.1,88.5,220.7,87.5L220.7,87.5z"/>
	<path d="M173,149.5c-1.2-0.5-2.1-1.4-3-2.2C171.2,147.8,172.2,148.5,173,149.5z"/>
	<path d="M143,226.3c1.2,0.6,2.5,1.2,3.7,1.8c-1.4-0.3-2.6-0.8-3.8-1.6C142.9,226.5,142.9,226.4,143,226.3z"/>
	<path d="M212.8,73.9c0-0.9-0.2-1.9,1-2.6C213.6,72.3,213.3,73.1,212.8,73.9z"/>
	<path d="M148.4,101c0.7,0.9,0.9,2,0.8,3.1C148.7,103.2,148.4,102.1,148.4,101z"/>
	<path d="M171.1,152.4c0.5,0.8,1.3,1.1,2,1.7C171.8,154.1,171,153.5,171.1,152.4z"/>
	<path d="M229.5,163.5c-1.1-0.3-1.9-1.1-2.6-2C228,161.9,228.7,162.7,229.5,163.5z"/>
	<path d="M232,79.9c1.1,0.6,1.6,1.6,1.8,2.8C233.2,81.8,232.6,80.8,232,79.9z"/>
	<path d="M178.3,78.7c-0.1-0.9-0.6-1.7-0.3-2.7C178.4,76.8,178.7,77.7,178.3,78.7z"/>
	<path d="M230.6,101.2c-0.5-0.9-0.5-1.9-0.8-2.9C230.1,99.2,231.1,100,230.6,101.2C230.6,101.2,230.6,101.2,230.6,101.2z"/>
	<path d="M211.6,64.7c-1.2-0.4-2.2-1.1-3.2-1.8C209.5,63.4,210.8,63.7,211.6,64.7L211.6,64.7z"/>
	<path d="M203.9,61.6c1.1,0.7,1.2,1.6,1.5,2.8C204.4,63.6,204.3,62.7,203.9,61.6z"/>
	<path d="M165.2,82.4c0.5,1.2,0.7,2.1,0.3,3.1C165.4,84.5,164.9,83.6,165.2,82.4z"/>
	<path d="M180.9,74.6c0.3,0.9,0.8,1.8,0.5,2.8C181.1,76.5,180.5,75.6,180.9,74.6z"/>
	<path d="M140,236.2c-1.1-0.2-2.1-0.7-2.9-1.5C138.1,235.1,139.1,235.5,140,236.2z"/>
	<path d="M170.2,53.2c0.9-0.9,1.5-1.5,2.5-1.6C172.1,52.3,171.4,52.9,170.2,53.2z"/>
	<path d="M166.9,80.9c0.1,0.9,0.2,1.8,0.3,2.7C166.3,82.7,166.5,81.8,166.9,80.9z"/>
	<path d="M232.4,136.6c-0.2-1.1,0.3-1.8,0.6-2.5c0-0.1,0.1-0.2,0.2-0.2c0.2,0.1,0.3,0.3,0.2,0.5C233.1,135.1,233,135.8,232.4,136.6z
		"/>
	<path d="M172.1,143.2c1.1,0.6,1.6,1.3,2.5,2.1C173.3,145,172.7,144.4,172.1,143.2z"/>
	<path d="M187.4,45.2c-0.9,0.6-1.9,1-3,0.9c1-0.4,1.9-0.8,2.9-1.2C187.3,45,187.4,45.1,187.4,45.2z"/>
	<path d="M216.3,115.4c-1.2-0.2-2.2-0.7-3.2-1.2C214.3,114.3,215.3,114.9,216.3,115.4z"/>
	<path d="M196.6,117.9c1.1-0.5,1.9-1.4,3-1.9l0.1,0.1C198.8,116.9,198,117.9,196.6,117.9L196.6,117.9z"/>
	<path d="M207.4,118.6c-1.1-0.1-2.2-0.4-3.2-0.8C205.4,117.8,206.4,118.1,207.4,118.6z"/>
	<path d="M232.3,142.5c-0.5-0.9,0.1-1.3,0.5-1.7c0,0,0.3,0,0.3,0C233.2,141.5,232.8,141.9,232.3,142.5z"/>
	<path d="M179.5,177.5c0.9,0,1.6,0.4,2.4,0.9C181.2,178.6,180.4,178.2,179.5,177.5z"/>
	<path d="M226.5,112.8c1,1.1-0.3,1.7-0.5,2.5C225.7,114.4,226.5,113.7,226.5,112.8C226.6,112.8,226.5,112.8,226.5,112.8z"/>
	<path d="M220.8,87.5c-0.1-1,0.5-1.7,1-2.5C221.4,85.8,221.7,86.9,220.8,87.5L220.8,87.5z"/>
	<path d="M196.6,117.8c0,1.1-0.8,1.6-2,1.2C195.5,118.8,196.1,118.4,196.6,117.8C196.6,117.9,196.6,117.8,196.6,117.8z"/>
	<path d="M221.5,75.7c-0.8-0.6-1.1-1.5-1.7-2.3C220.5,74.1,221.5,74.6,221.5,75.7L221.5,75.7z"/>
	<path d="M203.2,120.8c-0.9-0.2-1.9-0.5-2.8-0.7C201.4,119.9,202.3,120.3,203.2,120.8z"/>
	<path d="M229.5,258.1c-1-0.5-2-1-2.9-1.5c1.2,0.1,2.1,0.7,3.1,1.2C229.6,257.9,229.5,258,229.5,258.1z"/>
	<path d="M222.9,254.6c1.1,0.3,2.1,0.8,3,1.5C224.9,255.8,223.9,255.3,222.9,254.6z"/>
	<path d="M173.2,76.3c0.8,0.7,0.9,1.5,0.3,2.4C173.5,77.8,173.4,77,173.2,76.3z"/>
	<path d="M259.9,231.7c-2.2-1.1-3.7-3.1-5.7-4.5c-1.1,2.2-1.4,4.4-0.5,6.7c0.8,2.1,1.4,4.3,1.9,6.5c0.2,0.9,0.7,1.5,1.4,2.3
		c-1.1-0.1-1.5-0.9-2-1.5c-2.3-2.5-3-5.6-2.9-8.8c0-0.9,0-1.8-0.3-2.6c-0.3-1-0.7-1.9-1-2.9c-0.1-0.2-0.5-0.5,0-0.7
		c0.5-0.2,0.5,0.3,0.6,0.5c0.4,0.8,0.7,1.7,1,2.8c0.4-0.9,0.7-1.7,1-2.4c0.2-0.6-0.3-0.8-0.6-1c-2.2-2.2-4.2-4.6-6.2-7
		c-0.5-0.5-0.8-1.2-0.6-2.1c0.8,1,1.6,2,2.5,3c1.5,1.8,3.1,3.7,4.7,5.4c0.2,0.2,0.5,1,1.2,0.4c0,0,0.2,0.1,0.2,0.2
		c0.1,1.7,1.8,2,2.7,3.1C258,230,259.2,230.6,259.9,231.7L259.9,231.7z"/>
	<path d="M246,249.9c-10.2-3.2-20.9-19-20.4-30.1c0.6,0.1,0.6,0.5,0.6,1c0.7,6.8,3.3,12.9,7.4,18.3c3.2,4.2,7.1,7.6,11.6,10.3
		C245.5,249.4,245.7,249.6,246,249.9z"/>
	<path d="M237.9,212.8c-0.4,0-0.4-0.5-0.8-0.5c-0.1,1.1,0.5,2,0.8,2.9c0.8,2.6,1.6,5.2,2.8,7.6c0.1,0.3,0.4,0.6,0,0.8
		c-0.5,0.3-0.5-0.3-0.6-0.5c-1.5-3.2-2.7-6.5-3.5-9.9c-0.7-3.1-1.4-6.2-1.7-9.3c-0.1-1.5-0.1-2.9-0.2-4.4c0-0.3-0.1-0.8,0.4-0.8
		c0.6,0,0.3,0.5,0.3,0.8c0,3.2,0.3,6.4,1.2,9.5c0.3,0.9,0.7,1.8,1,2.8C237.7,212.1,238,212.4,237.9,212.8z"/>
	<path d="M240.4,184.2c0.5-0.2,0.5,0.3,0.6,0.5c1.4,3,3.5,5.4,5.6,7.9c1.3,1.6,2.5,3.3,3.9,4.7c2.1,2,4.4,3.9,7,5.4
		c0.5,0.3,0.9,0.6,1.3,0.9c-2.2-0.8-4.2-2.1-6.1-3.5c-5.2-4.1-9.4-9-12.1-15.1C240.5,184.7,240.4,184.5,240.4,184.2L240.4,184.2z"/>
	<path d="M264.3,150.5c2.5,0.6,4.7,1.8,6.8,3.3c2.1,1.5,4.2,2.9,6.2,4.6c2.1,1.7,3.1,4.1,3.4,6.8c0.1,1,0,2.1-0.4,3.1
		c-0.1-0.9-0.3-1.8-0.3-2.7c0-1.8-0.7-3.2-1.8-4.5c-3.4-4.1-7.5-7.4-12.4-9.7C265.3,151.1,264.8,150.8,264.3,150.5z"/>
	<path d="M278.1,175.9c-0.7-6.3-3.2-11.5-9.1-14.5c3.8,1.2,6.5,3.6,8.2,7.2C278.7,171.6,279,175,278.1,175.9z"/>
	<path d="M240.7,226.4c-0.6-0.3-0.9-1-1.2-1.5c-3.5-4.9-5.3-10.4-6.4-16.2c-0.1-0.3-0.3-0.8,0.2-0.9c0.4-0.1,0.4,0.4,0.5,0.7
		c1,6.2,3.5,11.8,6.8,17.1C240.6,225.8,241,226,240.7,226.4z"/>
	<path d="M279.5,105.5c-1.8-0.2-3.6-0.7-5.3-1.1c-1-0.2-2-0.4-3.2-0.6c1.8,1.4,3.7,2.2,5,3.7c-2.2-1.4-4.4-2.8-6.8-3.9
		c-1.6-0.7-3.4-0.8-5.1-1.2c-0.3-0.1-0.8,0-0.7-0.4c0.1-0.5,0.5-0.2,0.8-0.1c0.9,0.2,1.7,0.3,2.6,0.5c-0.2-0.7-1.1-0.6-1.3-1.6
		c2.1,1.8,4.4,2.3,6.7,2.8c2,0.5,4.1,1,6.1,1.4C278.7,105.1,279.2,105.2,279.5,105.5z"/>
	<path d="M222.8,226.8c1,3.8,2.2,7.5,4.1,10.9c1.1,2,2.3,3.9,3.8,5.7c0.2,0.2,0.3,0.4,0.4,0.6c0.2,0.2,0.2,0.5,0,0.6
		c-0.3,0.2-0.4-0.1-0.5-0.3c-3.8-4.7-6.5-9.9-7.7-15.9c-0.1-0.4-0.4-0.8-0.2-1.3C222.7,227,222.8,226.9,222.8,226.8z"/>
	<path d="M275.6,189.3c-5.1-1.2-11.8-6.7-11.9-9.8C266.9,183.7,270.8,187.1,275.6,189.3z"/>
	<path d="M283.8,141.2c-1.9-4.1-4.8-5.6-10.7-5.4c0.1-0.6,0.5-1,1.1-1c3.8-0.5,8.1,1.9,9.6,5.4C284,140.5,284.3,140.8,283.8,141.2z"
		/>
	<path d="M269.8,217.9c-1.7-2.2-4-3.6-6.3-4.9c-2-1.1-4-2.1-5.9-3.3c1.7,0.2,3.3,0.9,4.8,1.7c2.8,1.3,5.3,3.2,7.3,5.5
		C269.9,217.2,270.5,217.5,269.8,217.9C269.7,217.9,269.8,217.9,269.8,217.9z"/>
	<path d="M224.9,225.3c0.9,5.7,2.6,10.9,5.2,15.7C227.9,239.7,224,228.2,224.9,225.3z"/>
	<path d="M252.2,240.4c-1.9-4.8-3.1-9.8-3.4-15c0.9,5.1,2.3,10,4,14.8C252.6,240.3,252.4,240.3,252.2,240.4z"/>
	<path d="M230,218.1c0.8,2.1,1.5,4.1,2.3,6.2c0.6,1.5,1.3,3,1.9,4.5c0.1,0.2,0.6,0.5,0.1,0.8c-0.5,0.3-0.6-0.2-0.7-0.5
		c-0.5-1.1-1-2.2-1.4-3.3c-0.9-2.3-1.7-4.7-2.4-7.1c0-0.2,0-0.4,0-0.6C229.8,218.1,229.9,218.1,230,218.1z"/>
	<path d="M245.8,224.9c-2.7-2.8-4.7-6-6.4-9.4C241.7,218.4,244,221.5,245.8,224.9z"/>
	<path d="M220.5,199.5c0.9,0.2,1.2,0.7,1.5,1.1c1.2,1.4,2.4,2.9,3.6,4.3c0.1,0.1,0.1,0.3,0.2,0.4c0.2,0.3,0.4,0.7,0,0.9
		c-0.3,0.2-0.6-0.1-0.8-0.4C223.6,203.8,222.2,201.8,220.5,199.5z"/>
	<path d="M230.5,213.4c0.2,0,0.4-0.2,0.5,0.2c0.6,1.5,1.1,3,1.4,4.6c0.3,1.3,0.9,2.5,1.4,3.7c0.1,0.2,0.5,0.6,0,0.8
		c-0.5,0.2-0.5-0.3-0.6-0.6C232.3,219.2,231.4,216.3,230.5,213.4L230.5,213.4z"/>
	<path d="M272,76.9c1.3,2.5,2.5,5.1,1.8,8.1C273.2,82.3,273,79.6,272,76.9z"/>
	<path d="M246.4,47.1c1,1.5,1.8,3.1,2.9,4.3c0.1,0.1,0.2,0.3,0,0.4c-0.1,0.1-0.2,0-0.3,0C247.6,51.4,246,48.6,246.4,47.1z"/>
	<path d="M225.7,200.6c-1.1-0.7-2.1-1.2-2.6-2.3c-0.2-0.5-0.6-0.5-0.9-0.6c-0.3-0.2-0.5-0.5-0.4-0.8c0.2-0.4,0.5,0,0.7,0.1
		C223.8,197.7,225.2,199.2,225.7,200.6z"/>
	<path d="M224.2,209.7c-0.2-0.1-0.6-0.1-0.7-0.3c-1.1-1.5-2.5-2.8-3.8-4.4c0.8,0.1,1.2,0.5,1.6,0.9c0.9,0.8,1.7,1.7,2.6,2.5
		C224.2,208.9,224.5,209.2,224.2,209.7L224.2,209.7z"/>
	<path d="M268.4,139c2-1.7,6.7-1.9,9.6-0.3C274.8,137.8,271.6,137.8,268.4,139z"/>
	<path d="M262.7,65.2c-2.2-1.5-4.5-2.6-6.7-4.1C258.6,61.9,260.7,63.5,262.7,65.2z"/>
	<path d="M220.9,203.6c1.8,0.7,2.4,2.3,3.3,3.8C222.6,206.5,221.8,205,220.9,203.6z"/>
	<path d="M234,215.1c-1.1-1.4-1.8-3-2.3-4.7C232.8,211.8,233.8,213.3,234,215.1z"/>
	<path d="M280.8,140.3c1.1,0.5,1.9,1.5,2.6,2.5c0.1,0.2,0.2,0.4,0,0.5c-0.3,0.2-0.5,0.1-0.7-0.2C282.2,142,281.4,141.2,280.8,140.3z
		"/>
	<path d="M230.5,213.4c-0.3-1.5-1-2.9-1.1-4.4c0.1,0,0.2-0.1,0.3-0.1c0.4,1.2,0.7,2.4,1.1,3.6C230.9,212.9,230.6,213.1,230.5,213.4
		L230.5,213.4z"/>
	<path d="M234.6,226.3c0,0.1-0.1,0.2-0.2,0.2c-0.1,0-0.2,0-0.3-0.1c-0.5-0.7-1.1-1.3-1.4-2.2c0-0.1,0-0.4,0.1-0.4
		c0.1-0.1,0.4,0,0.4,0.1C233.8,224.7,234.2,225.5,234.6,226.3z"/>
	<path d="M259,208.6c1,0.3,1.5,1.1,2.6,1.1C260.4,210.3,259.9,210.1,259,208.6z"/>
	<path d="M224.6,193.8c-0.8-0.5-1.2-1.2-1.7-1.9C223.6,192.4,224.6,192.6,224.6,193.8L224.6,193.8z"/>
	<path d="M118.7,209.1c3.2,4,7.1,7,12.4,8.5c-1.5-1.4-3.3-2-4.6-3.1c-1.6-1.3-2.8-2.9-3.8-4.7c-0.1-0.2-0.3-0.5,0-0.7
		c0.3-0.2,0.4,0.2,0.5,0.3c2.2,2.6,4.8,4.8,7.7,6.7c-0.5-1.1-1-2.2-1.5-3.3c-0.5-1.2-0.8-2.4-1-3.8c1.7,1,3,2.4,4.5,3.6
		c-1.3-0.4-2.3-1.3-3.4-2.2c0.7,2.1,1.5,4.2,2.8,6c0.5,0.7,1.3,0.4,2.1,0.7c-0.5,0.1-0.9,0.1-1.3,0.1c1,1.5,2.5,2.2,4.1,3.1
		c-1.2,0.4-2,0.1-2.7-0.4c-1.6-1.3-3.3-1.8-5.3-2c-1.9-0.2-3.5-1.2-5-2.4c-2-1.7-3.9-3.6-5.5-5.7
		C118.7,209.7,118.3,209.6,118.7,209.1z"/>
	<path d="M104.3,231.9c2.9,0.5,5.8,1.1,8.7,1.6c3.4,0.6,6.2-0.5,8.9-2.3c0.6-0.4,1.2-0.9,1.8-1.3c-1.3,1.7-3.3,2.7-5,4
		c3.8-0.1,6.9-1.9,10.1-4.1c0.2,1.2-0.6,1.5-1.1,1.8c-3.1,2.2-6.6,3-10.3,3c-1.3,0-2.6,0.4-3.9,0.4c-4.4,0-8.5-1-12.2-3.4
		c-2.3-1.5-4.7-2.6-6.7-4.6c-0.4-0.4-1.2-0.8-0.7-1.3c0.6-0.5,0.8,0.5,1.2,0.8c0.5,0.4,0.8,1,1.6,1.3c-0.6-1.1-1.5-1.9-1.8-3
		c0.4-0.2,0.5,0.2,0.6,0.4c1.4,2.2,3.4,3.9,5.4,5.6c0.6,0.6,1.6,0.6,2.3,0.8C103.4,231.6,103.9,231.6,104.3,231.9
		c-0.1,0.1-0.3,0.1-0.7,0.2c2.7,1.5,5.5,1.9,8.4,2c-0.9-0.3-1.7-0.4-2.6-0.7C107.7,232.9,105.9,232.8,104.3,231.9z"/>
	<path d="M128.5,201.8c-3.2,0.4-6.4,1.2-9.5,1.9c1.8-0.6,3.6-1.2,5.4-1.8c2.6-0.9,5.1-1.9,7.7-2.7c2.1-0.7,2.9-2.3,3.6-4.2
		c0.5,0.9,0.8,0.5,1.1-0.1c0.1-0.2,0.3-0.7,0.6-0.5c0.5,0.3-0.1,0.6-0.2,0.9c-3.5,5.1-8.2,8.7-14.1,10.6c-0.7,0.2-1.5,0.4-1.1,1.4
		c0,0.1-0.2,0.3-0.4,0.8c-0.1-2.3-1.5-1.4-2.4-1.3c-2.3,0.4-4.5,0.8-6.9,0.8c1.8-0.4,3.7-0.8,5.5-1.3c1.9-0.5,3.7-1.1,5.5-1.9
		C125.1,203.7,126.9,202.9,128.5,201.8z"/>
	<path d="M92.4,210.5c3.6-5.5,14.8-14.9,18.7-16.7C104.7,199.1,98.5,204.7,92.4,210.5z"/>
	<path d="M103.9,222.8c2.4,3.2,5.3,5.8,9.3,6.3c3.8,0.5,7.8,1,10.8-2.5c-0.5,1.4-1.4,2.3-2.7,2.6c-4.9,1.2-9.6,1.2-13.9-2
		C106,226.1,104.7,224.7,103.9,222.8z"/>
	<path d="M127.3,219.7c-0.4,0.8-1.1,1.1-1.7,1.2c-5.6,0.8-10.8,0-15.6-3.1c0,0,0-0.1-0.2-0.4C115.5,220.3,121.2,221.2,127.3,219.7z"
		/>
	<path d="M129.4,206.1c3,1.9,5.5,4.4,8.7,6.1C135.3,211.9,131.2,209,129.4,206.1z"/>
	<path d="M99,197.9c3.2-3,6.5-5.8,10.1-8.3C106.2,192.9,102.6,195.4,99,197.9z"/>
	<path d="M128.3,179.4c-0.1,4.5-1.6,8.3-5.2,11.2C125.8,187.3,127.5,183.6,128.3,179.4z"/>
	<path d="M124.6,177.4c-0.9,4.2-3.1,7.7-6.4,10.4c1.3-1.6,2.5-3.2,3.5-5C122.7,181.1,123.6,179.2,124.6,177.4z"/>
	<path d="M90.8,212.8c-1.4,3.4-3.7,6.5-4.5,10.4c-0.4-0.8-0.3-1.3-0.1-1.8c0.7-1.9,1.4-3.7,2.5-5.4
		C89.3,214.9,89.6,213.6,90.8,212.8z"/>
	<path d="M137.5,222.3c-0.3,2.7-4.2,6.6-6.6,6.3c1.4-0.8,2.7-1.6,3.8-2.6C135.8,224.9,136.6,223.6,137.5,222.3z"/>
	<path d="M131.7,184.5c0.6,2.4-0.4,5.3-2,6.2C130.6,188.6,131.3,186.6,131.7,184.5z"/>
	<path d="M133.4,186.5c0.2,1.4-1.5,5.1-2.8,6.5C131.3,190.7,132.3,188.5,133.4,186.5z"/>
	<path d="M140.3,207.6c-1.4,0.3-2.6,0.1-3.5-1.1c-0.8-1.1-2.1-1.7-3.4-2.5c0.8-0.1,1.3,0,1.8,0.4c0.9,0.9,2,1.4,2.8,2.4
		C138.5,207.5,139.6,207.2,140.3,207.6z"/>
	<path d="M75,170.4c4.5,4.1,9.7,6.9,16.1,7.6C86.5,178.5,78.9,175.2,75,170.4z"/>
	<path d="M93.3,170.4c0.9-0.6,1.8-1.2,2.7-1.8C95.5,169.7,94.4,170.2,93.3,170.4z"/>
	<path d="M95.3,148.7c-0.2,1.3-1.3,1.7-2.3,2.1C93.7,150.1,94.5,149.4,95.3,148.7L95.3,148.7z"/>
	<path d="M154.8,25c1.1-0.7,2.4-0.9,3.8-1.1c4.6-0.6,9.1-1.7,13.7-2.1c2.8-0.2,5.5-0.3,8.2,0.6c0.3,0.1,0.5,0.2,0.8,0.5
		C172.3,22.4,163.6,24.5,154.8,25z"/>
	<path d="M220.6,46.7c0.8,0.6,1.6,1.2,2.3,1.9c0.2,0.2,0,0.4-0.3,0.4c-0.4,0.1-2.4-1.3-2.5-1.7C220,46.9,220.1,46.7,220.6,46.7z"/>
	<path d="M104.5,77.6c0.3-0.6,0.3-1.3,0.8-1.2c0.6,0.1,0.9,0.8,1.1,1.4c0,0.1-0.1,0.3-0.2,0.4c-0.2,0.1-0.3,0-0.4-0.1
		C105.6,77.5,105.1,77.5,104.5,77.6z"/>
	<path d="M101.7,113.6c0.1-1.2,0.6-2,1.5-1.9c0.8,0,1.8,1.2,1.8,2.1c0,0.8-1.1,1.9-1.7,1.9C102.3,115.6,101.6,114.7,101.7,113.6z"/>
	<path d="M106,119.5c-0.8,1.3-1.5,2.6-2.3,3.9c0.2-1.6,1-2.9,2-4.1C105.8,119.4,105.9,119.4,106,119.5z"/>
	<path d="M106.3,122.7c-0.6,1.4-1,1.9-1.9,2.7C104.6,124.8,105.1,124,106.3,122.7z"/>
	<path d="M257.4,109.8c-0.9-0.1-1.3-0.7-1.3-1.4c0-1,0.9-1.2,1.6-1.2c0.6,0,1.2,0.5,1.1,1.3C258.8,109.3,258.3,109.8,257.4,109.8z"
		/>
	<path d="M255.7,112.7c0.4-0.9,0.9-1.8,1.6-2.5C257.4,111.3,256.9,111.9,255.7,112.7z"/>
	<path d="M152.4,134.1c-1.1,0.5-2.1,0.5-3.3,0C150.3,134.1,151.4,134.1,152.4,134.1z"/>
</g>
</svg>
